<?xml version="1.0" encoding="UTF-8" standalone="no"?>
<!DOCTYPE svg PUBLIC "-//W3C//DTD SVG 1.1//EN"
"http://www.w3.org/Graphics/SVG/1.1/DTD/svg11.dtd">
<svg viewBox="0 0 909 1286" version="1.1" xmlns="http://www.w3.org/2000/svg" xmlns:xlink="http://www.w3.org/1999/xlink">
<defs>
<style type="text/css"><![CDATA[
.g0_40{
}
.g1_40{
fill: #F1F1F1;
}
]]></style>
</defs>
<path fill-rule="evenodd" d="M65.1,66H823.4V64.5H65.1V66Z" class="g0_40"/>
<path fill-rule="evenodd" d="M65.1,137.8H140v-1.2H65.1v1.2Z" class="g0_40"/>
<path fill-rule="evenodd" d="M66.3,411H821.9V385.4H66.3V411Z" class="g1_40"/>
<path fill-rule="evenodd" d="M73.7,411H814.6V385.4H73.7V411Z" class="g1_40"/>
<path fill-rule="evenodd" d="M64.5,385.4H66v-1.5H64.5v1.5Z" class="g0_40"/>
<path fill-rule="evenodd" d="M64.5,385.4H66v-1.5H64.5v1.5Z" class="g0_40"/>
<path fill-rule="evenodd" d="M66,385.4H821.9v-1.5H66v1.5Z" class="g0_40"/>
<path fill-rule="evenodd" d="M821.9,385.4h1.5v-1.5h-1.5v1.5Z" class="g0_40"/>
<path fill-rule="evenodd" d="M821.9,385.4h1.5v-1.5h-1.5v1.5Z" class="g0_40"/>
<path fill-rule="evenodd" d="M64.5,411H66V385.4H64.5V411Z" class="g0_40"/>
<path fill-rule="evenodd" d="M821.9,411h1.5V385.4h-1.5V411Z" class="g0_40"/>
<path fill-rule="evenodd" d="M64.5,412.6H66V411H64.5v1.6Z" class="g0_40"/>
<path fill-rule="evenodd" d="M66,412.6H297.4V411H66v1.6Z" class="g0_40"/>
<path fill-rule="evenodd" d="M297.4,412.6h1.5V411h-1.5v1.6Z" class="g0_40"/>
<path fill-rule="evenodd" d="M298.9,412.6h523V411h-523v1.6Z" class="g0_40"/>
<path fill-rule="evenodd" d="M821.9,412.6h1.5V411h-1.5v1.6Z" class="g0_40"/>
<path fill-rule="evenodd" d="M64.5,457.8H66V412.6H64.5v45.2Z" class="g0_40"/>
<path fill-rule="evenodd" d="M297.4,457.8h1.5V412.6h-1.5v45.2Z" class="g0_40"/>
<path fill-rule="evenodd" d="M821.9,457.8h1.5V412.6h-1.5v45.2Z" class="g0_40"/>
<path fill-rule="evenodd" d="M64.5,459.4H66v-1.6H64.5v1.6Z" class="g0_40"/>
<path fill-rule="evenodd" d="M66,459.4H297.4v-1.6H66v1.6Z" class="g0_40"/>
<path fill-rule="evenodd" d="M297.4,459.4h1.5v-1.6h-1.5v1.6Z" class="g0_40"/>
<path fill-rule="evenodd" d="M298.9,459.4h523v-1.6h-523v1.6Z" class="g0_40"/>
<path fill-rule="evenodd" d="M821.9,459.4h1.5v-1.6h-1.5v1.6Z" class="g0_40"/>
<path fill-rule="evenodd" d="M64.5,504.6H66V459.4H64.5v45.2Z" class="g0_40"/>
<path fill-rule="evenodd" d="M297.4,504.6h1.5V459.4h-1.5v45.2Z" class="g0_40"/>
<path fill-rule="evenodd" d="M821.9,504.6h1.5V459.4h-1.5v45.2Z" class="g0_40"/>
<path fill-rule="evenodd" d="M64.5,506.1H66v-1.5H64.5v1.5Z" class="g0_40"/>
<path fill-rule="evenodd" d="M66,506.1H297.4v-1.5H66v1.5Z" class="g0_40"/>
<path fill-rule="evenodd" d="M297.4,506.1h1.5v-1.5h-1.5v1.5Z" class="g0_40"/>
<path fill-rule="evenodd" d="M298.9,506.1h523v-1.5h-523v1.5Z" class="g0_40"/>
<path fill-rule="evenodd" d="M821.9,506.1h1.5v-1.5h-1.5v1.5Z" class="g0_40"/>
<path fill-rule="evenodd" d="M64.5,531.5H66V506.1H64.5v25.4Z" class="g0_40"/>
<path fill-rule="evenodd" d="M297.4,531.5h1.5V506.1h-1.5v25.4Z" class="g0_40"/>
<path fill-rule="evenodd" d="M821.9,531.5h1.5V506.1h-1.5v25.4Z" class="g0_40"/>
<path fill-rule="evenodd" d="M64.5,533H66v-1.5H64.5V533Z" class="g0_40"/>
<path fill-rule="evenodd" d="M66,533H297.4v-1.5H66V533Z" class="g0_40"/>
<path fill-rule="evenodd" d="M297.4,533h1.5v-1.5h-1.5V533Z" class="g0_40"/>
<path fill-rule="evenodd" d="M298.9,533h523v-1.5h-523V533Z" class="g0_40"/>
<path fill-rule="evenodd" d="M821.9,533h1.5v-1.5h-1.5V533Z" class="g0_40"/>
<path fill-rule="evenodd" d="M64.5,558.7H66V533H64.5v25.7Z" class="g0_40"/>
<path fill-rule="evenodd" d="M297.4,558.7h1.5V533h-1.5v25.7Z" class="g0_40"/>
<path fill-rule="evenodd" d="M821.9,558.7h1.5V533h-1.5v25.7Z" class="g0_40"/>
<path fill-rule="evenodd" d="M66.3,585.9H821.9V560.2H66.3v25.7Z" class="g1_40"/>
<path fill-rule="evenodd" d="M73.7,585.9H814.6V560.2H73.7v25.7Z" class="g1_40"/>
<path fill-rule="evenodd" d="M64.5,560.2H66v-1.5H64.5v1.5Z" class="g0_40"/>
<path fill-rule="evenodd" d="M66,560.2H297.4v-1.5H66v1.5Z" class="g0_40"/>
<path fill-rule="evenodd" d="M297.4,560.2h1.5v-1.5h-1.5v1.5Z" class="g0_40"/>
<path fill-rule="evenodd" d="M298.9,560.2h523v-1.5h-523v1.5Z" class="g0_40"/>
<path fill-rule="evenodd" d="M821.9,560.2h1.5v-1.5h-1.5v1.5Z" class="g0_40"/>
<path fill-rule="evenodd" d="M64.5,585.9H66V560.2H64.5v25.7Z" class="g0_40"/>
<path fill-rule="evenodd" d="M821.9,585.9h1.5V560.2h-1.5v25.7Z" class="g0_40"/>
<path fill-rule="evenodd" d="M64.5,587.4H66v-1.5H64.5v1.5Z" class="g0_40"/>
<path fill-rule="evenodd" d="M66,587.4H297.4v-1.5H66v1.5Z" class="g0_40"/>
<path fill-rule="evenodd" d="M297.4,587.4h1.5v-1.5h-1.5v1.5Z" class="g0_40"/>
<path fill-rule="evenodd" d="M298.9,587.4h523v-1.5h-523v1.5Z" class="g0_40"/>
<path fill-rule="evenodd" d="M821.9,587.4h1.5v-1.5h-1.5v1.5Z" class="g0_40"/>
<path fill-rule="evenodd" d="M64.5,613.1H66V587.4H64.5v25.7Z" class="g0_40"/>
<path fill-rule="evenodd" d="M297.4,613.1h1.5V587.4h-1.5v25.7Z" class="g0_40"/>
<path fill-rule="evenodd" d="M821.9,613.1h1.5V587.4h-1.5v25.7Z" class="g0_40"/>
<path fill-rule="evenodd" d="M64.5,614.6H66v-1.5H64.5v1.5Z" class="g0_40"/>
<path fill-rule="evenodd" d="M66,614.6H297.4v-1.5H66v1.5Z" class="g0_40"/>
<path fill-rule="evenodd" d="M297.4,614.6h1.5v-1.5h-1.5v1.5Z" class="g0_40"/>
<path fill-rule="evenodd" d="M298.9,614.6h523v-1.5h-523v1.5Z" class="g0_40"/>
<path fill-rule="evenodd" d="M821.9,614.6h1.5v-1.5h-1.5v1.5Z" class="g0_40"/>
<path fill-rule="evenodd" d="M64.5,640.3H66V614.6H64.5v25.7Z" class="g0_40"/>
<path fill-rule="evenodd" d="M297.4,640.3h1.5V614.6h-1.5v25.7Z" class="g0_40"/>
<path fill-rule="evenodd" d="M821.9,640.3h1.5V614.6h-1.5v25.7Z" class="g0_40"/>
<path fill-rule="evenodd" d="M64.5,641.8H66v-1.5H64.5v1.5Z" class="g0_40"/>
<path fill-rule="evenodd" d="M66,641.8H297.4v-1.5H66v1.5Z" class="g0_40"/>
<path fill-rule="evenodd" d="M297.4,641.8h1.5v-1.5h-1.5v1.5Z" class="g0_40"/>
<path fill-rule="evenodd" d="M298.9,641.8h523v-1.5h-523v1.5Z" class="g0_40"/>
<path fill-rule="evenodd" d="M821.9,641.8h1.5v-1.5h-1.5v1.5Z" class="g0_40"/>
<path fill-rule="evenodd" d="M64.5,667.5H66V641.8H64.5v25.7Z" class="g0_40"/>
<path fill-rule="evenodd" d="M297.4,667.5h1.5V641.8h-1.5v25.7Z" class="g0_40"/>
<path fill-rule="evenodd" d="M821.9,667.5h1.5V641.8h-1.5v25.7Z" class="g0_40"/>
<path fill-rule="evenodd" d="M64.5,669H66v-1.5H64.5V669Z" class="g0_40"/>
<path fill-rule="evenodd" d="M66,669H297.4v-1.5H66V669Z" class="g0_40"/>
<path fill-rule="evenodd" d="M297.4,669h1.5v-1.5h-1.5V669Z" class="g0_40"/>
<path fill-rule="evenodd" d="M298.9,669h523v-1.5h-523V669Z" class="g0_40"/>
<path fill-rule="evenodd" d="M821.9,669h1.5v-1.5h-1.5V669Z" class="g0_40"/>
<path fill-rule="evenodd" d="M64.5,694.7H66V669H64.5v25.7Z" class="g0_40"/>
<path fill-rule="evenodd" d="M297.4,694.7h1.5V669h-1.5v25.7Z" class="g0_40"/>
<path fill-rule="evenodd" d="M821.9,694.7h1.5V669h-1.5v25.7Z" class="g0_40"/>
<path fill-rule="evenodd" d="M64.5,696.2H66v-1.5H64.5v1.5Z" class="g0_40"/>
<path fill-rule="evenodd" d="M66,696.2H297.4v-1.5H66v1.5Z" class="g0_40"/>
<path fill-rule="evenodd" d="M297.4,696.2h1.5v-1.5h-1.5v1.5Z" class="g0_40"/>
<path fill-rule="evenodd" d="M298.9,696.2h523v-1.5h-523v1.5Z" class="g0_40"/>
<path fill-rule="evenodd" d="M821.9,696.2h1.5v-1.5h-1.5v1.5Z" class="g0_40"/>
<path fill-rule="evenodd" d="M64.5,721.6H66V696.2H64.5v25.4Z" class="g0_40"/>
<path fill-rule="evenodd" d="M64.5,723.1H66v-1.5H64.5v1.5Z" class="g0_40"/>
<path fill-rule="evenodd" d="M64.5,723.1H66v-1.5H64.5v1.5Z" class="g0_40"/>
<path fill-rule="evenodd" d="M66,723.1H297.4v-1.5H66v1.5Z" class="g0_40"/>
<path fill-rule="evenodd" d="M297.4,721.6h1.5V696.2h-1.5v25.4Z" class="g0_40"/>
<path fill-rule="evenodd" d="M297.4,723.1h1.5v-1.5h-1.5v1.5Z" class="g0_40"/>
<path fill-rule="evenodd" d="M298.9,723.1h523v-1.5h-523v1.5Z" class="g0_40"/>
<path fill-rule="evenodd" d="M821.9,721.6h1.5V696.2h-1.5v25.4Z" class="g0_40"/>
<path fill-rule="evenodd" d="M821.9,723.1h1.5v-1.5h-1.5v1.5Z" class="g0_40"/>
<path fill-rule="evenodd" d="M821.9,723.1h1.5v-1.5h-1.5v1.5Z" class="g0_40"/>
<path fill-rule="evenodd" d="M65.1,807.2H140v-1.3H65.1v1.3Z" class="g0_40"/>
<path fill-rule="evenodd" d="M65.1,934h70v-1.2h-70V934Z" class="g0_40"/>
</svg>