<?xml version="1.0" encoding="UTF-8" standalone="no"?>
<!DOCTYPE svg PUBLIC "-//W3C//DTD SVG 1.1//EN"
"http://www.w3.org/Graphics/SVG/1.1/DTD/svg11.dtd">
<svg viewBox="0 0 909 1286" version="1.1" xmlns="http://www.w3.org/2000/svg" xmlns:xlink="http://www.w3.org/1999/xlink">
<defs>
<clipPath id="c0_41"><path d="M87.7,436.4V410.7H843.6v25.7Z"/></clipPath>
<style type="text/css"><![CDATA[
.g0_41{
}
.g1_41{
fill: #F1F1F1;
}
]]></style>
</defs>
<path fill-rule="evenodd" d="M86.5,66H844.8V64.5H86.5V66Z" class="g0_41"/>
<path fill-rule="evenodd" d="M87.7,113.7H843.6V88H87.7v25.7Z" class="g1_41"/>
<path fill-rule="evenodd" d="M95.4,113.7H836V88H95.4v25.7Z" class="g1_41"/>
<path fill-rule="evenodd" d="M85.9,88h1.5V86.5H85.9V88Z" class="g0_41"/>
<path fill-rule="evenodd" d="M85.9,88h1.5V86.5H85.9V88Z" class="g0_41"/>
<path fill-rule="evenodd" d="M87.4,88H843.3V86.5H87.4V88Z" class="g0_41"/>
<path fill-rule="evenodd" d="M843.3,88h1.5V86.5h-1.5V88Z" class="g0_41"/>
<path fill-rule="evenodd" d="M843.3,88h1.5V86.5h-1.5V88Z" class="g0_41"/>
<path fill-rule="evenodd" d="M85.9,113.7h1.5V88H85.9v25.7Z" class="g0_41"/>
<path fill-rule="evenodd" d="M843.3,113.7h1.5V88h-1.5v25.7Z" class="g0_41"/>
<path fill-rule="evenodd" d="M85.9,115.2h1.5v-1.5H85.9v1.5Z" class="g0_41"/>
<path fill-rule="evenodd" d="M87.4,115.2H333.5v-1.5H87.4v1.5Z" class="g0_41"/>
<path fill-rule="evenodd" d="M333.5,115.2H335v-1.5h-1.5v1.5Z" class="g0_41"/>
<path fill-rule="evenodd" d="M335,115.2H843.3v-1.5H335v1.5Z" class="g0_41"/>
<path fill-rule="evenodd" d="M843.3,115.2h1.5v-1.5h-1.5v1.5Z" class="g0_41"/>
<path fill-rule="evenodd" d="M85.9,140.9h1.5V115.2H85.9v25.7Z" class="g0_41"/>
<path fill-rule="evenodd" d="M333.5,140.9H335V115.2h-1.5v25.7Z" class="g0_41"/>
<path fill-rule="evenodd" d="M843.3,140.9h1.5V115.2h-1.5v25.7Z" class="g0_41"/>
<path fill-rule="evenodd" d="M85.9,142.4h1.5v-1.5H85.9v1.5Z" class="g0_41"/>
<path fill-rule="evenodd" d="M87.4,142.4H333.5v-1.5H87.4v1.5Z" class="g0_41"/>
<path fill-rule="evenodd" d="M333.5,142.4H335v-1.5h-1.5v1.5Z" class="g0_41"/>
<path fill-rule="evenodd" d="M335,142.4H843.3v-1.5H335v1.5Z" class="g0_41"/>
<path fill-rule="evenodd" d="M843.3,142.4h1.5v-1.5h-1.5v1.5Z" class="g0_41"/>
<path fill-rule="evenodd" d="M85.9,187.7h1.5V142.4H85.9v45.3Z" class="g0_41"/>
<path fill-rule="evenodd" d="M333.5,187.7H335V142.4h-1.5v45.3Z" class="g0_41"/>
<path fill-rule="evenodd" d="M843.3,187.7h1.5V142.4h-1.5v45.3Z" class="g0_41"/>
<path fill-rule="evenodd" d="M85.9,189.2h1.5v-1.5H85.9v1.5Z" class="g0_41"/>
<path fill-rule="evenodd" d="M87.4,189.2H333.5v-1.5H87.4v1.5Z" class="g0_41"/>
<path fill-rule="evenodd" d="M333.5,189.2H335v-1.5h-1.5v1.5Z" class="g0_41"/>
<path fill-rule="evenodd" d="M335,189.2H843.3v-1.5H335v1.5Z" class="g0_41"/>
<path fill-rule="evenodd" d="M843.3,189.2h1.5v-1.5h-1.5v1.5Z" class="g0_41"/>
<path fill-rule="evenodd" d="M85.9,254h1.5V189.2H85.9V254Z" class="g0_41"/>
<path fill-rule="evenodd" d="M333.5,254H335V189.2h-1.5V254Z" class="g0_41"/>
<path fill-rule="evenodd" d="M843.3,254h1.5V189.2h-1.5V254Z" class="g0_41"/>
<path fill-rule="evenodd" d="M85.9,255.5h1.5V254H85.9v1.5Z" class="g0_41"/>
<path fill-rule="evenodd" d="M87.4,255.5H333.5V254H87.4v1.5Z" class="g0_41"/>
<path fill-rule="evenodd" d="M333.5,255.5H335V254h-1.5v1.5Z" class="g0_41"/>
<path fill-rule="evenodd" d="M335,255.5H843.3V254H335v1.5Z" class="g0_41"/>
<path fill-rule="evenodd" d="M843.3,255.5h1.5V254h-1.5v1.5Z" class="g0_41"/>
<path fill-rule="evenodd" d="M85.9,280.9h1.5V255.5H85.9v25.4Z" class="g0_41"/>
<path fill-rule="evenodd" d="M333.5,280.9H335V255.5h-1.5v25.4Z" class="g0_41"/>
<path fill-rule="evenodd" d="M843.3,280.9h1.5V255.5h-1.5v25.4Z" class="g0_41"/>
<path fill-rule="evenodd" d="M85.9,282.4h1.5v-1.5H85.9v1.5Z" class="g0_41"/>
<path fill-rule="evenodd" d="M87.4,282.4H333.5v-1.5H87.4v1.5Z" class="g0_41"/>
<path fill-rule="evenodd" d="M333.5,282.4H335v-1.5h-1.5v1.5Z" class="g0_41"/>
<path fill-rule="evenodd" d="M335,282.4H843.3v-1.5H335v1.5Z" class="g0_41"/>
<path fill-rule="evenodd" d="M843.3,282.4h1.5v-1.5h-1.5v1.5Z" class="g0_41"/>
<path fill-rule="evenodd" d="M85.9,308.1h1.5V282.4H85.9v25.7Z" class="g0_41"/>
<path fill-rule="evenodd" d="M333.5,308.1H335V282.4h-1.5v25.7Z" class="g0_41"/>
<path fill-rule="evenodd" d="M843.3,308.1h1.5V282.4h-1.5v25.7Z" class="g0_41"/>
<path fill-rule="evenodd" d="M85.9,309.6h1.5v-1.5H85.9v1.5Z" class="g0_41"/>
<path fill-rule="evenodd" d="M87.4,309.6H333.5v-1.5H87.4v1.5Z" class="g0_41"/>
<path fill-rule="evenodd" d="M333.5,309.6H335v-1.5h-1.5v1.5Z" class="g0_41"/>
<path fill-rule="evenodd" d="M335,309.6H843.3v-1.5H335v1.5Z" class="g0_41"/>
<path fill-rule="evenodd" d="M843.3,309.6h1.5v-1.5h-1.5v1.5Z" class="g0_41"/>
<path fill-rule="evenodd" d="M85.9,335.3h1.5V309.6H85.9v25.7Z" class="g0_41"/>
<path fill-rule="evenodd" d="M333.5,335.3H335V309.6h-1.5v25.7Z" class="g0_41"/>
<path fill-rule="evenodd" d="M843.3,335.3h1.5V309.6h-1.5v25.7Z" class="g0_41"/>
<path fill-rule="evenodd" d="M85.9,336.8h1.5v-1.5H85.9v1.5Z" class="g0_41"/>
<path fill-rule="evenodd" d="M87.4,336.8H333.5v-1.5H87.4v1.5Z" class="g0_41"/>
<path fill-rule="evenodd" d="M333.5,336.8H335v-1.5h-1.5v1.5Z" class="g0_41"/>
<path fill-rule="evenodd" d="M335,336.8H843.3v-1.5H335v1.5Z" class="g0_41"/>
<path fill-rule="evenodd" d="M843.3,336.8h1.5v-1.5h-1.5v1.5Z" class="g0_41"/>
<path fill-rule="evenodd" d="M85.9,362.5h1.5V336.8H85.9v25.7Z" class="g0_41"/>
<path fill-rule="evenodd" d="M333.5,362.5H335V336.8h-1.5v25.7Z" class="g0_41"/>
<path fill-rule="evenodd" d="M843.3,362.5h1.5V336.8h-1.5v25.7Z" class="g0_41"/>
<path fill-rule="evenodd" d="M85.9,364h1.5v-1.5H85.9V364Z" class="g0_41"/>
<path fill-rule="evenodd" d="M87.4,364H333.5v-1.5H87.4V364Z" class="g0_41"/>
<path fill-rule="evenodd" d="M333.5,364H335v-1.5h-1.5V364Z" class="g0_41"/>
<path fill-rule="evenodd" d="M335,364H843.3v-1.5H335V364Z" class="g0_41"/>
<path fill-rule="evenodd" d="M843.3,364h1.5v-1.5h-1.5V364Z" class="g0_41"/>
<path fill-rule="evenodd" d="M85.9,409.2h1.5V364H85.9v45.2Z" class="g0_41"/>
<path fill-rule="evenodd" d="M333.5,409.2H335V364h-1.5v45.2Z" class="g0_41"/>
<path fill-rule="evenodd" d="M843.3,409.2h1.5V364h-1.5v45.2Z" class="g0_41"/>
<path fill-rule="evenodd" d="M87.7,436.5H843.6V410.8H87.7v25.7Z" class="g1_41"/>
<path clip-path="url(#c0_41)" fill-rule="evenodd" d="M95.4,436.5H836V410.8H95.4v25.7Z" class="g1_41"/>
<path fill-rule="evenodd" d="M85.9,410.7h1.5v-1.5H85.9v1.5Z" class="g0_41"/>
<path fill-rule="evenodd" d="M87.4,410.7H333.5v-1.5H87.4v1.5Z" class="g0_41"/>
<path fill-rule="evenodd" d="M333.5,410.7H335v-1.5h-1.5v1.5Z" class="g0_41"/>
<path fill-rule="evenodd" d="M335,410.7H843.3v-1.5H335v1.5Z" class="g0_41"/>
<path fill-rule="evenodd" d="M843.3,410.7h1.5v-1.5h-1.5v1.5Z" class="g0_41"/>
<path fill-rule="evenodd" d="M85.9,436.5h1.5V410.8H85.9v25.7Z" class="g0_41"/>
<path fill-rule="evenodd" d="M843.3,436.5h1.5V410.8h-1.5v25.7Z" class="g0_41"/>
<path fill-rule="evenodd" d="M85.9,438h1.5v-1.6H85.9V438Z" class="g0_41"/>
<path fill-rule="evenodd" d="M87.4,438H333.5v-1.6H87.4V438Z" class="g0_41"/>
<path fill-rule="evenodd" d="M333.5,438H335v-1.6h-1.5V438Z" class="g0_41"/>
<path fill-rule="evenodd" d="M335,438H843.3v-1.6H335V438Z" class="g0_41"/>
<path fill-rule="evenodd" d="M843.3,438h1.5v-1.6h-1.5V438Z" class="g0_41"/>
<path fill-rule="evenodd" d="M85.9,463.3h1.5V438H85.9v25.3Z" class="g0_41"/>
<path fill-rule="evenodd" d="M333.5,463.3H335V438h-1.5v25.3Z" class="g0_41"/>
<path fill-rule="evenodd" d="M843.3,463.3h1.5V438h-1.5v25.3Z" class="g0_41"/>
<path fill-rule="evenodd" d="M85.9,464.9h1.5v-1.6H85.9v1.6Z" class="g0_41"/>
<path fill-rule="evenodd" d="M87.4,464.9H333.5v-1.6H87.4v1.6Z" class="g0_41"/>
<path fill-rule="evenodd" d="M333.5,464.9H335v-1.6h-1.5v1.6Z" class="g0_41"/>
<path fill-rule="evenodd" d="M335,464.9H843.3v-1.6H335v1.6Z" class="g0_41"/>
<path fill-rule="evenodd" d="M843.3,464.9h1.5v-1.6h-1.5v1.6Z" class="g0_41"/>
<path fill-rule="evenodd" d="M85.9,490.5h1.5V464.9H85.9v25.6Z" class="g0_41"/>
<path fill-rule="evenodd" d="M333.5,490.5H335V464.9h-1.5v25.6Z" class="g0_41"/>
<path fill-rule="evenodd" d="M843.3,490.5h1.5V464.9h-1.5v25.6Z" class="g0_41"/>
<path fill-rule="evenodd" d="M85.9,492.1h1.5v-1.6H85.9v1.6Z" class="g0_41"/>
<path fill-rule="evenodd" d="M87.4,492.1H333.5v-1.6H87.4v1.6Z" class="g0_41"/>
<path fill-rule="evenodd" d="M333.5,492.1H335v-1.6h-1.5v1.6Z" class="g0_41"/>
<path fill-rule="evenodd" d="M335,492.1H843.3v-1.6H335v1.6Z" class="g0_41"/>
<path fill-rule="evenodd" d="M843.3,492.1h1.5v-1.6h-1.5v1.6Z" class="g0_41"/>
<path fill-rule="evenodd" d="M85.9,517.7h1.5V492.1H85.9v25.6Z" class="g0_41"/>
<path fill-rule="evenodd" d="M333.5,517.7H335V492.1h-1.5v25.6Z" class="g0_41"/>
<path fill-rule="evenodd" d="M843.3,517.7h1.5V492.1h-1.5v25.6Z" class="g0_41"/>
<path fill-rule="evenodd" d="M85.9,519.3h1.5v-1.6H85.9v1.6Z" class="g0_41"/>
<path fill-rule="evenodd" d="M87.4,519.3H333.5v-1.6H87.4v1.6Z" class="g0_41"/>
<path fill-rule="evenodd" d="M333.5,519.3H335v-1.6h-1.5v1.6Z" class="g0_41"/>
<path fill-rule="evenodd" d="M335,519.3H843.3v-1.6H335v1.6Z" class="g0_41"/>
<path fill-rule="evenodd" d="M843.3,519.3h1.5v-1.6h-1.5v1.6Z" class="g0_41"/>
<path fill-rule="evenodd" d="M85.9,544.9h1.5V519.3H85.9v25.6Z" class="g0_41"/>
<path fill-rule="evenodd" d="M333.5,544.9H335V519.3h-1.5v25.6Z" class="g0_41"/>
<path fill-rule="evenodd" d="M843.3,544.9h1.5V519.3h-1.5v25.6Z" class="g0_41"/>
<path fill-rule="evenodd" d="M85.9,546.5h1.5v-1.6H85.9v1.6Z" class="g0_41"/>
<path fill-rule="evenodd" d="M87.4,546.5H333.5v-1.6H87.4v1.6Z" class="g0_41"/>
<path fill-rule="evenodd" d="M333.5,546.5H335v-1.6h-1.5v1.6Z" class="g0_41"/>
<path fill-rule="evenodd" d="M335,546.5H843.3v-1.6H335v1.6Z" class="g0_41"/>
<path fill-rule="evenodd" d="M843.3,546.5h1.5v-1.6h-1.5v1.6Z" class="g0_41"/>
<path fill-rule="evenodd" d="M85.9,572.1h1.5V546.5H85.9v25.6Z" class="g0_41"/>
<path fill-rule="evenodd" d="M333.5,572.1H335V546.5h-1.5v25.6Z" class="g0_41"/>
<path fill-rule="evenodd" d="M843.3,572.1h1.5V546.5h-1.5v25.6Z" class="g0_41"/>
<path fill-rule="evenodd" d="M85.9,573.6h1.5v-1.5H85.9v1.5Z" class="g0_41"/>
<path fill-rule="evenodd" d="M87.4,573.6H333.5v-1.5H87.4v1.5Z" class="g0_41"/>
<path fill-rule="evenodd" d="M333.5,573.6H335v-1.5h-1.5v1.5Z" class="g0_41"/>
<path fill-rule="evenodd" d="M335,573.6H843.3v-1.5H335v1.5Z" class="g0_41"/>
<path fill-rule="evenodd" d="M843.3,573.6h1.5v-1.5h-1.5v1.5Z" class="g0_41"/>
<path fill-rule="evenodd" d="M85.9,599.3h1.5V573.7H85.9v25.6Z" class="g0_41"/>
<path fill-rule="evenodd" d="M85.9,600.8h1.5v-1.5H85.9v1.5Z" class="g0_41"/>
<path fill-rule="evenodd" d="M85.9,600.8h1.5v-1.5H85.9v1.5Z" class="g0_41"/>
<path fill-rule="evenodd" d="M87.4,600.8H333.5v-1.5H87.4v1.5Z" class="g0_41"/>
<path fill-rule="evenodd" d="M333.5,599.3H335V573.7h-1.5v25.6Z" class="g0_41"/>
<path fill-rule="evenodd" d="M333.5,600.8H335v-1.5h-1.5v1.5Z" class="g0_41"/>
<path fill-rule="evenodd" d="M335,600.8H843.3v-1.5H335v1.5Z" class="g0_41"/>
<path fill-rule="evenodd" d="M843.3,599.3h1.5V573.7h-1.5v25.6Z" class="g0_41"/>
<path fill-rule="evenodd" d="M843.3,600.8h1.5v-1.5h-1.5v1.5Z" class="g0_41"/>
<path fill-rule="evenodd" d="M843.3,600.8h1.5v-1.5h-1.5v1.5Z" class="g0_41"/>
<path fill-rule="evenodd" d="M86.5,684.6h74.9v-1.2H86.5v1.2Z" class="g0_41"/>
<path fill-rule="evenodd" d="M87.7,813.6H843.6V787.9H87.7v25.7Z" class="g1_41"/>
<path fill-rule="evenodd" d="M95.4,813.6H836V787.9H95.4v25.7Z" class="g1_41"/>
<path fill-rule="evenodd" d="M85.9,787.9h1.5v-1.5H85.9v1.5Z" class="g0_41"/>
<path fill-rule="evenodd" d="M85.9,787.9h1.5v-1.5H85.9v1.5Z" class="g0_41"/>
<path fill-rule="evenodd" d="M87.4,787.9H843.3v-1.5H87.4v1.5Z" class="g0_41"/>
<path fill-rule="evenodd" d="M843.3,787.9h1.5v-1.5h-1.5v1.5Z" class="g0_41"/>
<path fill-rule="evenodd" d="M843.3,787.9h1.5v-1.5h-1.5v1.5Z" class="g0_41"/>
<path fill-rule="evenodd" d="M85.9,813.6h1.5V787.9H85.9v25.7Z" class="g0_41"/>
<path fill-rule="evenodd" d="M843.3,813.6h1.5V787.9h-1.5v25.7Z" class="g0_41"/>
<path fill-rule="evenodd" d="M85.9,815.1h1.5v-1.5H85.9v1.5Z" class="g0_41"/>
<path fill-rule="evenodd" d="M87.4,815.1H318.8v-1.5H87.4v1.5Z" class="g0_41"/>
<path fill-rule="evenodd" d="M318.8,815.1h1.5v-1.5h-1.5v1.5Z" class="g0_41"/>
<path fill-rule="evenodd" d="M320.3,815.1h523v-1.5h-523v1.5Z" class="g0_41"/>
<path fill-rule="evenodd" d="M843.3,815.1h1.5v-1.5h-1.5v1.5Z" class="g0_41"/>
<path fill-rule="evenodd" d="M85.9,840.8h1.5V815.1H85.9v25.7Z" class="g0_41"/>
<path fill-rule="evenodd" d="M318.8,840.8h1.5V815.1h-1.5v25.7Z" class="g0_41"/>
<path fill-rule="evenodd" d="M843.3,840.8h1.5V815.1h-1.5v25.7Z" class="g0_41"/>
<path fill-rule="evenodd" d="M85.9,842.3h1.5v-1.5H85.9v1.5Z" class="g0_41"/>
<path fill-rule="evenodd" d="M87.4,842.3H318.8v-1.5H87.4v1.5Z" class="g0_41"/>
<path fill-rule="evenodd" d="M318.8,842.3h1.5v-1.5h-1.5v1.5Z" class="g0_41"/>
<path fill-rule="evenodd" d="M320.3,842.3h523v-1.5h-523v1.5Z" class="g0_41"/>
<path fill-rule="evenodd" d="M843.3,842.3h1.5v-1.5h-1.5v1.5Z" class="g0_41"/>
<path fill-rule="evenodd" d="M85.9,887.5h1.5V842.3H85.9v45.2Z" class="g0_41"/>
<path fill-rule="evenodd" d="M318.8,887.5h1.5V842.3h-1.5v45.2Z" class="g0_41"/>
<path fill-rule="evenodd" d="M843.3,887.5h1.5V842.3h-1.5v45.2Z" class="g0_41"/>
<path fill-rule="evenodd" d="M87.7,914.7H843.6V889.1H87.7v25.6Z" class="g1_41"/>
<path fill-rule="evenodd" d="M95.4,914.7H836V889.1H95.4v25.6Z" class="g1_41"/>
<path fill-rule="evenodd" d="M85.9,889h1.5v-1.5H85.9V889Z" class="g0_41"/>
<path fill-rule="evenodd" d="M87.4,889H318.8v-1.5H87.4V889Z" class="g0_41"/>
<path fill-rule="evenodd" d="M318.8,889h1.5v-1.5h-1.5V889Z" class="g0_41"/>
<path fill-rule="evenodd" d="M320.3,889h523v-1.5h-523V889Z" class="g0_41"/>
<path fill-rule="evenodd" d="M843.3,889h1.5v-1.5h-1.5V889Z" class="g0_41"/>
<path fill-rule="evenodd" d="M85.9,914.7h1.5V889.1H85.9v25.6Z" class="g0_41"/>
<path fill-rule="evenodd" d="M843.3,914.7h1.5V889.1h-1.5v25.6Z" class="g0_41"/>
<path fill-rule="evenodd" d="M85.9,916.3h1.5v-1.6H85.9v1.6Z" class="g0_41"/>
<path fill-rule="evenodd" d="M87.4,916.3H318.8v-1.6H87.4v1.6Z" class="g0_41"/>
<path fill-rule="evenodd" d="M318.8,916.3h1.5v-1.6h-1.5v1.6Z" class="g0_41"/>
<path fill-rule="evenodd" d="M320.3,916.3h523v-1.6h-523v1.6Z" class="g0_41"/>
<path fill-rule="evenodd" d="M843.3,916.3h1.5v-1.6h-1.5v1.6Z" class="g0_41"/>
<path fill-rule="evenodd" d="M85.9,941.9h1.5V916.3H85.9v25.6Z" class="g0_41"/>
<path fill-rule="evenodd" d="M318.8,941.9h1.5V916.3h-1.5v25.6Z" class="g0_41"/>
<path fill-rule="evenodd" d="M843.3,941.9h1.5V916.3h-1.5v25.6Z" class="g0_41"/>
<path fill-rule="evenodd" d="M85.9,943.4h1.5v-1.5H85.9v1.5Z" class="g0_41"/>
<path fill-rule="evenodd" d="M87.4,943.4H318.8v-1.5H87.4v1.5Z" class="g0_41"/>
<path fill-rule="evenodd" d="M318.8,943.4h1.5v-1.5h-1.5v1.5Z" class="g0_41"/>
<path fill-rule="evenodd" d="M320.3,943.4h523v-1.5h-523v1.5Z" class="g0_41"/>
<path fill-rule="evenodd" d="M843.3,943.4h1.5v-1.5h-1.5v1.5Z" class="g0_41"/>
<path fill-rule="evenodd" d="M85.9,968.8h1.5V943.4H85.9v25.4Z" class="g0_41"/>
<path fill-rule="evenodd" d="M318.8,968.8h1.5V943.4h-1.5v25.4Z" class="g0_41"/>
<path fill-rule="evenodd" d="M843.3,968.8h1.5V943.4h-1.5v25.4Z" class="g0_41"/>
<path fill-rule="evenodd" d="M85.9,970.4h1.5v-1.6H85.9v1.6Z" class="g0_41"/>
<path fill-rule="evenodd" d="M87.4,970.4H318.8v-1.6H87.4v1.6Z" class="g0_41"/>
<path fill-rule="evenodd" d="M318.8,970.4h1.5v-1.6h-1.5v1.6Z" class="g0_41"/>
<path fill-rule="evenodd" d="M320.3,970.4h523v-1.6h-523v1.6Z" class="g0_41"/>
<path fill-rule="evenodd" d="M843.3,970.4h1.5v-1.6h-1.5v1.6Z" class="g0_41"/>
<path fill-rule="evenodd" d="M85.9,996h1.5V970.4H85.9V996Z" class="g0_41"/>
<path fill-rule="evenodd" d="M318.8,996h1.5V970.4h-1.5V996Z" class="g0_41"/>
<path fill-rule="evenodd" d="M843.3,996h1.5V970.4h-1.5V996Z" class="g0_41"/>
<path fill-rule="evenodd" d="M85.9,997.6h1.5V996H85.9v1.6Z" class="g0_41"/>
<path fill-rule="evenodd" d="M87.4,997.6H318.8V996H87.4v1.6Z" class="g0_41"/>
<path fill-rule="evenodd" d="M318.8,997.6h1.5V996h-1.5v1.6Z" class="g0_41"/>
<path fill-rule="evenodd" d="M320.3,997.6h523V996h-523v1.6Z" class="g0_41"/>
<path fill-rule="evenodd" d="M843.3,997.6h1.5V996h-1.5v1.6Z" class="g0_41"/>
<path fill-rule="evenodd" d="M85.9,1023.2h1.5V997.6H85.9v25.6Z" class="g0_41"/>
<path fill-rule="evenodd" d="M318.8,1023.2h1.5V997.6h-1.5v25.6Z" class="g0_41"/>
<path fill-rule="evenodd" d="M843.3,1023.2h1.5V997.6h-1.5v25.6Z" class="g0_41"/>
<path fill-rule="evenodd" d="M85.9,1024.8h1.5v-1.6H85.9v1.6Z" class="g0_41"/>
<path fill-rule="evenodd" d="M87.4,1024.8H318.8v-1.6H87.4v1.6Z" class="g0_41"/>
<path fill-rule="evenodd" d="M318.8,1024.8h1.5v-1.6h-1.5v1.6Z" class="g0_41"/>
<path fill-rule="evenodd" d="M320.3,1024.8h523v-1.6h-523v1.6Z" class="g0_41"/>
<path fill-rule="evenodd" d="M843.3,1024.8h1.5v-1.6h-1.5v1.6Z" class="g0_41"/>
<path fill-rule="evenodd" d="M85.9,1050.4h1.5v-25.6H85.9v25.6Z" class="g0_41"/>
<path fill-rule="evenodd" d="M85.9,1052h1.5v-1.6H85.9v1.6Z" class="g0_41"/>
<path fill-rule="evenodd" d="M85.9,1052h1.5v-1.6H85.9v1.6Z" class="g0_41"/>
<path fill-rule="evenodd" d="M87.4,1052H318.8v-1.6H87.4v1.6Z" class="g0_41"/>
<path fill-rule="evenodd" d="M318.8,1050.4h1.5v-25.6h-1.5v25.6Z" class="g0_41"/>
<path fill-rule="evenodd" d="M318.8,1052h1.5v-1.6h-1.5v1.6Z" class="g0_41"/>
<path fill-rule="evenodd" d="M320.3,1052h523v-1.6h-523v1.6Z" class="g0_41"/>
<path fill-rule="evenodd" d="M843.3,1050.4h1.5v-25.6h-1.5v25.6Z" class="g0_41"/>
<path fill-rule="evenodd" d="M843.3,1052h1.5v-1.6h-1.5v1.6Z" class="g0_41"/>
<path fill-rule="evenodd" d="M843.3,1052h1.5v-1.6h-1.5v1.6Z" class="g0_41"/>
</svg>