<?xml version="1.0" encoding="UTF-8" standalone="no"?>
<!DOCTYPE svg PUBLIC "-//W3C//DTD SVG 1.1//EN"
"http://www.w3.org/Graphics/SVG/1.1/DTD/svg11.dtd">
<svg viewBox="0 0 909 1286" version="1.1" xmlns="http://www.w3.org/2000/svg" xmlns:xlink="http://www.w3.org/1999/xlink">
<defs>
<clipPath id="c0_21"><path d="M87.7,168.1V142.4H843.6v25.7Z"/></clipPath>
<style type="text/css"><![CDATA[
.g0_21{
}
.g1_21{
fill: #F1F1F1;
}
]]></style>
</defs>
<path fill-rule="evenodd" d="M86.5,66H844.8V64.5H86.5V66Z" class="g0_21"/>
<path fill-rule="evenodd" d="M87.7,113.7H843.6V88H87.7v25.7Z" class="g1_21"/>
<path fill-rule="evenodd" d="M95.4,113.7H836V88H95.4v25.7Z" class="g1_21"/>
<path fill-rule="evenodd" d="M85.9,88h1.5V86.5H85.9V88Z" class="g0_21"/>
<path fill-rule="evenodd" d="M85.9,88h1.5V86.5H85.9V88Z" class="g0_21"/>
<path fill-rule="evenodd" d="M87.4,88H843.3V86.5H87.4V88Z" class="g0_21"/>
<path fill-rule="evenodd" d="M843.3,88h1.5V86.5h-1.5V88Z" class="g0_21"/>
<path fill-rule="evenodd" d="M843.3,88h1.5V86.5h-1.5V88Z" class="g0_21"/>
<path fill-rule="evenodd" d="M85.9,113.7h1.5V88H85.9v25.7Z" class="g0_21"/>
<path fill-rule="evenodd" d="M843.3,113.7h1.5V88h-1.5v25.7Z" class="g0_21"/>
<path fill-rule="evenodd" d="M85.9,115.2h1.5v-1.5H85.9v1.5Z" class="g0_21"/>
<path fill-rule="evenodd" d="M87.4,115.2H287v-1.5H87.4v1.5Z" class="g0_21"/>
<path fill-rule="evenodd" d="M287,115.2h1.5v-1.5H287v1.5Z" class="g0_21"/>
<path fill-rule="evenodd" d="M288.5,115.2H843.3v-1.5H288.5v1.5Z" class="g0_21"/>
<path fill-rule="evenodd" d="M843.3,115.2h1.5v-1.5h-1.5v1.5Z" class="g0_21"/>
<path fill-rule="evenodd" d="M85.9,140.9h1.5V115.2H85.9v25.7Z" class="g0_21"/>
<path fill-rule="evenodd" d="M287,140.9h1.5V115.2H287v25.7Z" class="g0_21"/>
<path fill-rule="evenodd" d="M843.3,140.9h1.5V115.2h-1.5v25.7Z" class="g0_21"/>
<path fill-rule="evenodd" d="M87.7,168.1H843.6V142.4H87.7v25.7Z" class="g1_21"/>
<path clip-path="url(#c0_21)" fill-rule="evenodd" d="M95.4,168.1H836V142.4H95.4v25.7Z" class="g1_21"/>
<path fill-rule="evenodd" d="M85.9,142.4h1.5v-1.5H85.9v1.5Z" class="g0_21"/>
<path fill-rule="evenodd" d="M87.4,142.4H287v-1.5H87.4v1.5Z" class="g0_21"/>
<path fill-rule="evenodd" d="M287,142.4h1.5v-1.5H287v1.5Z" class="g0_21"/>
<path fill-rule="evenodd" d="M288.5,142.4H843.3v-1.5H288.5v1.5Z" class="g0_21"/>
<path fill-rule="evenodd" d="M843.3,142.4h1.5v-1.5h-1.5v1.5Z" class="g0_21"/>
<path fill-rule="evenodd" d="M85.9,168.1h1.5V142.4H85.9v25.7Z" class="g0_21"/>
<path fill-rule="evenodd" d="M843.3,168.1h1.5V142.4h-1.5v25.7Z" class="g0_21"/>
<path fill-rule="evenodd" d="M85.9,169.6h1.5v-1.5H85.9v1.5Z" class="g0_21"/>
<path fill-rule="evenodd" d="M87.4,169.6H287v-1.5H87.4v1.5Z" class="g0_21"/>
<path fill-rule="evenodd" d="M287,169.6h1.5v-1.5H287v1.5Z" class="g0_21"/>
<path fill-rule="evenodd" d="M288.5,169.6H843.3v-1.5H288.5v1.5Z" class="g0_21"/>
<path fill-rule="evenodd" d="M843.3,169.6h1.5v-1.5h-1.5v1.5Z" class="g0_21"/>
<path fill-rule="evenodd" d="M85.9,195.3h1.5V169.6H85.9v25.7Z" class="g0_21"/>
<path fill-rule="evenodd" d="M287,195.3h1.5V169.6H287v25.7Z" class="g0_21"/>
<path fill-rule="evenodd" d="M843.3,195.3h1.5V169.6h-1.5v25.7Z" class="g0_21"/>
<path fill-rule="evenodd" d="M85.9,196.8h1.5v-1.5H85.9v1.5Z" class="g0_21"/>
<path fill-rule="evenodd" d="M87.4,196.8H287v-1.5H87.4v1.5Z" class="g0_21"/>
<path fill-rule="evenodd" d="M287,196.8h1.5v-1.5H287v1.5Z" class="g0_21"/>
<path fill-rule="evenodd" d="M288.5,196.8H843.3v-1.5H288.5v1.5Z" class="g0_21"/>
<path fill-rule="evenodd" d="M843.3,196.8h1.5v-1.5h-1.5v1.5Z" class="g0_21"/>
<path fill-rule="evenodd" d="M85.9,242h1.5V196.8H85.9V242Z" class="g0_21"/>
<path fill-rule="evenodd" d="M85.9,243.6h1.5V242H85.9v1.6Z" class="g0_21"/>
<path fill-rule="evenodd" d="M85.9,243.6h1.5V242H85.9v1.6Z" class="g0_21"/>
<path fill-rule="evenodd" d="M87.4,243.6H287V242H87.4v1.6Z" class="g0_21"/>
<path fill-rule="evenodd" d="M287,242h1.5V196.8H287V242Z" class="g0_21"/>
<path fill-rule="evenodd" d="M287,243.6h1.5V242H287v1.6Z" class="g0_21"/>
<path fill-rule="evenodd" d="M288.5,243.6H843.3V242H288.5v1.6Z" class="g0_21"/>
<path fill-rule="evenodd" d="M843.3,242h1.5V196.8h-1.5V242Z" class="g0_21"/>
<path fill-rule="evenodd" d="M843.3,243.6h1.5V242h-1.5v1.6Z" class="g0_21"/>
<path fill-rule="evenodd" d="M843.3,243.6h1.5V242h-1.5v1.6Z" class="g0_21"/>
<path fill-rule="evenodd" d="M86.5,327.3h74.9v-1.2H86.5v1.2Z" class="g0_21"/>
<path fill-rule="evenodd" d="M86.5,432.8H165v-1.2H86.5v1.2Z" class="g0_21"/>
<path fill-rule="evenodd" d="M87.7,503.7H843.6V478H87.7v25.7Z" class="g1_21"/>
<path fill-rule="evenodd" d="M95.4,503.7H836V478H95.4v25.7Z" class="g1_21"/>
<path fill-rule="evenodd" d="M85.9,478h1.5v-1.5H85.9V478Z" class="g0_21"/>
<path fill-rule="evenodd" d="M85.9,478h1.5v-1.5H85.9V478Z" class="g0_21"/>
<path fill-rule="evenodd" d="M87.4,478H843.3v-1.5H87.4V478Z" class="g0_21"/>
<path fill-rule="evenodd" d="M843.3,478h1.5v-1.5h-1.5V478Z" class="g0_21"/>
<path fill-rule="evenodd" d="M843.3,478h1.5v-1.5h-1.5V478Z" class="g0_21"/>
<path fill-rule="evenodd" d="M85.9,503.7h1.5V478H85.9v25.7Z" class="g0_21"/>
<path fill-rule="evenodd" d="M843.3,503.7h1.5V478h-1.5v25.7Z" class="g0_21"/>
<path fill-rule="evenodd" d="M85.9,505.2h1.5v-1.5H85.9v1.5Z" class="g0_21"/>
<path fill-rule="evenodd" d="M87.4,505.2H287v-1.5H87.4v1.5Z" class="g0_21"/>
<path fill-rule="evenodd" d="M287,505.2h1.5v-1.5H287v1.5Z" class="g0_21"/>
<path fill-rule="evenodd" d="M288.5,505.2H843.3v-1.5H288.5v1.5Z" class="g0_21"/>
<path fill-rule="evenodd" d="M843.3,505.2h1.5v-1.5h-1.5v1.5Z" class="g0_21"/>
<path fill-rule="evenodd" d="M85.9,530.9h1.5V505.2H85.9v25.7Z" class="g0_21"/>
<path fill-rule="evenodd" d="M287,530.9h1.5V505.2H287v25.7Z" class="g0_21"/>
<path fill-rule="evenodd" d="M843.3,530.9h1.5V505.2h-1.5v25.7Z" class="g0_21"/>
<path fill-rule="evenodd" d="M85.9,532.4h1.5v-1.5H85.9v1.5Z" class="g0_21"/>
<path fill-rule="evenodd" d="M87.4,532.4H287v-1.5H87.4v1.5Z" class="g0_21"/>
<path fill-rule="evenodd" d="M287,532.4h1.5v-1.5H287v1.5Z" class="g0_21"/>
<path fill-rule="evenodd" d="M288.5,532.4H843.3v-1.5H288.5v1.5Z" class="g0_21"/>
<path fill-rule="evenodd" d="M843.3,532.4h1.5v-1.5h-1.5v1.5Z" class="g0_21"/>
<path fill-rule="evenodd" d="M85.9,558.1h1.5V532.4H85.9v25.7Z" class="g0_21"/>
<path fill-rule="evenodd" d="M287,558.1h1.5V532.4H287v25.7Z" class="g0_21"/>
<path fill-rule="evenodd" d="M843.3,558.1h1.5V532.4h-1.5v25.7Z" class="g0_21"/>
<path fill-rule="evenodd" d="M87.7,585.3H843.6V559.6H87.7v25.7Z" class="g1_21"/>
<path fill-rule="evenodd" d="M95.4,585.3H836V559.6H95.4v25.7Z" class="g1_21"/>
<path fill-rule="evenodd" d="M85.9,559.6h1.5v-1.5H85.9v1.5Z" class="g0_21"/>
<path fill-rule="evenodd" d="M87.4,559.6H287v-1.5H87.4v1.5Z" class="g0_21"/>
<path fill-rule="evenodd" d="M287,559.6h1.5v-1.5H287v1.5Z" class="g0_21"/>
<path fill-rule="evenodd" d="M288.5,559.6H843.3v-1.5H288.5v1.5Z" class="g0_21"/>
<path fill-rule="evenodd" d="M843.3,559.6h1.5v-1.5h-1.5v1.5Z" class="g0_21"/>
<path fill-rule="evenodd" d="M85.9,585.3h1.5V559.6H85.9v25.7Z" class="g0_21"/>
<path fill-rule="evenodd" d="M843.3,585.3h1.5V559.6h-1.5v25.7Z" class="g0_21"/>
<path fill-rule="evenodd" d="M85.9,586.8h1.5v-1.5H85.9v1.5Z" class="g0_21"/>
<path fill-rule="evenodd" d="M87.4,586.8H287v-1.5H87.4v1.5Z" class="g0_21"/>
<path fill-rule="evenodd" d="M287,586.8h1.5v-1.5H287v1.5Z" class="g0_21"/>
<path fill-rule="evenodd" d="M288.5,586.8H843.3v-1.5H288.5v1.5Z" class="g0_21"/>
<path fill-rule="evenodd" d="M843.3,586.8h1.5v-1.5h-1.5v1.5Z" class="g0_21"/>
<path fill-rule="evenodd" d="M85.9,631.7h1.5V586.8H85.9v44.9Z" class="g0_21"/>
<path fill-rule="evenodd" d="M85.9,633.3h1.5v-1.6H85.9v1.6Z" class="g0_21"/>
<path fill-rule="evenodd" d="M85.9,633.3h1.5v-1.6H85.9v1.6Z" class="g0_21"/>
<path fill-rule="evenodd" d="M87.4,633.3H287v-1.6H87.4v1.6Z" class="g0_21"/>
<path fill-rule="evenodd" d="M287,631.7h1.5V586.8H287v44.9Z" class="g0_21"/>
<path fill-rule="evenodd" d="M287,633.3h1.5v-1.6H287v1.6Z" class="g0_21"/>
<path fill-rule="evenodd" d="M288.5,633.3H843.3v-1.6H288.5v1.6Z" class="g0_21"/>
<path fill-rule="evenodd" d="M843.3,631.7h1.5V586.8h-1.5v44.9Z" class="g0_21"/>
<path fill-rule="evenodd" d="M843.3,633.3h1.5v-1.6h-1.5v1.6Z" class="g0_21"/>
<path fill-rule="evenodd" d="M843.3,633.3h1.5v-1.6h-1.5v1.6Z" class="g0_21"/>
<path fill-rule="evenodd" d="M86.5,717.3h74.9v-1.2H86.5v1.2Z" class="g0_21"/>
<path fill-rule="evenodd" d="M86.5,801.4h70v-1.3h-70v1.3Z" class="g0_21"/>
<path fill-rule="evenodd" d="M87.7,871.9H843.6V846.6H87.7v25.3Z" class="g1_21"/>
<path fill-rule="evenodd" d="M95.4,871.9H836V846.6H95.4v25.3Z" class="g1_21"/>
<path fill-rule="evenodd" d="M85.9,846.6h1.5v-1.5H85.9v1.5Z" class="g0_21"/>
<path fill-rule="evenodd" d="M85.9,846.6h1.5v-1.5H85.9v1.5Z" class="g0_21"/>
<path fill-rule="evenodd" d="M87.4,846.6H843.3v-1.5H87.4v1.5Z" class="g0_21"/>
<path fill-rule="evenodd" d="M843.3,846.6h1.5v-1.5h-1.5v1.5Z" class="g0_21"/>
<path fill-rule="evenodd" d="M843.3,846.6h1.5v-1.5h-1.5v1.5Z" class="g0_21"/>
<path fill-rule="evenodd" d="M85.9,871.9h1.5V846.6H85.9v25.3Z" class="g0_21"/>
<path fill-rule="evenodd" d="M843.3,871.9h1.5V846.6h-1.5v25.3Z" class="g0_21"/>
<path fill-rule="evenodd" d="M85.9,873.5h1.5v-1.6H85.9v1.6Z" class="g0_21"/>
<path fill-rule="evenodd" d="M87.4,873.5H288.2v-1.6H87.4v1.6Z" class="g0_21"/>
<path fill-rule="evenodd" d="M288.2,873.5h1.5v-1.6h-1.5v1.6Z" class="g0_21"/>
<path fill-rule="evenodd" d="M289.7,873.5H843.3v-1.6H289.7v1.6Z" class="g0_21"/>
<path fill-rule="evenodd" d="M843.3,873.5h1.5v-1.6h-1.5v1.6Z" class="g0_21"/>
<path fill-rule="evenodd" d="M85.9,899.1h1.5V873.5H85.9v25.6Z" class="g0_21"/>
<path fill-rule="evenodd" d="M288.2,899.1h1.5V873.5h-1.5v25.6Z" class="g0_21"/>
<path fill-rule="evenodd" d="M843.3,899.1h1.5V873.5h-1.5v25.6Z" class="g0_21"/>
<path fill-rule="evenodd" d="M87.7,926.3H843.6V900.7H87.7v25.6Z" class="g1_21"/>
<path fill-rule="evenodd" d="M95.4,926.3H836V900.7H95.4v25.6Z" class="g1_21"/>
<path fill-rule="evenodd" d="M85.9,900.7h1.5v-1.6H85.9v1.6Z" class="g0_21"/>
<path fill-rule="evenodd" d="M87.4,900.7H288.2v-1.6H87.4v1.6Z" class="g0_21"/>
<path fill-rule="evenodd" d="M288.2,900.7h1.5v-1.6h-1.5v1.6Z" class="g0_21"/>
<path fill-rule="evenodd" d="M289.7,900.7H843.3v-1.6H289.7v1.6Z" class="g0_21"/>
<path fill-rule="evenodd" d="M843.3,900.7h1.5v-1.6h-1.5v1.6Z" class="g0_21"/>
<path fill-rule="evenodd" d="M85.9,926.3h1.5V900.7H85.9v25.6Z" class="g0_21"/>
<path fill-rule="evenodd" d="M843.3,926.3h1.5V900.7h-1.5v25.6Z" class="g0_21"/>
<path fill-rule="evenodd" d="M85.9,927.9h1.5v-1.6H85.9v1.6Z" class="g0_21"/>
<path fill-rule="evenodd" d="M87.4,927.9H286.7v-1.6H87.4v1.6Z" class="g0_21"/>
<path fill-rule="evenodd" d="M286.7,927.9h1.5v-1.6h-1.5v1.6Z" class="g0_21"/>
<path fill-rule="evenodd" d="M288.2,927.9H843.3v-1.6H288.2v1.6Z" class="g0_21"/>
<path fill-rule="evenodd" d="M843.3,927.9h1.5v-1.6h-1.5v1.6Z" class="g0_21"/>
<path fill-rule="evenodd" d="M85.9,973.1h1.5V927.9H85.9v45.2Z" class="g0_21"/>
<path fill-rule="evenodd" d="M286.7,973.1h1.5V927.9h-1.5v45.2Z" class="g0_21"/>
<path fill-rule="evenodd" d="M843.3,973.1h1.5V927.9h-1.5v45.2Z" class="g0_21"/>
<path fill-rule="evenodd" d="M85.9,974.6h1.5v-1.5H85.9v1.5Z" class="g0_21"/>
<path fill-rule="evenodd" d="M87.4,974.6H286.7v-1.5H87.4v1.5Z" class="g0_21"/>
<path fill-rule="evenodd" d="M286.7,974.6h1.5v-1.5h-1.5v1.5Z" class="g0_21"/>
<path fill-rule="evenodd" d="M288.2,974.6H843.3v-1.5H288.2v1.5Z" class="g0_21"/>
<path fill-rule="evenodd" d="M843.3,974.6h1.5v-1.5h-1.5v1.5Z" class="g0_21"/>
<path fill-rule="evenodd" d="M85.9,1000.3h1.5V974.6H85.9v25.7Z" class="g0_21"/>
<path fill-rule="evenodd" d="M286.7,1000.3h1.5V974.6h-1.5v25.7Z" class="g0_21"/>
<path fill-rule="evenodd" d="M843.3,1000.3h1.5V974.6h-1.5v25.7Z" class="g0_21"/>
<path fill-rule="evenodd" d="M85.9,1001.8h1.5v-1.5H85.9v1.5Z" class="g0_21"/>
<path fill-rule="evenodd" d="M87.4,1001.8H286.7v-1.5H87.4v1.5Z" class="g0_21"/>
<path fill-rule="evenodd" d="M286.7,1001.8h1.5v-1.5h-1.5v1.5Z" class="g0_21"/>
<path fill-rule="evenodd" d="M288.2,1001.8H843.3v-1.5H288.2v1.5Z" class="g0_21"/>
<path fill-rule="evenodd" d="M843.3,1001.8h1.5v-1.5h-1.5v1.5Z" class="g0_21"/>
<path fill-rule="evenodd" d="M85.9,1027.5h1.5v-25.7H85.9v25.7Z" class="g0_21"/>
<path fill-rule="evenodd" d="M286.7,1027.5h1.5v-25.7h-1.5v25.7Z" class="g0_21"/>
<path fill-rule="evenodd" d="M843.3,1027.5h1.5v-25.7h-1.5v25.7Z" class="g0_21"/>
<path fill-rule="evenodd" d="M85.9,1029h1.5v-1.5H85.9v1.5Z" class="g0_21"/>
<path fill-rule="evenodd" d="M87.4,1029H286.7v-1.5H87.4v1.5Z" class="g0_21"/>
<path fill-rule="evenodd" d="M286.7,1029h1.5v-1.5h-1.5v1.5Z" class="g0_21"/>
<path fill-rule="evenodd" d="M288.2,1029H843.3v-1.5H288.2v1.5Z" class="g0_21"/>
<path fill-rule="evenodd" d="M843.3,1029h1.5v-1.5h-1.5v1.5Z" class="g0_21"/>
<path fill-rule="evenodd" d="M85.9,1054.4h1.5V1029H85.9v25.4Z" class="g0_21"/>
<path fill-rule="evenodd" d="M286.7,1054.4h1.5V1029h-1.5v25.4Z" class="g0_21"/>
<path fill-rule="evenodd" d="M843.3,1054.4h1.5V1029h-1.5v25.4Z" class="g0_21"/>
<path fill-rule="evenodd" d="M85.9,1055.9h1.5v-1.5H85.9v1.5Z" class="g0_21"/>
<path fill-rule="evenodd" d="M87.4,1055.9H286.7v-1.5H87.4v1.5Z" class="g0_21"/>
<path fill-rule="evenodd" d="M286.7,1055.9h1.5v-1.5h-1.5v1.5Z" class="g0_21"/>
<path fill-rule="evenodd" d="M288.2,1055.9H843.3v-1.5H288.2v1.5Z" class="g0_21"/>
<path fill-rule="evenodd" d="M843.3,1055.9h1.5v-1.5h-1.5v1.5Z" class="g0_21"/>
<path fill-rule="evenodd" d="M85.9,1101.1h1.5v-45.2H85.9v45.2Z" class="g0_21"/>
<path fill-rule="evenodd" d="M85.9,1102.7h1.5v-1.6H85.9v1.6Z" class="g0_21"/>
<path fill-rule="evenodd" d="M85.9,1102.7h1.5v-1.6H85.9v1.6Z" class="g0_21"/>
<path fill-rule="evenodd" d="M87.4,1102.7H286.7v-1.6H87.4v1.6Z" class="g0_21"/>
<path fill-rule="evenodd" d="M286.7,1101.1h1.5v-45.2h-1.5v45.2Z" class="g0_21"/>
<path fill-rule="evenodd" d="M286.7,1102.7h1.5v-1.6h-1.5v1.6Z" class="g0_21"/>
<path fill-rule="evenodd" d="M288.2,1102.7H843.3v-1.6H288.2v1.6Z" class="g0_21"/>
<path fill-rule="evenodd" d="M843.3,1101.1h1.5v-45.2h-1.5v45.2Z" class="g0_21"/>
<path fill-rule="evenodd" d="M843.3,1102.7h1.5v-1.6h-1.5v1.6Z" class="g0_21"/>
<path fill-rule="evenodd" d="M843.3,1102.7h1.5v-1.6h-1.5v1.6Z" class="g0_21"/>
</svg>