<?xml version="1.0" encoding="UTF-8" standalone="no"?>
<!DOCTYPE svg PUBLIC "-//W3C//DTD SVG 1.1//EN"
"http://www.w3.org/Graphics/SVG/1.1/DTD/svg11.dtd">
<svg viewBox="0 0 909 1286" version="1.1" xmlns="http://www.w3.org/2000/svg" xmlns:xlink="http://www.w3.org/1999/xlink">
<defs>
<clipPath id="c0_43"><path d="M89.6,872.3V360.2H841.5V872.3Z"/></clipPath>
<style type="text/css"><![CDATA[
.g0_43{
}
]]></style>
</defs>
<path fill-rule="evenodd" d="M86.5,66H844.8V64.5H86.5V66Z" class="g0_43"/>
<path fill-rule="evenodd" d="M85.9,88h1.5V86.5H85.9V88Z" class="g0_43"/>
<path fill-rule="evenodd" d="M85.9,88h1.5V86.5H85.9V88Z" class="g0_43"/>
<path fill-rule="evenodd" d="M87.4,88H318.8V86.5H87.4V88Z" class="g0_43"/>
<path fill-rule="evenodd" d="M318.8,88h1.5V86.5h-1.5V88Z" class="g0_43"/>
<path fill-rule="evenodd" d="M320.3,88h523V86.5h-523V88Z" class="g0_43"/>
<path fill-rule="evenodd" d="M843.3,88h1.5V86.5h-1.5V88Z" class="g0_43"/>
<path fill-rule="evenodd" d="M843.3,88h1.5V86.5h-1.5V88Z" class="g0_43"/>
<path fill-rule="evenodd" d="M85.9,113.7h1.5V88H85.9v25.7Z" class="g0_43"/>
<path fill-rule="evenodd" d="M318.8,113.7h1.5V88h-1.5v25.7Z" class="g0_43"/>
<path fill-rule="evenodd" d="M843.3,113.7h1.5V88h-1.5v25.7Z" class="g0_43"/>
<path fill-rule="evenodd" d="M85.9,115.2h1.5v-1.5H85.9v1.5Z" class="g0_43"/>
<path fill-rule="evenodd" d="M87.4,115.2H318.8v-1.5H87.4v1.5Z" class="g0_43"/>
<path fill-rule="evenodd" d="M318.8,115.2h1.5v-1.5h-1.5v1.5Z" class="g0_43"/>
<path fill-rule="evenodd" d="M320.3,115.2h523v-1.5h-523v1.5Z" class="g0_43"/>
<path fill-rule="evenodd" d="M843.3,115.2h1.5v-1.5h-1.5v1.5Z" class="g0_43"/>
<path fill-rule="evenodd" d="M85.9,140.9h1.5V115.2H85.9v25.7Z" class="g0_43"/>
<path fill-rule="evenodd" d="M318.8,140.9h1.5V115.2h-1.5v25.7Z" class="g0_43"/>
<path fill-rule="evenodd" d="M843.3,140.9h1.5V115.2h-1.5v25.7Z" class="g0_43"/>
<path fill-rule="evenodd" d="M85.9,142.4h1.5v-1.5H85.9v1.5Z" class="g0_43"/>
<path fill-rule="evenodd" d="M87.4,142.4H318.8v-1.5H87.4v1.5Z" class="g0_43"/>
<path fill-rule="evenodd" d="M318.8,142.4h1.5v-1.5h-1.5v1.5Z" class="g0_43"/>
<path fill-rule="evenodd" d="M320.3,142.4h523v-1.5h-523v1.5Z" class="g0_43"/>
<path fill-rule="evenodd" d="M843.3,142.4h1.5v-1.5h-1.5v1.5Z" class="g0_43"/>
<path fill-rule="evenodd" d="M85.9,168.1h1.5V142.4H85.9v25.7Z" class="g0_43"/>
<path fill-rule="evenodd" d="M318.8,168.1h1.5V142.4h-1.5v25.7Z" class="g0_43"/>
<path fill-rule="evenodd" d="M843.3,168.1h1.5V142.4h-1.5v25.7Z" class="g0_43"/>
<path fill-rule="evenodd" d="M85.9,169.6h1.5v-1.5H85.9v1.5Z" class="g0_43"/>
<path fill-rule="evenodd" d="M87.4,169.6H318.8v-1.5H87.4v1.5Z" class="g0_43"/>
<path fill-rule="evenodd" d="M318.8,169.6h1.5v-1.5h-1.5v1.5Z" class="g0_43"/>
<path fill-rule="evenodd" d="M320.3,169.6h523v-1.5h-523v1.5Z" class="g0_43"/>
<path fill-rule="evenodd" d="M843.3,169.6h1.5v-1.5h-1.5v1.5Z" class="g0_43"/>
<path fill-rule="evenodd" d="M85.9,195.3h1.5V169.6H85.9v25.7Z" class="g0_43"/>
<path fill-rule="evenodd" d="M85.9,196.8h1.5v-1.5H85.9v1.5Z" class="g0_43"/>
<path fill-rule="evenodd" d="M85.9,196.8h1.5v-1.5H85.9v1.5Z" class="g0_43"/>
<path fill-rule="evenodd" d="M87.4,196.8H318.8v-1.5H87.4v1.5Z" class="g0_43"/>
<path fill-rule="evenodd" d="M318.8,195.3h1.5V169.6h-1.5v25.7Z" class="g0_43"/>
<path fill-rule="evenodd" d="M318.8,196.8h1.5v-1.5h-1.5v1.5Z" class="g0_43"/>
<path fill-rule="evenodd" d="M320.3,196.8h523v-1.5h-523v1.5Z" class="g0_43"/>
<path fill-rule="evenodd" d="M843.3,195.3h1.5V169.6h-1.5v25.7Z" class="g0_43"/>
<path fill-rule="evenodd" d="M843.3,196.8h1.5v-1.5h-1.5v1.5Z" class="g0_43"/>
<path fill-rule="evenodd" d="M843.3,196.8h1.5v-1.5h-1.5v1.5Z" class="g0_43"/>
<image clip-path="url(#c0_43)" preserveAspectRatio="none" x="90" y="360" width="751" height="512" xlink:href="img/1.jpg"/>
</svg>