<?xml version="1.0" encoding="UTF-8" standalone="no"?>
<!DOCTYPE svg PUBLIC "-//W3C//DTD SVG 1.1//EN"
"http://www.w3.org/Graphics/SVG/1.1/DTD/svg11.dtd">
<svg viewBox="0 0 909 1286" version="1.1" xmlns="http://www.w3.org/2000/svg" xmlns:xlink="http://www.w3.org/1999/xlink">
<defs>
<style type="text/css"><![CDATA[
.g0_25{
}
.g1_25{
fill: #F1F1F1;
}
]]></style>
</defs>
<path fill-rule="evenodd" d="M86.5,66H844.8V64.5H86.5V66Z" class="g0_25"/>
<path fill-rule="evenodd" d="M87.7,113.7H843.6V88H87.7v25.7Z" class="g1_25"/>
<path fill-rule="evenodd" d="M95.4,113.7H836V88H95.4v25.7Z" class="g1_25"/>
<path fill-rule="evenodd" d="M85.9,88h1.5V86.5H85.9V88Z" class="g0_25"/>
<path fill-rule="evenodd" d="M85.9,88h1.5V86.5H85.9V88Z" class="g0_25"/>
<path fill-rule="evenodd" d="M87.4,88H843.3V86.5H87.4V88Z" class="g0_25"/>
<path fill-rule="evenodd" d="M843.3,88h1.5V86.5h-1.5V88Z" class="g0_25"/>
<path fill-rule="evenodd" d="M843.3,88h1.5V86.5h-1.5V88Z" class="g0_25"/>
<path fill-rule="evenodd" d="M85.9,113.7h1.5V88H85.9v25.7Z" class="g0_25"/>
<path fill-rule="evenodd" d="M843.3,113.7h1.5V88h-1.5v25.7Z" class="g0_25"/>
<path fill-rule="evenodd" d="M85.9,115.2h1.5v-1.5H85.9v1.5Z" class="g0_25"/>
<path fill-rule="evenodd" d="M87.4,115.2h199v-1.5H87.4v1.5Z" class="g0_25"/>
<path fill-rule="evenodd" d="M286.4,115.2h1.5v-1.5h-1.5v1.5Z" class="g0_25"/>
<path fill-rule="evenodd" d="M287.9,115.2H843.3v-1.5H287.9v1.5Z" class="g0_25"/>
<path fill-rule="evenodd" d="M843.3,115.2h1.5v-1.5h-1.5v1.5Z" class="g0_25"/>
<path fill-rule="evenodd" d="M85.9,160.4h1.5V115.2H85.9v45.2Z" class="g0_25"/>
<path fill-rule="evenodd" d="M286.4,160.4h1.5V115.2h-1.5v45.2Z" class="g0_25"/>
<path fill-rule="evenodd" d="M843.3,160.4h1.5V115.2h-1.5v45.2Z" class="g0_25"/>
<path fill-rule="evenodd" d="M87.7,187.7H843.6V162H87.7v25.7Z" class="g1_25"/>
<path fill-rule="evenodd" d="M95.4,187.7H836V162H95.4v25.7Z" class="g1_25"/>
<path fill-rule="evenodd" d="M85.9,162h1.5v-1.5H85.9V162Z" class="g0_25"/>
<path fill-rule="evenodd" d="M87.4,162h199v-1.5H87.4V162Z" class="g0_25"/>
<path fill-rule="evenodd" d="M286.4,162h1.5v-1.5h-1.5V162Z" class="g0_25"/>
<path fill-rule="evenodd" d="M287.9,162H843.3v-1.5H287.9V162Z" class="g0_25"/>
<path fill-rule="evenodd" d="M843.3,162h1.5v-1.5h-1.5V162Z" class="g0_25"/>
<path fill-rule="evenodd" d="M85.9,187.7h1.5V162H85.9v25.7Z" class="g0_25"/>
<path fill-rule="evenodd" d="M843.3,187.7h1.5V162h-1.5v25.7Z" class="g0_25"/>
<path fill-rule="evenodd" d="M85.9,189.2h1.5v-1.5H85.9v1.5Z" class="g0_25"/>
<path fill-rule="evenodd" d="M87.4,189.2h199v-1.5H87.4v1.5Z" class="g0_25"/>
<path fill-rule="evenodd" d="M286.4,189.2h1.5v-1.5h-1.5v1.5Z" class="g0_25"/>
<path fill-rule="evenodd" d="M287.9,189.2H843.3v-1.5H287.9v1.5Z" class="g0_25"/>
<path fill-rule="evenodd" d="M843.3,189.2h1.5v-1.5h-1.5v1.5Z" class="g0_25"/>
<path fill-rule="evenodd" d="M85.9,214.9h1.5V189.2H85.9v25.7Z" class="g0_25"/>
<path fill-rule="evenodd" d="M286.4,214.9h1.5V189.2h-1.5v25.7Z" class="g0_25"/>
<path fill-rule="evenodd" d="M843.3,214.9h1.5V189.2h-1.5v25.7Z" class="g0_25"/>
<path fill-rule="evenodd" d="M87.7,242H843.6V216.4H87.7V242Z" class="g1_25"/>
<path fill-rule="evenodd" d="M95.4,242H836V216.4H95.4V242Z" class="g1_25"/>
<path fill-rule="evenodd" d="M85.9,216.4h1.5v-1.5H85.9v1.5Z" class="g0_25"/>
<path fill-rule="evenodd" d="M87.4,216.4h199v-1.5H87.4v1.5Z" class="g0_25"/>
<path fill-rule="evenodd" d="M286.4,216.4h1.5v-1.5h-1.5v1.5Z" class="g0_25"/>
<path fill-rule="evenodd" d="M287.9,216.4H843.3v-1.5H287.9v1.5Z" class="g0_25"/>
<path fill-rule="evenodd" d="M843.3,216.4h1.5v-1.5h-1.5v1.5Z" class="g0_25"/>
<path fill-rule="evenodd" d="M85.9,242h1.5V216.4H85.9V242Z" class="g0_25"/>
<path fill-rule="evenodd" d="M843.3,242h1.5V216.4h-1.5V242Z" class="g0_25"/>
<path fill-rule="evenodd" d="M85.9,243.6h1.5V242H85.9v1.6Z" class="g0_25"/>
<path fill-rule="evenodd" d="M87.4,243.6h199V242H87.4v1.6Z" class="g0_25"/>
<path fill-rule="evenodd" d="M286.4,243.6h1.5V242h-1.5v1.6Z" class="g0_25"/>
<path fill-rule="evenodd" d="M287.9,243.6H843.3V242H287.9v1.6Z" class="g0_25"/>
<path fill-rule="evenodd" d="M843.3,243.6h1.5V242h-1.5v1.6Z" class="g0_25"/>
<path fill-rule="evenodd" d="M85.9,269.3h1.5V243.6H85.9v25.7Z" class="g0_25"/>
<path fill-rule="evenodd" d="M286.4,269.3h1.5V243.6h-1.5v25.7Z" class="g0_25"/>
<path fill-rule="evenodd" d="M843.3,269.3h1.5V243.6h-1.5v25.7Z" class="g0_25"/>
<path fill-rule="evenodd" d="M85.9,270.8h1.5v-1.5H85.9v1.5Z" class="g0_25"/>
<path fill-rule="evenodd" d="M87.4,270.8h199v-1.5H87.4v1.5Z" class="g0_25"/>
<path fill-rule="evenodd" d="M286.4,270.8h1.5v-1.5h-1.5v1.5Z" class="g0_25"/>
<path fill-rule="evenodd" d="M287.9,270.8H843.3v-1.5H287.9v1.5Z" class="g0_25"/>
<path fill-rule="evenodd" d="M843.3,270.8h1.5v-1.5h-1.5v1.5Z" class="g0_25"/>
<path fill-rule="evenodd" d="M85.9,296.2h1.5V270.8H85.9v25.4Z" class="g0_25"/>
<path fill-rule="evenodd" d="M286.4,296.2h1.5V270.8h-1.5v25.4Z" class="g0_25"/>
<path fill-rule="evenodd" d="M843.3,296.2h1.5V270.8h-1.5v25.4Z" class="g0_25"/>
<path fill-rule="evenodd" d="M85.9,297.7h1.5v-1.5H85.9v1.5Z" class="g0_25"/>
<path fill-rule="evenodd" d="M87.4,297.7h199v-1.5H87.4v1.5Z" class="g0_25"/>
<path fill-rule="evenodd" d="M286.4,297.7h1.5v-1.5h-1.5v1.5Z" class="g0_25"/>
<path fill-rule="evenodd" d="M287.9,297.7H843.3v-1.5H287.9v1.5Z" class="g0_25"/>
<path fill-rule="evenodd" d="M843.3,297.7h1.5v-1.5h-1.5v1.5Z" class="g0_25"/>
<path fill-rule="evenodd" d="M85.9,323.4h1.5V297.7H85.9v25.7Z" class="g0_25"/>
<path fill-rule="evenodd" d="M286.4,323.4h1.5V297.7h-1.5v25.7Z" class="g0_25"/>
<path fill-rule="evenodd" d="M843.3,323.4h1.5V297.7h-1.5v25.7Z" class="g0_25"/>
<path fill-rule="evenodd" d="M85.9,324.9h1.5v-1.5H85.9v1.5Z" class="g0_25"/>
<path fill-rule="evenodd" d="M87.4,324.9h199v-1.5H87.4v1.5Z" class="g0_25"/>
<path fill-rule="evenodd" d="M286.4,324.9h1.5v-1.5h-1.5v1.5Z" class="g0_25"/>
<path fill-rule="evenodd" d="M287.9,324.9H843.3v-1.5H287.9v1.5Z" class="g0_25"/>
<path fill-rule="evenodd" d="M843.3,324.9h1.5v-1.5h-1.5v1.5Z" class="g0_25"/>
<path fill-rule="evenodd" d="M85.9,350.5h1.5V324.9H85.9v25.6Z" class="g0_25"/>
<path fill-rule="evenodd" d="M286.4,350.5h1.5V324.9h-1.5v25.6Z" class="g0_25"/>
<path fill-rule="evenodd" d="M843.3,350.5h1.5V324.9h-1.5v25.6Z" class="g0_25"/>
<path fill-rule="evenodd" d="M85.9,352.1h1.5v-1.6H85.9v1.6Z" class="g0_25"/>
<path fill-rule="evenodd" d="M87.4,352.1h199v-1.6H87.4v1.6Z" class="g0_25"/>
<path fill-rule="evenodd" d="M286.4,352.1h1.5v-1.6h-1.5v1.6Z" class="g0_25"/>
<path fill-rule="evenodd" d="M287.9,352.1H843.3v-1.6H287.9v1.6Z" class="g0_25"/>
<path fill-rule="evenodd" d="M843.3,352.1h1.5v-1.6h-1.5v1.6Z" class="g0_25"/>
<path fill-rule="evenodd" d="M85.9,397.3h1.5V352.1H85.9v45.2Z" class="g0_25"/>
<path fill-rule="evenodd" d="M85.9,398.8h1.5v-1.5H85.9v1.5Z" class="g0_25"/>
<path fill-rule="evenodd" d="M85.9,398.8h1.5v-1.5H85.9v1.5Z" class="g0_25"/>
<path fill-rule="evenodd" d="M87.4,398.8h199v-1.5H87.4v1.5Z" class="g0_25"/>
<path fill-rule="evenodd" d="M286.4,397.3h1.5V352.1h-1.5v45.2Z" class="g0_25"/>
<path fill-rule="evenodd" d="M286.4,398.8h1.5v-1.5h-1.5v1.5Z" class="g0_25"/>
<path fill-rule="evenodd" d="M287.9,398.8H843.3v-1.5H287.9v1.5Z" class="g0_25"/>
<path fill-rule="evenodd" d="M843.3,397.3h1.5V352.1h-1.5v45.2Z" class="g0_25"/>
<path fill-rule="evenodd" d="M843.3,398.8h1.5v-1.5h-1.5v1.5Z" class="g0_25"/>
<path fill-rule="evenodd" d="M843.3,398.8h1.5v-1.5h-1.5v1.5Z" class="g0_25"/>
<path fill-rule="evenodd" d="M86.5,482.6h74.9v-1.2H86.5v1.2Z" class="g0_25"/>
<path fill-rule="evenodd" d="M86.5,631.1h70v-1.2h-70v1.2Z" class="g0_25"/>
<path fill-rule="evenodd" d="M87.7,723.4H843.6V697.7H87.7v25.7Z" class="g1_25"/>
<path fill-rule="evenodd" d="M95.4,723.4H836V697.7H95.4v25.7Z" class="g1_25"/>
<path fill-rule="evenodd" d="M85.9,697.7h1.5v-1.5H85.9v1.5Z" class="g0_25"/>
<path fill-rule="evenodd" d="M85.9,697.7h1.5v-1.5H85.9v1.5Z" class="g0_25"/>
<path fill-rule="evenodd" d="M87.4,697.7H843.3v-1.5H87.4v1.5Z" class="g0_25"/>
<path fill-rule="evenodd" d="M843.3,697.7h1.5v-1.5h-1.5v1.5Z" class="g0_25"/>
<path fill-rule="evenodd" d="M843.3,697.7h1.5v-1.5h-1.5v1.5Z" class="g0_25"/>
<path fill-rule="evenodd" d="M85.9,723.4h1.5V697.7H85.9v25.7Z" class="g0_25"/>
<path fill-rule="evenodd" d="M843.3,723.4h1.5V697.7h-1.5v25.7Z" class="g0_25"/>
<path fill-rule="evenodd" d="M85.9,724.9h1.5v-1.5H85.9v1.5Z" class="g0_25"/>
<path fill-rule="evenodd" d="M87.4,724.9H275.7v-1.5H87.4v1.5Z" class="g0_25"/>
<path fill-rule="evenodd" d="M275.7,724.9h1.5v-1.5h-1.5v1.5Z" class="g0_25"/>
<path fill-rule="evenodd" d="M277.2,724.9H843.3v-1.5H277.2v1.5Z" class="g0_25"/>
<path fill-rule="evenodd" d="M843.3,724.9h1.5v-1.5h-1.5v1.5Z" class="g0_25"/>
<path fill-rule="evenodd" d="M85.9,750.6h1.5V724.9H85.9v25.7Z" class="g0_25"/>
<path fill-rule="evenodd" d="M275.7,750.6h1.5V724.9h-1.5v25.7Z" class="g0_25"/>
<path fill-rule="evenodd" d="M843.3,750.6h1.5V724.9h-1.5v25.7Z" class="g0_25"/>
<path fill-rule="evenodd" d="M87.7,777.8H843.6V752.1H87.7v25.7Z" class="g1_25"/>
<path fill-rule="evenodd" d="M95.4,777.8H836V752.1H95.4v25.7Z" class="g1_25"/>
<path fill-rule="evenodd" d="M85.9,752.1h1.5v-1.5H85.9v1.5Z" class="g0_25"/>
<path fill-rule="evenodd" d="M87.4,752.1H275.7v-1.5H87.4v1.5Z" class="g0_25"/>
<path fill-rule="evenodd" d="M275.7,752.1h1.5v-1.5h-1.5v1.5Z" class="g0_25"/>
<path fill-rule="evenodd" d="M277.2,752.1H843.3v-1.5H277.2v1.5Z" class="g0_25"/>
<path fill-rule="evenodd" d="M843.3,752.1h1.5v-1.5h-1.5v1.5Z" class="g0_25"/>
<path fill-rule="evenodd" d="M85.9,777.8h1.5V752.1H85.9v25.7Z" class="g0_25"/>
<path fill-rule="evenodd" d="M843.3,777.8h1.5V752.1h-1.5v25.7Z" class="g0_25"/>
<path fill-rule="evenodd" d="M85.9,779.4h1.5v-1.6H85.9v1.6Z" class="g0_25"/>
<path fill-rule="evenodd" d="M87.4,779.4H275.7v-1.6H87.4v1.6Z" class="g0_25"/>
<path fill-rule="evenodd" d="M275.7,779.4h1.5v-1.6h-1.5v1.6Z" class="g0_25"/>
<path fill-rule="evenodd" d="M277.2,779.4H843.3v-1.6H277.2v1.6Z" class="g0_25"/>
<path fill-rule="evenodd" d="M843.3,779.4h1.5v-1.6h-1.5v1.6Z" class="g0_25"/>
<path fill-rule="evenodd" d="M85.9,843.8h1.5V779.4H85.9v64.4Z" class="g0_25"/>
<path fill-rule="evenodd" d="M275.7,843.8h1.5V779.4h-1.5v64.4Z" class="g0_25"/>
<path fill-rule="evenodd" d="M843.3,843.8h1.5V779.4h-1.5v64.4Z" class="g0_25"/>
<path fill-rule="evenodd" d="M85.9,845.4h1.5v-1.6H85.9v1.6Z" class="g0_25"/>
<path fill-rule="evenodd" d="M87.4,845.4H275.7v-1.6H87.4v1.6Z" class="g0_25"/>
<path fill-rule="evenodd" d="M275.7,845.4h1.5v-1.6h-1.5v1.6Z" class="g0_25"/>
<path fill-rule="evenodd" d="M277.2,845.4H843.3v-1.6H277.2v1.6Z" class="g0_25"/>
<path fill-rule="evenodd" d="M843.3,845.4h1.5v-1.6h-1.5v1.6Z" class="g0_25"/>
<path fill-rule="evenodd" d="M85.9,910.1h1.5V845.4H85.9v64.7Z" class="g0_25"/>
<path fill-rule="evenodd" d="M275.7,910.1h1.5V845.4h-1.5v64.7Z" class="g0_25"/>
<path fill-rule="evenodd" d="M843.3,910.1h1.5V845.4h-1.5v64.7Z" class="g0_25"/>
<path fill-rule="evenodd" d="M85.9,911.7h1.5v-1.6H85.9v1.6Z" class="g0_25"/>
<path fill-rule="evenodd" d="M87.4,911.7H275.7v-1.6H87.4v1.6Z" class="g0_25"/>
<path fill-rule="evenodd" d="M275.7,911.7h1.5v-1.6h-1.5v1.6Z" class="g0_25"/>
<path fill-rule="evenodd" d="M277.2,911.7H843.3v-1.6H277.2v1.6Z" class="g0_25"/>
<path fill-rule="evenodd" d="M843.3,911.7h1.5v-1.6h-1.5v1.6Z" class="g0_25"/>
<path fill-rule="evenodd" d="M85.9,976.2h1.5V911.7H85.9v64.5Z" class="g0_25"/>
<path fill-rule="evenodd" d="M275.7,976.2h1.5V911.7h-1.5v64.5Z" class="g0_25"/>
<path fill-rule="evenodd" d="M843.3,976.2h1.5V911.7h-1.5v64.5Z" class="g0_25"/>
<path fill-rule="evenodd" d="M85.9,977.7h1.5v-1.5H85.9v1.5Z" class="g0_25"/>
<path fill-rule="evenodd" d="M87.4,977.7H275.7v-1.5H87.4v1.5Z" class="g0_25"/>
<path fill-rule="evenodd" d="M275.7,977.7h1.5v-1.5h-1.5v1.5Z" class="g0_25"/>
<path fill-rule="evenodd" d="M277.2,977.7H843.3v-1.5H277.2v1.5Z" class="g0_25"/>
<path fill-rule="evenodd" d="M843.3,977.7h1.5v-1.5h-1.5v1.5Z" class="g0_25"/>
<path fill-rule="evenodd" d="M85.9,1101.1h1.5V977.7H85.9v123.4Z" class="g0_25"/>
<path fill-rule="evenodd" d="M275.7,1101.1h1.5V977.7h-1.5v123.4Z" class="g0_25"/>
<path fill-rule="evenodd" d="M843.3,1101.1h1.5V977.7h-1.5v123.4Z" class="g0_25"/>
<path fill-rule="evenodd" d="M85.9,1102.7h1.5v-1.6H85.9v1.6Z" class="g0_25"/>
<path fill-rule="evenodd" d="M87.4,1102.7H275.7v-1.6H87.4v1.6Z" class="g0_25"/>
<path fill-rule="evenodd" d="M275.7,1102.7h1.5v-1.6h-1.5v1.6Z" class="g0_25"/>
<path fill-rule="evenodd" d="M277.2,1102.7H843.3v-1.6H277.2v1.6Z" class="g0_25"/>
<path fill-rule="evenodd" d="M843.3,1102.7h1.5v-1.6h-1.5v1.6Z" class="g0_25"/>
<path fill-rule="evenodd" d="M85.9,1147.6h1.5v-44.9H85.9v44.9Z" class="g0_25"/>
<path fill-rule="evenodd" d="M85.9,1149.2h1.5v-1.6H85.9v1.6Z" class="g0_25"/>
<path fill-rule="evenodd" d="M85.9,1149.2h1.5v-1.6H85.9v1.6Z" class="g0_25"/>
<path fill-rule="evenodd" d="M87.4,1149.2H275.7v-1.6H87.4v1.6Z" class="g0_25"/>
<path fill-rule="evenodd" d="M275.7,1147.6h1.5v-44.9h-1.5v44.9Z" class="g0_25"/>
<path fill-rule="evenodd" d="M275.7,1149.2h1.5v-1.6h-1.5v1.6Z" class="g0_25"/>
<path fill-rule="evenodd" d="M277.2,1149.2H843.3v-1.6H277.2v1.6Z" class="g0_25"/>
<path fill-rule="evenodd" d="M843.3,1147.6h1.5v-44.9h-1.5v44.9Z" class="g0_25"/>
<path fill-rule="evenodd" d="M843.3,1149.2h1.5v-1.6h-1.5v1.6Z" class="g0_25"/>
<path fill-rule="evenodd" d="M843.3,1149.2h1.5v-1.6h-1.5v1.6Z" class="g0_25"/>
</svg>