<?xml version="1.0" encoding="UTF-8" standalone="no"?>
<!DOCTYPE svg PUBLIC "-//W3C//DTD SVG 1.1//EN"
"http://www.w3.org/Graphics/SVG/1.1/DTD/svg11.dtd">
<svg viewBox="0 0 909 1286" version="1.1" xmlns="http://www.w3.org/2000/svg" xmlns:xlink="http://www.w3.org/1999/xlink">
<defs>
<style type="text/css"><![CDATA[
.g0_30{
}
.g1_30{
fill: #F1F1F1;
}
.g2_30{
fill: #FFFFFF;
}
]]></style>
</defs>
<path fill-rule="evenodd" d="M65.1,66H823.4V64.5H65.1V66Z" class="g0_30"/>
<path fill-rule="evenodd" d="M65.1,137.8H140v-1.2H65.1v1.2Z" class="g0_30"/>
<path fill-rule="evenodd" d="M57.4,208.7H830.8V183.1H57.4v25.6Z" class="g1_30"/>
<path fill-rule="evenodd" d="M65.1,208.7h758V183.1H65.1v25.6Z" class="g1_30"/>
<path fill-rule="evenodd" d="M55.9,183.1h1.5v-1.6H55.9v1.6Z" class="g0_30"/>
<path fill-rule="evenodd" d="M55.9,183.1h1.5v-1.6H55.9v1.6Z" class="g0_30"/>
<path fill-rule="evenodd" d="M57.4,183.1H830.5v-1.6H57.4v1.6Z" class="g0_30"/>
<path fill-rule="evenodd" d="M830.5,183.1H832v-1.6h-1.5v1.6Z" class="g0_30"/>
<path fill-rule="evenodd" d="M830.5,183.1H832v-1.6h-1.5v1.6Z" class="g0_30"/>
<path fill-rule="evenodd" d="M55.9,208.7h1.5V183.1H55.9v25.6Z" class="g0_30"/>
<path fill-rule="evenodd" d="M830.5,208.7H832V183.1h-1.5v25.6Z" class="g0_30"/>
<path fill-rule="evenodd" d="M55.9,210.3h1.5v-1.6H55.9v1.6Z" class="g0_30"/>
<path fill-rule="evenodd" d="M57.4,210.3H396.7v-1.6H57.4v1.6Z" class="g0_30"/>
<path fill-rule="evenodd" d="M396.7,210.3h1.6v-1.6h-1.6v1.6Z" class="g0_30"/>
<path fill-rule="evenodd" d="M398.3,210.3H830.5v-1.6H398.3v1.6Z" class="g0_30"/>
<path fill-rule="evenodd" d="M830.5,210.3H832v-1.6h-1.5v1.6Z" class="g0_30"/>
<path fill-rule="evenodd" d="M55.9,255.5h1.5V210.3H55.9v45.2Z" class="g0_30"/>
<path fill-rule="evenodd" d="M396.7,255.5h1.6V210.3h-1.6v45.2Z" class="g0_30"/>
<path fill-rule="evenodd" d="M830.5,255.5H832V210.3h-1.5v45.2Z" class="g0_30"/>
<path fill-rule="evenodd" d="M55.9,257h1.5v-1.5H55.9V257Z" class="g0_30"/>
<path fill-rule="evenodd" d="M57.4,257H396.7v-1.5H57.4V257Z" class="g0_30"/>
<path fill-rule="evenodd" d="M396.7,257h1.6v-1.5h-1.6V257Z" class="g0_30"/>
<path fill-rule="evenodd" d="M398.3,257H830.5v-1.5H398.3V257Z" class="g0_30"/>
<path fill-rule="evenodd" d="M830.5,257H832v-1.5h-1.5V257Z" class="g0_30"/>
<path fill-rule="evenodd" d="M55.9,302.3h1.5V257H55.9v45.3Z" class="g0_30"/>
<path fill-rule="evenodd" d="M396.7,302.3h1.6V257h-1.6v45.3Z" class="g0_30"/>
<path fill-rule="evenodd" d="M830.5,302.3H832V257h-1.5v45.3Z" class="g0_30"/>
<path fill-rule="evenodd" d="M57.4,329.2H830.8V303.8H57.4v25.4Z" class="g1_30"/>
<path fill-rule="evenodd" d="M65.1,329.2h758V303.8H65.1v25.4Z" class="g1_30"/>
<path fill-rule="evenodd" d="M55.9,303.8h1.5v-1.5H55.9v1.5Z" class="g0_30"/>
<path fill-rule="evenodd" d="M57.4,303.8H396.7v-1.5H57.4v1.5Z" class="g0_30"/>
<path fill-rule="evenodd" d="M396.7,303.8h1.6v-1.5h-1.6v1.5Z" class="g0_30"/>
<path fill-rule="evenodd" d="M398.3,303.8H830.5v-1.5H398.3v1.5Z" class="g0_30"/>
<path fill-rule="evenodd" d="M830.5,303.8H832v-1.5h-1.5v1.5Z" class="g0_30"/>
<path fill-rule="evenodd" d="M55.9,329.2h1.5V303.8H55.9v25.4Z" class="g0_30"/>
<path fill-rule="evenodd" d="M830.5,329.2H832V303.8h-1.5v25.4Z" class="g0_30"/>
<path fill-rule="evenodd" d="M55.9,330.7h1.5v-1.5H55.9v1.5Z" class="g0_30"/>
<path fill-rule="evenodd" d="M57.4,330.7H396.7v-1.5H57.4v1.5Z" class="g0_30"/>
<path fill-rule="evenodd" d="M396.7,330.7h1.6v-1.5h-1.6v1.5Z" class="g0_30"/>
<path fill-rule="evenodd" d="M398.3,330.7H830.5v-1.5H398.3v1.5Z" class="g0_30"/>
<path fill-rule="evenodd" d="M830.5,330.7H832v-1.5h-1.5v1.5Z" class="g0_30"/>
<path fill-rule="evenodd" d="M55.9,356.4h1.5V330.7H55.9v25.7Z" class="g0_30"/>
<path fill-rule="evenodd" d="M396.7,356.4h1.6V330.7h-1.6v25.7Z" class="g0_30"/>
<path fill-rule="evenodd" d="M830.5,356.4H832V330.7h-1.5v25.7Z" class="g0_30"/>
<path fill-rule="evenodd" d="M55.9,357.9h1.5v-1.5H55.9v1.5Z" class="g0_30"/>
<path fill-rule="evenodd" d="M57.4,357.9H396.7v-1.5H57.4v1.5Z" class="g0_30"/>
<path fill-rule="evenodd" d="M396.7,357.9h1.6v-1.5h-1.6v1.5Z" class="g0_30"/>
<path fill-rule="evenodd" d="M398.3,357.9H830.5v-1.5H398.3v1.5Z" class="g0_30"/>
<path fill-rule="evenodd" d="M830.5,357.9H832v-1.5h-1.5v1.5Z" class="g0_30"/>
<path fill-rule="evenodd" d="M55.9,403.1h1.5V357.9H55.9v45.2Z" class="g0_30"/>
<path fill-rule="evenodd" d="M396.7,403.1h1.6V357.9h-1.6v45.2Z" class="g0_30"/>
<path fill-rule="evenodd" d="M830.5,403.1H832V357.9h-1.5v45.2Z" class="g0_30"/>
<path fill-rule="evenodd" d="M55.9,404.6h1.5v-1.5H55.9v1.5Z" class="g0_30"/>
<path fill-rule="evenodd" d="M57.4,404.6H396.7v-1.5H57.4v1.5Z" class="g0_30"/>
<path fill-rule="evenodd" d="M396.7,404.6h1.6v-1.5h-1.6v1.5Z" class="g0_30"/>
<path fill-rule="evenodd" d="M398.3,404.6H830.5v-1.5H398.3v1.5Z" class="g0_30"/>
<path fill-rule="evenodd" d="M830.5,404.6H832v-1.5h-1.5v1.5Z" class="g0_30"/>
<path fill-rule="evenodd" d="M55.9,430.3h1.5V404.6H55.9v25.7Z" class="g0_30"/>
<path fill-rule="evenodd" d="M396.7,430.3h1.6V404.6h-1.6v25.7Z" class="g0_30"/>
<path fill-rule="evenodd" d="M830.5,430.3H832V404.6h-1.5v25.7Z" class="g0_30"/>
<path fill-rule="evenodd" d="M55.9,431.9h1.5v-1.6H55.9v1.6Z" class="g0_30"/>
<path fill-rule="evenodd" d="M57.4,431.9H396.7v-1.6H57.4v1.6Z" class="g0_30"/>
<path fill-rule="evenodd" d="M396.7,431.9h1.6v-1.6h-1.6v1.6Z" class="g0_30"/>
<path fill-rule="evenodd" d="M398.3,431.9H830.5v-1.6H398.3v1.6Z" class="g0_30"/>
<path fill-rule="evenodd" d="M830.5,431.9H832v-1.6h-1.5v1.6Z" class="g0_30"/>
<path fill-rule="evenodd" d="M55.9,457.5h1.5V431.9H55.9v25.6Z" class="g0_30"/>
<path fill-rule="evenodd" d="M396.7,457.5h1.6V431.9h-1.6v25.6Z" class="g0_30"/>
<path fill-rule="evenodd" d="M830.5,457.5H832V431.9h-1.5v25.6Z" class="g0_30"/>
<path fill-rule="evenodd" d="M55.9,459.1h1.5v-1.6H55.9v1.6Z" class="g0_30"/>
<path fill-rule="evenodd" d="M57.4,459.1H396.7v-1.6H57.4v1.6Z" class="g0_30"/>
<path fill-rule="evenodd" d="M396.7,459.1h1.6v-1.6h-1.6v1.6Z" class="g0_30"/>
<path fill-rule="evenodd" d="M398.3,459.1H830.5v-1.6H398.3v1.6Z" class="g0_30"/>
<path fill-rule="evenodd" d="M830.5,459.1H832v-1.6h-1.5v1.6Z" class="g0_30"/>
<path fill-rule="evenodd" d="M55.9,504h1.5V459.1H55.9V504Z" class="g0_30"/>
<path fill-rule="evenodd" d="M396.7,504h1.6V459.1h-1.6V504Z" class="g0_30"/>
<path fill-rule="evenodd" d="M830.5,504H832V459.1h-1.5V504Z" class="g0_30"/>
<path fill-rule="evenodd" d="M55.9,505.5h1.5V504H55.9v1.5Z" class="g0_30"/>
<path fill-rule="evenodd" d="M57.4,505.5H396.7V504H57.4v1.5Z" class="g0_30"/>
<path fill-rule="evenodd" d="M396.7,505.5h1.6V504h-1.6v1.5Z" class="g0_30"/>
<path fill-rule="evenodd" d="M398.3,505.5H830.5V504H398.3v1.5Z" class="g0_30"/>
<path fill-rule="evenodd" d="M830.5,505.5H832V504h-1.5v1.5Z" class="g0_30"/>
<path fill-rule="evenodd" d="M55.9,550.7h1.5V505.5H55.9v45.2Z" class="g0_30"/>
<path fill-rule="evenodd" d="M396.7,550.7h1.6V505.5h-1.6v45.2Z" class="g0_30"/>
<path fill-rule="evenodd" d="M830.5,550.7H832V505.5h-1.5v45.2Z" class="g0_30"/>
<path fill-rule="evenodd" d="M55.9,552.3h1.5v-1.6H55.9v1.6Z" class="g0_30"/>
<path fill-rule="evenodd" d="M57.4,552.3H396.7v-1.6H57.4v1.6Z" class="g0_30"/>
<path fill-rule="evenodd" d="M396.7,552.3h1.6v-1.6h-1.6v1.6Z" class="g0_30"/>
<path fill-rule="evenodd" d="M398.3,552.3H830.5v-1.6H398.3v1.6Z" class="g0_30"/>
<path fill-rule="evenodd" d="M830.5,552.3H832v-1.6h-1.5v1.6Z" class="g0_30"/>
<path fill-rule="evenodd" d="M55.9,597.5h1.5V552.3H55.9v45.2Z" class="g0_30"/>
<path fill-rule="evenodd" d="M396.7,597.5h1.6V552.3h-1.6v45.2Z" class="g0_30"/>
<path fill-rule="evenodd" d="M830.5,597.5H832V552.3h-1.5v45.2Z" class="g0_30"/>
<path fill-rule="evenodd" d="M55.9,599h1.5v-1.5H55.9V599Z" class="g0_30"/>
<path fill-rule="evenodd" d="M57.4,599H396.7v-1.5H57.4V599Z" class="g0_30"/>
<path fill-rule="evenodd" d="M396.7,599h1.6v-1.5h-1.6V599Z" class="g0_30"/>
<path fill-rule="evenodd" d="M398.3,599H830.5v-1.5H398.3V599Z" class="g0_30"/>
<path fill-rule="evenodd" d="M830.5,599H832v-1.5h-1.5V599Z" class="g0_30"/>
<path fill-rule="evenodd" d="M55.9,644.3h1.5V599H55.9v45.3Z" class="g0_30"/>
<path fill-rule="evenodd" d="M396.7,644.3h1.6V599h-1.6v45.3Z" class="g0_30"/>
<path fill-rule="evenodd" d="M830.5,644.3H832V599h-1.5v45.3Z" class="g0_30"/>
<path fill-rule="evenodd" d="M55.9,645.8h1.5v-1.5H55.9v1.5Z" class="g0_30"/>
<path fill-rule="evenodd" d="M57.4,645.8H396.7v-1.5H57.4v1.5Z" class="g0_30"/>
<path fill-rule="evenodd" d="M396.7,645.8h1.6v-1.5h-1.6v1.5Z" class="g0_30"/>
<path fill-rule="evenodd" d="M398.3,645.8H830.5v-1.5H398.3v1.5Z" class="g0_30"/>
<path fill-rule="evenodd" d="M830.5,645.8H832v-1.5h-1.5v1.5Z" class="g0_30"/>
<path fill-rule="evenodd" d="M55.9,690.7h1.5V645.8H55.9v44.9Z" class="g0_30"/>
<path fill-rule="evenodd" d="M55.9,692.2h1.5v-1.5H55.9v1.5Z" class="g0_30"/>
<path fill-rule="evenodd" d="M55.9,692.2h1.5v-1.5H55.9v1.5Z" class="g0_30"/>
<path fill-rule="evenodd" d="M57.4,692.2H396.7v-1.5H57.4v1.5Z" class="g0_30"/>
<path fill-rule="evenodd" d="M396.7,690.7h1.6V645.8h-1.6v44.9Z" class="g0_30"/>
<path fill-rule="evenodd" d="M396.7,692.2h1.6v-1.5h-1.6v1.5Z" class="g0_30"/>
<path fill-rule="evenodd" d="M398.3,692.2H830.5v-1.5H398.3v1.5Z" class="g0_30"/>
<path fill-rule="evenodd" d="M830.5,690.7H832V645.8h-1.5v44.9Z" class="g0_30"/>
<path fill-rule="evenodd" d="M830.5,692.2H832v-1.5h-1.5v1.5Z" class="g0_30"/>
<path fill-rule="evenodd" d="M830.5,692.2H832v-1.5h-1.5v1.5Z" class="g0_30"/>
<path fill-rule="evenodd" d="M65.1,774.1H140v-1.2H65.1v1.2Z" class="g0_30"/>
<path fill-rule="evenodd" d="M65.1,799.5H641.6V781.2H65.1v18.3Z" class="g2_30"/>
<path fill-rule="evenodd" d="M66.3,843.8H821.9V818.2H66.3v25.6Z" class="g1_30"/>
<path fill-rule="evenodd" d="M73.7,843.8H814.6V818.2H73.7v25.6Z" class="g1_30"/>
<path fill-rule="evenodd" d="M64.5,818.2H66v-1.6H64.5v1.6Z" class="g0_30"/>
<path fill-rule="evenodd" d="M64.5,818.2H66v-1.6H64.5v1.6Z" class="g0_30"/>
<path fill-rule="evenodd" d="M66,818.2H821.9v-1.6H66v1.6Z" class="g0_30"/>
<path fill-rule="evenodd" d="M821.9,818.2h1.5v-1.6h-1.5v1.6Z" class="g0_30"/>
<path fill-rule="evenodd" d="M821.9,818.2h1.5v-1.6h-1.5v1.6Z" class="g0_30"/>
<path fill-rule="evenodd" d="M64.5,843.8H66V818.2H64.5v25.6Z" class="g0_30"/>
<path fill-rule="evenodd" d="M821.9,843.8h1.5V818.2h-1.5v25.6Z" class="g0_30"/>
<path fill-rule="evenodd" d="M64.5,845.4H66v-1.6H64.5v1.6Z" class="g0_30"/>
<path fill-rule="evenodd" d="M66,845.4H335v-1.6H66v1.6Z" class="g0_30"/>
<path fill-rule="evenodd" d="M335,845.4h1.5v-1.6H335v1.6Z" class="g0_30"/>
<path fill-rule="evenodd" d="M336.5,845.4H821.9v-1.6H336.5v1.6Z" class="g0_30"/>
<path fill-rule="evenodd" d="M821.9,845.4h1.5v-1.6h-1.5v1.6Z" class="g0_30"/>
<path fill-rule="evenodd" d="M64.5,871H66V845.4H64.5V871Z" class="g0_30"/>
<path fill-rule="evenodd" d="M335,871h1.5V845.4H335V871Z" class="g0_30"/>
<path fill-rule="evenodd" d="M821.9,871h1.5V845.4h-1.5V871Z" class="g0_30"/>
<path fill-rule="evenodd" d="M64.5,872.6H66V871H64.5v1.6Z" class="g0_30"/>
<path fill-rule="evenodd" d="M66,872.6H335V871H66v1.6Z" class="g0_30"/>
<path fill-rule="evenodd" d="M335,872.6h1.5V871H335v1.6Z" class="g0_30"/>
<path fill-rule="evenodd" d="M336.5,872.6H821.9V871H336.5v1.6Z" class="g0_30"/>
<path fill-rule="evenodd" d="M821.9,872.6h1.5V871h-1.5v1.6Z" class="g0_30"/>
<path fill-rule="evenodd" d="M64.5,898.2H66V872.5H64.5v25.7Z" class="g0_30"/>
<path fill-rule="evenodd" d="M335,898.2h1.5V872.5H335v25.7Z" class="g0_30"/>
<path fill-rule="evenodd" d="M821.9,898.2h1.5V872.5h-1.5v25.7Z" class="g0_30"/>
<path fill-rule="evenodd" d="M66.3,925.4H821.9V899.8H66.3v25.6Z" class="g1_30"/>
<path fill-rule="evenodd" d="M73.7,925.4H814.6V899.8H73.7v25.6Z" class="g1_30"/>
<path fill-rule="evenodd" d="M64.5,899.7H66v-1.5H64.5v1.5Z" class="g0_30"/>
<path fill-rule="evenodd" d="M66,899.7H335v-1.5H66v1.5Z" class="g0_30"/>
<path fill-rule="evenodd" d="M335,899.7h1.5v-1.5H335v1.5Z" class="g0_30"/>
<path fill-rule="evenodd" d="M336.5,899.7H821.9v-1.5H336.5v1.5Z" class="g0_30"/>
<path fill-rule="evenodd" d="M821.9,899.7h1.5v-1.5h-1.5v1.5Z" class="g0_30"/>
<path fill-rule="evenodd" d="M64.5,925.4H66V899.8H64.5v25.6Z" class="g0_30"/>
<path fill-rule="evenodd" d="M821.9,925.4h1.5V899.8h-1.5v25.6Z" class="g0_30"/>
<path fill-rule="evenodd" d="M64.5,926.9H66v-1.5H64.5v1.5Z" class="g0_30"/>
<path fill-rule="evenodd" d="M66,926.9H335v-1.5H66v1.5Z" class="g0_30"/>
<path fill-rule="evenodd" d="M335,926.9h1.5v-1.5H335v1.5Z" class="g0_30"/>
<path fill-rule="evenodd" d="M336.5,926.9H821.9v-1.5H336.5v1.5Z" class="g0_30"/>
<path fill-rule="evenodd" d="M821.9,926.9h1.5v-1.5h-1.5v1.5Z" class="g0_30"/>
<path fill-rule="evenodd" d="M64.5,952.6H66V926.9H64.5v25.7Z" class="g0_30"/>
<path fill-rule="evenodd" d="M335,952.6h1.5V926.9H335v25.7Z" class="g0_30"/>
<path fill-rule="evenodd" d="M821.9,952.6h1.5V926.9h-1.5v25.7Z" class="g0_30"/>
<path fill-rule="evenodd" d="M64.5,954.2H66v-1.6H64.5v1.6Z" class="g0_30"/>
<path fill-rule="evenodd" d="M66,954.2H335v-1.6H66v1.6Z" class="g0_30"/>
<path fill-rule="evenodd" d="M335,954.2h1.5v-1.6H335v1.6Z" class="g0_30"/>
<path fill-rule="evenodd" d="M336.5,954.2H821.9v-1.6H336.5v1.6Z" class="g0_30"/>
<path fill-rule="evenodd" d="M821.9,954.2h1.5v-1.6h-1.5v1.6Z" class="g0_30"/>
<path fill-rule="evenodd" d="M64.5,979.5H66V954.2H64.5v25.3Z" class="g0_30"/>
<path fill-rule="evenodd" d="M335,979.5h1.5V954.2H335v25.3Z" class="g0_30"/>
<path fill-rule="evenodd" d="M821.9,979.5h1.5V954.2h-1.5v25.3Z" class="g0_30"/>
<path fill-rule="evenodd" d="M64.5,981.1H66v-1.6H64.5v1.6Z" class="g0_30"/>
<path fill-rule="evenodd" d="M66,981.1H335v-1.6H66v1.6Z" class="g0_30"/>
<path fill-rule="evenodd" d="M335,981.1h1.5v-1.6H335v1.6Z" class="g0_30"/>
<path fill-rule="evenodd" d="M336.5,981.1H821.9v-1.6H336.5v1.6Z" class="g0_30"/>
<path fill-rule="evenodd" d="M821.9,981.1h1.5v-1.6h-1.5v1.6Z" class="g0_30"/>
<path fill-rule="evenodd" d="M64.5,1006.7H66V981.1H64.5v25.6Z" class="g0_30"/>
<path fill-rule="evenodd" d="M335,1006.7h1.5V981.1H335v25.6Z" class="g0_30"/>
<path fill-rule="evenodd" d="M821.9,1006.7h1.5V981.1h-1.5v25.6Z" class="g0_30"/>
<path fill-rule="evenodd" d="M64.5,1008.3H66v-1.6H64.5v1.6Z" class="g0_30"/>
<path fill-rule="evenodd" d="M66,1008.3H335v-1.6H66v1.6Z" class="g0_30"/>
<path fill-rule="evenodd" d="M335,1008.3h1.5v-1.6H335v1.6Z" class="g0_30"/>
<path fill-rule="evenodd" d="M336.5,1008.3H821.9v-1.6H336.5v1.6Z" class="g0_30"/>
<path fill-rule="evenodd" d="M821.9,1008.3h1.5v-1.6h-1.5v1.6Z" class="g0_30"/>
<path fill-rule="evenodd" d="M64.5,1033.9H66v-25.6H64.5v25.6Z" class="g0_30"/>
<path fill-rule="evenodd" d="M335,1033.9h1.5v-25.6H335v25.6Z" class="g0_30"/>
<path fill-rule="evenodd" d="M821.9,1033.9h1.5v-25.6h-1.5v25.6Z" class="g0_30"/>
<path fill-rule="evenodd" d="M64.5,1035.5H66v-1.6H64.5v1.6Z" class="g0_30"/>
<path fill-rule="evenodd" d="M66,1035.5H335v-1.6H66v1.6Z" class="g0_30"/>
<path fill-rule="evenodd" d="M335,1035.5h1.5v-1.6H335v1.6Z" class="g0_30"/>
<path fill-rule="evenodd" d="M336.5,1035.5H821.9v-1.6H336.5v1.6Z" class="g0_30"/>
<path fill-rule="evenodd" d="M821.9,1035.5h1.5v-1.6h-1.5v1.6Z" class="g0_30"/>
<path fill-rule="evenodd" d="M64.5,1061.1H66v-25.6H64.5v25.6Z" class="g0_30"/>
<path fill-rule="evenodd" d="M64.5,1062.6H66v-1.5H64.5v1.5Z" class="g0_30"/>
<path fill-rule="evenodd" d="M64.5,1062.6H66v-1.5H64.5v1.5Z" class="g0_30"/>
<path fill-rule="evenodd" d="M66,1062.6H335v-1.5H66v1.5Z" class="g0_30"/>
<path fill-rule="evenodd" d="M335,1061.1h1.5v-25.6H335v25.6Z" class="g0_30"/>
<path fill-rule="evenodd" d="M335,1062.6h1.5v-1.5H335v1.5Z" class="g0_30"/>
<path fill-rule="evenodd" d="M336.5,1062.6H821.9v-1.5H336.5v1.5Z" class="g0_30"/>
<path fill-rule="evenodd" d="M821.9,1061.1h1.5v-25.6h-1.5v25.6Z" class="g0_30"/>
<path fill-rule="evenodd" d="M821.9,1062.6h1.5v-1.5h-1.5v1.5Z" class="g0_30"/>
<path fill-rule="evenodd" d="M821.9,1062.6h1.5v-1.5h-1.5v1.5Z" class="g0_30"/>
</svg>