<?xml version="1.0" encoding="UTF-8" standalone="no"?>
<!DOCTYPE svg PUBLIC "-//W3C//DTD SVG 1.1//EN"
"http://www.w3.org/Graphics/SVG/1.1/DTD/svg11.dtd">
<svg viewBox="0 0 909 1286" version="1.1" xmlns="http://www.w3.org/2000/svg" xmlns:xlink="http://www.w3.org/1999/xlink">
<defs>
<style type="text/css"><![CDATA[
.g0_28{
}
.g1_28{
fill: #F1F1F1;
}
]]></style>
</defs>
<path fill-rule="evenodd" d="M65.1,66H823.4V64.5H65.1V66Z" class="g0_28"/>
<path fill-rule="evenodd" d="M66.3,113.7H821.9V88H66.3v25.7Z" class="g1_28"/>
<path fill-rule="evenodd" d="M73.7,113.7H814.6V88H73.7v25.7Z" class="g1_28"/>
<path fill-rule="evenodd" d="M64.5,88H66V86.5H64.5V88Z" class="g0_28"/>
<path fill-rule="evenodd" d="M64.5,88H66V86.5H64.5V88Z" class="g0_28"/>
<path fill-rule="evenodd" d="M66,88H821.9V86.5H66V88Z" class="g0_28"/>
<path fill-rule="evenodd" d="M821.9,88h1.5V86.5h-1.5V88Z" class="g0_28"/>
<path fill-rule="evenodd" d="M821.9,88h1.5V86.5h-1.5V88Z" class="g0_28"/>
<path fill-rule="evenodd" d="M64.5,113.7H66V88H64.5v25.7Z" class="g0_28"/>
<path fill-rule="evenodd" d="M821.9,113.7h1.5V88h-1.5v25.7Z" class="g0_28"/>
<path fill-rule="evenodd" d="M64.5,115.2H66v-1.5H64.5v1.5Z" class="g0_28"/>
<path fill-rule="evenodd" d="M66,115.2H266.8v-1.5H66v1.5Z" class="g0_28"/>
<path fill-rule="evenodd" d="M266.8,115.2h1.6v-1.5h-1.6v1.5Z" class="g0_28"/>
<path fill-rule="evenodd" d="M268.4,115.2H821.9v-1.5H268.4v1.5Z" class="g0_28"/>
<path fill-rule="evenodd" d="M821.9,115.2h1.5v-1.5h-1.5v1.5Z" class="g0_28"/>
<path fill-rule="evenodd" d="M64.5,160.4H66V115.2H64.5v45.2Z" class="g0_28"/>
<path fill-rule="evenodd" d="M266.8,160.4h1.6V115.2h-1.6v45.2Z" class="g0_28"/>
<path fill-rule="evenodd" d="M821.9,160.4h1.5V115.2h-1.5v45.2Z" class="g0_28"/>
<path fill-rule="evenodd" d="M66.3,187.7H821.9V162H66.3v25.7Z" class="g1_28"/>
<path fill-rule="evenodd" d="M73.7,187.7H814.6V162H73.7v25.7Z" class="g1_28"/>
<path fill-rule="evenodd" d="M64.5,162H66v-1.5H64.5V162Z" class="g0_28"/>
<path fill-rule="evenodd" d="M66,162H266.8v-1.5H66V162Z" class="g0_28"/>
<path fill-rule="evenodd" d="M266.8,162h1.6v-1.5h-1.6V162Z" class="g0_28"/>
<path fill-rule="evenodd" d="M268.4,162H821.9v-1.5H268.4V162Z" class="g0_28"/>
<path fill-rule="evenodd" d="M821.9,162h1.5v-1.5h-1.5V162Z" class="g0_28"/>
<path fill-rule="evenodd" d="M64.5,187.7H66V162H64.5v25.7Z" class="g0_28"/>
<path fill-rule="evenodd" d="M821.9,187.7h1.5V162h-1.5v25.7Z" class="g0_28"/>
<path fill-rule="evenodd" d="M64.5,189.2H66v-1.5H64.5v1.5Z" class="g0_28"/>
<path fill-rule="evenodd" d="M66,189.2H266.8v-1.5H66v1.5Z" class="g0_28"/>
<path fill-rule="evenodd" d="M266.8,189.2h1.6v-1.5h-1.6v1.5Z" class="g0_28"/>
<path fill-rule="evenodd" d="M268.4,189.2H821.9v-1.5H268.4v1.5Z" class="g0_28"/>
<path fill-rule="evenodd" d="M821.9,189.2h1.5v-1.5h-1.5v1.5Z" class="g0_28"/>
<path fill-rule="evenodd" d="M64.5,214.9H66V189.2H64.5v25.7Z" class="g0_28"/>
<path fill-rule="evenodd" d="M266.8,214.9h1.6V189.2h-1.6v25.7Z" class="g0_28"/>
<path fill-rule="evenodd" d="M821.9,214.9h1.5V189.2h-1.5v25.7Z" class="g0_28"/>
<path fill-rule="evenodd" d="M66.3,242H821.9V216.4H66.3V242Z" class="g1_28"/>
<path fill-rule="evenodd" d="M73.7,242H814.6V216.4H73.7V242Z" class="g1_28"/>
<path fill-rule="evenodd" d="M64.5,216.4H66v-1.5H64.5v1.5Z" class="g0_28"/>
<path fill-rule="evenodd" d="M66,216.4H266.8v-1.5H66v1.5Z" class="g0_28"/>
<path fill-rule="evenodd" d="M266.8,216.4h1.6v-1.5h-1.6v1.5Z" class="g0_28"/>
<path fill-rule="evenodd" d="M268.4,216.4H821.9v-1.5H268.4v1.5Z" class="g0_28"/>
<path fill-rule="evenodd" d="M821.9,216.4h1.5v-1.5h-1.5v1.5Z" class="g0_28"/>
<path fill-rule="evenodd" d="M64.5,242H66V216.4H64.5V242Z" class="g0_28"/>
<path fill-rule="evenodd" d="M821.9,242h1.5V216.4h-1.5V242Z" class="g0_28"/>
<path fill-rule="evenodd" d="M64.5,243.6H66V242H64.5v1.6Z" class="g0_28"/>
<path fill-rule="evenodd" d="M66,243.6H266.8V242H66v1.6Z" class="g0_28"/>
<path fill-rule="evenodd" d="M266.8,243.6h1.6V242h-1.6v1.6Z" class="g0_28"/>
<path fill-rule="evenodd" d="M268.4,243.6H821.9V242H268.4v1.6Z" class="g0_28"/>
<path fill-rule="evenodd" d="M821.9,243.6h1.5V242h-1.5v1.6Z" class="g0_28"/>
<path fill-rule="evenodd" d="M64.5,288.5H66V243.6H64.5v44.9Z" class="g0_28"/>
<path fill-rule="evenodd" d="M64.5,290H66v-1.5H64.5V290Z" class="g0_28"/>
<path fill-rule="evenodd" d="M64.5,290H66v-1.5H64.5V290Z" class="g0_28"/>
<path fill-rule="evenodd" d="M66,290H266.8v-1.5H66V290Z" class="g0_28"/>
<path fill-rule="evenodd" d="M266.8,288.5h1.6V243.6h-1.6v44.9Z" class="g0_28"/>
<path fill-rule="evenodd" d="M266.8,290h1.6v-1.5h-1.6V290Z" class="g0_28"/>
<path fill-rule="evenodd" d="M268.4,290H821.9v-1.5H268.4V290Z" class="g0_28"/>
<path fill-rule="evenodd" d="M821.9,288.5h1.5V243.6h-1.5v44.9Z" class="g0_28"/>
<path fill-rule="evenodd" d="M821.9,290h1.5v-1.5h-1.5V290Z" class="g0_28"/>
<path fill-rule="evenodd" d="M821.9,290h1.5v-1.5h-1.5V290Z" class="g0_28"/>
<path fill-rule="evenodd" d="M65.1,374.1H140v-1.2H65.1v1.2Z" class="g0_28"/>
<path fill-rule="evenodd" d="M66.3,444.7H821.9V419.3H66.3v25.4Z" class="g1_28"/>
<path fill-rule="evenodd" d="M73.7,444.7H814.6V419.3H73.7v25.4Z" class="g1_28"/>
<path fill-rule="evenodd" d="M64.5,419.3H66v-1.5H64.5v1.5Z" class="g0_28"/>
<path fill-rule="evenodd" d="M64.5,419.3H66v-1.5H64.5v1.5Z" class="g0_28"/>
<path fill-rule="evenodd" d="M66,419.3H821.9v-1.5H66v1.5Z" class="g0_28"/>
<path fill-rule="evenodd" d="M821.9,419.3h1.5v-1.5h-1.5v1.5Z" class="g0_28"/>
<path fill-rule="evenodd" d="M821.9,419.3h1.5v-1.5h-1.5v1.5Z" class="g0_28"/>
<path fill-rule="evenodd" d="M64.5,444.7H66V419.3H64.5v25.4Z" class="g0_28"/>
<path fill-rule="evenodd" d="M821.9,444.7h1.5V419.3h-1.5v25.4Z" class="g0_28"/>
<path fill-rule="evenodd" d="M64.5,446.2H66v-1.5H64.5v1.5Z" class="g0_28"/>
<path fill-rule="evenodd" d="M66,446.2H356.7v-1.5H66v1.5Z" class="g0_28"/>
<path fill-rule="evenodd" d="M356.7,446.2h1.5v-1.5h-1.5v1.5Z" class="g0_28"/>
<path fill-rule="evenodd" d="M358.2,446.2H821.9v-1.5H358.2v1.5Z" class="g0_28"/>
<path fill-rule="evenodd" d="M821.9,446.2h1.5v-1.5h-1.5v1.5Z" class="g0_28"/>
<path fill-rule="evenodd" d="M64.5,491.4H66V446.2H64.5v45.2Z" class="g0_28"/>
<path fill-rule="evenodd" d="M356.7,491.4h1.5V446.2h-1.5v45.2Z" class="g0_28"/>
<path fill-rule="evenodd" d="M821.9,491.4h1.5V446.2h-1.5v45.2Z" class="g0_28"/>
<path fill-rule="evenodd" d="M64.5,493H66v-1.6H64.5V493Z" class="g0_28"/>
<path fill-rule="evenodd" d="M66,493H356.7v-1.6H66V493Z" class="g0_28"/>
<path fill-rule="evenodd" d="M356.7,493h1.5v-1.6h-1.5V493Z" class="g0_28"/>
<path fill-rule="evenodd" d="M358.2,493H821.9v-1.6H358.2V493Z" class="g0_28"/>
<path fill-rule="evenodd" d="M821.9,493h1.5v-1.6h-1.5V493Z" class="g0_28"/>
<path fill-rule="evenodd" d="M64.5,518.6H66V493H64.5v25.6Z" class="g0_28"/>
<path fill-rule="evenodd" d="M356.7,518.6h1.5V493h-1.5v25.6Z" class="g0_28"/>
<path fill-rule="evenodd" d="M821.9,518.6h1.5V493h-1.5v25.6Z" class="g0_28"/>
<path fill-rule="evenodd" d="M64.5,520.2H66v-1.6H64.5v1.6Z" class="g0_28"/>
<path fill-rule="evenodd" d="M66,520.2H356.7v-1.6H66v1.6Z" class="g0_28"/>
<path fill-rule="evenodd" d="M356.7,520.2h1.5v-1.6h-1.5v1.6Z" class="g0_28"/>
<path fill-rule="evenodd" d="M358.2,520.2H821.9v-1.6H358.2v1.6Z" class="g0_28"/>
<path fill-rule="evenodd" d="M821.9,520.2h1.5v-1.6h-1.5v1.6Z" class="g0_28"/>
<path fill-rule="evenodd" d="M64.5,565.4H66V520.2H64.5v45.2Z" class="g0_28"/>
<path fill-rule="evenodd" d="M356.7,565.4h1.5V520.2h-1.5v45.2Z" class="g0_28"/>
<path fill-rule="evenodd" d="M821.9,565.4h1.5V520.2h-1.5v45.2Z" class="g0_28"/>
<path fill-rule="evenodd" d="M66.3,592.6H821.9V566.9H66.3v25.7Z" class="g1_28"/>
<path fill-rule="evenodd" d="M73.7,592.6H814.6V566.9H73.7v25.7Z" class="g1_28"/>
<path fill-rule="evenodd" d="M64.5,566.9H66v-1.5H64.5v1.5Z" class="g0_28"/>
<path fill-rule="evenodd" d="M66,566.9H356.7v-1.5H66v1.5Z" class="g0_28"/>
<path fill-rule="evenodd" d="M356.7,566.9h1.5v-1.5h-1.5v1.5Z" class="g0_28"/>
<path fill-rule="evenodd" d="M358.2,566.9H821.9v-1.5H358.2v1.5Z" class="g0_28"/>
<path fill-rule="evenodd" d="M821.9,566.9h1.5v-1.5h-1.5v1.5Z" class="g0_28"/>
<path fill-rule="evenodd" d="M64.5,592.6H66V566.9H64.5v25.7Z" class="g0_28"/>
<path fill-rule="evenodd" d="M821.9,592.6h1.5V566.9h-1.5v25.7Z" class="g0_28"/>
<path fill-rule="evenodd" d="M64.5,594.1H66v-1.5H64.5v1.5Z" class="g0_28"/>
<path fill-rule="evenodd" d="M66,594.1H356.7v-1.5H66v1.5Z" class="g0_28"/>
<path fill-rule="evenodd" d="M356.7,594.1h1.5v-1.5h-1.5v1.5Z" class="g0_28"/>
<path fill-rule="evenodd" d="M358.2,594.1H821.9v-1.5H358.2v1.5Z" class="g0_28"/>
<path fill-rule="evenodd" d="M821.9,594.1h1.5v-1.5h-1.5v1.5Z" class="g0_28"/>
<path fill-rule="evenodd" d="M64.5,658.6H66V594.1H64.5v64.5Z" class="g0_28"/>
<path fill-rule="evenodd" d="M356.7,658.6h1.5V594.1h-1.5v64.5Z" class="g0_28"/>
<path fill-rule="evenodd" d="M821.9,658.6h1.5V594.1h-1.5v64.5Z" class="g0_28"/>
<path fill-rule="evenodd" d="M64.5,660.2H66v-1.6H64.5v1.6Z" class="g0_28"/>
<path fill-rule="evenodd" d="M66,660.2H356.7v-1.6H66v1.6Z" class="g0_28"/>
<path fill-rule="evenodd" d="M356.7,660.2h1.5v-1.6h-1.5v1.6Z" class="g0_28"/>
<path fill-rule="evenodd" d="M358.2,660.2H821.9v-1.6H358.2v1.6Z" class="g0_28"/>
<path fill-rule="evenodd" d="M821.9,660.2h1.5v-1.6h-1.5v1.6Z" class="g0_28"/>
<path fill-rule="evenodd" d="M64.5,685.8H66V660.2H64.5v25.6Z" class="g0_28"/>
<path fill-rule="evenodd" d="M356.7,685.8h1.5V660.2h-1.5v25.6Z" class="g0_28"/>
<path fill-rule="evenodd" d="M821.9,685.8h1.5V660.2h-1.5v25.6Z" class="g0_28"/>
<path fill-rule="evenodd" d="M64.5,687.3H66v-1.5H64.5v1.5Z" class="g0_28"/>
<path fill-rule="evenodd" d="M66,687.3H356.7v-1.5H66v1.5Z" class="g0_28"/>
<path fill-rule="evenodd" d="M356.7,687.3h1.5v-1.5h-1.5v1.5Z" class="g0_28"/>
<path fill-rule="evenodd" d="M358.2,687.3H821.9v-1.5H358.2v1.5Z" class="g0_28"/>
<path fill-rule="evenodd" d="M821.9,687.3h1.5v-1.5h-1.5v1.5Z" class="g0_28"/>
<path fill-rule="evenodd" d="M64.5,713H66V687.3H64.5V713Z" class="g0_28"/>
<path fill-rule="evenodd" d="M356.7,713h1.5V687.3h-1.5V713Z" class="g0_28"/>
<path fill-rule="evenodd" d="M821.9,713h1.5V687.3h-1.5V713Z" class="g0_28"/>
<path fill-rule="evenodd" d="M64.5,714.5H66V713H64.5v1.5Z" class="g0_28"/>
<path fill-rule="evenodd" d="M66,714.5H356.7V713H66v1.5Z" class="g0_28"/>
<path fill-rule="evenodd" d="M356.7,714.5h1.5V713h-1.5v1.5Z" class="g0_28"/>
<path fill-rule="evenodd" d="M358.2,714.5H821.9V713H358.2v1.5Z" class="g0_28"/>
<path fill-rule="evenodd" d="M821.9,714.5h1.5V713h-1.5v1.5Z" class="g0_28"/>
<path fill-rule="evenodd" d="M64.5,740.2H66V714.5H64.5v25.7Z" class="g0_28"/>
<path fill-rule="evenodd" d="M356.7,740.2h1.5V714.5h-1.5v25.7Z" class="g0_28"/>
<path fill-rule="evenodd" d="M821.9,740.2h1.5V714.5h-1.5v25.7Z" class="g0_28"/>
<path fill-rule="evenodd" d="M64.5,741.7H66v-1.5H64.5v1.5Z" class="g0_28"/>
<path fill-rule="evenodd" d="M66,741.7H356.7v-1.5H66v1.5Z" class="g0_28"/>
<path fill-rule="evenodd" d="M356.7,741.7h1.5v-1.5h-1.5v1.5Z" class="g0_28"/>
<path fill-rule="evenodd" d="M358.2,741.7H821.9v-1.5H358.2v1.5Z" class="g0_28"/>
<path fill-rule="evenodd" d="M821.9,741.7h1.5v-1.5h-1.5v1.5Z" class="g0_28"/>
<path fill-rule="evenodd" d="M64.5,786.7H66v-45H64.5v45Z" class="g0_28"/>
<path fill-rule="evenodd" d="M64.5,788.2H66v-1.5H64.5v1.5Z" class="g0_28"/>
<path fill-rule="evenodd" d="M64.5,788.2H66v-1.5H64.5v1.5Z" class="g0_28"/>
<path fill-rule="evenodd" d="M66,788.2H356.7v-1.5H66v1.5Z" class="g0_28"/>
<path fill-rule="evenodd" d="M356.7,786.7h1.5v-45h-1.5v45Z" class="g0_28"/>
<path fill-rule="evenodd" d="M356.7,788.2h1.5v-1.5h-1.5v1.5Z" class="g0_28"/>
<path fill-rule="evenodd" d="M358.2,788.2H821.9v-1.5H358.2v1.5Z" class="g0_28"/>
<path fill-rule="evenodd" d="M821.9,786.7h1.5v-45h-1.5v45Z" class="g0_28"/>
<path fill-rule="evenodd" d="M821.9,788.2h1.5v-1.5h-1.5v1.5Z" class="g0_28"/>
<path fill-rule="evenodd" d="M821.9,788.2h1.5v-1.5h-1.5v1.5Z" class="g0_28"/>
<path fill-rule="evenodd" d="M65.1,872.2H140V871H65.1v1.2Z" class="g0_28"/>
<path fill-rule="evenodd" d="M57.4,1022.6H830.8V997H57.4v25.6Z" class="g1_28"/>
<path fill-rule="evenodd" d="M65.1,1022.6h758V997H65.1v25.6Z" class="g1_28"/>
<path fill-rule="evenodd" d="M55.9,997h1.5v-1.6H55.9V997Z" class="g0_28"/>
<path fill-rule="evenodd" d="M55.9,997h1.5v-1.6H55.9V997Z" class="g0_28"/>
<path fill-rule="evenodd" d="M57.4,997H830.5v-1.6H57.4V997Z" class="g0_28"/>
<path fill-rule="evenodd" d="M830.5,997H832v-1.6h-1.5V997Z" class="g0_28"/>
<path fill-rule="evenodd" d="M830.5,997H832v-1.6h-1.5V997Z" class="g0_28"/>
<path fill-rule="evenodd" d="M55.9,1022.6h1.5V997H55.9v25.6Z" class="g0_28"/>
<path fill-rule="evenodd" d="M830.5,1022.6H832V997h-1.5v25.6Z" class="g0_28"/>
<path fill-rule="evenodd" d="M55.9,1024.1h1.5v-1.5H55.9v1.5Z" class="g0_28"/>
<path fill-rule="evenodd" d="M57.4,1024.1H315.5v-1.5H57.4v1.5Z" class="g0_28"/>
<path fill-rule="evenodd" d="M315.5,1024.1H317v-1.5h-1.5v1.5Z" class="g0_28"/>
<path fill-rule="evenodd" d="M317,1024.1H830.5v-1.5H317v1.5Z" class="g0_28"/>
<path fill-rule="evenodd" d="M830.5,1024.1H832v-1.5h-1.5v1.5Z" class="g0_28"/>
<path fill-rule="evenodd" d="M55.9,1069.4h1.5v-45.3H55.9v45.3Z" class="g0_28"/>
<path fill-rule="evenodd" d="M315.5,1069.4H317v-45.3h-1.5v45.3Z" class="g0_28"/>
<path fill-rule="evenodd" d="M830.5,1069.4H832v-45.3h-1.5v45.3Z" class="g0_28"/>
<path fill-rule="evenodd" d="M55.9,1070.9h1.5v-1.5H55.9v1.5Z" class="g0_28"/>
<path fill-rule="evenodd" d="M57.4,1070.9H315.5v-1.5H57.4v1.5Z" class="g0_28"/>
<path fill-rule="evenodd" d="M315.5,1070.9H317v-1.5h-1.5v1.5Z" class="g0_28"/>
<path fill-rule="evenodd" d="M317,1070.9H830.5v-1.5H317v1.5Z" class="g0_28"/>
<path fill-rule="evenodd" d="M830.5,1070.9H832v-1.5h-1.5v1.5Z" class="g0_28"/>
<path fill-rule="evenodd" d="M55.9,1116.1h1.5v-45.2H55.9v45.2Z" class="g0_28"/>
<path fill-rule="evenodd" d="M315.5,1116.1H317v-45.2h-1.5v45.2Z" class="g0_28"/>
<path fill-rule="evenodd" d="M830.5,1116.1H832v-45.2h-1.5v45.2Z" class="g0_28"/>
<path fill-rule="evenodd" d="M55.9,1117.6h1.5v-1.5H55.9v1.5Z" class="g0_28"/>
<path fill-rule="evenodd" d="M57.4,1117.6H315.5v-1.5H57.4v1.5Z" class="g0_28"/>
<path fill-rule="evenodd" d="M315.5,1117.6H317v-1.5h-1.5v1.5Z" class="g0_28"/>
<path fill-rule="evenodd" d="M317,1117.6H830.5v-1.5H317v1.5Z" class="g0_28"/>
<path fill-rule="evenodd" d="M830.5,1117.6H832v-1.5h-1.5v1.5Z" class="g0_28"/>
<path fill-rule="evenodd" d="M55.9,1143.4h1.5v-25.8H55.9v25.8Z" class="g0_28"/>
<path fill-rule="evenodd" d="M315.5,1143.4H317v-25.8h-1.5v25.8Z" class="g0_28"/>
<path fill-rule="evenodd" d="M830.5,1143.4H832v-25.8h-1.5v25.8Z" class="g0_28"/>
<path fill-rule="evenodd" d="M55.9,1144.9h1.5v-1.5H55.9v1.5Z" class="g0_28"/>
<path fill-rule="evenodd" d="M57.4,1144.9H315.5v-1.5H57.4v1.5Z" class="g0_28"/>
<path fill-rule="evenodd" d="M315.5,1144.9H317v-1.5h-1.5v1.5Z" class="g0_28"/>
<path fill-rule="evenodd" d="M317,1144.9H830.5v-1.5H317v1.5Z" class="g0_28"/>
<path fill-rule="evenodd" d="M830.5,1144.9H832v-1.5h-1.5v1.5Z" class="g0_28"/>
<path fill-rule="evenodd" d="M55.9,1170.2h1.5v-25.3H55.9v25.3Z" class="g0_28"/>
<path fill-rule="evenodd" d="M315.5,1170.2H317v-25.3h-1.5v25.3Z" class="g0_28"/>
<path fill-rule="evenodd" d="M830.5,1170.2H832v-25.3h-1.5v25.3Z" class="g0_28"/>
<path fill-rule="evenodd" d="M55.9,1171.8h1.5v-1.6H55.9v1.6Z" class="g0_28"/>
<path fill-rule="evenodd" d="M57.4,1171.8H315.5v-1.6H57.4v1.6Z" class="g0_28"/>
<path fill-rule="evenodd" d="M315.5,1171.8H317v-1.6h-1.5v1.6Z" class="g0_28"/>
<path fill-rule="evenodd" d="M317,1171.8H830.5v-1.6H317v1.6Z" class="g0_28"/>
<path fill-rule="evenodd" d="M830.5,1171.8H832v-1.6h-1.5v1.6Z" class="g0_28"/>
<path fill-rule="evenodd" d="M55.9,1197.4h1.5v-25.6H55.9v25.6Z" class="g0_28"/>
<path fill-rule="evenodd" d="M55.9,1199h1.5v-1.6H55.9v1.6Z" class="g0_28"/>
<path fill-rule="evenodd" d="M55.9,1199h1.5v-1.6H55.9v1.6Z" class="g0_28"/>
<path fill-rule="evenodd" d="M57.4,1199H315.5v-1.6H57.4v1.6Z" class="g0_28"/>
<path fill-rule="evenodd" d="M315.5,1197.4H317v-25.6h-1.5v25.6Z" class="g0_28"/>
<path fill-rule="evenodd" d="M315.5,1199H317v-1.6h-1.5v1.6Z" class="g0_28"/>
<path fill-rule="evenodd" d="M317,1199H830.5v-1.6H317v1.6Z" class="g0_28"/>
<path fill-rule="evenodd" d="M830.5,1197.4H832v-25.6h-1.5v25.6Z" class="g0_28"/>
<path fill-rule="evenodd" d="M830.5,1199H832v-1.6h-1.5v1.6Z" class="g0_28"/>
<path fill-rule="evenodd" d="M830.5,1199H832v-1.6h-1.5v1.6Z" class="g0_28"/>
</svg>