<?xml version="1.0" encoding="UTF-8" standalone="no"?>
<!DOCTYPE svg PUBLIC "-//W3C//DTD SVG 1.1//EN"
"http://www.w3.org/Graphics/SVG/1.1/DTD/svg11.dtd">
<svg viewBox="0 0 909 1286" version="1.1" xmlns="http://www.w3.org/2000/svg" xmlns:xlink="http://www.w3.org/1999/xlink">
<defs>
<style type="text/css"><![CDATA[
.g0_44{
}
.g1_44{
fill: #F1F1F1;
}
]]></style>
</defs>
<path fill-rule="evenodd" d="M65.1,66H823.4V64.5H65.1V66Z" class="g0_44"/>
<path fill-rule="evenodd" d="M65.1,137.8H140v-1.2H65.1v1.2Z" class="g0_44"/>
<path fill-rule="evenodd" d="M66.3,208.7H821.9V183.1H66.3v25.6Z" class="g1_44"/>
<path fill-rule="evenodd" d="M73.7,208.7H814.6V183.1H73.7v25.6Z" class="g1_44"/>
<path fill-rule="evenodd" d="M64.5,183.1H66v-1.6H64.5v1.6Z" class="g0_44"/>
<path fill-rule="evenodd" d="M64.5,183.1H66v-1.6H64.5v1.6Z" class="g0_44"/>
<path fill-rule="evenodd" d="M66,183.1H821.9v-1.6H66v1.6Z" class="g0_44"/>
<path fill-rule="evenodd" d="M821.9,183.1h1.5v-1.6h-1.5v1.6Z" class="g0_44"/>
<path fill-rule="evenodd" d="M821.9,183.1h1.5v-1.6h-1.5v1.6Z" class="g0_44"/>
<path fill-rule="evenodd" d="M64.5,208.7H66V183.1H64.5v25.6Z" class="g0_44"/>
<path fill-rule="evenodd" d="M821.9,208.7h1.5V183.1h-1.5v25.6Z" class="g0_44"/>
<path fill-rule="evenodd" d="M64.5,210.3H66v-1.6H64.5v1.6Z" class="g0_44"/>
<path fill-rule="evenodd" d="M66,210.3H297.4v-1.6H66v1.6Z" class="g0_44"/>
<path fill-rule="evenodd" d="M297.4,210.3h1.5v-1.6h-1.5v1.6Z" class="g0_44"/>
<path fill-rule="evenodd" d="M298.9,210.3h523v-1.6h-523v1.6Z" class="g0_44"/>
<path fill-rule="evenodd" d="M821.9,210.3h1.5v-1.6h-1.5v1.6Z" class="g0_44"/>
<path fill-rule="evenodd" d="M64.5,235.9H66V210.3H64.5v25.6Z" class="g0_44"/>
<path fill-rule="evenodd" d="M297.4,235.9h1.5V210.3h-1.5v25.6Z" class="g0_44"/>
<path fill-rule="evenodd" d="M821.9,235.9h1.5V210.3h-1.5v25.6Z" class="g0_44"/>
<path fill-rule="evenodd" d="M66.3,263.2H821.9V237.5H66.3v25.7Z" class="g1_44"/>
<path fill-rule="evenodd" d="M73.7,263.2H814.6V237.5H73.7v25.7Z" class="g1_44"/>
<path fill-rule="evenodd" d="M64.5,237.4H66v-1.5H64.5v1.5Z" class="g0_44"/>
<path fill-rule="evenodd" d="M66,237.4H297.4v-1.5H66v1.5Z" class="g0_44"/>
<path fill-rule="evenodd" d="M297.4,237.4h1.5v-1.5h-1.5v1.5Z" class="g0_44"/>
<path fill-rule="evenodd" d="M298.9,237.4h523v-1.5h-523v1.5Z" class="g0_44"/>
<path fill-rule="evenodd" d="M821.9,237.4h1.5v-1.5h-1.5v1.5Z" class="g0_44"/>
<path fill-rule="evenodd" d="M64.5,263.2H66V237.5H64.5v25.7Z" class="g0_44"/>
<path fill-rule="evenodd" d="M821.9,263.2h1.5V237.5h-1.5v25.7Z" class="g0_44"/>
<path fill-rule="evenodd" d="M64.5,264.7H66v-1.5H64.5v1.5Z" class="g0_44"/>
<path fill-rule="evenodd" d="M66,264.7H297.4v-1.5H66v1.5Z" class="g0_44"/>
<path fill-rule="evenodd" d="M297.4,264.7h1.5v-1.5h-1.5v1.5Z" class="g0_44"/>
<path fill-rule="evenodd" d="M298.9,264.7h523v-1.5h-523v1.5Z" class="g0_44"/>
<path fill-rule="evenodd" d="M821.9,264.7h1.5v-1.5h-1.5v1.5Z" class="g0_44"/>
<path fill-rule="evenodd" d="M64.5,290.4H66V264.7H64.5v25.7Z" class="g0_44"/>
<path fill-rule="evenodd" d="M297.4,290.4h1.5V264.7h-1.5v25.7Z" class="g0_44"/>
<path fill-rule="evenodd" d="M821.9,290.4h1.5V264.7h-1.5v25.7Z" class="g0_44"/>
<path fill-rule="evenodd" d="M64.5,291.9H66v-1.5H64.5v1.5Z" class="g0_44"/>
<path fill-rule="evenodd" d="M66,291.9H297.4v-1.5H66v1.5Z" class="g0_44"/>
<path fill-rule="evenodd" d="M297.4,291.9h1.5v-1.5h-1.5v1.5Z" class="g0_44"/>
<path fill-rule="evenodd" d="M298.9,291.9h523v-1.5h-523v1.5Z" class="g0_44"/>
<path fill-rule="evenodd" d="M821.9,291.9h1.5v-1.5h-1.5v1.5Z" class="g0_44"/>
<path fill-rule="evenodd" d="M64.5,317.5H66V291.9H64.5v25.6Z" class="g0_44"/>
<path fill-rule="evenodd" d="M297.4,317.5h1.5V291.9h-1.5v25.6Z" class="g0_44"/>
<path fill-rule="evenodd" d="M821.9,317.5h1.5V291.9h-1.5v25.6Z" class="g0_44"/>
<path fill-rule="evenodd" d="M64.5,319.1H66v-1.6H64.5v1.6Z" class="g0_44"/>
<path fill-rule="evenodd" d="M66,319.1H297.4v-1.6H66v1.6Z" class="g0_44"/>
<path fill-rule="evenodd" d="M297.4,319.1h1.5v-1.6h-1.5v1.6Z" class="g0_44"/>
<path fill-rule="evenodd" d="M298.9,319.1h523v-1.6h-523v1.6Z" class="g0_44"/>
<path fill-rule="evenodd" d="M821.9,319.1h1.5v-1.6h-1.5v1.6Z" class="g0_44"/>
<path fill-rule="evenodd" d="M64.5,344.4H66V319.1H64.5v25.3Z" class="g0_44"/>
<path fill-rule="evenodd" d="M297.4,344.4h1.5V319.1h-1.5v25.3Z" class="g0_44"/>
<path fill-rule="evenodd" d="M821.9,344.4h1.5V319.1h-1.5v25.3Z" class="g0_44"/>
<path fill-rule="evenodd" d="M64.5,346H66v-1.6H64.5V346Z" class="g0_44"/>
<path fill-rule="evenodd" d="M66,346H297.4v-1.6H66V346Z" class="g0_44"/>
<path fill-rule="evenodd" d="M297.4,346h1.5v-1.6h-1.5V346Z" class="g0_44"/>
<path fill-rule="evenodd" d="M298.9,346h523v-1.6h-523V346Z" class="g0_44"/>
<path fill-rule="evenodd" d="M821.9,346h1.5v-1.6h-1.5V346Z" class="g0_44"/>
<path fill-rule="evenodd" d="M64.5,371.6H66V346H64.5v25.6Z" class="g0_44"/>
<path fill-rule="evenodd" d="M297.4,371.6h1.5V346h-1.5v25.6Z" class="g0_44"/>
<path fill-rule="evenodd" d="M821.9,371.6h1.5V346h-1.5v25.6Z" class="g0_44"/>
<path fill-rule="evenodd" d="M64.5,373.2H66v-1.6H64.5v1.6Z" class="g0_44"/>
<path fill-rule="evenodd" d="M66,373.2H297.4v-1.6H66v1.6Z" class="g0_44"/>
<path fill-rule="evenodd" d="M297.4,373.2h1.5v-1.6h-1.5v1.6Z" class="g0_44"/>
<path fill-rule="evenodd" d="M298.9,373.2h523v-1.6h-523v1.6Z" class="g0_44"/>
<path fill-rule="evenodd" d="M821.9,373.2h1.5v-1.6h-1.5v1.6Z" class="g0_44"/>
<path fill-rule="evenodd" d="M64.5,398.8H66V373.2H64.5v25.6Z" class="g0_44"/>
<path fill-rule="evenodd" d="M297.4,398.8h1.5V373.2h-1.5v25.6Z" class="g0_44"/>
<path fill-rule="evenodd" d="M821.9,398.8h1.5V373.2h-1.5v25.6Z" class="g0_44"/>
<path fill-rule="evenodd" d="M64.5,400.4H66v-1.6H64.5v1.6Z" class="g0_44"/>
<path fill-rule="evenodd" d="M66,400.4H297.4v-1.6H66v1.6Z" class="g0_44"/>
<path fill-rule="evenodd" d="M297.4,400.4h1.5v-1.6h-1.5v1.6Z" class="g0_44"/>
<path fill-rule="evenodd" d="M298.9,400.4h523v-1.6h-523v1.6Z" class="g0_44"/>
<path fill-rule="evenodd" d="M821.9,400.4h1.5v-1.6h-1.5v1.6Z" class="g0_44"/>
<path fill-rule="evenodd" d="M64.5,426H66V400.4H64.5V426Z" class="g0_44"/>
<path fill-rule="evenodd" d="M297.4,426h1.5V400.4h-1.5V426Z" class="g0_44"/>
<path fill-rule="evenodd" d="M821.9,426h1.5V400.4h-1.5V426Z" class="g0_44"/>
<path fill-rule="evenodd" d="M64.5,427.5H66V426H64.5v1.5Z" class="g0_44"/>
<path fill-rule="evenodd" d="M66,427.5H297.4V426H66v1.5Z" class="g0_44"/>
<path fill-rule="evenodd" d="M297.4,427.5h1.5V426h-1.5v1.5Z" class="g0_44"/>
<path fill-rule="evenodd" d="M298.9,427.5h523V426h-523v1.5Z" class="g0_44"/>
<path fill-rule="evenodd" d="M821.9,427.5h1.5V426h-1.5v1.5Z" class="g0_44"/>
<path fill-rule="evenodd" d="M64.5,453.3H66V427.6H64.5v25.7Z" class="g0_44"/>
<path fill-rule="evenodd" d="M64.5,454.8H66v-1.6H64.5v1.6Z" class="g0_44"/>
<path fill-rule="evenodd" d="M64.5,454.8H66v-1.6H64.5v1.6Z" class="g0_44"/>
<path fill-rule="evenodd" d="M66,454.8H297.4v-1.6H66v1.6Z" class="g0_44"/>
<path fill-rule="evenodd" d="M297.4,453.3h1.5V427.6h-1.5v25.7Z" class="g0_44"/>
<path fill-rule="evenodd" d="M297.4,454.8h1.5v-1.6h-1.5v1.6Z" class="g0_44"/>
<path fill-rule="evenodd" d="M298.9,454.8h523v-1.6h-523v1.6Z" class="g0_44"/>
<path fill-rule="evenodd" d="M821.9,453.3h1.5V427.6h-1.5v25.7Z" class="g0_44"/>
<path fill-rule="evenodd" d="M821.9,454.8h1.5v-1.6h-1.5v1.6Z" class="g0_44"/>
<path fill-rule="evenodd" d="M821.9,454.8h1.5v-1.6h-1.5v1.6Z" class="g0_44"/>
<path fill-rule="evenodd" d="M65.1,538.5H140v-1.2H65.1v1.2Z" class="g0_44"/>
<path fill-rule="evenodd" d="M66.3,609.4H821.9V583.7H66.3v25.7Z" class="g1_44"/>
<path fill-rule="evenodd" d="M73.7,609.4H814.6V583.7H73.7v25.7Z" class="g1_44"/>
<path fill-rule="evenodd" d="M64.5,583.7H66v-1.5H64.5v1.5Z" class="g0_44"/>
<path fill-rule="evenodd" d="M64.5,583.7H66v-1.5H64.5v1.5Z" class="g0_44"/>
<path fill-rule="evenodd" d="M66,583.7H821.9v-1.5H66v1.5Z" class="g0_44"/>
<path fill-rule="evenodd" d="M821.9,583.7h1.5v-1.5h-1.5v1.5Z" class="g0_44"/>
<path fill-rule="evenodd" d="M821.9,583.7h1.5v-1.5h-1.5v1.5Z" class="g0_44"/>
<path fill-rule="evenodd" d="M64.5,609.4H66V583.7H64.5v25.7Z" class="g0_44"/>
<path fill-rule="evenodd" d="M821.9,609.4h1.5V583.7h-1.5v25.7Z" class="g0_44"/>
<path fill-rule="evenodd" d="M64.5,611H66v-1.6H64.5V611Z" class="g0_44"/>
<path fill-rule="evenodd" d="M66,611H297.4v-1.6H66V611Z" class="g0_44"/>
<path fill-rule="evenodd" d="M297.4,611h1.5v-1.6h-1.5V611Z" class="g0_44"/>
<path fill-rule="evenodd" d="M298.9,611h523v-1.6h-523V611Z" class="g0_44"/>
<path fill-rule="evenodd" d="M821.9,611h1.5v-1.6h-1.5V611Z" class="g0_44"/>
<path fill-rule="evenodd" d="M64.5,636.6H66V611H64.5v25.6Z" class="g0_44"/>
<path fill-rule="evenodd" d="M297.4,636.6h1.5V611h-1.5v25.6Z" class="g0_44"/>
<path fill-rule="evenodd" d="M821.9,636.6h1.5V611h-1.5v25.6Z" class="g0_44"/>
<path fill-rule="evenodd" d="M66.3,663.8H821.9V638.2H66.3v25.6Z" class="g1_44"/>
<path fill-rule="evenodd" d="M73.7,663.8H814.6V638.2H73.7v25.6Z" class="g1_44"/>
<path fill-rule="evenodd" d="M64.5,638.2H66v-1.6H64.5v1.6Z" class="g0_44"/>
<path fill-rule="evenodd" d="M66,638.2H297.4v-1.6H66v1.6Z" class="g0_44"/>
<path fill-rule="evenodd" d="M297.4,638.2h1.5v-1.6h-1.5v1.6Z" class="g0_44"/>
<path fill-rule="evenodd" d="M298.9,638.2h523v-1.6h-523v1.6Z" class="g0_44"/>
<path fill-rule="evenodd" d="M821.9,638.2h1.5v-1.6h-1.5v1.6Z" class="g0_44"/>
<path fill-rule="evenodd" d="M64.5,663.8H66V638.2H64.5v25.6Z" class="g0_44"/>
<path fill-rule="evenodd" d="M821.9,663.8h1.5V638.2h-1.5v25.6Z" class="g0_44"/>
<path fill-rule="evenodd" d="M64.5,665.3H66v-1.5H64.5v1.5Z" class="g0_44"/>
<path fill-rule="evenodd" d="M66,665.3H297.4v-1.5H66v1.5Z" class="g0_44"/>
<path fill-rule="evenodd" d="M297.4,665.3h1.5v-1.5h-1.5v1.5Z" class="g0_44"/>
<path fill-rule="evenodd" d="M298.9,665.3h523v-1.5h-523v1.5Z" class="g0_44"/>
<path fill-rule="evenodd" d="M821.9,665.3h1.5v-1.5h-1.5v1.5Z" class="g0_44"/>
<path fill-rule="evenodd" d="M64.5,690.7H66V665.3H64.5v25.4Z" class="g0_44"/>
<path fill-rule="evenodd" d="M297.4,690.7h1.5V665.3h-1.5v25.4Z" class="g0_44"/>
<path fill-rule="evenodd" d="M821.9,690.7h1.5V665.3h-1.5v25.4Z" class="g0_44"/>
<path fill-rule="evenodd" d="M64.5,692.2H66v-1.5H64.5v1.5Z" class="g0_44"/>
<path fill-rule="evenodd" d="M66,692.2H297.4v-1.5H66v1.5Z" class="g0_44"/>
<path fill-rule="evenodd" d="M297.4,692.2h1.5v-1.5h-1.5v1.5Z" class="g0_44"/>
<path fill-rule="evenodd" d="M298.9,692.2h523v-1.5h-523v1.5Z" class="g0_44"/>
<path fill-rule="evenodd" d="M821.9,692.2h1.5v-1.5h-1.5v1.5Z" class="g0_44"/>
<path fill-rule="evenodd" d="M64.5,717.9H66V692.2H64.5v25.7Z" class="g0_44"/>
<path fill-rule="evenodd" d="M297.4,717.9h1.5V692.2h-1.5v25.7Z" class="g0_44"/>
<path fill-rule="evenodd" d="M821.9,717.9h1.5V692.2h-1.5v25.7Z" class="g0_44"/>
<path fill-rule="evenodd" d="M64.5,719.4H66v-1.5H64.5v1.5Z" class="g0_44"/>
<path fill-rule="evenodd" d="M66,719.4H297.4v-1.5H66v1.5Z" class="g0_44"/>
<path fill-rule="evenodd" d="M297.4,719.4h1.5v-1.5h-1.5v1.5Z" class="g0_44"/>
<path fill-rule="evenodd" d="M298.9,719.4h523v-1.5h-523v1.5Z" class="g0_44"/>
<path fill-rule="evenodd" d="M821.9,719.4h1.5v-1.5h-1.5v1.5Z" class="g0_44"/>
<path fill-rule="evenodd" d="M64.5,745.1H66V719.4H64.5v25.7Z" class="g0_44"/>
<path fill-rule="evenodd" d="M297.4,745.1h1.5V719.4h-1.5v25.7Z" class="g0_44"/>
<path fill-rule="evenodd" d="M821.9,745.1h1.5V719.4h-1.5v25.7Z" class="g0_44"/>
<path fill-rule="evenodd" d="M64.5,746.6H66v-1.5H64.5v1.5Z" class="g0_44"/>
<path fill-rule="evenodd" d="M66,746.6H297.4v-1.5H66v1.5Z" class="g0_44"/>
<path fill-rule="evenodd" d="M297.4,746.6h1.5v-1.5h-1.5v1.5Z" class="g0_44"/>
<path fill-rule="evenodd" d="M298.9,746.6h523v-1.5h-523v1.5Z" class="g0_44"/>
<path fill-rule="evenodd" d="M821.9,746.6h1.5v-1.5h-1.5v1.5Z" class="g0_44"/>
<path fill-rule="evenodd" d="M64.5,772.3H66V746.6H64.5v25.7Z" class="g0_44"/>
<path fill-rule="evenodd" d="M297.4,772.3h1.5V746.6h-1.5v25.7Z" class="g0_44"/>
<path fill-rule="evenodd" d="M821.9,772.3h1.5V746.6h-1.5v25.7Z" class="g0_44"/>
<path fill-rule="evenodd" d="M64.5,773.8H66v-1.5H64.5v1.5Z" class="g0_44"/>
<path fill-rule="evenodd" d="M66,773.8H297.4v-1.5H66v1.5Z" class="g0_44"/>
<path fill-rule="evenodd" d="M297.4,773.8h1.5v-1.5h-1.5v1.5Z" class="g0_44"/>
<path fill-rule="evenodd" d="M298.9,773.8h523v-1.5h-523v1.5Z" class="g0_44"/>
<path fill-rule="evenodd" d="M821.9,773.8h1.5v-1.5h-1.5v1.5Z" class="g0_44"/>
<path fill-rule="evenodd" d="M64.5,799.5H66V773.8H64.5v25.7Z" class="g0_44"/>
<path fill-rule="evenodd" d="M297.4,799.5h1.5V773.8h-1.5v25.7Z" class="g0_44"/>
<path fill-rule="evenodd" d="M821.9,799.5h1.5V773.8h-1.5v25.7Z" class="g0_44"/>
<path fill-rule="evenodd" d="M64.5,801.1H66v-1.6H64.5v1.6Z" class="g0_44"/>
<path fill-rule="evenodd" d="M66,801.1H297.4v-1.6H66v1.6Z" class="g0_44"/>
<path fill-rule="evenodd" d="M297.4,801.1h1.5v-1.6h-1.5v1.6Z" class="g0_44"/>
<path fill-rule="evenodd" d="M298.9,801.1h523v-1.6h-523v1.6Z" class="g0_44"/>
<path fill-rule="evenodd" d="M821.9,801.1h1.5v-1.6h-1.5v1.6Z" class="g0_44"/>
<path fill-rule="evenodd" d="M64.5,826.7H66V801.1H64.5v25.6Z" class="g0_44"/>
<path fill-rule="evenodd" d="M297.4,826.7h1.5V801.1h-1.5v25.6Z" class="g0_44"/>
<path fill-rule="evenodd" d="M821.9,826.7h1.5V801.1h-1.5v25.6Z" class="g0_44"/>
<path fill-rule="evenodd" d="M64.5,828.3H66v-1.6H64.5v1.6Z" class="g0_44"/>
<path fill-rule="evenodd" d="M66,828.3H297.4v-1.6H66v1.6Z" class="g0_44"/>
<path fill-rule="evenodd" d="M297.4,828.3h1.5v-1.6h-1.5v1.6Z" class="g0_44"/>
<path fill-rule="evenodd" d="M298.9,828.3h523v-1.6h-523v1.6Z" class="g0_44"/>
<path fill-rule="evenodd" d="M821.9,828.3h1.5v-1.6h-1.5v1.6Z" class="g0_44"/>
<path fill-rule="evenodd" d="M64.5,853.9H66V828.2H64.5v25.7Z" class="g0_44"/>
<path fill-rule="evenodd" d="M64.5,855.4H66v-1.5H64.5v1.5Z" class="g0_44"/>
<path fill-rule="evenodd" d="M64.5,855.4H66v-1.5H64.5v1.5Z" class="g0_44"/>
<path fill-rule="evenodd" d="M66,855.4H297.4v-1.5H66v1.5Z" class="g0_44"/>
<path fill-rule="evenodd" d="M297.4,853.9h1.5V828.2h-1.5v25.7Z" class="g0_44"/>
<path fill-rule="evenodd" d="M297.4,855.4h1.5v-1.5h-1.5v1.5Z" class="g0_44"/>
<path fill-rule="evenodd" d="M298.9,855.4h523v-1.5h-523v1.5Z" class="g0_44"/>
<path fill-rule="evenodd" d="M821.9,853.9h1.5V828.2h-1.5v25.7Z" class="g0_44"/>
<path fill-rule="evenodd" d="M821.9,855.4h1.5v-1.5h-1.5v1.5Z" class="g0_44"/>
<path fill-rule="evenodd" d="M821.9,855.4h1.5v-1.5h-1.5v1.5Z" class="g0_44"/>
</svg>