<?xml version="1.0" encoding="UTF-8" standalone="no"?>
<!DOCTYPE svg PUBLIC "-//W3C//DTD SVG 1.1//EN"
"http://www.w3.org/Graphics/SVG/1.1/DTD/svg11.dtd">
<svg viewBox="0 0 909 1286" version="1.1" xmlns="http://www.w3.org/2000/svg" xmlns:xlink="http://www.w3.org/1999/xlink">
<defs>
<style type="text/css"><![CDATA[
.g0_34{
}
.g1_34{
fill: #F1F1F1;
}
]]></style>
</defs>
<path fill-rule="evenodd" d="M65.1,66H823.4V64.5H65.1V66Z" class="g0_34"/>
<path fill-rule="evenodd" d="M66.6,113.7H821.3V88H66.6v25.7Z" class="g1_34"/>
<path fill-rule="evenodd" d="M74.3,113.7H814V88H74.3v25.7Z" class="g1_34"/>
<path fill-rule="evenodd" d="M65.1,88h1.5V86.5H65.1V88Z" class="g0_34"/>
<path fill-rule="evenodd" d="M65.1,88h1.5V86.5H65.1V88Z" class="g0_34"/>
<path fill-rule="evenodd" d="M66.6,88H821.3V86.5H66.6V88Z" class="g0_34"/>
<path fill-rule="evenodd" d="M821.3,88h1.5V86.5h-1.5V88Z" class="g0_34"/>
<path fill-rule="evenodd" d="M821.3,88h1.5V86.5h-1.5V88Z" class="g0_34"/>
<path fill-rule="evenodd" d="M65.1,113.7h1.5V88H65.1v25.7Z" class="g0_34"/>
<path fill-rule="evenodd" d="M821.3,113.7h1.5V88h-1.5v25.7Z" class="g0_34"/>
<path fill-rule="evenodd" d="M65.1,115.2h1.5v-1.5H65.1v1.5Z" class="g0_34"/>
<path fill-rule="evenodd" d="M66.6,115.2H320v-1.5H66.6v1.5Z" class="g0_34"/>
<path fill-rule="evenodd" d="M320,115.2h1.6v-1.5H320v1.5Z" class="g0_34"/>
<path fill-rule="evenodd" d="M321.6,115.2H821.3v-1.5H321.6v1.5Z" class="g0_34"/>
<path fill-rule="evenodd" d="M821.3,115.2h1.5v-1.5h-1.5v1.5Z" class="g0_34"/>
<path fill-rule="evenodd" d="M65.1,140.9h1.5V115.2H65.1v25.7Z" class="g0_34"/>
<path fill-rule="evenodd" d="M320,140.9h1.6V115.2H320v25.7Z" class="g0_34"/>
<path fill-rule="evenodd" d="M821.3,140.9h1.5V115.2h-1.5v25.7Z" class="g0_34"/>
<path fill-rule="evenodd" d="M65.1,142.4h1.5v-1.5H65.1v1.5Z" class="g0_34"/>
<path fill-rule="evenodd" d="M66.6,142.4H320v-1.5H66.6v1.5Z" class="g0_34"/>
<path fill-rule="evenodd" d="M320,142.4h1.6v-1.5H320v1.5Z" class="g0_34"/>
<path fill-rule="evenodd" d="M321.6,142.4H821.3v-1.5H321.6v1.5Z" class="g0_34"/>
<path fill-rule="evenodd" d="M821.3,142.4h1.5v-1.5h-1.5v1.5Z" class="g0_34"/>
<path fill-rule="evenodd" d="M65.1,168.1h1.5V142.4H65.1v25.7Z" class="g0_34"/>
<path fill-rule="evenodd" d="M320,168.1h1.6V142.4H320v25.7Z" class="g0_34"/>
<path fill-rule="evenodd" d="M821.3,168.1h1.5V142.4h-1.5v25.7Z" class="g0_34"/>
<path fill-rule="evenodd" d="M65.1,169.6h1.5v-1.5H65.1v1.5Z" class="g0_34"/>
<path fill-rule="evenodd" d="M66.6,169.6H320v-1.5H66.6v1.5Z" class="g0_34"/>
<path fill-rule="evenodd" d="M320,169.6h1.6v-1.5H320v1.5Z" class="g0_34"/>
<path fill-rule="evenodd" d="M321.6,169.6H821.3v-1.5H321.6v1.5Z" class="g0_34"/>
<path fill-rule="evenodd" d="M821.3,169.6h1.5v-1.5h-1.5v1.5Z" class="g0_34"/>
<path fill-rule="evenodd" d="M65.1,195.3h1.5V169.6H65.1v25.7Z" class="g0_34"/>
<path fill-rule="evenodd" d="M320,195.3h1.6V169.6H320v25.7Z" class="g0_34"/>
<path fill-rule="evenodd" d="M821.3,195.3h1.5V169.6h-1.5v25.7Z" class="g0_34"/>
<path fill-rule="evenodd" d="M65.1,196.8h1.5v-1.5H65.1v1.5Z" class="g0_34"/>
<path fill-rule="evenodd" d="M66.6,196.8H320v-1.5H66.6v1.5Z" class="g0_34"/>
<path fill-rule="evenodd" d="M320,196.8h1.6v-1.5H320v1.5Z" class="g0_34"/>
<path fill-rule="evenodd" d="M321.6,196.8H821.3v-1.5H321.6v1.5Z" class="g0_34"/>
<path fill-rule="evenodd" d="M821.3,196.8h1.5v-1.5h-1.5v1.5Z" class="g0_34"/>
<path fill-rule="evenodd" d="M65.1,222.5h1.5V196.8H65.1v25.7Z" class="g0_34"/>
<path fill-rule="evenodd" d="M320,222.5h1.6V196.8H320v25.7Z" class="g0_34"/>
<path fill-rule="evenodd" d="M821.3,222.5h1.5V196.8h-1.5v25.7Z" class="g0_34"/>
<path fill-rule="evenodd" d="M65.1,224h1.5v-1.5H65.1V224Z" class="g0_34"/>
<path fill-rule="evenodd" d="M66.6,224H320v-1.5H66.6V224Z" class="g0_34"/>
<path fill-rule="evenodd" d="M320,224h1.6v-1.5H320V224Z" class="g0_34"/>
<path fill-rule="evenodd" d="M321.6,224H821.3v-1.5H321.6V224Z" class="g0_34"/>
<path fill-rule="evenodd" d="M821.3,224h1.5v-1.5h-1.5V224Z" class="g0_34"/>
<path fill-rule="evenodd" d="M65.1,249.7h1.5V224H65.1v25.7Z" class="g0_34"/>
<path fill-rule="evenodd" d="M320,249.7h1.6V224H320v25.7Z" class="g0_34"/>
<path fill-rule="evenodd" d="M821.3,249.7h1.5V224h-1.5v25.7Z" class="g0_34"/>
<path fill-rule="evenodd" d="M65.1,251.2h1.5v-1.5H65.1v1.5Z" class="g0_34"/>
<path fill-rule="evenodd" d="M66.6,251.2H320v-1.5H66.6v1.5Z" class="g0_34"/>
<path fill-rule="evenodd" d="M320,251.2h1.6v-1.5H320v1.5Z" class="g0_34"/>
<path fill-rule="evenodd" d="M321.6,251.2H821.3v-1.5H321.6v1.5Z" class="g0_34"/>
<path fill-rule="evenodd" d="M821.3,251.2h1.5v-1.5h-1.5v1.5Z" class="g0_34"/>
<path fill-rule="evenodd" d="M65.1,276.9h1.5V251.2H65.1v25.7Z" class="g0_34"/>
<path fill-rule="evenodd" d="M320,276.9h1.6V251.2H320v25.7Z" class="g0_34"/>
<path fill-rule="evenodd" d="M821.3,276.9h1.5V251.2h-1.5v25.7Z" class="g0_34"/>
<path fill-rule="evenodd" d="M65.1,278.4h1.5v-1.5H65.1v1.5Z" class="g0_34"/>
<path fill-rule="evenodd" d="M66.6,278.4H320v-1.5H66.6v1.5Z" class="g0_34"/>
<path fill-rule="evenodd" d="M320,278.4h1.6v-1.5H320v1.5Z" class="g0_34"/>
<path fill-rule="evenodd" d="M321.6,278.4H821.3v-1.5H321.6v1.5Z" class="g0_34"/>
<path fill-rule="evenodd" d="M821.3,278.4h1.5v-1.5h-1.5v1.5Z" class="g0_34"/>
<path fill-rule="evenodd" d="M65.1,305.3h1.5V278.4H65.1v26.9Z" class="g0_34"/>
<path fill-rule="evenodd" d="M320,305.3h1.6V278.4H320v26.9Z" class="g0_34"/>
<path fill-rule="evenodd" d="M821.3,305.3h1.5V278.4h-1.5v26.9Z" class="g0_34"/>
<path fill-rule="evenodd" d="M65.1,306.9h1.5v-1.6H65.1v1.6Z" class="g0_34"/>
<path fill-rule="evenodd" d="M66.6,306.9H320v-1.6H66.6v1.6Z" class="g0_34"/>
<path fill-rule="evenodd" d="M320,306.9h1.6v-1.6H320v1.6Z" class="g0_34"/>
<path fill-rule="evenodd" d="M321.6,306.9H821.3v-1.6H321.6v1.6Z" class="g0_34"/>
<path fill-rule="evenodd" d="M821.3,306.9h1.5v-1.6h-1.5v1.6Z" class="g0_34"/>
<path fill-rule="evenodd" d="M65.1,332.2h1.5V306.9H65.1v25.3Z" class="g0_34"/>
<path fill-rule="evenodd" d="M320,332.2h1.6V306.9H320v25.3Z" class="g0_34"/>
<path fill-rule="evenodd" d="M821.3,332.2h1.5V306.9h-1.5v25.3Z" class="g0_34"/>
<path fill-rule="evenodd" d="M65.1,333.7h1.5v-1.5H65.1v1.5Z" class="g0_34"/>
<path fill-rule="evenodd" d="M66.6,333.7H320v-1.5H66.6v1.5Z" class="g0_34"/>
<path fill-rule="evenodd" d="M320,333.7h1.6v-1.5H320v1.5Z" class="g0_34"/>
<path fill-rule="evenodd" d="M321.6,333.7H821.3v-1.5H321.6v1.5Z" class="g0_34"/>
<path fill-rule="evenodd" d="M821.3,333.7h1.5v-1.5h-1.5v1.5Z" class="g0_34"/>
<path fill-rule="evenodd" d="M65.1,361.9h1.5V333.7H65.1v28.2Z" class="g0_34"/>
<path fill-rule="evenodd" d="M320,361.9h1.6V333.7H320v28.2Z" class="g0_34"/>
<path fill-rule="evenodd" d="M821.3,361.9h1.5V333.7h-1.5v28.2Z" class="g0_34"/>
<path fill-rule="evenodd" d="M65.1,363.4h1.5v-1.5H65.1v1.5Z" class="g0_34"/>
<path fill-rule="evenodd" d="M66.6,363.4H320v-1.5H66.6v1.5Z" class="g0_34"/>
<path fill-rule="evenodd" d="M320,363.4h1.6v-1.5H320v1.5Z" class="g0_34"/>
<path fill-rule="evenodd" d="M321.6,363.4H821.3v-1.5H321.6v1.5Z" class="g0_34"/>
<path fill-rule="evenodd" d="M821.3,363.4h1.5v-1.5h-1.5v1.5Z" class="g0_34"/>
<path fill-rule="evenodd" d="M65.1,389h1.5V363.4H65.1V389Z" class="g0_34"/>
<path fill-rule="evenodd" d="M320,389h1.6V363.4H320V389Z" class="g0_34"/>
<path fill-rule="evenodd" d="M821.3,389h1.5V363.4h-1.5V389Z" class="g0_34"/>
<path fill-rule="evenodd" d="M65.1,390.6h1.5V389H65.1v1.6Z" class="g0_34"/>
<path fill-rule="evenodd" d="M66.6,390.6H320V389H66.6v1.6Z" class="g0_34"/>
<path fill-rule="evenodd" d="M320,390.6h1.6V389H320v1.6Z" class="g0_34"/>
<path fill-rule="evenodd" d="M321.6,390.6H821.3V389H321.6v1.6Z" class="g0_34"/>
<path fill-rule="evenodd" d="M821.3,390.6h1.5V389h-1.5v1.6Z" class="g0_34"/>
<path fill-rule="evenodd" d="M65.1,435.5h1.5V390.6H65.1v44.9Z" class="g0_34"/>
<path fill-rule="evenodd" d="M65.1,437.1h1.5v-1.6H65.1v1.6Z" class="g0_34"/>
<path fill-rule="evenodd" d="M65.1,437.1h1.5v-1.6H65.1v1.6Z" class="g0_34"/>
<path fill-rule="evenodd" d="M66.6,437.1H320v-1.6H66.6v1.6Z" class="g0_34"/>
<path fill-rule="evenodd" d="M320,435.5h1.6V390.6H320v44.9Z" class="g0_34"/>
<path fill-rule="evenodd" d="M320,437.1h1.6v-1.6H320v1.6Z" class="g0_34"/>
<path fill-rule="evenodd" d="M321.6,437.1H821.3v-1.6H321.6v1.6Z" class="g0_34"/>
<path fill-rule="evenodd" d="M821.3,435.5h1.5V390.6h-1.5v44.9Z" class="g0_34"/>
<path fill-rule="evenodd" d="M821.3,437.1h1.5v-1.6h-1.5v1.6Z" class="g0_34"/>
<path fill-rule="evenodd" d="M821.3,437.1h1.5v-1.6h-1.5v1.6Z" class="g0_34"/>
</svg>