<?xml version="1.0" encoding="UTF-8" standalone="no"?>
<!DOCTYPE svg PUBLIC "-//W3C//DTD SVG 1.1//EN"
"http://www.w3.org/Graphics/SVG/1.1/DTD/svg11.dtd">
<svg viewBox="0 0 909 1286" version="1.1" xmlns="http://www.w3.org/2000/svg" xmlns:xlink="http://www.w3.org/1999/xlink">
<defs>
<style type="text/css"><![CDATA[
.g0_18{
}
.g1_18{
fill: #F1F1F1;
}
]]></style>
</defs>
<path fill-rule="evenodd" d="M65.1,66H823.4V64.5H65.1V66Z" class="g0_18"/>
<path fill-rule="evenodd" d="M65.1,156.2H140v-1.3H65.1v1.3Z" class="g0_18"/>
<path fill-rule="evenodd" d="M66.3,248.5H821.9V222.8H66.3v25.7Z" class="g1_18"/>
<path fill-rule="evenodd" d="M73.7,248.5H814.6V222.8H73.7v25.7Z" class="g1_18"/>
<path fill-rule="evenodd" d="M64.5,222.8H66v-1.5H64.5v1.5Z" class="g0_18"/>
<path fill-rule="evenodd" d="M64.5,222.8H66v-1.5H64.5v1.5Z" class="g0_18"/>
<path fill-rule="evenodd" d="M66,222.8H821.9v-1.5H66v1.5Z" class="g0_18"/>
<path fill-rule="evenodd" d="M821.9,222.8h1.5v-1.5h-1.5v1.5Z" class="g0_18"/>
<path fill-rule="evenodd" d="M821.9,222.8h1.5v-1.5h-1.5v1.5Z" class="g0_18"/>
<path fill-rule="evenodd" d="M64.5,248.5H66V222.8H64.5v25.7Z" class="g0_18"/>
<path fill-rule="evenodd" d="M821.9,248.5h1.5V222.8h-1.5v25.7Z" class="g0_18"/>
<path fill-rule="evenodd" d="M64.5,250H66v-1.5H64.5V250Z" class="g0_18"/>
<path fill-rule="evenodd" d="M66,250H272.6v-1.5H66V250Z" class="g0_18"/>
<path fill-rule="evenodd" d="M272.6,250h1.6v-1.5h-1.6V250Z" class="g0_18"/>
<path fill-rule="evenodd" d="M274.2,250H821.9v-1.5H274.2V250Z" class="g0_18"/>
<path fill-rule="evenodd" d="M821.9,250h1.5v-1.5h-1.5V250Z" class="g0_18"/>
<path fill-rule="evenodd" d="M64.5,295.2H66V250H64.5v45.2Z" class="g0_18"/>
<path fill-rule="evenodd" d="M272.6,295.2h1.6V250h-1.6v45.2Z" class="g0_18"/>
<path fill-rule="evenodd" d="M821.9,295.2h1.5V250h-1.5v45.2Z" class="g0_18"/>
<path fill-rule="evenodd" d="M64.5,296.8H66v-1.6H64.5v1.6Z" class="g0_18"/>
<path fill-rule="evenodd" d="M66,296.8H272.6v-1.6H66v1.6Z" class="g0_18"/>
<path fill-rule="evenodd" d="M272.6,296.8h1.6v-1.6h-1.6v1.6Z" class="g0_18"/>
<path fill-rule="evenodd" d="M274.2,296.8H821.9v-1.6H274.2v1.6Z" class="g0_18"/>
<path fill-rule="evenodd" d="M821.9,296.8h1.5v-1.6h-1.5v1.6Z" class="g0_18"/>
<path fill-rule="evenodd" d="M64.5,342H66V296.8H64.5V342Z" class="g0_18"/>
<path fill-rule="evenodd" d="M272.6,342h1.6V296.8h-1.6V342Z" class="g0_18"/>
<path fill-rule="evenodd" d="M821.9,342h1.5V296.8h-1.5V342Z" class="g0_18"/>
<path fill-rule="evenodd" d="M66.3,369.2H821.9V343.5H66.3v25.7Z" class="g1_18"/>
<path fill-rule="evenodd" d="M73.7,369.2H814.6V343.5H73.7v25.7Z" class="g1_18"/>
<path fill-rule="evenodd" d="M64.5,343.5H66V342H64.5v1.5Z" class="g0_18"/>
<path fill-rule="evenodd" d="M66,343.5H272.6V342H66v1.5Z" class="g0_18"/>
<path fill-rule="evenodd" d="M272.6,343.5h1.6V342h-1.6v1.5Z" class="g0_18"/>
<path fill-rule="evenodd" d="M274.2,343.5H821.9V342H274.2v1.5Z" class="g0_18"/>
<path fill-rule="evenodd" d="M821.9,343.5h1.5V342h-1.5v1.5Z" class="g0_18"/>
<path fill-rule="evenodd" d="M64.5,369.2H66V343.5H64.5v25.7Z" class="g0_18"/>
<path fill-rule="evenodd" d="M821.9,369.2h1.5V343.5h-1.5v25.7Z" class="g0_18"/>
<path fill-rule="evenodd" d="M64.5,370.7H66v-1.5H64.5v1.5Z" class="g0_18"/>
<path fill-rule="evenodd" d="M66,370.7H272.6v-1.5H66v1.5Z" class="g0_18"/>
<path fill-rule="evenodd" d="M272.6,370.7h1.6v-1.5h-1.6v1.5Z" class="g0_18"/>
<path fill-rule="evenodd" d="M274.2,370.7H821.9v-1.5H274.2v1.5Z" class="g0_18"/>
<path fill-rule="evenodd" d="M821.9,370.7h1.5v-1.5h-1.5v1.5Z" class="g0_18"/>
<path fill-rule="evenodd" d="M64.5,396.1H66V370.7H64.5v25.4Z" class="g0_18"/>
<path fill-rule="evenodd" d="M272.6,396.1h1.6V370.7h-1.6v25.4Z" class="g0_18"/>
<path fill-rule="evenodd" d="M821.9,396.1h1.5V370.7h-1.5v25.4Z" class="g0_18"/>
<path fill-rule="evenodd" d="M64.5,397.6H66v-1.5H64.5v1.5Z" class="g0_18"/>
<path fill-rule="evenodd" d="M66,397.6H272.6v-1.5H66v1.5Z" class="g0_18"/>
<path fill-rule="evenodd" d="M272.6,397.6h1.6v-1.5h-1.6v1.5Z" class="g0_18"/>
<path fill-rule="evenodd" d="M274.2,397.6H821.9v-1.5H274.2v1.5Z" class="g0_18"/>
<path fill-rule="evenodd" d="M821.9,397.6h1.5v-1.5h-1.5v1.5Z" class="g0_18"/>
<path fill-rule="evenodd" d="M64.5,442.9H66V397.6H64.5v45.3Z" class="g0_18"/>
<path fill-rule="evenodd" d="M272.6,442.9h1.6V397.6h-1.6v45.3Z" class="g0_18"/>
<path fill-rule="evenodd" d="M821.9,442.9h1.5V397.6h-1.5v45.3Z" class="g0_18"/>
<path fill-rule="evenodd" d="M64.5,444.4H66v-1.5H64.5v1.5Z" class="g0_18"/>
<path fill-rule="evenodd" d="M66,444.4H272.6v-1.5H66v1.5Z" class="g0_18"/>
<path fill-rule="evenodd" d="M272.6,444.4h1.6v-1.5h-1.6v1.5Z" class="g0_18"/>
<path fill-rule="evenodd" d="M274.2,444.4H821.9v-1.5H274.2v1.5Z" class="g0_18"/>
<path fill-rule="evenodd" d="M821.9,444.4h1.5v-1.5h-1.5v1.5Z" class="g0_18"/>
<path fill-rule="evenodd" d="M64.5,470.1H66V444.4H64.5v25.7Z" class="g0_18"/>
<path fill-rule="evenodd" d="M272.6,470.1h1.6V444.4h-1.6v25.7Z" class="g0_18"/>
<path fill-rule="evenodd" d="M821.9,470.1h1.5V444.4h-1.5v25.7Z" class="g0_18"/>
<path fill-rule="evenodd" d="M64.5,471.6H66v-1.5H64.5v1.5Z" class="g0_18"/>
<path fill-rule="evenodd" d="M66,471.6H272.6v-1.5H66v1.5Z" class="g0_18"/>
<path fill-rule="evenodd" d="M272.6,471.6h1.6v-1.5h-1.6v1.5Z" class="g0_18"/>
<path fill-rule="evenodd" d="M274.2,471.6H821.9v-1.5H274.2v1.5Z" class="g0_18"/>
<path fill-rule="evenodd" d="M821.9,471.6h1.5v-1.5h-1.5v1.5Z" class="g0_18"/>
<path fill-rule="evenodd" d="M64.5,497.2H66V471.6H64.5v25.6Z" class="g0_18"/>
<path fill-rule="evenodd" d="M272.6,497.2h1.6V471.6h-1.6v25.6Z" class="g0_18"/>
<path fill-rule="evenodd" d="M821.9,497.2h1.5V471.6h-1.5v25.6Z" class="g0_18"/>
<path fill-rule="evenodd" d="M64.5,498.8H66v-1.5H64.5v1.5Z" class="g0_18"/>
<path fill-rule="evenodd" d="M66,498.8H272.6v-1.5H66v1.5Z" class="g0_18"/>
<path fill-rule="evenodd" d="M272.6,498.8h1.6v-1.5h-1.6v1.5Z" class="g0_18"/>
<path fill-rule="evenodd" d="M274.2,498.8H821.9v-1.5H274.2v1.5Z" class="g0_18"/>
<path fill-rule="evenodd" d="M821.9,498.8h1.5v-1.5h-1.5v1.5Z" class="g0_18"/>
<path fill-rule="evenodd" d="M64.5,524.5H66V498.8H64.5v25.7Z" class="g0_18"/>
<path fill-rule="evenodd" d="M272.6,524.5h1.6V498.8h-1.6v25.7Z" class="g0_18"/>
<path fill-rule="evenodd" d="M821.9,524.5h1.5V498.8h-1.5v25.7Z" class="g0_18"/>
<path fill-rule="evenodd" d="M64.5,526H66v-1.5H64.5V526Z" class="g0_18"/>
<path fill-rule="evenodd" d="M66,526H272.6v-1.5H66V526Z" class="g0_18"/>
<path fill-rule="evenodd" d="M272.6,526h1.6v-1.5h-1.6V526Z" class="g0_18"/>
<path fill-rule="evenodd" d="M274.2,526H821.9v-1.5H274.2V526Z" class="g0_18"/>
<path fill-rule="evenodd" d="M821.9,526h1.5v-1.5h-1.5V526Z" class="g0_18"/>
<path fill-rule="evenodd" d="M64.5,571.2H66V526H64.5v45.2Z" class="g0_18"/>
<path fill-rule="evenodd" d="M64.5,572.7H66v-1.5H64.5v1.5Z" class="g0_18"/>
<path fill-rule="evenodd" d="M64.5,572.7H66v-1.5H64.5v1.5Z" class="g0_18"/>
<path fill-rule="evenodd" d="M66,572.7H272.6v-1.5H66v1.5Z" class="g0_18"/>
<path fill-rule="evenodd" d="M272.6,571.2h1.6V526h-1.6v45.2Z" class="g0_18"/>
<path fill-rule="evenodd" d="M272.6,572.7h1.6v-1.5h-1.6v1.5Z" class="g0_18"/>
<path fill-rule="evenodd" d="M274.2,572.7H821.9v-1.5H274.2v1.5Z" class="g0_18"/>
<path fill-rule="evenodd" d="M821.9,571.2h1.5V526h-1.5v45.2Z" class="g0_18"/>
<path fill-rule="evenodd" d="M821.9,572.7h1.5v-1.5h-1.5v1.5Z" class="g0_18"/>
<path fill-rule="evenodd" d="M821.9,572.7h1.5v-1.5h-1.5v1.5Z" class="g0_18"/>
<path fill-rule="evenodd" d="M65.1,656.5H140v-1.2H65.1v1.2Z" class="g0_18"/>
<path fill-rule="evenodd" d="M63.9,770.2H824.4V744.5H63.9v25.7Z" class="g1_18"/>
<path fill-rule="evenodd" d="M71.5,770.2H816.7V744.5H71.5v25.7Z" class="g1_18"/>
<path fill-rule="evenodd" d="M62.4,744.5h1.5V743H62.4v1.5Z" class="g0_18"/>
<path fill-rule="evenodd" d="M62.4,744.5h1.5V743H62.4v1.5Z" class="g0_18"/>
<path fill-rule="evenodd" d="M63.9,744.5H824V743H63.9v1.5Z" class="g0_18"/>
<path fill-rule="evenodd" d="M824.1,744.5h1.5V743h-1.5v1.5Z" class="g0_18"/>
<path fill-rule="evenodd" d="M824.1,744.5h1.5V743h-1.5v1.5Z" class="g0_18"/>
<path fill-rule="evenodd" d="M62.4,770.2h1.5V744.5H62.4v25.7Z" class="g0_18"/>
<path fill-rule="evenodd" d="M824.1,770.2h1.5V744.5h-1.5v25.7Z" class="g0_18"/>
<path fill-rule="evenodd" d="M62.4,771.7h1.5v-1.5H62.4v1.5Z" class="g0_18"/>
<path fill-rule="evenodd" d="M63.9,771.7H269.3v-1.5H63.9v1.5Z" class="g0_18"/>
<path fill-rule="evenodd" d="M269.3,771.7h1.5v-1.5h-1.5v1.5Z" class="g0_18"/>
<path fill-rule="evenodd" d="M270.8,771.7H824.1v-1.5H270.8v1.5Z" class="g0_18"/>
<path fill-rule="evenodd" d="M824.1,771.7h1.5v-1.5h-1.5v1.5Z" class="g0_18"/>
<path fill-rule="evenodd" d="M62.4,797.4h1.5V771.7H62.4v25.7Z" class="g0_18"/>
<path fill-rule="evenodd" d="M269.3,797.4h1.5V771.7h-1.5v25.7Z" class="g0_18"/>
<path fill-rule="evenodd" d="M824.1,797.4h1.5V771.7h-1.5v25.7Z" class="g0_18"/>
<path fill-rule="evenodd" d="M62.4,798.9h1.5v-1.5H62.4v1.5Z" class="g0_18"/>
<path fill-rule="evenodd" d="M63.9,798.9H269.3v-1.5H63.9v1.5Z" class="g0_18"/>
<path fill-rule="evenodd" d="M269.3,798.9h1.5v-1.5h-1.5v1.5Z" class="g0_18"/>
<path fill-rule="evenodd" d="M270.8,798.9H824.1v-1.5H270.8v1.5Z" class="g0_18"/>
<path fill-rule="evenodd" d="M824.1,798.9h1.5v-1.5h-1.5v1.5Z" class="g0_18"/>
<path fill-rule="evenodd" d="M62.4,844.1h1.5V798.9H62.4v45.2Z" class="g0_18"/>
<path fill-rule="evenodd" d="M269.3,844.1h1.5V798.9h-1.5v45.2Z" class="g0_18"/>
<path fill-rule="evenodd" d="M824.1,844.1h1.5V798.9h-1.5v45.2Z" class="g0_18"/>
<path fill-rule="evenodd" d="M63.9,871H824.4V845.7H63.9V871Z" class="g1_18"/>
<path fill-rule="evenodd" d="M71.5,871H816.7V845.7H71.5V871Z" class="g1_18"/>
<path fill-rule="evenodd" d="M62.4,845.7h1.5v-1.6H62.4v1.6Z" class="g0_18"/>
<path fill-rule="evenodd" d="M63.9,845.7H269.3v-1.6H63.9v1.6Z" class="g0_18"/>
<path fill-rule="evenodd" d="M269.3,845.7h1.5v-1.6h-1.5v1.6Z" class="g0_18"/>
<path fill-rule="evenodd" d="M270.8,845.7H824.1v-1.6H270.8v1.6Z" class="g0_18"/>
<path fill-rule="evenodd" d="M824.1,845.7h1.5v-1.6h-1.5v1.6Z" class="g0_18"/>
<path fill-rule="evenodd" d="M62.4,871h1.5V845.7H62.4V871Z" class="g0_18"/>
<path fill-rule="evenodd" d="M824.1,871h1.5V845.7h-1.5V871Z" class="g0_18"/>
<path fill-rule="evenodd" d="M62.4,872.6h1.5V871H62.4v1.6Z" class="g0_18"/>
<path fill-rule="evenodd" d="M63.9,872.6H266.5V871H63.9v1.6Z" class="g0_18"/>
<path fill-rule="evenodd" d="M266.5,872.6H268V871h-1.5v1.6Z" class="g0_18"/>
<path fill-rule="evenodd" d="M268,872.6H824V871H268v1.6Z" class="g0_18"/>
<path fill-rule="evenodd" d="M824.1,872.6h1.5V871h-1.5v1.6Z" class="g0_18"/>
<path fill-rule="evenodd" d="M62.4,898.2h1.5V872.5H62.4v25.7Z" class="g0_18"/>
<path fill-rule="evenodd" d="M266.5,898.2H268V872.5h-1.5v25.7Z" class="g0_18"/>
<path fill-rule="evenodd" d="M824.1,898.2h1.5V872.5h-1.5v25.7Z" class="g0_18"/>
<path fill-rule="evenodd" d="M62.4,899.7h1.5v-1.5H62.4v1.5Z" class="g0_18"/>
<path fill-rule="evenodd" d="M63.9,899.7H266.5v-1.5H63.9v1.5Z" class="g0_18"/>
<path fill-rule="evenodd" d="M266.5,899.7H268v-1.5h-1.5v1.5Z" class="g0_18"/>
<path fill-rule="evenodd" d="M268,899.7H824v-1.5H268v1.5Z" class="g0_18"/>
<path fill-rule="evenodd" d="M824.1,899.7h1.5v-1.5h-1.5v1.5Z" class="g0_18"/>
<path fill-rule="evenodd" d="M62.4,925.4h1.5V899.8H62.4v25.6Z" class="g0_18"/>
<path fill-rule="evenodd" d="M266.5,925.4H268V899.8h-1.5v25.6Z" class="g0_18"/>
<path fill-rule="evenodd" d="M824.1,925.4h1.5V899.8h-1.5v25.6Z" class="g0_18"/>
<path fill-rule="evenodd" d="M62.4,926.9h1.5v-1.5H62.4v1.5Z" class="g0_18"/>
<path fill-rule="evenodd" d="M63.9,926.9H266.5v-1.5H63.9v1.5Z" class="g0_18"/>
<path fill-rule="evenodd" d="M266.5,926.9H268v-1.5h-1.5v1.5Z" class="g0_18"/>
<path fill-rule="evenodd" d="M268,926.9H824v-1.5H268v1.5Z" class="g0_18"/>
<path fill-rule="evenodd" d="M824.1,926.9h1.5v-1.5h-1.5v1.5Z" class="g0_18"/>
<path fill-rule="evenodd" d="M62.4,952.6h1.5V926.9H62.4v25.7Z" class="g0_18"/>
<path fill-rule="evenodd" d="M266.5,952.6H268V926.9h-1.5v25.7Z" class="g0_18"/>
<path fill-rule="evenodd" d="M824.1,952.6h1.5V926.9h-1.5v25.7Z" class="g0_18"/>
<path fill-rule="evenodd" d="M62.4,954.2h1.5v-1.6H62.4v1.6Z" class="g0_18"/>
<path fill-rule="evenodd" d="M63.9,954.2H266.5v-1.6H63.9v1.6Z" class="g0_18"/>
<path fill-rule="evenodd" d="M266.5,954.2H268v-1.6h-1.5v1.6Z" class="g0_18"/>
<path fill-rule="evenodd" d="M268,954.2H824v-1.6H268v1.6Z" class="g0_18"/>
<path fill-rule="evenodd" d="M824.1,954.2h1.5v-1.6h-1.5v1.6Z" class="g0_18"/>
<path fill-rule="evenodd" d="M62.4,979.8h1.5V954.2H62.4v25.6Z" class="g0_18"/>
<path fill-rule="evenodd" d="M266.5,979.8H268V954.2h-1.5v25.6Z" class="g0_18"/>
<path fill-rule="evenodd" d="M824.1,979.8h1.5V954.2h-1.5v25.6Z" class="g0_18"/>
<path fill-rule="evenodd" d="M62.4,981.4h1.5v-1.6H62.4v1.6Z" class="g0_18"/>
<path fill-rule="evenodd" d="M63.9,981.4H266.5v-1.6H63.9v1.6Z" class="g0_18"/>
<path fill-rule="evenodd" d="M266.5,981.4H268v-1.6h-1.5v1.6Z" class="g0_18"/>
<path fill-rule="evenodd" d="M268,981.4H824v-1.6H268v1.6Z" class="g0_18"/>
<path fill-rule="evenodd" d="M824.1,981.4h1.5v-1.6h-1.5v1.6Z" class="g0_18"/>
<path fill-rule="evenodd" d="M62.4,1026.6h1.5V981.4H62.4v45.2Z" class="g0_18"/>
<path fill-rule="evenodd" d="M62.4,1028.1h1.5v-1.5H62.4v1.5Z" class="g0_18"/>
<path fill-rule="evenodd" d="M62.4,1028.1h1.5v-1.5H62.4v1.5Z" class="g0_18"/>
<path fill-rule="evenodd" d="M63.9,1028.1H266.5v-1.5H63.9v1.5Z" class="g0_18"/>
<path fill-rule="evenodd" d="M266.5,1026.6H268V981.4h-1.5v45.2Z" class="g0_18"/>
<path fill-rule="evenodd" d="M266.5,1028.1H268v-1.5h-1.5v1.5Z" class="g0_18"/>
<path fill-rule="evenodd" d="M268,1028.1H824v-1.5H268v1.5Z" class="g0_18"/>
<path fill-rule="evenodd" d="M824.1,1026.6h1.5V981.4h-1.5v45.2Z" class="g0_18"/>
<path fill-rule="evenodd" d="M824.1,1028.1h1.5v-1.5h-1.5v1.5Z" class="g0_18"/>
<path fill-rule="evenodd" d="M824.1,1028.1h1.5v-1.5h-1.5v1.5Z" class="g0_18"/>
<path fill-rule="evenodd" d="M65.1,1111.8H140v-1.2H65.1v1.2Z" class="g0_18"/>
</svg>