<?xml version="1.0" encoding="UTF-8" standalone="no"?>
<!DOCTYPE svg PUBLIC "-//W3C//DTD SVG 1.1//EN"
"http://www.w3.org/Graphics/SVG/1.1/DTD/svg11.dtd">
<svg viewBox="0 0 909 1286" version="1.1" xmlns="http://www.w3.org/2000/svg" xmlns:xlink="http://www.w3.org/1999/xlink">
<defs>
<style type="text/css"><![CDATA[
.g0_29{
}
.g1_29{
fill: #F1F1F1;
}
]]></style>
</defs>
<path fill-rule="evenodd" d="M86.5,66H844.8V64.5H86.5V66Z" class="g0_29"/>
<path fill-rule="evenodd" d="M77.3,88h1.6V86.5H77.3V88Z" class="g0_29"/>
<path fill-rule="evenodd" d="M77.3,88h1.6V86.5H77.3V88Z" class="g0_29"/>
<path fill-rule="evenodd" d="M78.9,88H336.8V86.5H78.9V88Z" class="g0_29"/>
<path fill-rule="evenodd" d="M336.8,88h1.6V86.5h-1.6V88Z" class="g0_29"/>
<path fill-rule="evenodd" d="M338.4,88H851.9V86.5H338.4V88Z" class="g0_29"/>
<path fill-rule="evenodd" d="M851.9,88h1.5V86.5h-1.5V88Z" class="g0_29"/>
<path fill-rule="evenodd" d="M851.9,88h1.5V86.5h-1.5V88Z" class="g0_29"/>
<path fill-rule="evenodd" d="M77.3,110.6h1.6V88H77.3v22.6Z" class="g0_29"/>
<path fill-rule="evenodd" d="M336.8,110.6h1.6V88h-1.6v22.6Z" class="g0_29"/>
<path fill-rule="evenodd" d="M851.9,110.6h1.5V88h-1.5v22.6Z" class="g0_29"/>
<path fill-rule="evenodd" d="M77.3,112.2h1.6v-1.6H77.3v1.6Z" class="g0_29"/>
<path fill-rule="evenodd" d="M78.9,112.2H336.8v-1.6H78.9v1.6Z" class="g0_29"/>
<path fill-rule="evenodd" d="M336.8,112.2h1.6v-1.6h-1.6v1.6Z" class="g0_29"/>
<path fill-rule="evenodd" d="M338.4,112.2H851.9v-1.6H338.4v1.6Z" class="g0_29"/>
<path fill-rule="evenodd" d="M851.9,112.2h1.5v-1.6h-1.5v1.6Z" class="g0_29"/>
<path fill-rule="evenodd" d="M77.3,137.8h1.6V112.2H77.3v25.6Z" class="g0_29"/>
<path fill-rule="evenodd" d="M336.8,137.8h1.6V112.2h-1.6v25.6Z" class="g0_29"/>
<path fill-rule="evenodd" d="M851.9,137.8h1.5V112.2h-1.5v25.6Z" class="g0_29"/>
<path fill-rule="evenodd" d="M77.3,139.4h1.6v-1.6H77.3v1.6Z" class="g0_29"/>
<path fill-rule="evenodd" d="M78.9,139.4H336.8v-1.6H78.9v1.6Z" class="g0_29"/>
<path fill-rule="evenodd" d="M336.8,139.4h1.6v-1.6h-1.6v1.6Z" class="g0_29"/>
<path fill-rule="evenodd" d="M338.4,139.4H851.9v-1.6H338.4v1.6Z" class="g0_29"/>
<path fill-rule="evenodd" d="M851.9,139.4h1.5v-1.6h-1.5v1.6Z" class="g0_29"/>
<path fill-rule="evenodd" d="M77.3,165h1.6V139.4H77.3V165Z" class="g0_29"/>
<path fill-rule="evenodd" d="M336.8,165h1.6V139.4h-1.6V165Z" class="g0_29"/>
<path fill-rule="evenodd" d="M851.9,165h1.5V139.4h-1.5V165Z" class="g0_29"/>
<path fill-rule="evenodd" d="M77.3,166.6h1.6V165H77.3v1.6Z" class="g0_29"/>
<path fill-rule="evenodd" d="M78.9,166.6H336.8V165H78.9v1.6Z" class="g0_29"/>
<path fill-rule="evenodd" d="M336.8,166.6h1.6V165h-1.6v1.6Z" class="g0_29"/>
<path fill-rule="evenodd" d="M338.4,166.6H851.9V165H338.4v1.6Z" class="g0_29"/>
<path fill-rule="evenodd" d="M851.9,166.6h1.5V165h-1.5v1.6Z" class="g0_29"/>
<path fill-rule="evenodd" d="M77.3,192.2h1.6V166.6H77.3v25.6Z" class="g0_29"/>
<path fill-rule="evenodd" d="M336.8,192.2h1.6V166.6h-1.6v25.6Z" class="g0_29"/>
<path fill-rule="evenodd" d="M851.9,192.2h1.5V166.6h-1.5v25.6Z" class="g0_29"/>
<path fill-rule="evenodd" d="M77.3,193.8h1.6v-1.6H77.3v1.6Z" class="g0_29"/>
<path fill-rule="evenodd" d="M78.9,193.8H336.8v-1.6H78.9v1.6Z" class="g0_29"/>
<path fill-rule="evenodd" d="M336.8,193.8h1.6v-1.6h-1.6v1.6Z" class="g0_29"/>
<path fill-rule="evenodd" d="M338.4,193.8H851.9v-1.6H338.4v1.6Z" class="g0_29"/>
<path fill-rule="evenodd" d="M851.9,193.8h1.5v-1.6h-1.5v1.6Z" class="g0_29"/>
<path fill-rule="evenodd" d="M77.3,239h1.6V193.8H77.3V239Z" class="g0_29"/>
<path fill-rule="evenodd" d="M336.8,239h1.6V193.8h-1.6V239Z" class="g0_29"/>
<path fill-rule="evenodd" d="M851.9,239h1.5V193.8h-1.5V239Z" class="g0_29"/>
<path fill-rule="evenodd" d="M77.3,240.5h1.6V239H77.3v1.5Z" class="g0_29"/>
<path fill-rule="evenodd" d="M78.9,240.5H336.8V239H78.9v1.5Z" class="g0_29"/>
<path fill-rule="evenodd" d="M336.8,240.5h1.6V239h-1.6v1.5Z" class="g0_29"/>
<path fill-rule="evenodd" d="M338.4,240.5H851.9V239H338.4v1.5Z" class="g0_29"/>
<path fill-rule="evenodd" d="M851.9,240.5h1.5V239h-1.5v1.5Z" class="g0_29"/>
<path fill-rule="evenodd" d="M77.3,285.5h1.6v-45H77.3v45Z" class="g0_29"/>
<path fill-rule="evenodd" d="M336.8,285.5h1.6v-45h-1.6v45Z" class="g0_29"/>
<path fill-rule="evenodd" d="M851.9,285.5h1.5v-45h-1.5v45Z" class="g0_29"/>
<path fill-rule="evenodd" d="M77.3,287h1.6v-1.5H77.3V287Z" class="g0_29"/>
<path fill-rule="evenodd" d="M78.9,287H336.8v-1.5H78.9V287Z" class="g0_29"/>
<path fill-rule="evenodd" d="M336.8,287h1.6v-1.5h-1.6V287Z" class="g0_29"/>
<path fill-rule="evenodd" d="M338.4,287H851.9v-1.5H338.4V287Z" class="g0_29"/>
<path fill-rule="evenodd" d="M851.9,287h1.5v-1.5h-1.5V287Z" class="g0_29"/>
<path fill-rule="evenodd" d="M77.3,332.2h1.6V287H77.3v45.2Z" class="g0_29"/>
<path fill-rule="evenodd" d="M336.8,332.2h1.6V287h-1.6v45.2Z" class="g0_29"/>
<path fill-rule="evenodd" d="M851.9,332.2h1.5V287h-1.5v45.2Z" class="g0_29"/>
<path fill-rule="evenodd" d="M77.3,333.7h1.6v-1.5H77.3v1.5Z" class="g0_29"/>
<path fill-rule="evenodd" d="M78.9,333.7H336.8v-1.5H78.9v1.5Z" class="g0_29"/>
<path fill-rule="evenodd" d="M336.8,333.7h1.6v-1.5h-1.6v1.5Z" class="g0_29"/>
<path fill-rule="evenodd" d="M338.4,333.7H851.9v-1.5H338.4v1.5Z" class="g0_29"/>
<path fill-rule="evenodd" d="M851.9,333.7h1.5v-1.5h-1.5v1.5Z" class="g0_29"/>
<path fill-rule="evenodd" d="M77.3,359.4h1.6V333.7H77.3v25.7Z" class="g0_29"/>
<path fill-rule="evenodd" d="M336.8,359.4h1.6V333.7h-1.6v25.7Z" class="g0_29"/>
<path fill-rule="evenodd" d="M851.9,359.4h1.5V333.7h-1.5v25.7Z" class="g0_29"/>
<path fill-rule="evenodd" d="M77.3,360.9h1.6v-1.5H77.3v1.5Z" class="g0_29"/>
<path fill-rule="evenodd" d="M78.9,360.9H336.8v-1.5H78.9v1.5Z" class="g0_29"/>
<path fill-rule="evenodd" d="M336.8,360.9h1.6v-1.5h-1.6v1.5Z" class="g0_29"/>
<path fill-rule="evenodd" d="M338.4,360.9H851.9v-1.5H338.4v1.5Z" class="g0_29"/>
<path fill-rule="evenodd" d="M851.9,360.9h1.5v-1.5h-1.5v1.5Z" class="g0_29"/>
<path fill-rule="evenodd" d="M77.3,386.6h1.6V360.9H77.3v25.7Z" class="g0_29"/>
<path fill-rule="evenodd" d="M336.8,386.6h1.6V360.9h-1.6v25.7Z" class="g0_29"/>
<path fill-rule="evenodd" d="M851.9,386.6h1.5V360.9h-1.5v25.7Z" class="g0_29"/>
<path fill-rule="evenodd" d="M79.2,413.8h773V388.1H79.2v25.7Z" class="g1_29"/>
<path fill-rule="evenodd" d="M86.5,413.8H844.8V388.1H86.5v25.7Z" class="g1_29"/>
<path fill-rule="evenodd" d="M77.3,388.1h1.6v-1.5H77.3v1.5Z" class="g0_29"/>
<path fill-rule="evenodd" d="M78.9,388.1H336.8v-1.5H78.9v1.5Z" class="g0_29"/>
<path fill-rule="evenodd" d="M336.8,388.1h1.6v-1.5h-1.6v1.5Z" class="g0_29"/>
<path fill-rule="evenodd" d="M338.4,388.1H851.9v-1.5H338.4v1.5Z" class="g0_29"/>
<path fill-rule="evenodd" d="M851.9,388.1h1.5v-1.5h-1.5v1.5Z" class="g0_29"/>
<path fill-rule="evenodd" d="M77.3,413.8h1.6V388.1H77.3v25.7Z" class="g0_29"/>
<path fill-rule="evenodd" d="M851.9,413.8h1.5V388.1h-1.5v25.7Z" class="g0_29"/>
<path fill-rule="evenodd" d="M77.3,415.3h1.6v-1.5H77.3v1.5Z" class="g0_29"/>
<path fill-rule="evenodd" d="M78.9,415.3H336.8v-1.5H78.9v1.5Z" class="g0_29"/>
<path fill-rule="evenodd" d="M336.8,415.3h1.6v-1.5h-1.6v1.5Z" class="g0_29"/>
<path fill-rule="evenodd" d="M338.4,415.3H851.9v-1.5H338.4v1.5Z" class="g0_29"/>
<path fill-rule="evenodd" d="M851.9,415.3h1.5v-1.5h-1.5v1.5Z" class="g0_29"/>
<path fill-rule="evenodd" d="M77.3,441h1.6V415.3H77.3V441Z" class="g0_29"/>
<path fill-rule="evenodd" d="M336.8,441h1.6V415.3h-1.6V441Z" class="g0_29"/>
<path fill-rule="evenodd" d="M851.9,441h1.5V415.3h-1.5V441Z" class="g0_29"/>
<path fill-rule="evenodd" d="M77.3,442.6h1.6V441H77.3v1.6Z" class="g0_29"/>
<path fill-rule="evenodd" d="M78.9,442.6H336.8V441H78.9v1.6Z" class="g0_29"/>
<path fill-rule="evenodd" d="M336.8,442.6h1.6V441h-1.6v1.6Z" class="g0_29"/>
<path fill-rule="evenodd" d="M338.4,442.6H851.9V441H338.4v1.6Z" class="g0_29"/>
<path fill-rule="evenodd" d="M851.9,442.6h1.5V441h-1.5v1.6Z" class="g0_29"/>
<path fill-rule="evenodd" d="M77.3,467.9h1.6V442.6H77.3v25.3Z" class="g0_29"/>
<path fill-rule="evenodd" d="M336.8,467.9h1.6V442.6h-1.6v25.3Z" class="g0_29"/>
<path fill-rule="evenodd" d="M851.9,467.9h1.5V442.6h-1.5v25.3Z" class="g0_29"/>
<path fill-rule="evenodd" d="M77.3,469.4h1.6v-1.5H77.3v1.5Z" class="g0_29"/>
<path fill-rule="evenodd" d="M78.9,469.4H336.8v-1.5H78.9v1.5Z" class="g0_29"/>
<path fill-rule="evenodd" d="M336.8,469.4h1.6v-1.5h-1.6v1.5Z" class="g0_29"/>
<path fill-rule="evenodd" d="M338.4,469.4H851.9v-1.5H338.4v1.5Z" class="g0_29"/>
<path fill-rule="evenodd" d="M851.9,469.4h1.5v-1.5h-1.5v1.5Z" class="g0_29"/>
<path fill-rule="evenodd" d="M77.3,495.1h1.6V469.5H77.3v25.6Z" class="g0_29"/>
<path fill-rule="evenodd" d="M336.8,495.1h1.6V469.5h-1.6v25.6Z" class="g0_29"/>
<path fill-rule="evenodd" d="M851.9,495.1h1.5V469.5h-1.5v25.6Z" class="g0_29"/>
<path fill-rule="evenodd" d="M77.3,496.7h1.6v-1.6H77.3v1.6Z" class="g0_29"/>
<path fill-rule="evenodd" d="M78.9,496.7H336.8v-1.6H78.9v1.6Z" class="g0_29"/>
<path fill-rule="evenodd" d="M336.8,496.7h1.6v-1.6h-1.6v1.6Z" class="g0_29"/>
<path fill-rule="evenodd" d="M338.4,496.7H851.9v-1.6H338.4v1.6Z" class="g0_29"/>
<path fill-rule="evenodd" d="M851.9,496.7h1.5v-1.6h-1.5v1.6Z" class="g0_29"/>
<path fill-rule="evenodd" d="M77.3,522.3h1.6V496.6H77.3v25.7Z" class="g0_29"/>
<path fill-rule="evenodd" d="M336.8,522.3h1.6V496.6h-1.6v25.7Z" class="g0_29"/>
<path fill-rule="evenodd" d="M851.9,522.3h1.5V496.6h-1.5v25.7Z" class="g0_29"/>
<path fill-rule="evenodd" d="M77.3,523.8h1.6v-1.5H77.3v1.5Z" class="g0_29"/>
<path fill-rule="evenodd" d="M78.9,523.8H336.8v-1.5H78.9v1.5Z" class="g0_29"/>
<path fill-rule="evenodd" d="M336.8,523.8h1.6v-1.5h-1.6v1.5Z" class="g0_29"/>
<path fill-rule="evenodd" d="M338.4,523.8H851.9v-1.5H338.4v1.5Z" class="g0_29"/>
<path fill-rule="evenodd" d="M851.9,523.8h1.5v-1.5h-1.5v1.5Z" class="g0_29"/>
<path fill-rule="evenodd" d="M77.3,569.1h1.6V523.8H77.3v45.3Z" class="g0_29"/>
<path fill-rule="evenodd" d="M336.8,569.1h1.6V523.8h-1.6v45.3Z" class="g0_29"/>
<path fill-rule="evenodd" d="M851.9,569.1h1.5V523.8h-1.5v45.3Z" class="g0_29"/>
<path fill-rule="evenodd" d="M77.3,570.6h1.6v-1.5H77.3v1.5Z" class="g0_29"/>
<path fill-rule="evenodd" d="M78.9,570.6H336.8v-1.5H78.9v1.5Z" class="g0_29"/>
<path fill-rule="evenodd" d="M336.8,570.6h1.6v-1.5h-1.6v1.5Z" class="g0_29"/>
<path fill-rule="evenodd" d="M338.4,570.6H851.9v-1.5H338.4v1.5Z" class="g0_29"/>
<path fill-rule="evenodd" d="M851.9,570.6h1.5v-1.5h-1.5v1.5Z" class="g0_29"/>
<path fill-rule="evenodd" d="M77.3,596.3h1.6V570.6H77.3v25.7Z" class="g0_29"/>
<path fill-rule="evenodd" d="M77.3,597.8h1.6v-1.5H77.3v1.5Z" class="g0_29"/>
<path fill-rule="evenodd" d="M77.3,597.8h1.6v-1.5H77.3v1.5Z" class="g0_29"/>
<path fill-rule="evenodd" d="M78.9,597.8H336.8v-1.5H78.9v1.5Z" class="g0_29"/>
<path fill-rule="evenodd" d="M336.8,596.3h1.6V570.6h-1.6v25.7Z" class="g0_29"/>
<path fill-rule="evenodd" d="M336.8,597.8h1.6v-1.5h-1.6v1.5Z" class="g0_29"/>
<path fill-rule="evenodd" d="M338.4,597.8H851.9v-1.5H338.4v1.5Z" class="g0_29"/>
<path fill-rule="evenodd" d="M851.9,596.3h1.5V570.6h-1.5v25.7Z" class="g0_29"/>
<path fill-rule="evenodd" d="M851.9,597.8h1.5v-1.5h-1.5v1.5Z" class="g0_29"/>
<path fill-rule="evenodd" d="M851.9,597.8h1.5v-1.5h-1.5v1.5Z" class="g0_29"/>
<path fill-rule="evenodd" d="M86.5,681.5h74.9v-1.2H86.5v1.2Z" class="g0_29"/>
<path fill-rule="evenodd" d="M86.5,744.2h70V743h-70v1.2Z" class="g0_29"/>
<path fill-rule="evenodd" d="M88.6,815.1H842.7V789.4H88.6v25.7Z" class="g1_29"/>
<path fill-rule="evenodd" d="M96.3,815.1H835.4V789.4H96.3v25.7Z" class="g1_29"/>
<path fill-rule="evenodd" d="M86.8,789.4h1.5v-1.5H86.8v1.5Z" class="g0_29"/>
<path fill-rule="evenodd" d="M86.8,789.4h1.5v-1.5H86.8v1.5Z" class="g0_29"/>
<path fill-rule="evenodd" d="M88.3,789.4H842.4v-1.5H88.3v1.5Z" class="g0_29"/>
<path fill-rule="evenodd" d="M842.4,789.4h1.5v-1.5h-1.5v1.5Z" class="g0_29"/>
<path fill-rule="evenodd" d="M842.4,789.4h1.5v-1.5h-1.5v1.5Z" class="g0_29"/>
<path fill-rule="evenodd" d="M86.8,815.1h1.5V789.4H86.8v25.7Z" class="g0_29"/>
<path fill-rule="evenodd" d="M842.4,815.1h1.5V789.4h-1.5v25.7Z" class="g0_29"/>
<path fill-rule="evenodd" d="M86.8,816.6h1.5v-1.5H86.8v1.5Z" class="g0_29"/>
<path fill-rule="evenodd" d="M88.3,816.6H381.1v-1.5H88.3v1.5Z" class="g0_29"/>
<path fill-rule="evenodd" d="M381.1,816.6h1.6v-1.5h-1.6v1.5Z" class="g0_29"/>
<path fill-rule="evenodd" d="M382.7,816.6H842.4v-1.5H382.7v1.5Z" class="g0_29"/>
<path fill-rule="evenodd" d="M842.4,816.6h1.5v-1.5h-1.5v1.5Z" class="g0_29"/>
<path fill-rule="evenodd" d="M86.8,861.5h1.5V816.6H86.8v44.9Z" class="g0_29"/>
<path fill-rule="evenodd" d="M381.1,861.5h1.6V816.6h-1.6v44.9Z" class="g0_29"/>
<path fill-rule="evenodd" d="M842.4,861.5h1.5V816.6h-1.5v44.9Z" class="g0_29"/>
<path fill-rule="evenodd" d="M86.8,863.1h1.5v-1.6H86.8v1.6Z" class="g0_29"/>
<path fill-rule="evenodd" d="M88.3,863.1H381.1v-1.6H88.3v1.6Z" class="g0_29"/>
<path fill-rule="evenodd" d="M381.1,863.1h1.6v-1.6h-1.6v1.6Z" class="g0_29"/>
<path fill-rule="evenodd" d="M382.7,863.1H842.4v-1.6H382.7v1.6Z" class="g0_29"/>
<path fill-rule="evenodd" d="M842.4,863.1h1.5v-1.6h-1.5v1.6Z" class="g0_29"/>
<path fill-rule="evenodd" d="M86.8,888.8h1.5V863.1H86.8v25.7Z" class="g0_29"/>
<path fill-rule="evenodd" d="M381.1,888.8h1.6V863.1h-1.6v25.7Z" class="g0_29"/>
<path fill-rule="evenodd" d="M842.4,888.8h1.5V863.1h-1.5v25.7Z" class="g0_29"/>
<path fill-rule="evenodd" d="M86.8,890.3h1.5v-1.5H86.8v1.5Z" class="g0_29"/>
<path fill-rule="evenodd" d="M88.3,890.3H381.1v-1.5H88.3v1.5Z" class="g0_29"/>
<path fill-rule="evenodd" d="M381.1,890.3h1.6v-1.5h-1.6v1.5Z" class="g0_29"/>
<path fill-rule="evenodd" d="M382.7,890.3H842.4v-1.5H382.7v1.5Z" class="g0_29"/>
<path fill-rule="evenodd" d="M842.4,890.3h1.5v-1.5h-1.5v1.5Z" class="g0_29"/>
<path fill-rule="evenodd" d="M86.8,935.5h1.5V890.3H86.8v45.2Z" class="g0_29"/>
<path fill-rule="evenodd" d="M381.1,935.5h1.6V890.3h-1.6v45.2Z" class="g0_29"/>
<path fill-rule="evenodd" d="M842.4,935.5h1.5V890.3h-1.5v45.2Z" class="g0_29"/>
<path fill-rule="evenodd" d="M88.6,962.7H842.7V937H88.6v25.7Z" class="g1_29"/>
<path fill-rule="evenodd" d="M96.3,962.7H835.4V937H96.3v25.7Z" class="g1_29"/>
<path fill-rule="evenodd" d="M86.8,937h1.5v-1.5H86.8V937Z" class="g0_29"/>
<path fill-rule="evenodd" d="M88.3,937H381.1v-1.5H88.3V937Z" class="g0_29"/>
<path fill-rule="evenodd" d="M381.1,937h1.6v-1.5h-1.6V937Z" class="g0_29"/>
<path fill-rule="evenodd" d="M382.7,937H842.4v-1.5H382.7V937Z" class="g0_29"/>
<path fill-rule="evenodd" d="M842.4,937h1.5v-1.5h-1.5V937Z" class="g0_29"/>
<path fill-rule="evenodd" d="M86.8,962.7h1.5V937H86.8v25.7Z" class="g0_29"/>
<path fill-rule="evenodd" d="M842.4,962.7h1.5V937h-1.5v25.7Z" class="g0_29"/>
<path fill-rule="evenodd" d="M86.8,964.3h1.5v-1.6H86.8v1.6Z" class="g0_29"/>
<path fill-rule="evenodd" d="M88.3,964.3H324v-1.6H88.3v1.6Z" class="g0_29"/>
<path fill-rule="evenodd" d="M324,964.3h1.5v-1.6H324v1.6Z" class="g0_29"/>
<path fill-rule="evenodd" d="M325.5,964.3H842.4v-1.6H325.5v1.6Z" class="g0_29"/>
<path fill-rule="evenodd" d="M842.4,964.3h1.5v-1.6h-1.5v1.6Z" class="g0_29"/>
<path fill-rule="evenodd" d="M86.8,989.9h1.5V964.3H86.8v25.6Z" class="g0_29"/>
<path fill-rule="evenodd" d="M324,989.9h1.5V964.3H324v25.6Z" class="g0_29"/>
<path fill-rule="evenodd" d="M842.4,989.9h1.5V964.3h-1.5v25.6Z" class="g0_29"/>
<path fill-rule="evenodd" d="M86.8,991.5h1.5v-1.6H86.8v1.6Z" class="g0_29"/>
<path fill-rule="evenodd" d="M88.3,991.5H324v-1.6H88.3v1.6Z" class="g0_29"/>
<path fill-rule="evenodd" d="M324,991.5h1.5v-1.6H324v1.6Z" class="g0_29"/>
<path fill-rule="evenodd" d="M325.5,991.5H842.4v-1.6H325.5v1.6Z" class="g0_29"/>
<path fill-rule="evenodd" d="M842.4,991.5h1.5v-1.6h-1.5v1.6Z" class="g0_29"/>
<path fill-rule="evenodd" d="M86.8,1016.8h1.5V991.5H86.8v25.3Z" class="g0_29"/>
<path fill-rule="evenodd" d="M324,1016.8h1.5V991.5H324v25.3Z" class="g0_29"/>
<path fill-rule="evenodd" d="M842.4,1016.8h1.5V991.5h-1.5v25.3Z" class="g0_29"/>
<path fill-rule="evenodd" d="M86.8,1018.3h1.5v-1.5H86.8v1.5Z" class="g0_29"/>
<path fill-rule="evenodd" d="M88.3,1018.3H324v-1.5H88.3v1.5Z" class="g0_29"/>
<path fill-rule="evenodd" d="M324,1018.3h1.5v-1.5H324v1.5Z" class="g0_29"/>
<path fill-rule="evenodd" d="M325.5,1018.3H842.4v-1.5H325.5v1.5Z" class="g0_29"/>
<path fill-rule="evenodd" d="M842.4,1018.3h1.5v-1.5h-1.5v1.5Z" class="g0_29"/>
<path fill-rule="evenodd" d="M86.8,1044h1.5v-25.7H86.8V1044Z" class="g0_29"/>
<path fill-rule="evenodd" d="M324,1044h1.5v-25.7H324V1044Z" class="g0_29"/>
<path fill-rule="evenodd" d="M842.4,1044h1.5v-25.7h-1.5V1044Z" class="g0_29"/>
<path fill-rule="evenodd" d="M86.8,1045.5h1.5V1044H86.8v1.5Z" class="g0_29"/>
<path fill-rule="evenodd" d="M88.3,1045.5H324V1044H88.3v1.5Z" class="g0_29"/>
<path fill-rule="evenodd" d="M324,1045.5h1.5V1044H324v1.5Z" class="g0_29"/>
<path fill-rule="evenodd" d="M325.5,1045.5H842.4V1044H325.5v1.5Z" class="g0_29"/>
<path fill-rule="evenodd" d="M842.4,1045.5h1.5V1044h-1.5v1.5Z" class="g0_29"/>
<path fill-rule="evenodd" d="M86.8,1071.2h1.5v-25.7H86.8v25.7Z" class="g0_29"/>
<path fill-rule="evenodd" d="M324,1071.2h1.5v-25.7H324v25.7Z" class="g0_29"/>
<path fill-rule="evenodd" d="M842.4,1071.2h1.5v-25.7h-1.5v25.7Z" class="g0_29"/>
<path fill-rule="evenodd" d="M86.8,1072.7h1.5v-1.5H86.8v1.5Z" class="g0_29"/>
<path fill-rule="evenodd" d="M88.3,1072.7H324v-1.5H88.3v1.5Z" class="g0_29"/>
<path fill-rule="evenodd" d="M324,1072.7h1.5v-1.5H324v1.5Z" class="g0_29"/>
<path fill-rule="evenodd" d="M325.5,1072.7H842.4v-1.5H325.5v1.5Z" class="g0_29"/>
<path fill-rule="evenodd" d="M842.4,1072.7h1.5v-1.5h-1.5v1.5Z" class="g0_29"/>
<path fill-rule="evenodd" d="M86.8,1137.5h1.5v-64.8H86.8v64.8Z" class="g0_29"/>
<path fill-rule="evenodd" d="M86.8,1139.1h1.5v-1.6H86.8v1.6Z" class="g0_29"/>
<path fill-rule="evenodd" d="M86.8,1139.1h1.5v-1.6H86.8v1.6Z" class="g0_29"/>
<path fill-rule="evenodd" d="M88.3,1139.1H324v-1.6H88.3v1.6Z" class="g0_29"/>
<path fill-rule="evenodd" d="M324,1137.5h1.5v-64.8H324v64.8Z" class="g0_29"/>
<path fill-rule="evenodd" d="M324,1139.1h1.5v-1.6H324v1.6Z" class="g0_29"/>
<path fill-rule="evenodd" d="M325.5,1139.1H842.4v-1.6H325.5v1.6Z" class="g0_29"/>
<path fill-rule="evenodd" d="M842.4,1137.5h1.5v-64.8h-1.5v64.8Z" class="g0_29"/>
<path fill-rule="evenodd" d="M842.4,1139.1h1.5v-1.6h-1.5v1.6Z" class="g0_29"/>
<path fill-rule="evenodd" d="M842.4,1139.1h1.5v-1.6h-1.5v1.6Z" class="g0_29"/>
</svg>