<?xml version="1.0" encoding="UTF-8" standalone="no"?>
<!DOCTYPE svg PUBLIC "-//W3C//DTD SVG 1.1//EN"
"http://www.w3.org/Graphics/SVG/1.1/DTD/svg11.dtd">
<svg viewBox="0 0 909 1286" version="1.1" xmlns="http://www.w3.org/2000/svg" xmlns:xlink="http://www.w3.org/1999/xlink">
<defs>
<style type="text/css"><![CDATA[
.g0_26{
}
.g1_26{
fill: #F1F1F1;
}
]]></style>
</defs>
<path fill-rule="evenodd" d="M65.1,66H823.4V64.5H65.1V66Z" class="g0_26"/>
<path fill-rule="evenodd" d="M66.3,113.7H821.9V88H66.3v25.7Z" class="g1_26"/>
<path fill-rule="evenodd" d="M73.7,113.7H814.6V88H73.7v25.7Z" class="g1_26"/>
<path fill-rule="evenodd" d="M64.5,88H66V86.5H64.5V88Z" class="g0_26"/>
<path fill-rule="evenodd" d="M64.5,88H66V86.5H64.5V88Z" class="g0_26"/>
<path fill-rule="evenodd" d="M66,88H821.9V86.5H66V88Z" class="g0_26"/>
<path fill-rule="evenodd" d="M821.9,88h1.5V86.5h-1.5V88Z" class="g0_26"/>
<path fill-rule="evenodd" d="M821.9,88h1.5V86.5h-1.5V88Z" class="g0_26"/>
<path fill-rule="evenodd" d="M64.5,113.7H66V88H64.5v25.7Z" class="g0_26"/>
<path fill-rule="evenodd" d="M821.9,113.7h1.5V88h-1.5v25.7Z" class="g0_26"/>
<path fill-rule="evenodd" d="M64.5,115.2H66v-1.5H64.5v1.5Z" class="g0_26"/>
<path fill-rule="evenodd" d="M66,115.2H254.3v-1.5H66v1.5Z" class="g0_26"/>
<path fill-rule="evenodd" d="M254.3,115.2h1.5v-1.5h-1.5v1.5Z" class="g0_26"/>
<path fill-rule="evenodd" d="M255.8,115.2H821.9v-1.5H255.8v1.5Z" class="g0_26"/>
<path fill-rule="evenodd" d="M821.9,115.2h1.5v-1.5h-1.5v1.5Z" class="g0_26"/>
<path fill-rule="evenodd" d="M64.5,140.9H66V115.2H64.5v25.7Z" class="g0_26"/>
<path fill-rule="evenodd" d="M254.3,140.9h1.5V115.2h-1.5v25.7Z" class="g0_26"/>
<path fill-rule="evenodd" d="M821.9,140.9h1.5V115.2h-1.5v25.7Z" class="g0_26"/>
<path fill-rule="evenodd" d="M64.5,142.4H66v-1.5H64.5v1.5Z" class="g0_26"/>
<path fill-rule="evenodd" d="M66,142.4H254.3v-1.5H66v1.5Z" class="g0_26"/>
<path fill-rule="evenodd" d="M254.3,142.4h1.5v-1.5h-1.5v1.5Z" class="g0_26"/>
<path fill-rule="evenodd" d="M255.8,142.4H821.9v-1.5H255.8v1.5Z" class="g0_26"/>
<path fill-rule="evenodd" d="M821.9,142.4h1.5v-1.5h-1.5v1.5Z" class="g0_26"/>
<path fill-rule="evenodd" d="M64.5,168.1H66V142.4H64.5v25.7Z" class="g0_26"/>
<path fill-rule="evenodd" d="M254.3,168.1h1.5V142.4h-1.5v25.7Z" class="g0_26"/>
<path fill-rule="evenodd" d="M821.9,168.1h1.5V142.4h-1.5v25.7Z" class="g0_26"/>
<path fill-rule="evenodd" d="M64.5,169.6H66v-1.5H64.5v1.5Z" class="g0_26"/>
<path fill-rule="evenodd" d="M66,169.6H254.3v-1.5H66v1.5Z" class="g0_26"/>
<path fill-rule="evenodd" d="M254.3,169.6h1.5v-1.5h-1.5v1.5Z" class="g0_26"/>
<path fill-rule="evenodd" d="M255.8,169.6H821.9v-1.5H255.8v1.5Z" class="g0_26"/>
<path fill-rule="evenodd" d="M821.9,169.6h1.5v-1.5h-1.5v1.5Z" class="g0_26"/>
<path fill-rule="evenodd" d="M64.5,195.3H66V169.6H64.5v25.7Z" class="g0_26"/>
<path fill-rule="evenodd" d="M254.3,195.3h1.5V169.6h-1.5v25.7Z" class="g0_26"/>
<path fill-rule="evenodd" d="M821.9,195.3h1.5V169.6h-1.5v25.7Z" class="g0_26"/>
<path fill-rule="evenodd" d="M64.5,196.8H66v-1.5H64.5v1.5Z" class="g0_26"/>
<path fill-rule="evenodd" d="M66,196.8H254.3v-1.5H66v1.5Z" class="g0_26"/>
<path fill-rule="evenodd" d="M254.3,196.8h1.5v-1.5h-1.5v1.5Z" class="g0_26"/>
<path fill-rule="evenodd" d="M255.8,196.8H821.9v-1.5H255.8v1.5Z" class="g0_26"/>
<path fill-rule="evenodd" d="M821.9,196.8h1.5v-1.5h-1.5v1.5Z" class="g0_26"/>
<path fill-rule="evenodd" d="M64.5,242H66V196.8H64.5V242Z" class="g0_26"/>
<path fill-rule="evenodd" d="M64.5,243.6H66V242H64.5v1.6Z" class="g0_26"/>
<path fill-rule="evenodd" d="M64.5,243.6H66V242H64.5v1.6Z" class="g0_26"/>
<path fill-rule="evenodd" d="M66,243.6H254.3V242H66v1.6Z" class="g0_26"/>
<path fill-rule="evenodd" d="M254.3,242h1.5V196.8h-1.5V242Z" class="g0_26"/>
<path fill-rule="evenodd" d="M254.3,243.6h1.5V242h-1.5v1.6Z" class="g0_26"/>
<path fill-rule="evenodd" d="M255.8,243.6H821.9V242H255.8v1.6Z" class="g0_26"/>
<path fill-rule="evenodd" d="M821.9,242h1.5V196.8h-1.5V242Z" class="g0_26"/>
<path fill-rule="evenodd" d="M821.9,243.6h1.5V242h-1.5v1.6Z" class="g0_26"/>
<path fill-rule="evenodd" d="M821.9,243.6h1.5V242h-1.5v1.6Z" class="g0_26"/>
<path fill-rule="evenodd" d="M65.1,325.5H140v-1.2H65.1v1.2Z" class="g0_26"/>
<path fill-rule="evenodd" d="M67.3,396.1H821V370.7H67.3v25.4Z" class="g1_26"/>
<path fill-rule="evenodd" d="M74.6,396.1H813.7V370.7H74.6v25.4Z" class="g1_26"/>
<path fill-rule="evenodd" d="M65.4,370.7H67v-1.5H65.4v1.5Z" class="g0_26"/>
<path fill-rule="evenodd" d="M65.4,370.7H67v-1.5H65.4v1.5Z" class="g0_26"/>
<path fill-rule="evenodd" d="M67,370.7H821v-1.5H67v1.5Z" class="g0_26"/>
<path fill-rule="evenodd" d="M821,370.7h1.5v-1.5H821v1.5Z" class="g0_26"/>
<path fill-rule="evenodd" d="M821,370.7h1.5v-1.5H821v1.5Z" class="g0_26"/>
<path fill-rule="evenodd" d="M65.4,396.1H67V370.7H65.4v25.4Z" class="g0_26"/>
<path fill-rule="evenodd" d="M821,396.1h1.5V370.7H821v25.4Z" class="g0_26"/>
<path fill-rule="evenodd" d="M65.4,397.6H67v-1.5H65.4v1.5Z" class="g0_26"/>
<path fill-rule="evenodd" d="M67,397.6H238.7v-1.5H67v1.5Z" class="g0_26"/>
<path fill-rule="evenodd" d="M238.7,397.6h1.5v-1.5h-1.5v1.5Z" class="g0_26"/>
<path fill-rule="evenodd" d="M240.2,397.6H821v-1.5H240.2v1.5Z" class="g0_26"/>
<path fill-rule="evenodd" d="M821,397.6h1.5v-1.5H821v1.5Z" class="g0_26"/>
<path fill-rule="evenodd" d="M65.4,442.9H67V397.6H65.4v45.3Z" class="g0_26"/>
<path fill-rule="evenodd" d="M238.7,442.9h1.5V397.6h-1.5v45.3Z" class="g0_26"/>
<path fill-rule="evenodd" d="M821,442.9h1.5V397.6H821v45.3Z" class="g0_26"/>
<path fill-rule="evenodd" d="M67.3,470.1H821V444.4H67.3v25.7Z" class="g1_26"/>
<path fill-rule="evenodd" d="M74.6,470.1H813.7V444.4H74.6v25.7Z" class="g1_26"/>
<path fill-rule="evenodd" d="M65.4,444.4H67v-1.5H65.4v1.5Z" class="g0_26"/>
<path fill-rule="evenodd" d="M67,444.4H238.7v-1.5H67v1.5Z" class="g0_26"/>
<path fill-rule="evenodd" d="M238.7,444.4h1.5v-1.5h-1.5v1.5Z" class="g0_26"/>
<path fill-rule="evenodd" d="M240.2,444.4H821v-1.5H240.2v1.5Z" class="g0_26"/>
<path fill-rule="evenodd" d="M821,444.4h1.5v-1.5H821v1.5Z" class="g0_26"/>
<path fill-rule="evenodd" d="M65.4,470.1H67V444.4H65.4v25.7Z" class="g0_26"/>
<path fill-rule="evenodd" d="M821,470.1h1.5V444.4H821v25.7Z" class="g0_26"/>
<path fill-rule="evenodd" d="M65.4,471.6H67v-1.5H65.4v1.5Z" class="g0_26"/>
<path fill-rule="evenodd" d="M67,471.6H238.7v-1.5H67v1.5Z" class="g0_26"/>
<path fill-rule="evenodd" d="M238.7,471.6h1.5v-1.5h-1.5v1.5Z" class="g0_26"/>
<path fill-rule="evenodd" d="M240.2,471.6H821v-1.5H240.2v1.5Z" class="g0_26"/>
<path fill-rule="evenodd" d="M821,471.6h1.5v-1.5H821v1.5Z" class="g0_26"/>
<path fill-rule="evenodd" d="M65.4,536.4H67V471.6H65.4v64.8Z" class="g0_26"/>
<path fill-rule="evenodd" d="M65.4,537.9H67v-1.5H65.4v1.5Z" class="g0_26"/>
<path fill-rule="evenodd" d="M65.4,537.9H67v-1.5H65.4v1.5Z" class="g0_26"/>
<path fill-rule="evenodd" d="M67,537.9H238.7v-1.5H67v1.5Z" class="g0_26"/>
<path fill-rule="evenodd" d="M238.7,536.4h1.5V471.6h-1.5v64.8Z" class="g0_26"/>
<path fill-rule="evenodd" d="M238.7,537.9h1.5v-1.5h-1.5v1.5Z" class="g0_26"/>
<path fill-rule="evenodd" d="M240.2,537.9H821v-1.5H240.2v1.5Z" class="g0_26"/>
<path fill-rule="evenodd" d="M821,536.4h1.5V471.6H821v64.8Z" class="g0_26"/>
<path fill-rule="evenodd" d="M821,537.9h1.5v-1.5H821v1.5Z" class="g0_26"/>
<path fill-rule="evenodd" d="M821,537.9h1.5v-1.5H821v1.5Z" class="g0_26"/>
<path fill-rule="evenodd" d="M65.1,619.8H140v-1.2H65.1v1.2Z" class="g0_26"/>
<path fill-rule="evenodd" d="M69.1,690.4H818.9V664.7H69.1v25.7Z" class="g1_26"/>
<path fill-rule="evenodd" d="M76.7,690.4H811.5V664.7H76.7v25.7Z" class="g1_26"/>
<path fill-rule="evenodd" d="M67.6,664.7h1.5v-1.5H67.6v1.5Z" class="g0_26"/>
<path fill-rule="evenodd" d="M67.6,664.7h1.5v-1.5H67.6v1.5Z" class="g0_26"/>
<path fill-rule="evenodd" d="M69.1,664.7H818.9v-1.5H69.1v1.5Z" class="g0_26"/>
<path fill-rule="evenodd" d="M818.9,664.7h1.5v-1.5h-1.5v1.5Z" class="g0_26"/>
<path fill-rule="evenodd" d="M818.9,664.7h1.5v-1.5h-1.5v1.5Z" class="g0_26"/>
<path fill-rule="evenodd" d="M67.6,690.4h1.5V664.7H67.6v25.7Z" class="g0_26"/>
<path fill-rule="evenodd" d="M818.9,690.4h1.5V664.7h-1.5v25.7Z" class="g0_26"/>
<path fill-rule="evenodd" d="M67.6,691.9h1.5v-1.5H67.6v1.5Z" class="g0_26"/>
<path fill-rule="evenodd" d="M69.1,691.9H236.9v-1.5H69.1v1.5Z" class="g0_26"/>
<path fill-rule="evenodd" d="M236.9,691.9h1.5v-1.5h-1.5v1.5Z" class="g0_26"/>
<path fill-rule="evenodd" d="M238.4,691.9H818.9v-1.5H238.4v1.5Z" class="g0_26"/>
<path fill-rule="evenodd" d="M818.9,691.9h1.5v-1.5h-1.5v1.5Z" class="g0_26"/>
<path fill-rule="evenodd" d="M67.6,737.2h1.5V691.9H67.6v45.3Z" class="g0_26"/>
<path fill-rule="evenodd" d="M236.9,737.2h1.5V691.9h-1.5v45.3Z" class="g0_26"/>
<path fill-rule="evenodd" d="M818.9,737.2h1.5V691.9h-1.5v45.3Z" class="g0_26"/>
<path fill-rule="evenodd" d="M69.1,764.3H818.9V738.7H69.1v25.6Z" class="g1_26"/>
<path fill-rule="evenodd" d="M76.7,764.3H811.5V738.7H76.7v25.6Z" class="g1_26"/>
<path fill-rule="evenodd" d="M67.6,738.7h1.5v-1.5H67.6v1.5Z" class="g0_26"/>
<path fill-rule="evenodd" d="M69.1,738.7H236.9v-1.5H69.1v1.5Z" class="g0_26"/>
<path fill-rule="evenodd" d="M236.9,738.7h1.5v-1.5h-1.5v1.5Z" class="g0_26"/>
<path fill-rule="evenodd" d="M238.4,738.7H818.9v-1.5H238.4v1.5Z" class="g0_26"/>
<path fill-rule="evenodd" d="M818.9,738.7h1.5v-1.5h-1.5v1.5Z" class="g0_26"/>
<path fill-rule="evenodd" d="M67.6,764.3h1.5V738.7H67.6v25.6Z" class="g0_26"/>
<path fill-rule="evenodd" d="M818.9,764.3h1.5V738.7h-1.5v25.6Z" class="g0_26"/>
<path fill-rule="evenodd" d="M67.6,765.9h1.5v-1.6H67.6v1.6Z" class="g0_26"/>
<path fill-rule="evenodd" d="M69.1,765.9H236.9v-1.6H69.1v1.6Z" class="g0_26"/>
<path fill-rule="evenodd" d="M236.9,765.9h1.5v-1.6h-1.5v1.6Z" class="g0_26"/>
<path fill-rule="evenodd" d="M238.4,765.9H818.9v-1.6H238.4v1.6Z" class="g0_26"/>
<path fill-rule="evenodd" d="M818.9,765.9h1.5v-1.6h-1.5v1.6Z" class="g0_26"/>
<path fill-rule="evenodd" d="M67.6,811.1h1.5V765.9H67.6v45.2Z" class="g0_26"/>
<path fill-rule="evenodd" d="M67.6,812.7h1.5v-1.6H67.6v1.6Z" class="g0_26"/>
<path fill-rule="evenodd" d="M67.6,812.7h1.5v-1.6H67.6v1.6Z" class="g0_26"/>
<path fill-rule="evenodd" d="M69.1,812.7H236.9v-1.6H69.1v1.6Z" class="g0_26"/>
<path fill-rule="evenodd" d="M236.9,811.1h1.5V765.9h-1.5v45.2Z" class="g0_26"/>
<path fill-rule="evenodd" d="M236.9,812.7h1.5v-1.6h-1.5v1.6Z" class="g0_26"/>
<path fill-rule="evenodd" d="M238.4,812.7H818.9v-1.6H238.4v1.6Z" class="g0_26"/>
<path fill-rule="evenodd" d="M818.9,811.1h1.5V765.9h-1.5v45.2Z" class="g0_26"/>
<path fill-rule="evenodd" d="M818.9,812.7h1.5v-1.6h-1.5v1.6Z" class="g0_26"/>
<path fill-rule="evenodd" d="M818.9,812.7h1.5v-1.6h-1.5v1.6Z" class="g0_26"/>
<path fill-rule="evenodd" d="M65.1,894.6H140v-1.3H65.1v1.3Z" class="g0_26"/>
<path fill-rule="evenodd" d="M67.3,965.2H821V939.5H67.3v25.7Z" class="g1_26"/>
<path fill-rule="evenodd" d="M74.6,965.2H813.7V939.5H74.6v25.7Z" class="g1_26"/>
<path fill-rule="evenodd" d="M65.4,939.5H67v-1.6H65.4v1.6Z" class="g0_26"/>
<path fill-rule="evenodd" d="M65.4,939.5H67v-1.6H65.4v1.6Z" class="g0_26"/>
<path fill-rule="evenodd" d="M67,939.5H821v-1.6H67v1.6Z" class="g0_26"/>
<path fill-rule="evenodd" d="M821,939.5h1.5v-1.6H821v1.6Z" class="g0_26"/>
<path fill-rule="evenodd" d="M821,939.5h1.5v-1.6H821v1.6Z" class="g0_26"/>
<path fill-rule="evenodd" d="M65.4,965.2H67V939.5H65.4v25.7Z" class="g0_26"/>
<path fill-rule="evenodd" d="M821,965.2h1.5V939.5H821v25.7Z" class="g0_26"/>
<path fill-rule="evenodd" d="M65.4,966.7H67v-1.5H65.4v1.5Z" class="g0_26"/>
<path fill-rule="evenodd" d="M67,966.7H238.7v-1.5H67v1.5Z" class="g0_26"/>
<path fill-rule="evenodd" d="M238.7,966.7h1.5v-1.5h-1.5v1.5Z" class="g0_26"/>
<path fill-rule="evenodd" d="M240.2,966.7H821v-1.5H240.2v1.5Z" class="g0_26"/>
<path fill-rule="evenodd" d="M821,966.7h1.5v-1.5H821v1.5Z" class="g0_26"/>
<path fill-rule="evenodd" d="M65.4,1011.9H67V966.7H65.4v45.2Z" class="g0_26"/>
<path fill-rule="evenodd" d="M238.7,1011.9h1.5V966.7h-1.5v45.2Z" class="g0_26"/>
<path fill-rule="evenodd" d="M821,1011.9h1.5V966.7H821v45.2Z" class="g0_26"/>
<path fill-rule="evenodd" d="M67.3,1039.1H821v-25.6H67.3v25.6Z" class="g1_26"/>
<path fill-rule="evenodd" d="M74.6,1039.1H813.7v-25.6H74.6v25.6Z" class="g1_26"/>
<path fill-rule="evenodd" d="M65.4,1013.5H67v-1.6H65.4v1.6Z" class="g0_26"/>
<path fill-rule="evenodd" d="M67,1013.5H238.7v-1.6H67v1.6Z" class="g0_26"/>
<path fill-rule="evenodd" d="M238.7,1013.5h1.5v-1.6h-1.5v1.6Z" class="g0_26"/>
<path fill-rule="evenodd" d="M240.2,1013.5H821v-1.6H240.2v1.6Z" class="g0_26"/>
<path fill-rule="evenodd" d="M821,1013.5h1.5v-1.6H821v1.6Z" class="g0_26"/>
<path fill-rule="evenodd" d="M65.4,1039.1H67v-25.6H65.4v25.6Z" class="g0_26"/>
<path fill-rule="evenodd" d="M821,1039.1h1.5v-25.6H821v25.6Z" class="g0_26"/>
<path fill-rule="evenodd" d="M65.4,1040.6H67v-1.5H65.4v1.5Z" class="g0_26"/>
<path fill-rule="evenodd" d="M67,1040.6H238.7v-1.5H67v1.5Z" class="g0_26"/>
<path fill-rule="evenodd" d="M238.7,1040.6h1.5v-1.5h-1.5v1.5Z" class="g0_26"/>
<path fill-rule="evenodd" d="M240.2,1040.6H821v-1.5H240.2v1.5Z" class="g0_26"/>
<path fill-rule="evenodd" d="M821,1040.6h1.5v-1.5H821v1.5Z" class="g0_26"/>
<path fill-rule="evenodd" d="M65.4,1085.9H67v-45.3H65.4v45.3Z" class="g0_26"/>
<path fill-rule="evenodd" d="M65.4,1087.4H67v-1.5H65.4v1.5Z" class="g0_26"/>
<path fill-rule="evenodd" d="M65.4,1087.4H67v-1.5H65.4v1.5Z" class="g0_26"/>
<path fill-rule="evenodd" d="M67,1087.4H238.7v-1.5H67v1.5Z" class="g0_26"/>
<path fill-rule="evenodd" d="M238.7,1085.9h1.5v-45.3h-1.5v45.3Z" class="g0_26"/>
<path fill-rule="evenodd" d="M238.7,1087.4h1.5v-1.5h-1.5v1.5Z" class="g0_26"/>
<path fill-rule="evenodd" d="M240.2,1087.4H821v-1.5H240.2v1.5Z" class="g0_26"/>
<path fill-rule="evenodd" d="M821,1085.9h1.5v-45.3H821v45.3Z" class="g0_26"/>
<path fill-rule="evenodd" d="M821,1087.4h1.5v-1.5H821v1.5Z" class="g0_26"/>
<path fill-rule="evenodd" d="M821,1087.4h1.5v-1.5H821v1.5Z" class="g0_26"/>
</svg>