<?xml version="1.0" encoding="UTF-8" standalone="no"?>
<!DOCTYPE svg PUBLIC "-//W3C//DTD SVG 1.1//EN"
"http://www.w3.org/Graphics/SVG/1.1/DTD/svg11.dtd">
<svg viewBox="0 0 909 1286" version="1.1" xmlns="http://www.w3.org/2000/svg" xmlns:xlink="http://www.w3.org/1999/xlink">
<defs>
<style type="text/css"><![CDATA[
.g0_23{
}
.g1_23{
fill: #F1F1F1;
}
]]></style>
</defs>
<path fill-rule="evenodd" d="M86.5,66H844.8V64.5H86.5V66Z" class="g0_23"/>
<path fill-rule="evenodd" d="M87.7,113.7H843.6V88H87.7v25.7Z" class="g1_23"/>
<path fill-rule="evenodd" d="M95.4,113.7H836V88H95.4v25.7Z" class="g1_23"/>
<path fill-rule="evenodd" d="M85.9,88h1.5V86.5H85.9V88Z" class="g0_23"/>
<path fill-rule="evenodd" d="M85.9,88h1.5V86.5H85.9V88Z" class="g0_23"/>
<path fill-rule="evenodd" d="M87.4,88H843.3V86.5H87.4V88Z" class="g0_23"/>
<path fill-rule="evenodd" d="M843.3,88h1.5V86.5h-1.5V88Z" class="g0_23"/>
<path fill-rule="evenodd" d="M843.3,88h1.5V86.5h-1.5V88Z" class="g0_23"/>
<path fill-rule="evenodd" d="M85.9,113.7h1.5V88H85.9v25.7Z" class="g0_23"/>
<path fill-rule="evenodd" d="M843.3,113.7h1.5V88h-1.5v25.7Z" class="g0_23"/>
<path fill-rule="evenodd" d="M85.9,115.2h1.5v-1.5H85.9v1.5Z" class="g0_23"/>
<path fill-rule="evenodd" d="M87.4,115.2H346.3v-1.5H87.4v1.5Z" class="g0_23"/>
<path fill-rule="evenodd" d="M346.3,115.2h1.5v-1.5h-1.5v1.5Z" class="g0_23"/>
<path fill-rule="evenodd" d="M347.8,115.2H843.3v-1.5H347.8v1.5Z" class="g0_23"/>
<path fill-rule="evenodd" d="M843.3,115.2h1.5v-1.5h-1.5v1.5Z" class="g0_23"/>
<path fill-rule="evenodd" d="M85.9,160.4h1.5V115.2H85.9v45.2Z" class="g0_23"/>
<path fill-rule="evenodd" d="M346.3,160.4h1.5V115.2h-1.5v45.2Z" class="g0_23"/>
<path fill-rule="evenodd" d="M843.3,160.4h1.5V115.2h-1.5v45.2Z" class="g0_23"/>
<path fill-rule="evenodd" d="M85.9,162h1.5v-1.5H85.9V162Z" class="g0_23"/>
<path fill-rule="evenodd" d="M87.4,162H346.3v-1.5H87.4V162Z" class="g0_23"/>
<path fill-rule="evenodd" d="M346.3,162h1.5v-1.5h-1.5V162Z" class="g0_23"/>
<path fill-rule="evenodd" d="M347.8,162H843.3v-1.5H347.8V162Z" class="g0_23"/>
<path fill-rule="evenodd" d="M843.3,162h1.5v-1.5h-1.5V162Z" class="g0_23"/>
<path fill-rule="evenodd" d="M85.9,187.7h1.5V162H85.9v25.7Z" class="g0_23"/>
<path fill-rule="evenodd" d="M346.3,187.7h1.5V162h-1.5v25.7Z" class="g0_23"/>
<path fill-rule="evenodd" d="M843.3,187.7h1.5V162h-1.5v25.7Z" class="g0_23"/>
<path fill-rule="evenodd" d="M85.9,189.2h1.5v-1.5H85.9v1.5Z" class="g0_23"/>
<path fill-rule="evenodd" d="M87.4,189.2H346.3v-1.5H87.4v1.5Z" class="g0_23"/>
<path fill-rule="evenodd" d="M346.3,189.2h1.5v-1.5h-1.5v1.5Z" class="g0_23"/>
<path fill-rule="evenodd" d="M347.8,189.2H843.3v-1.5H347.8v1.5Z" class="g0_23"/>
<path fill-rule="evenodd" d="M843.3,189.2h1.5v-1.5h-1.5v1.5Z" class="g0_23"/>
<path fill-rule="evenodd" d="M85.9,234.4h1.5V189.2H85.9v45.2Z" class="g0_23"/>
<path fill-rule="evenodd" d="M346.3,234.4h1.5V189.2h-1.5v45.2Z" class="g0_23"/>
<path fill-rule="evenodd" d="M843.3,234.4h1.5V189.2h-1.5v45.2Z" class="g0_23"/>
<path fill-rule="evenodd" d="M85.9,235.9h1.5v-1.5H85.9v1.5Z" class="g0_23"/>
<path fill-rule="evenodd" d="M87.4,235.9H346.3v-1.5H87.4v1.5Z" class="g0_23"/>
<path fill-rule="evenodd" d="M346.3,235.9h1.5v-1.5h-1.5v1.5Z" class="g0_23"/>
<path fill-rule="evenodd" d="M347.8,235.9H843.3v-1.5H347.8v1.5Z" class="g0_23"/>
<path fill-rule="evenodd" d="M843.3,235.9h1.5v-1.5h-1.5v1.5Z" class="g0_23"/>
<path fill-rule="evenodd" d="M85.9,261.6h1.5V235.9H85.9v25.7Z" class="g0_23"/>
<path fill-rule="evenodd" d="M346.3,261.6h1.5V235.9h-1.5v25.7Z" class="g0_23"/>
<path fill-rule="evenodd" d="M843.3,261.6h1.5V235.9h-1.5v25.7Z" class="g0_23"/>
<path fill-rule="evenodd" d="M85.9,263.2h1.5v-1.6H85.9v1.6Z" class="g0_23"/>
<path fill-rule="evenodd" d="M87.4,263.2H346.3v-1.6H87.4v1.6Z" class="g0_23"/>
<path fill-rule="evenodd" d="M346.3,263.2h1.5v-1.6h-1.5v1.6Z" class="g0_23"/>
<path fill-rule="evenodd" d="M347.8,263.2H843.3v-1.6H347.8v1.6Z" class="g0_23"/>
<path fill-rule="evenodd" d="M843.3,263.2h1.5v-1.6h-1.5v1.6Z" class="g0_23"/>
<path fill-rule="evenodd" d="M85.9,288.5h1.5V263.2H85.9v25.3Z" class="g0_23"/>
<path fill-rule="evenodd" d="M346.3,288.5h1.5V263.2h-1.5v25.3Z" class="g0_23"/>
<path fill-rule="evenodd" d="M843.3,288.5h1.5V263.2h-1.5v25.3Z" class="g0_23"/>
<path fill-rule="evenodd" d="M85.9,290h1.5v-1.5H85.9V290Z" class="g0_23"/>
<path fill-rule="evenodd" d="M87.4,290H346.3v-1.5H87.4V290Z" class="g0_23"/>
<path fill-rule="evenodd" d="M346.3,290h1.5v-1.5h-1.5V290Z" class="g0_23"/>
<path fill-rule="evenodd" d="M347.8,290H843.3v-1.5H347.8V290Z" class="g0_23"/>
<path fill-rule="evenodd" d="M843.3,290h1.5v-1.5h-1.5V290Z" class="g0_23"/>
<path fill-rule="evenodd" d="M85.9,335.3h1.5V290H85.9v45.3Z" class="g0_23"/>
<path fill-rule="evenodd" d="M346.3,335.3h1.5V290h-1.5v45.3Z" class="g0_23"/>
<path fill-rule="evenodd" d="M843.3,335.3h1.5V290h-1.5v45.3Z" class="g0_23"/>
<path fill-rule="evenodd" d="M85.9,336.8h1.5v-1.5H85.9v1.5Z" class="g0_23"/>
<path fill-rule="evenodd" d="M87.4,336.8H346.3v-1.5H87.4v1.5Z" class="g0_23"/>
<path fill-rule="evenodd" d="M346.3,336.8h1.5v-1.5h-1.5v1.5Z" class="g0_23"/>
<path fill-rule="evenodd" d="M347.8,336.8H843.3v-1.5H347.8v1.5Z" class="g0_23"/>
<path fill-rule="evenodd" d="M843.3,336.8h1.5v-1.5h-1.5v1.5Z" class="g0_23"/>
<path fill-rule="evenodd" d="M85.9,382h1.5V336.8H85.9V382Z" class="g0_23"/>
<path fill-rule="evenodd" d="M346.3,382h1.5V336.8h-1.5V382Z" class="g0_23"/>
<path fill-rule="evenodd" d="M843.3,382h1.5V336.8h-1.5V382Z" class="g0_23"/>
<path fill-rule="evenodd" d="M87.7,409.2H843.6V383.5H87.7v25.7Z" class="g1_23"/>
<path fill-rule="evenodd" d="M95.4,409.2H836V383.5H95.4v25.7Z" class="g1_23"/>
<path fill-rule="evenodd" d="M85.9,383.5h1.5V382H85.9v1.5Z" class="g0_23"/>
<path fill-rule="evenodd" d="M87.4,383.5H346.3V382H87.4v1.5Z" class="g0_23"/>
<path fill-rule="evenodd" d="M346.3,383.5h1.5V382h-1.5v1.5Z" class="g0_23"/>
<path fill-rule="evenodd" d="M347.8,383.5H843.3V382H347.8v1.5Z" class="g0_23"/>
<path fill-rule="evenodd" d="M843.3,383.5h1.5V382h-1.5v1.5Z" class="g0_23"/>
<path fill-rule="evenodd" d="M85.9,409.2h1.5V383.5H85.9v25.7Z" class="g0_23"/>
<path fill-rule="evenodd" d="M843.3,409.2h1.5V383.5h-1.5v25.7Z" class="g0_23"/>
<path fill-rule="evenodd" d="M85.9,410.7h1.5v-1.5H85.9v1.5Z" class="g0_23"/>
<path fill-rule="evenodd" d="M87.4,410.7H346.3v-1.5H87.4v1.5Z" class="g0_23"/>
<path fill-rule="evenodd" d="M346.3,410.7h1.5v-1.5h-1.5v1.5Z" class="g0_23"/>
<path fill-rule="evenodd" d="M347.8,410.7H843.3v-1.5H347.8v1.5Z" class="g0_23"/>
<path fill-rule="evenodd" d="M843.3,410.7h1.5v-1.5h-1.5v1.5Z" class="g0_23"/>
<path fill-rule="evenodd" d="M85.9,436.5h1.5V410.8H85.9v25.7Z" class="g0_23"/>
<path fill-rule="evenodd" d="M346.3,436.5h1.5V410.8h-1.5v25.7Z" class="g0_23"/>
<path fill-rule="evenodd" d="M843.3,436.5h1.5V410.8h-1.5v25.7Z" class="g0_23"/>
<path fill-rule="evenodd" d="M87.7,463.3H843.6V438H87.7v25.3Z" class="g1_23"/>
<path fill-rule="evenodd" d="M95.4,463.3H836V438H95.4v25.3Z" class="g1_23"/>
<path fill-rule="evenodd" d="M85.9,438h1.5v-1.6H85.9V438Z" class="g0_23"/>
<path fill-rule="evenodd" d="M87.4,438H346.3v-1.6H87.4V438Z" class="g0_23"/>
<path fill-rule="evenodd" d="M346.3,438h1.5v-1.6h-1.5V438Z" class="g0_23"/>
<path fill-rule="evenodd" d="M347.8,438H843.3v-1.6H347.8V438Z" class="g0_23"/>
<path fill-rule="evenodd" d="M843.3,438h1.5v-1.6h-1.5V438Z" class="g0_23"/>
<path fill-rule="evenodd" d="M85.9,463.3h1.5V438H85.9v25.3Z" class="g0_23"/>
<path fill-rule="evenodd" d="M843.3,463.3h1.5V438h-1.5v25.3Z" class="g0_23"/>
<path fill-rule="evenodd" d="M85.9,464.9h1.5v-1.6H85.9v1.6Z" class="g0_23"/>
<path fill-rule="evenodd" d="M87.4,464.9H346.3v-1.6H87.4v1.6Z" class="g0_23"/>
<path fill-rule="evenodd" d="M346.3,464.9h1.5v-1.6h-1.5v1.6Z" class="g0_23"/>
<path fill-rule="evenodd" d="M347.8,464.9H843.3v-1.6H347.8v1.6Z" class="g0_23"/>
<path fill-rule="evenodd" d="M843.3,464.9h1.5v-1.6h-1.5v1.6Z" class="g0_23"/>
<path fill-rule="evenodd" d="M85.9,510.1h1.5V464.9H85.9v45.2Z" class="g0_23"/>
<path fill-rule="evenodd" d="M346.3,510.1h1.5V464.9h-1.5v45.2Z" class="g0_23"/>
<path fill-rule="evenodd" d="M843.3,510.1h1.5V464.9h-1.5v45.2Z" class="g0_23"/>
<path fill-rule="evenodd" d="M85.9,511.6h1.5v-1.5H85.9v1.5Z" class="g0_23"/>
<path fill-rule="evenodd" d="M87.4,511.6H346.3v-1.5H87.4v1.5Z" class="g0_23"/>
<path fill-rule="evenodd" d="M346.3,511.6h1.5v-1.5h-1.5v1.5Z" class="g0_23"/>
<path fill-rule="evenodd" d="M347.8,511.6H843.3v-1.5H347.8v1.5Z" class="g0_23"/>
<path fill-rule="evenodd" d="M843.3,511.6h1.5v-1.5h-1.5v1.5Z" class="g0_23"/>
<path fill-rule="evenodd" d="M85.9,556.8h1.5V511.6H85.9v45.2Z" class="g0_23"/>
<path fill-rule="evenodd" d="M346.3,556.8h1.5V511.6h-1.5v45.2Z" class="g0_23"/>
<path fill-rule="evenodd" d="M843.3,556.8h1.5V511.6h-1.5v45.2Z" class="g0_23"/>
<path fill-rule="evenodd" d="M87.7,584H843.6V558.4H87.7V584Z" class="g1_23"/>
<path fill-rule="evenodd" d="M95.4,584H836V558.4H95.4V584Z" class="g1_23"/>
<path fill-rule="evenodd" d="M85.9,558.4h1.5v-1.6H85.9v1.6Z" class="g0_23"/>
<path fill-rule="evenodd" d="M87.4,558.4H346.3v-1.6H87.4v1.6Z" class="g0_23"/>
<path fill-rule="evenodd" d="M346.3,558.4h1.5v-1.6h-1.5v1.6Z" class="g0_23"/>
<path fill-rule="evenodd" d="M347.8,558.4H843.3v-1.6H347.8v1.6Z" class="g0_23"/>
<path fill-rule="evenodd" d="M843.3,558.4h1.5v-1.6h-1.5v1.6Z" class="g0_23"/>
<path fill-rule="evenodd" d="M85.9,584h1.5V558.4H85.9V584Z" class="g0_23"/>
<path fill-rule="evenodd" d="M843.3,584h1.5V558.4h-1.5V584Z" class="g0_23"/>
<path fill-rule="evenodd" d="M85.9,585.6h1.5V584H85.9v1.6Z" class="g0_23"/>
<path fill-rule="evenodd" d="M87.4,585.6H346.3V584H87.4v1.6Z" class="g0_23"/>
<path fill-rule="evenodd" d="M346.3,585.6h1.5V584h-1.5v1.6Z" class="g0_23"/>
<path fill-rule="evenodd" d="M347.8,585.6H843.3V584H347.8v1.6Z" class="g0_23"/>
<path fill-rule="evenodd" d="M843.3,585.6h1.5V584h-1.5v1.6Z" class="g0_23"/>
<path fill-rule="evenodd" d="M85.9,650.1h1.5V585.6H85.9v64.5Z" class="g0_23"/>
<path fill-rule="evenodd" d="M346.3,650.1h1.5V585.6h-1.5v64.5Z" class="g0_23"/>
<path fill-rule="evenodd" d="M843.3,650.1h1.5V585.6h-1.5v64.5Z" class="g0_23"/>
<path fill-rule="evenodd" d="M85.9,651.6h1.5v-1.5H85.9v1.5Z" class="g0_23"/>
<path fill-rule="evenodd" d="M87.4,651.6H346.3v-1.5H87.4v1.5Z" class="g0_23"/>
<path fill-rule="evenodd" d="M346.3,651.6h1.5v-1.5h-1.5v1.5Z" class="g0_23"/>
<path fill-rule="evenodd" d="M347.8,651.6H843.3v-1.5H347.8v1.5Z" class="g0_23"/>
<path fill-rule="evenodd" d="M843.3,651.6h1.5v-1.5h-1.5v1.5Z" class="g0_23"/>
<path fill-rule="evenodd" d="M85.9,677.3h1.5V651.6H85.9v25.7Z" class="g0_23"/>
<path fill-rule="evenodd" d="M346.3,677.3h1.5V651.6h-1.5v25.7Z" class="g0_23"/>
<path fill-rule="evenodd" d="M843.3,677.3h1.5V651.6h-1.5v25.7Z" class="g0_23"/>
<path fill-rule="evenodd" d="M85.9,678.8h1.5v-1.5H85.9v1.5Z" class="g0_23"/>
<path fill-rule="evenodd" d="M87.4,678.8H346.3v-1.5H87.4v1.5Z" class="g0_23"/>
<path fill-rule="evenodd" d="M346.3,678.8h1.5v-1.5h-1.5v1.5Z" class="g0_23"/>
<path fill-rule="evenodd" d="M347.8,678.8H843.3v-1.5H347.8v1.5Z" class="g0_23"/>
<path fill-rule="evenodd" d="M843.3,678.8h1.5v-1.5h-1.5v1.5Z" class="g0_23"/>
<path fill-rule="evenodd" d="M85.9,704.5h1.5V678.8H85.9v25.7Z" class="g0_23"/>
<path fill-rule="evenodd" d="M346.3,704.5h1.5V678.8h-1.5v25.7Z" class="g0_23"/>
<path fill-rule="evenodd" d="M843.3,704.5h1.5V678.8h-1.5v25.7Z" class="g0_23"/>
<path fill-rule="evenodd" d="M85.9,706h1.5v-1.5H85.9V706Z" class="g0_23"/>
<path fill-rule="evenodd" d="M87.4,706H346.3v-1.5H87.4V706Z" class="g0_23"/>
<path fill-rule="evenodd" d="M346.3,706h1.5v-1.5h-1.5V706Z" class="g0_23"/>
<path fill-rule="evenodd" d="M347.8,706H843.3v-1.5H347.8V706Z" class="g0_23"/>
<path fill-rule="evenodd" d="M843.3,706h1.5v-1.5h-1.5V706Z" class="g0_23"/>
<path fill-rule="evenodd" d="M85.9,731.7h1.5V706H85.9v25.7Z" class="g0_23"/>
<path fill-rule="evenodd" d="M346.3,731.7h1.5V706h-1.5v25.7Z" class="g0_23"/>
<path fill-rule="evenodd" d="M843.3,731.7h1.5V706h-1.5v25.7Z" class="g0_23"/>
<path fill-rule="evenodd" d="M85.9,733.2h1.5v-1.5H85.9v1.5Z" class="g0_23"/>
<path fill-rule="evenodd" d="M87.4,733.2H346.3v-1.5H87.4v1.5Z" class="g0_23"/>
<path fill-rule="evenodd" d="M346.3,733.2h1.5v-1.5h-1.5v1.5Z" class="g0_23"/>
<path fill-rule="evenodd" d="M347.8,733.2H843.3v-1.5H347.8v1.5Z" class="g0_23"/>
<path fill-rule="evenodd" d="M843.3,733.2h1.5v-1.5h-1.5v1.5Z" class="g0_23"/>
<path fill-rule="evenodd" d="M85.9,778.4h1.5V733.2H85.9v45.2Z" class="g0_23"/>
<path fill-rule="evenodd" d="M346.3,778.4h1.5V733.2h-1.5v45.2Z" class="g0_23"/>
<path fill-rule="evenodd" d="M843.3,778.4h1.5V733.2h-1.5v45.2Z" class="g0_23"/>
<path fill-rule="evenodd" d="M85.9,780h1.5v-1.6H85.9V780Z" class="g0_23"/>
<path fill-rule="evenodd" d="M87.4,780H346.3v-1.6H87.4V780Z" class="g0_23"/>
<path fill-rule="evenodd" d="M346.3,780h1.5v-1.6h-1.5V780Z" class="g0_23"/>
<path fill-rule="evenodd" d="M347.8,780H843.3v-1.6H347.8V780Z" class="g0_23"/>
<path fill-rule="evenodd" d="M843.3,780h1.5v-1.6h-1.5V780Z" class="g0_23"/>
<path fill-rule="evenodd" d="M85.9,824.9h1.5V780H85.9v44.9Z" class="g0_23"/>
<path fill-rule="evenodd" d="M346.3,824.9h1.5V780h-1.5v44.9Z" class="g0_23"/>
<path fill-rule="evenodd" d="M843.3,824.9h1.5V780h-1.5v44.9Z" class="g0_23"/>
<path fill-rule="evenodd" d="M85.9,826.4h1.5v-1.5H85.9v1.5Z" class="g0_23"/>
<path fill-rule="evenodd" d="M87.4,826.4H346.3v-1.5H87.4v1.5Z" class="g0_23"/>
<path fill-rule="evenodd" d="M346.3,826.4h1.5v-1.5h-1.5v1.5Z" class="g0_23"/>
<path fill-rule="evenodd" d="M347.8,826.4H843.3v-1.5H347.8v1.5Z" class="g0_23"/>
<path fill-rule="evenodd" d="M843.3,826.4h1.5v-1.5h-1.5v1.5Z" class="g0_23"/>
<path fill-rule="evenodd" d="M85.9,871.6h1.5V826.4H85.9v45.2Z" class="g0_23"/>
<path fill-rule="evenodd" d="M346.3,871.6h1.5V826.4h-1.5v45.2Z" class="g0_23"/>
<path fill-rule="evenodd" d="M843.3,871.6h1.5V826.4h-1.5v45.2Z" class="g0_23"/>
<path fill-rule="evenodd" d="M85.9,873.2h1.5v-1.6H85.9v1.6Z" class="g0_23"/>
<path fill-rule="evenodd" d="M87.4,873.2H346.3v-1.6H87.4v1.6Z" class="g0_23"/>
<path fill-rule="evenodd" d="M346.3,873.2h1.5v-1.6h-1.5v1.6Z" class="g0_23"/>
<path fill-rule="evenodd" d="M347.8,873.2H843.3v-1.6H347.8v1.6Z" class="g0_23"/>
<path fill-rule="evenodd" d="M843.3,873.2h1.5v-1.6h-1.5v1.6Z" class="g0_23"/>
<path fill-rule="evenodd" d="M85.9,918.4h1.5V873.2H85.9v45.2Z" class="g0_23"/>
<path fill-rule="evenodd" d="M85.9,919.9h1.5v-1.5H85.9v1.5Z" class="g0_23"/>
<path fill-rule="evenodd" d="M85.9,919.9h1.5v-1.5H85.9v1.5Z" class="g0_23"/>
<path fill-rule="evenodd" d="M87.4,919.9H346.3v-1.5H87.4v1.5Z" class="g0_23"/>
<path fill-rule="evenodd" d="M346.3,918.4h1.5V873.2h-1.5v45.2Z" class="g0_23"/>
<path fill-rule="evenodd" d="M346.3,919.9h1.5v-1.5h-1.5v1.5Z" class="g0_23"/>
<path fill-rule="evenodd" d="M347.8,919.9H843.3v-1.5H347.8v1.5Z" class="g0_23"/>
<path fill-rule="evenodd" d="M843.3,918.4h1.5V873.2h-1.5v45.2Z" class="g0_23"/>
<path fill-rule="evenodd" d="M843.3,919.9h1.5v-1.5h-1.5v1.5Z" class="g0_23"/>
<path fill-rule="evenodd" d="M843.3,919.9h1.5v-1.5h-1.5v1.5Z" class="g0_23"/>
<path fill-rule="evenodd" d="M86.5,1003.7h74.9v-1.2H86.5v1.2Z" class="g0_23"/>
</svg>