<?xml version="1.0" encoding="UTF-8" standalone="no"?>
<!DOCTYPE svg PUBLIC "-//W3C//DTD SVG 1.1//EN"
"http://www.w3.org/Graphics/SVG/1.1/DTD/svg11.dtd">
<svg viewBox="0 0 909 1286" version="1.1" xmlns="http://www.w3.org/2000/svg" xmlns:xlink="http://www.w3.org/1999/xlink">
<defs>
<style type="text/css"><![CDATA[
.g0_42{
}
.g1_42{
fill: #F1F1F1;
}
]]></style>
</defs>
<path fill-rule="evenodd" d="M65.1,66H823.4V64.5H65.1V66Z" class="g0_42"/>
<path fill-rule="evenodd" d="M65.1,137.8H140v-1.2H65.1v1.2Z" class="g0_42"/>
<path fill-rule="evenodd" d="M66.3,346.6H821.9V320.9H66.3v25.7Z" class="g1_42"/>
<path fill-rule="evenodd" d="M73.7,346.6H814.6V320.9H73.7v25.7Z" class="g1_42"/>
<path fill-rule="evenodd" d="M64.5,320.9H66v-1.5H64.5v1.5Z" class="g0_42"/>
<path fill-rule="evenodd" d="M64.5,320.9H66v-1.5H64.5v1.5Z" class="g0_42"/>
<path fill-rule="evenodd" d="M66,320.9H821.9v-1.5H66v1.5Z" class="g0_42"/>
<path fill-rule="evenodd" d="M821.9,320.9h1.5v-1.5h-1.5v1.5Z" class="g0_42"/>
<path fill-rule="evenodd" d="M821.9,320.9h1.5v-1.5h-1.5v1.5Z" class="g0_42"/>
<path fill-rule="evenodd" d="M64.5,346.6H66V320.9H64.5v25.7Z" class="g0_42"/>
<path fill-rule="evenodd" d="M821.9,346.6h1.5V320.9h-1.5v25.7Z" class="g0_42"/>
<path fill-rule="evenodd" d="M64.5,348.1H66v-1.5H64.5v1.5Z" class="g0_42"/>
<path fill-rule="evenodd" d="M66,348.1H297.4v-1.5H66v1.5Z" class="g0_42"/>
<path fill-rule="evenodd" d="M297.4,348.1h1.5v-1.5h-1.5v1.5Z" class="g0_42"/>
<path fill-rule="evenodd" d="M298.9,348.1h523v-1.5h-523v1.5Z" class="g0_42"/>
<path fill-rule="evenodd" d="M821.9,348.1h1.5v-1.5h-1.5v1.5Z" class="g0_42"/>
<path fill-rule="evenodd" d="M64.5,393.3H66V348.1H64.5v45.2Z" class="g0_42"/>
<path fill-rule="evenodd" d="M297.4,393.3h1.5V348.1h-1.5v45.2Z" class="g0_42"/>
<path fill-rule="evenodd" d="M821.9,393.3h1.5V348.1h-1.5v45.2Z" class="g0_42"/>
<path fill-rule="evenodd" d="M64.5,394.9H66v-1.6H64.5v1.6Z" class="g0_42"/>
<path fill-rule="evenodd" d="M66,394.9H297.4v-1.6H66v1.6Z" class="g0_42"/>
<path fill-rule="evenodd" d="M297.4,394.9h1.5v-1.6h-1.5v1.6Z" class="g0_42"/>
<path fill-rule="evenodd" d="M298.9,394.9h523v-1.6h-523v1.6Z" class="g0_42"/>
<path fill-rule="evenodd" d="M821.9,394.9h1.5v-1.6h-1.5v1.6Z" class="g0_42"/>
<path fill-rule="evenodd" d="M64.5,420.5H66V394.9H64.5v25.6Z" class="g0_42"/>
<path fill-rule="evenodd" d="M297.4,420.5h1.5V394.9h-1.5v25.6Z" class="g0_42"/>
<path fill-rule="evenodd" d="M821.9,420.5h1.5V394.9h-1.5v25.6Z" class="g0_42"/>
<path fill-rule="evenodd" d="M64.5,422H66v-1.5H64.5V422Z" class="g0_42"/>
<path fill-rule="evenodd" d="M66,422H297.4v-1.5H66V422Z" class="g0_42"/>
<path fill-rule="evenodd" d="M297.4,422h1.5v-1.5h-1.5V422Z" class="g0_42"/>
<path fill-rule="evenodd" d="M298.9,422h523v-1.5h-523V422Z" class="g0_42"/>
<path fill-rule="evenodd" d="M821.9,422h1.5v-1.5h-1.5V422Z" class="g0_42"/>
<path fill-rule="evenodd" d="M64.5,447.8H66V422.1H64.5v25.7Z" class="g0_42"/>
<path fill-rule="evenodd" d="M297.4,447.8h1.5V422.1h-1.5v25.7Z" class="g0_42"/>
<path fill-rule="evenodd" d="M821.9,447.8h1.5V422.1h-1.5v25.7Z" class="g0_42"/>
<path fill-rule="evenodd" d="M66.3,475H821.9V449.3H66.3V475Z" class="g1_42"/>
<path fill-rule="evenodd" d="M73.7,475H814.6V449.3H73.7V475Z" class="g1_42"/>
<path fill-rule="evenodd" d="M64.5,449.3H66v-1.5H64.5v1.5Z" class="g0_42"/>
<path fill-rule="evenodd" d="M66,449.3H297.4v-1.5H66v1.5Z" class="g0_42"/>
<path fill-rule="evenodd" d="M297.4,449.3h1.5v-1.5h-1.5v1.5Z" class="g0_42"/>
<path fill-rule="evenodd" d="M298.9,449.3h523v-1.5h-523v1.5Z" class="g0_42"/>
<path fill-rule="evenodd" d="M821.9,449.3h1.5v-1.5h-1.5v1.5Z" class="g0_42"/>
<path fill-rule="evenodd" d="M64.5,475H66V449.3H64.5V475Z" class="g0_42"/>
<path fill-rule="evenodd" d="M821.9,475h1.5V449.3h-1.5V475Z" class="g0_42"/>
<path fill-rule="evenodd" d="M64.5,476.5H66V475H64.5v1.5Z" class="g0_42"/>
<path fill-rule="evenodd" d="M66,476.5H297.4V475H66v1.5Z" class="g0_42"/>
<path fill-rule="evenodd" d="M297.4,476.5h1.5V475h-1.5v1.5Z" class="g0_42"/>
<path fill-rule="evenodd" d="M298.9,476.5h523V475h-523v1.5Z" class="g0_42"/>
<path fill-rule="evenodd" d="M821.9,476.5h1.5V475h-1.5v1.5Z" class="g0_42"/>
<path fill-rule="evenodd" d="M64.5,501.8H66V476.5H64.5v25.3Z" class="g0_42"/>
<path fill-rule="evenodd" d="M297.4,501.8h1.5V476.5h-1.5v25.3Z" class="g0_42"/>
<path fill-rule="evenodd" d="M821.9,501.8h1.5V476.5h-1.5v25.3Z" class="g0_42"/>
<path fill-rule="evenodd" d="M64.5,503.4H66v-1.6H64.5v1.6Z" class="g0_42"/>
<path fill-rule="evenodd" d="M66,503.4H297.4v-1.6H66v1.6Z" class="g0_42"/>
<path fill-rule="evenodd" d="M297.4,503.4h1.5v-1.6h-1.5v1.6Z" class="g0_42"/>
<path fill-rule="evenodd" d="M298.9,503.4h523v-1.6h-523v1.6Z" class="g0_42"/>
<path fill-rule="evenodd" d="M821.9,503.4h1.5v-1.6h-1.5v1.6Z" class="g0_42"/>
<path fill-rule="evenodd" d="M64.5,529H66V503.4H64.5V529Z" class="g0_42"/>
<path fill-rule="evenodd" d="M297.4,529h1.5V503.4h-1.5V529Z" class="g0_42"/>
<path fill-rule="evenodd" d="M821.9,529h1.5V503.4h-1.5V529Z" class="g0_42"/>
<path fill-rule="evenodd" d="M64.5,530.6H66V529H64.5v1.6Z" class="g0_42"/>
<path fill-rule="evenodd" d="M66,530.6H297.4V529H66v1.6Z" class="g0_42"/>
<path fill-rule="evenodd" d="M297.4,530.6h1.5V529h-1.5v1.6Z" class="g0_42"/>
<path fill-rule="evenodd" d="M298.9,530.6h523V529h-523v1.6Z" class="g0_42"/>
<path fill-rule="evenodd" d="M821.9,530.6h1.5V529h-1.5v1.6Z" class="g0_42"/>
<path fill-rule="evenodd" d="M64.5,556.2H66V530.6H64.5v25.6Z" class="g0_42"/>
<path fill-rule="evenodd" d="M297.4,556.2h1.5V530.6h-1.5v25.6Z" class="g0_42"/>
<path fill-rule="evenodd" d="M821.9,556.2h1.5V530.6h-1.5v25.6Z" class="g0_42"/>
<path fill-rule="evenodd" d="M64.5,557.8H66v-1.6H64.5v1.6Z" class="g0_42"/>
<path fill-rule="evenodd" d="M66,557.8H297.4v-1.6H66v1.6Z" class="g0_42"/>
<path fill-rule="evenodd" d="M297.4,557.8h1.5v-1.6h-1.5v1.6Z" class="g0_42"/>
<path fill-rule="evenodd" d="M298.9,557.8h523v-1.6h-523v1.6Z" class="g0_42"/>
<path fill-rule="evenodd" d="M821.9,557.8h1.5v-1.6h-1.5v1.6Z" class="g0_42"/>
<path fill-rule="evenodd" d="M64.5,583.4H66V557.8H64.5v25.6Z" class="g0_42"/>
<path fill-rule="evenodd" d="M297.4,583.4h1.5V557.8h-1.5v25.6Z" class="g0_42"/>
<path fill-rule="evenodd" d="M821.9,583.4h1.5V557.8h-1.5v25.6Z" class="g0_42"/>
<path fill-rule="evenodd" d="M64.5,585H66v-1.6H64.5V585Z" class="g0_42"/>
<path fill-rule="evenodd" d="M66,585H297.4v-1.6H66V585Z" class="g0_42"/>
<path fill-rule="evenodd" d="M297.4,585h1.5v-1.6h-1.5V585Z" class="g0_42"/>
<path fill-rule="evenodd" d="M298.9,585h523v-1.6h-523V585Z" class="g0_42"/>
<path fill-rule="evenodd" d="M821.9,585h1.5v-1.6h-1.5V585Z" class="g0_42"/>
<path fill-rule="evenodd" d="M64.5,610.7H66V584.9H64.5v25.8Z" class="g0_42"/>
<path fill-rule="evenodd" d="M297.4,610.7h1.5V584.9h-1.5v25.8Z" class="g0_42"/>
<path fill-rule="evenodd" d="M821.9,610.7h1.5V584.9h-1.5v25.8Z" class="g0_42"/>
<path fill-rule="evenodd" d="M64.5,612.2H66v-1.5H64.5v1.5Z" class="g0_42"/>
<path fill-rule="evenodd" d="M66,612.2H297.4v-1.5H66v1.5Z" class="g0_42"/>
<path fill-rule="evenodd" d="M297.4,612.2h1.5v-1.5h-1.5v1.5Z" class="g0_42"/>
<path fill-rule="evenodd" d="M298.9,612.2h523v-1.5h-523v1.5Z" class="g0_42"/>
<path fill-rule="evenodd" d="M821.9,612.2h1.5v-1.5h-1.5v1.5Z" class="g0_42"/>
<path fill-rule="evenodd" d="M64.5,637.8H66V612.2H64.5v25.6Z" class="g0_42"/>
<path fill-rule="evenodd" d="M297.4,637.8h1.5V612.2h-1.5v25.6Z" class="g0_42"/>
<path fill-rule="evenodd" d="M821.9,637.8h1.5V612.2h-1.5v25.6Z" class="g0_42"/>
<path fill-rule="evenodd" d="M64.5,639.4H66v-1.6H64.5v1.6Z" class="g0_42"/>
<path fill-rule="evenodd" d="M66,639.4H297.4v-1.6H66v1.6Z" class="g0_42"/>
<path fill-rule="evenodd" d="M297.4,639.4h1.5v-1.6h-1.5v1.6Z" class="g0_42"/>
<path fill-rule="evenodd" d="M298.9,639.4h523v-1.6h-523v1.6Z" class="g0_42"/>
<path fill-rule="evenodd" d="M821.9,639.4h1.5v-1.6h-1.5v1.6Z" class="g0_42"/>
<path fill-rule="evenodd" d="M64.5,665H66V639.4H64.5V665Z" class="g0_42"/>
<path fill-rule="evenodd" d="M297.4,665h1.5V639.4h-1.5V665Z" class="g0_42"/>
<path fill-rule="evenodd" d="M821.9,665h1.5V639.4h-1.5V665Z" class="g0_42"/>
<path fill-rule="evenodd" d="M64.5,666.6H66V665H64.5v1.6Z" class="g0_42"/>
<path fill-rule="evenodd" d="M66,666.6H297.4V665H66v1.6Z" class="g0_42"/>
<path fill-rule="evenodd" d="M297.4,666.6h1.5V665h-1.5v1.6Z" class="g0_42"/>
<path fill-rule="evenodd" d="M298.9,666.6h523V665h-523v1.6Z" class="g0_42"/>
<path fill-rule="evenodd" d="M821.9,666.6h1.5V665h-1.5v1.6Z" class="g0_42"/>
<path fill-rule="evenodd" d="M64.5,692.2H66V666.6H64.5v25.6Z" class="g0_42"/>
<path fill-rule="evenodd" d="M297.4,692.2h1.5V666.6h-1.5v25.6Z" class="g0_42"/>
<path fill-rule="evenodd" d="M821.9,692.2h1.5V666.6h-1.5v25.6Z" class="g0_42"/>
<path fill-rule="evenodd" d="M64.5,693.8H66v-1.6H64.5v1.6Z" class="g0_42"/>
<path fill-rule="evenodd" d="M66,693.8H297.4v-1.6H66v1.6Z" class="g0_42"/>
<path fill-rule="evenodd" d="M297.4,693.8h1.5v-1.6h-1.5v1.6Z" class="g0_42"/>
<path fill-rule="evenodd" d="M298.9,693.8h523v-1.6h-523v1.6Z" class="g0_42"/>
<path fill-rule="evenodd" d="M821.9,693.8h1.5v-1.6h-1.5v1.6Z" class="g0_42"/>
<path fill-rule="evenodd" d="M64.5,719.1H66V693.8H64.5v25.3Z" class="g0_42"/>
<path fill-rule="evenodd" d="M297.4,719.1h1.5V693.8h-1.5v25.3Z" class="g0_42"/>
<path fill-rule="evenodd" d="M821.9,719.1h1.5V693.8h-1.5v25.3Z" class="g0_42"/>
<path fill-rule="evenodd" d="M64.5,720.7H66v-1.6H64.5v1.6Z" class="g0_42"/>
<path fill-rule="evenodd" d="M66,720.7H297.4v-1.6H66v1.6Z" class="g0_42"/>
<path fill-rule="evenodd" d="M297.4,720.7h1.5v-1.6h-1.5v1.6Z" class="g0_42"/>
<path fill-rule="evenodd" d="M298.9,720.7h523v-1.6h-523v1.6Z" class="g0_42"/>
<path fill-rule="evenodd" d="M821.9,720.7h1.5v-1.6h-1.5v1.6Z" class="g0_42"/>
<path fill-rule="evenodd" d="M64.5,746.3H66V720.7H64.5v25.6Z" class="g0_42"/>
<path fill-rule="evenodd" d="M64.5,747.8H66v-1.5H64.5v1.5Z" class="g0_42"/>
<path fill-rule="evenodd" d="M64.5,747.8H66v-1.5H64.5v1.5Z" class="g0_42"/>
<path fill-rule="evenodd" d="M66,747.8H297.4v-1.5H66v1.5Z" class="g0_42"/>
<path fill-rule="evenodd" d="M297.4,746.3h1.5V720.7h-1.5v25.6Z" class="g0_42"/>
<path fill-rule="evenodd" d="M297.4,747.8h1.5v-1.5h-1.5v1.5Z" class="g0_42"/>
<path fill-rule="evenodd" d="M298.9,747.8h523v-1.5h-523v1.5Z" class="g0_42"/>
<path fill-rule="evenodd" d="M821.9,746.3h1.5V720.7h-1.5v25.6Z" class="g0_42"/>
<path fill-rule="evenodd" d="M821.9,747.8h1.5v-1.5h-1.5v1.5Z" class="g0_42"/>
<path fill-rule="evenodd" d="M821.9,747.8h1.5v-1.5h-1.5v1.5Z" class="g0_42"/>
<path fill-rule="evenodd" d="M65.1,831.9H140v-1.2H65.1v1.2Z" class="g0_42"/>
<path fill-rule="evenodd" d="M65.1,915.9h78.5v-1.2H65.1v1.2Z" class="g0_42"/>
<path fill-rule="evenodd" d="M66.3,986.6H821.9V960.9H66.3v25.7Z" class="g1_42"/>
<path fill-rule="evenodd" d="M73.7,986.6H814.6V960.9H73.7v25.7Z" class="g1_42"/>
<path fill-rule="evenodd" d="M64.5,960.9H66v-1.5H64.5v1.5Z" class="g0_42"/>
<path fill-rule="evenodd" d="M64.5,960.9H66v-1.5H64.5v1.5Z" class="g0_42"/>
<path fill-rule="evenodd" d="M66,960.9H821.9v-1.5H66v1.5Z" class="g0_42"/>
<path fill-rule="evenodd" d="M821.9,960.9h1.5v-1.5h-1.5v1.5Z" class="g0_42"/>
<path fill-rule="evenodd" d="M821.9,960.9h1.5v-1.5h-1.5v1.5Z" class="g0_42"/>
<path fill-rule="evenodd" d="M64.5,986.6H66V960.9H64.5v25.7Z" class="g0_42"/>
<path fill-rule="evenodd" d="M821.9,986.6h1.5V960.9h-1.5v25.7Z" class="g0_42"/>
<path fill-rule="evenodd" d="M64.5,988.1H66v-1.5H64.5v1.5Z" class="g0_42"/>
<path fill-rule="evenodd" d="M66,988.1H297.4v-1.5H66v1.5Z" class="g0_42"/>
<path fill-rule="evenodd" d="M297.4,988.1h1.5v-1.5h-1.5v1.5Z" class="g0_42"/>
<path fill-rule="evenodd" d="M298.9,988.1h523v-1.5h-523v1.5Z" class="g0_42"/>
<path fill-rule="evenodd" d="M821.9,988.1h1.5v-1.5h-1.5v1.5Z" class="g0_42"/>
<path fill-rule="evenodd" d="M64.5,1033.3H66V988.1H64.5v45.2Z" class="g0_42"/>
<path fill-rule="evenodd" d="M297.4,1033.3h1.5V988.1h-1.5v45.2Z" class="g0_42"/>
<path fill-rule="evenodd" d="M821.9,1033.3h1.5V988.1h-1.5v45.2Z" class="g0_42"/>
<path fill-rule="evenodd" d="M64.5,1034.8H66v-1.5H64.5v1.5Z" class="g0_42"/>
<path fill-rule="evenodd" d="M66,1034.8H297.4v-1.5H66v1.5Z" class="g0_42"/>
<path fill-rule="evenodd" d="M297.4,1034.8h1.5v-1.5h-1.5v1.5Z" class="g0_42"/>
<path fill-rule="evenodd" d="M298.9,1034.8h523v-1.5h-523v1.5Z" class="g0_42"/>
<path fill-rule="evenodd" d="M821.9,1034.8h1.5v-1.5h-1.5v1.5Z" class="g0_42"/>
<path fill-rule="evenodd" d="M64.5,1080.1H66v-45.3H64.5v45.3Z" class="g0_42"/>
<path fill-rule="evenodd" d="M297.4,1080.1h1.5v-45.3h-1.5v45.3Z" class="g0_42"/>
<path fill-rule="evenodd" d="M821.9,1080.1h1.5v-45.3h-1.5v45.3Z" class="g0_42"/>
<path fill-rule="evenodd" d="M64.5,1081.6H66v-1.5H64.5v1.5Z" class="g0_42"/>
<path fill-rule="evenodd" d="M66,1081.6H297.4v-1.5H66v1.5Z" class="g0_42"/>
<path fill-rule="evenodd" d="M297.4,1081.6h1.5v-1.5h-1.5v1.5Z" class="g0_42"/>
<path fill-rule="evenodd" d="M298.9,1081.6h523v-1.5h-523v1.5Z" class="g0_42"/>
<path fill-rule="evenodd" d="M821.9,1081.6h1.5v-1.5h-1.5v1.5Z" class="g0_42"/>
<path fill-rule="evenodd" d="M64.5,1107.3H66v-25.7H64.5v25.7Z" class="g0_42"/>
<path fill-rule="evenodd" d="M297.4,1107.3h1.5v-25.7h-1.5v25.7Z" class="g0_42"/>
<path fill-rule="evenodd" d="M821.9,1107.3h1.5v-25.7h-1.5v25.7Z" class="g0_42"/>
<path fill-rule="evenodd" d="M66.3,1134.5H821.9v-25.7H66.3v25.7Z" class="g1_42"/>
<path fill-rule="evenodd" d="M73.7,1134.5H814.6v-25.7H73.7v25.7Z" class="g1_42"/>
<path fill-rule="evenodd" d="M64.5,1108.8H66v-1.5H64.5v1.5Z" class="g0_42"/>
<path fill-rule="evenodd" d="M66,1108.8H297.4v-1.5H66v1.5Z" class="g0_42"/>
<path fill-rule="evenodd" d="M297.4,1108.8h1.5v-1.5h-1.5v1.5Z" class="g0_42"/>
<path fill-rule="evenodd" d="M298.9,1108.8h523v-1.5h-523v1.5Z" class="g0_42"/>
<path fill-rule="evenodd" d="M821.9,1108.8h1.5v-1.5h-1.5v1.5Z" class="g0_42"/>
<path fill-rule="evenodd" d="M64.5,1134.5H66v-25.7H64.5v25.7Z" class="g0_42"/>
<path fill-rule="evenodd" d="M821.9,1134.5h1.5v-25.7h-1.5v25.7Z" class="g0_42"/>
<path fill-rule="evenodd" d="M64.5,1136H66v-1.5H64.5v1.5Z" class="g0_42"/>
<path fill-rule="evenodd" d="M66,1136H297.4v-1.5H66v1.5Z" class="g0_42"/>
<path fill-rule="evenodd" d="M297.4,1136h1.5v-1.5h-1.5v1.5Z" class="g0_42"/>
<path fill-rule="evenodd" d="M298.9,1136h523v-1.5h-523v1.5Z" class="g0_42"/>
<path fill-rule="evenodd" d="M821.9,1136h1.5v-1.5h-1.5v1.5Z" class="g0_42"/>
<path fill-rule="evenodd" d="M64.5,1161.4H66V1136H64.5v25.4Z" class="g0_42"/>
<path fill-rule="evenodd" d="M297.4,1161.4h1.5V1136h-1.5v25.4Z" class="g0_42"/>
<path fill-rule="evenodd" d="M821.9,1161.4h1.5V1136h-1.5v25.4Z" class="g0_42"/>
<path fill-rule="evenodd" d="M64.5,1162.9H66v-1.5H64.5v1.5Z" class="g0_42"/>
<path fill-rule="evenodd" d="M66,1162.9H297.4v-1.5H66v1.5Z" class="g0_42"/>
<path fill-rule="evenodd" d="M297.4,1162.9h1.5v-1.5h-1.5v1.5Z" class="g0_42"/>
<path fill-rule="evenodd" d="M298.9,1162.9h523v-1.5h-523v1.5Z" class="g0_42"/>
<path fill-rule="evenodd" d="M821.9,1162.9h1.5v-1.5h-1.5v1.5Z" class="g0_42"/>
<path fill-rule="evenodd" d="M64.5,1188.6H66v-25.7H64.5v25.7Z" class="g0_42"/>
<path fill-rule="evenodd" d="M64.5,1190.1H66v-1.5H64.5v1.5Z" class="g0_42"/>
<path fill-rule="evenodd" d="M64.5,1190.1H66v-1.5H64.5v1.5Z" class="g0_42"/>
<path fill-rule="evenodd" d="M66,1190.1H297.4v-1.5H66v1.5Z" class="g0_42"/>
<path fill-rule="evenodd" d="M297.4,1188.6h1.5v-25.7h-1.5v25.7Z" class="g0_42"/>
<path fill-rule="evenodd" d="M297.4,1190.1h1.5v-1.5h-1.5v1.5Z" class="g0_42"/>
<path fill-rule="evenodd" d="M298.9,1190.1h523v-1.5h-523v1.5Z" class="g0_42"/>
<path fill-rule="evenodd" d="M821.9,1188.6h1.5v-25.7h-1.5v25.7Z" class="g0_42"/>
<path fill-rule="evenodd" d="M821.9,1190.1h1.5v-1.5h-1.5v1.5Z" class="g0_42"/>
<path fill-rule="evenodd" d="M821.9,1190.1h1.5v-1.5h-1.5v1.5Z" class="g0_42"/>
</svg>