<?xml version="1.0" encoding="UTF-8" standalone="no"?>
<!DOCTYPE svg PUBLIC "-//W3C//DTD SVG 1.1//EN"
"http://www.w3.org/Graphics/SVG/1.1/DTD/svg11.dtd">
<svg viewBox="0 0 909 1286" version="1.1" xmlns="http://www.w3.org/2000/svg" xmlns:xlink="http://www.w3.org/1999/xlink">
<defs>
<style type="text/css"><![CDATA[
.g0_14{
}
.g1_14{
fill: #F1F1F1;
}
]]></style>
</defs>
<path fill-rule="evenodd" d="M65.1,66H823.4V64.5H65.1V66Z" class="g0_14"/>
<path fill-rule="evenodd" d="M65.1,140.9H140v-1.2H65.1v1.2Z" class="g0_14"/>
<path fill-rule="evenodd" d="M71.2,233.2H816.7V207.5H71.2v25.7Z" class="g1_14"/>
<path fill-rule="evenodd" d="M78.9,233.2H809.4V207.5H78.9v25.7Z" class="g1_14"/>
<path fill-rule="evenodd" d="M69.7,207.5h1.5V206H69.7v1.5Z" class="g0_14"/>
<path fill-rule="evenodd" d="M69.7,207.5h1.5V206H69.7v1.5Z" class="g0_14"/>
<path fill-rule="evenodd" d="M71.2,207.5H816.7V206H71.2v1.5Z" class="g0_14"/>
<path fill-rule="evenodd" d="M816.7,207.5h1.5V206h-1.5v1.5Z" class="g0_14"/>
<path fill-rule="evenodd" d="M816.7,207.5h1.5V206h-1.5v1.5Z" class="g0_14"/>
<path fill-rule="evenodd" d="M69.7,233.2h1.5V207.5H69.7v25.7Z" class="g0_14"/>
<path fill-rule="evenodd" d="M816.7,233.2h1.5V207.5h-1.5v25.7Z" class="g0_14"/>
<path fill-rule="evenodd" d="M69.7,234.7h1.5v-1.5H69.7v1.5Z" class="g0_14"/>
<path fill-rule="evenodd" d="M71.2,234.7H318.5v-1.5H71.2v1.5Z" class="g0_14"/>
<path fill-rule="evenodd" d="M318.5,234.7H320v-1.5h-1.5v1.5Z" class="g0_14"/>
<path fill-rule="evenodd" d="M320,234.7H816.7v-1.5H320v1.5Z" class="g0_14"/>
<path fill-rule="evenodd" d="M816.7,234.7h1.5v-1.5h-1.5v1.5Z" class="g0_14"/>
<path fill-rule="evenodd" d="M69.7,260.4h1.5V234.7H69.7v25.7Z" class="g0_14"/>
<path fill-rule="evenodd" d="M318.5,260.4H320V234.7h-1.5v25.7Z" class="g0_14"/>
<path fill-rule="evenodd" d="M816.7,260.4h1.5V234.7h-1.5v25.7Z" class="g0_14"/>
<path fill-rule="evenodd" d="M69.7,261.9h1.5v-1.5H69.7v1.5Z" class="g0_14"/>
<path fill-rule="evenodd" d="M71.2,261.9H318.5v-1.5H71.2v1.5Z" class="g0_14"/>
<path fill-rule="evenodd" d="M318.5,261.9H320v-1.5h-1.5v1.5Z" class="g0_14"/>
<path fill-rule="evenodd" d="M320,261.9H816.7v-1.5H320v1.5Z" class="g0_14"/>
<path fill-rule="evenodd" d="M816.7,261.9h1.5v-1.5h-1.5v1.5Z" class="g0_14"/>
<path fill-rule="evenodd" d="M69.7,287.6h1.5V261.9H69.7v25.7Z" class="g0_14"/>
<path fill-rule="evenodd" d="M318.5,287.6H320V261.9h-1.5v25.7Z" class="g0_14"/>
<path fill-rule="evenodd" d="M816.7,287.6h1.5V261.9h-1.5v25.7Z" class="g0_14"/>
<path fill-rule="evenodd" d="M71.2,314.8H816.7V289.1H71.2v25.7Z" class="g1_14"/>
<path fill-rule="evenodd" d="M74.9,314.8H813.4V289.1H74.9v25.7Z" class="g1_14"/>
<path fill-rule="evenodd" d="M69.7,289.1h1.5v-1.5H69.7v1.5Z" class="g0_14"/>
<path fill-rule="evenodd" d="M71.2,289.1H318.5v-1.5H71.2v1.5Z" class="g0_14"/>
<path fill-rule="evenodd" d="M318.5,289.1H320v-1.5h-1.5v1.5Z" class="g0_14"/>
<path fill-rule="evenodd" d="M320,289.1H816.7v-1.5H320v1.5Z" class="g0_14"/>
<path fill-rule="evenodd" d="M816.7,289.1h1.5v-1.5h-1.5v1.5Z" class="g0_14"/>
<path fill-rule="evenodd" d="M69.7,314.8h1.5V289.1H69.7v25.7Z" class="g0_14"/>
<path fill-rule="evenodd" d="M816.7,314.8h1.5V289.1h-1.5v25.7Z" class="g0_14"/>
<path fill-rule="evenodd" d="M69.7,316.3h1.5v-1.5H69.7v1.5Z" class="g0_14"/>
<path fill-rule="evenodd" d="M71.2,316.3H318.5v-1.5H71.2v1.5Z" class="g0_14"/>
<path fill-rule="evenodd" d="M318.5,316.3H320v-1.5h-1.5v1.5Z" class="g0_14"/>
<path fill-rule="evenodd" d="M320,316.3H816.7v-1.5H320v1.5Z" class="g0_14"/>
<path fill-rule="evenodd" d="M816.7,316.3h1.5v-1.5h-1.5v1.5Z" class="g0_14"/>
<path fill-rule="evenodd" d="M69.7,342h1.5V316.3H69.7V342Z" class="g0_14"/>
<path fill-rule="evenodd" d="M318.5,342H320V316.3h-1.5V342Z" class="g0_14"/>
<path fill-rule="evenodd" d="M816.7,342h1.5V316.3h-1.5V342Z" class="g0_14"/>
<path fill-rule="evenodd" d="M69.7,343.5h1.5V342H69.7v1.5Z" class="g0_14"/>
<path fill-rule="evenodd" d="M71.2,343.5H318.5V342H71.2v1.5Z" class="g0_14"/>
<path fill-rule="evenodd" d="M318.5,343.5H320V342h-1.5v1.5Z" class="g0_14"/>
<path fill-rule="evenodd" d="M320,343.5H816.7V342H320v1.5Z" class="g0_14"/>
<path fill-rule="evenodd" d="M816.7,343.5h1.5V342h-1.5v1.5Z" class="g0_14"/>
<path fill-rule="evenodd" d="M69.7,369.2h1.5V343.5H69.7v25.7Z" class="g0_14"/>
<path fill-rule="evenodd" d="M318.5,369.2H320V343.5h-1.5v25.7Z" class="g0_14"/>
<path fill-rule="evenodd" d="M816.7,369.2h1.5V343.5h-1.5v25.7Z" class="g0_14"/>
<path fill-rule="evenodd" d="M69.7,370.7h1.5v-1.5H69.7v1.5Z" class="g0_14"/>
<path fill-rule="evenodd" d="M71.2,370.7H318.5v-1.5H71.2v1.5Z" class="g0_14"/>
<path fill-rule="evenodd" d="M318.5,370.7H320v-1.5h-1.5v1.5Z" class="g0_14"/>
<path fill-rule="evenodd" d="M320,370.7H816.7v-1.5H320v1.5Z" class="g0_14"/>
<path fill-rule="evenodd" d="M816.7,370.7h1.5v-1.5h-1.5v1.5Z" class="g0_14"/>
<path fill-rule="evenodd" d="M69.7,396.1h1.5V370.7H69.7v25.4Z" class="g0_14"/>
<path fill-rule="evenodd" d="M318.5,396.1H320V370.7h-1.5v25.4Z" class="g0_14"/>
<path fill-rule="evenodd" d="M816.7,396.1h1.5V370.7h-1.5v25.4Z" class="g0_14"/>
<path fill-rule="evenodd" d="M69.7,397.6h1.5v-1.5H69.7v1.5Z" class="g0_14"/>
<path fill-rule="evenodd" d="M71.2,397.6H318.5v-1.5H71.2v1.5Z" class="g0_14"/>
<path fill-rule="evenodd" d="M318.5,397.6H320v-1.5h-1.5v1.5Z" class="g0_14"/>
<path fill-rule="evenodd" d="M320,397.6H816.7v-1.5H320v1.5Z" class="g0_14"/>
<path fill-rule="evenodd" d="M816.7,397.6h1.5v-1.5h-1.5v1.5Z" class="g0_14"/>
<path fill-rule="evenodd" d="M69.7,423.3h1.5V397.6H69.7v25.7Z" class="g0_14"/>
<path fill-rule="evenodd" d="M318.5,423.3H320V397.6h-1.5v25.7Z" class="g0_14"/>
<path fill-rule="evenodd" d="M816.7,423.3h1.5V397.6h-1.5v25.7Z" class="g0_14"/>
<path fill-rule="evenodd" d="M69.7,424.8h1.5v-1.5H69.7v1.5Z" class="g0_14"/>
<path fill-rule="evenodd" d="M71.2,424.8H318.5v-1.5H71.2v1.5Z" class="g0_14"/>
<path fill-rule="evenodd" d="M318.5,424.8H320v-1.5h-1.5v1.5Z" class="g0_14"/>
<path fill-rule="evenodd" d="M320,424.8H816.7v-1.5H320v1.5Z" class="g0_14"/>
<path fill-rule="evenodd" d="M816.7,424.8h1.5v-1.5h-1.5v1.5Z" class="g0_14"/>
<path fill-rule="evenodd" d="M69.7,450.5h1.5V424.8H69.7v25.7Z" class="g0_14"/>
<path fill-rule="evenodd" d="M318.5,450.5H320V424.8h-1.5v25.7Z" class="g0_14"/>
<path fill-rule="evenodd" d="M816.7,450.5h1.5V424.8h-1.5v25.7Z" class="g0_14"/>
<path fill-rule="evenodd" d="M69.7,452h1.5v-1.5H69.7V452Z" class="g0_14"/>
<path fill-rule="evenodd" d="M71.2,452H318.5v-1.5H71.2V452Z" class="g0_14"/>
<path fill-rule="evenodd" d="M318.5,452H320v-1.5h-1.5V452Z" class="g0_14"/>
<path fill-rule="evenodd" d="M320,452H816.7v-1.5H320V452Z" class="g0_14"/>
<path fill-rule="evenodd" d="M816.7,452h1.5v-1.5h-1.5V452Z" class="g0_14"/>
<path fill-rule="evenodd" d="M69.7,477.7h1.5V452H69.7v25.7Z" class="g0_14"/>
<path fill-rule="evenodd" d="M318.5,477.7H320V452h-1.5v25.7Z" class="g0_14"/>
<path fill-rule="evenodd" d="M816.7,477.7h1.5V452h-1.5v25.7Z" class="g0_14"/>
<path fill-rule="evenodd" d="M69.7,479.2h1.5v-1.5H69.7v1.5Z" class="g0_14"/>
<path fill-rule="evenodd" d="M71.2,479.2H318.5v-1.5H71.2v1.5Z" class="g0_14"/>
<path fill-rule="evenodd" d="M318.5,479.2H320v-1.5h-1.5v1.5Z" class="g0_14"/>
<path fill-rule="evenodd" d="M320,479.2H816.7v-1.5H320v1.5Z" class="g0_14"/>
<path fill-rule="evenodd" d="M816.7,479.2h1.5v-1.5h-1.5v1.5Z" class="g0_14"/>
<path fill-rule="evenodd" d="M69.7,504.9h1.5V479.2H69.7v25.7Z" class="g0_14"/>
<path fill-rule="evenodd" d="M318.5,504.9H320V479.2h-1.5v25.7Z" class="g0_14"/>
<path fill-rule="evenodd" d="M816.7,504.9h1.5V479.2h-1.5v25.7Z" class="g0_14"/>
<path fill-rule="evenodd" d="M69.7,506.4h1.5v-1.5H69.7v1.5Z" class="g0_14"/>
<path fill-rule="evenodd" d="M71.2,506.4H318.5v-1.5H71.2v1.5Z" class="g0_14"/>
<path fill-rule="evenodd" d="M318.5,506.4H320v-1.5h-1.5v1.5Z" class="g0_14"/>
<path fill-rule="evenodd" d="M320,506.4H816.7v-1.5H320v1.5Z" class="g0_14"/>
<path fill-rule="evenodd" d="M816.7,506.4h1.5v-1.5h-1.5v1.5Z" class="g0_14"/>
<path fill-rule="evenodd" d="M69.7,532.1h1.5V506.4H69.7v25.7Z" class="g0_14"/>
<path fill-rule="evenodd" d="M69.7,533.6h1.5v-1.5H69.7v1.5Z" class="g0_14"/>
<path fill-rule="evenodd" d="M69.7,533.6h1.5v-1.5H69.7v1.5Z" class="g0_14"/>
<path fill-rule="evenodd" d="M71.2,533.6H318.5v-1.5H71.2v1.5Z" class="g0_14"/>
<path fill-rule="evenodd" d="M318.5,532.1H320V506.4h-1.5v25.7Z" class="g0_14"/>
<path fill-rule="evenodd" d="M318.5,533.6H320v-1.5h-1.5v1.5Z" class="g0_14"/>
<path fill-rule="evenodd" d="M320,533.6H816.7v-1.5H320v1.5Z" class="g0_14"/>
<path fill-rule="evenodd" d="M816.7,532.1h1.5V506.4h-1.5v25.7Z" class="g0_14"/>
<path fill-rule="evenodd" d="M816.7,533.6h1.5v-1.5h-1.5v1.5Z" class="g0_14"/>
<path fill-rule="evenodd" d="M816.7,533.6h1.5v-1.5h-1.5v1.5Z" class="g0_14"/>
</svg>