<?xml version="1.0" encoding="UTF-8" standalone="no"?>
<!DOCTYPE svg PUBLIC "-//W3C//DTD SVG 1.1//EN"
"http://www.w3.org/Graphics/SVG/1.1/DTD/svg11.dtd">
<svg viewBox="0 0 909 1286" version="1.1" xmlns="http://www.w3.org/2000/svg" xmlns:xlink="http://www.w3.org/1999/xlink">
<defs>
<style type="text/css"><![CDATA[
.g0_37{
}
.g1_37{
fill: #F1F1F1;
}
]]></style>
</defs>
<path fill-rule="evenodd" d="M86.5,66H844.8V64.5H86.5V66Z" class="g0_37"/>
<path fill-rule="evenodd" d="M77.3,88h1.6V86.5H77.3V88Z" class="g0_37"/>
<path fill-rule="evenodd" d="M77.3,88h1.6V86.5H77.3V88Z" class="g0_37"/>
<path fill-rule="evenodd" d="M78.9,88h261V86.5H78.9V88Z" class="g0_37"/>
<path fill-rule="evenodd" d="M339.9,88h1.5V86.5h-1.5V88Z" class="g0_37"/>
<path fill-rule="evenodd" d="M341.4,88H851.9V86.5H341.4V88Z" class="g0_37"/>
<path fill-rule="evenodd" d="M851.9,88h1.5V86.5h-1.5V88Z" class="g0_37"/>
<path fill-rule="evenodd" d="M851.9,88h1.5V86.5h-1.5V88Z" class="g0_37"/>
<path fill-rule="evenodd" d="M77.3,113.7h1.6V88H77.3v25.7Z" class="g0_37"/>
<path fill-rule="evenodd" d="M339.9,113.7h1.5V88h-1.5v25.7Z" class="g0_37"/>
<path fill-rule="evenodd" d="M851.9,113.7h1.5V88h-1.5v25.7Z" class="g0_37"/>
<path fill-rule="evenodd" d="M77.3,115.2h1.6v-1.5H77.3v1.5Z" class="g0_37"/>
<path fill-rule="evenodd" d="M78.9,115.2h261v-1.5H78.9v1.5Z" class="g0_37"/>
<path fill-rule="evenodd" d="M339.9,115.2h1.5v-1.5h-1.5v1.5Z" class="g0_37"/>
<path fill-rule="evenodd" d="M341.4,115.2H851.9v-1.5H341.4v1.5Z" class="g0_37"/>
<path fill-rule="evenodd" d="M851.9,115.2h1.5v-1.5h-1.5v1.5Z" class="g0_37"/>
<path fill-rule="evenodd" d="M77.3,140.9h1.6V115.2H77.3v25.7Z" class="g0_37"/>
<path fill-rule="evenodd" d="M339.9,140.9h1.5V115.2h-1.5v25.7Z" class="g0_37"/>
<path fill-rule="evenodd" d="M851.9,140.9h1.5V115.2h-1.5v25.7Z" class="g0_37"/>
<path fill-rule="evenodd" d="M77.3,142.4h1.6v-1.5H77.3v1.5Z" class="g0_37"/>
<path fill-rule="evenodd" d="M78.9,142.4h261v-1.5H78.9v1.5Z" class="g0_37"/>
<path fill-rule="evenodd" d="M339.9,142.4h1.5v-1.5h-1.5v1.5Z" class="g0_37"/>
<path fill-rule="evenodd" d="M341.4,142.4H851.9v-1.5H341.4v1.5Z" class="g0_37"/>
<path fill-rule="evenodd" d="M851.9,142.4h1.5v-1.5h-1.5v1.5Z" class="g0_37"/>
<path fill-rule="evenodd" d="M77.3,168.1h1.6V142.4H77.3v25.7Z" class="g0_37"/>
<path fill-rule="evenodd" d="M339.9,168.1h1.5V142.4h-1.5v25.7Z" class="g0_37"/>
<path fill-rule="evenodd" d="M851.9,168.1h1.5V142.4h-1.5v25.7Z" class="g0_37"/>
<path fill-rule="evenodd" d="M77.3,169.6h1.6v-1.5H77.3v1.5Z" class="g0_37"/>
<path fill-rule="evenodd" d="M78.9,169.6h261v-1.5H78.9v1.5Z" class="g0_37"/>
<path fill-rule="evenodd" d="M339.9,169.6h1.5v-1.5h-1.5v1.5Z" class="g0_37"/>
<path fill-rule="evenodd" d="M341.4,169.6H851.9v-1.5H341.4v1.5Z" class="g0_37"/>
<path fill-rule="evenodd" d="M851.9,169.6h1.5v-1.5h-1.5v1.5Z" class="g0_37"/>
<path fill-rule="evenodd" d="M77.3,195.3h1.6V169.6H77.3v25.7Z" class="g0_37"/>
<path fill-rule="evenodd" d="M339.9,195.3h1.5V169.6h-1.5v25.7Z" class="g0_37"/>
<path fill-rule="evenodd" d="M851.9,195.3h1.5V169.6h-1.5v25.7Z" class="g0_37"/>
<path fill-rule="evenodd" d="M77.3,196.8h1.6v-1.5H77.3v1.5Z" class="g0_37"/>
<path fill-rule="evenodd" d="M78.9,196.8h261v-1.5H78.9v1.5Z" class="g0_37"/>
<path fill-rule="evenodd" d="M339.9,196.8h1.5v-1.5h-1.5v1.5Z" class="g0_37"/>
<path fill-rule="evenodd" d="M341.4,196.8H851.9v-1.5H341.4v1.5Z" class="g0_37"/>
<path fill-rule="evenodd" d="M851.9,196.8h1.5v-1.5h-1.5v1.5Z" class="g0_37"/>
<path fill-rule="evenodd" d="M77.3,242h1.6V196.8H77.3V242Z" class="g0_37"/>
<path fill-rule="evenodd" d="M77.3,243.6h1.6V242H77.3v1.6Z" class="g0_37"/>
<path fill-rule="evenodd" d="M77.3,243.6h1.6V242H77.3v1.6Z" class="g0_37"/>
<path fill-rule="evenodd" d="M78.9,243.6h261V242H78.9v1.6Z" class="g0_37"/>
<path fill-rule="evenodd" d="M339.9,242h1.5V196.8h-1.5V242Z" class="g0_37"/>
<path fill-rule="evenodd" d="M339.9,243.6h1.5V242h-1.5v1.6Z" class="g0_37"/>
<path fill-rule="evenodd" d="M341.4,243.6H851.9V242H341.4v1.6Z" class="g0_37"/>
<path fill-rule="evenodd" d="M851.9,242h1.5V196.8h-1.5V242Z" class="g0_37"/>
<path fill-rule="evenodd" d="M851.9,243.6h1.5V242h-1.5v1.6Z" class="g0_37"/>
<path fill-rule="evenodd" d="M851.9,243.6h1.5V242h-1.5v1.6Z" class="g0_37"/>
<path fill-rule="evenodd" d="M86.5,327.3h74.9v-1.2H86.5v1.2Z" class="g0_37"/>
<path fill-rule="evenodd" d="M86.5,469.7h70v-1.2h-70v1.2Z" class="g0_37"/>
<path fill-rule="evenodd" d="M87.7,609.7H843.6V584.3H87.7v25.4Z" class="g1_37"/>
<path fill-rule="evenodd" d="M95.4,609.7H836V584.3H95.4v25.4Z" class="g1_37"/>
<path fill-rule="evenodd" d="M85.9,584.3h1.5v-1.5H85.9v1.5Z" class="g0_37"/>
<path fill-rule="evenodd" d="M85.9,584.3h1.5v-1.5H85.9v1.5Z" class="g0_37"/>
<path fill-rule="evenodd" d="M87.4,584.3H843.3v-1.5H87.4v1.5Z" class="g0_37"/>
<path fill-rule="evenodd" d="M843.3,584.3h1.5v-1.5h-1.5v1.5Z" class="g0_37"/>
<path fill-rule="evenodd" d="M843.3,584.3h1.5v-1.5h-1.5v1.5Z" class="g0_37"/>
<path fill-rule="evenodd" d="M85.9,609.7h1.5V584.3H85.9v25.4Z" class="g0_37"/>
<path fill-rule="evenodd" d="M843.3,609.7h1.5V584.3h-1.5v25.4Z" class="g0_37"/>
<path fill-rule="evenodd" d="M85.9,611.3h1.5v-1.6H85.9v1.6Z" class="g0_37"/>
<path fill-rule="evenodd" d="M87.4,611.3H340.5v-1.6H87.4v1.6Z" class="g0_37"/>
<path fill-rule="evenodd" d="M340.5,611.3H342v-1.6h-1.5v1.6Z" class="g0_37"/>
<path fill-rule="evenodd" d="M342,611.3H843.3v-1.6H342v1.6Z" class="g0_37"/>
<path fill-rule="evenodd" d="M843.3,611.3h1.5v-1.6h-1.5v1.6Z" class="g0_37"/>
<path fill-rule="evenodd" d="M85.9,656.5h1.5V611.3H85.9v45.2Z" class="g0_37"/>
<path fill-rule="evenodd" d="M340.5,656.5H342V611.3h-1.5v45.2Z" class="g0_37"/>
<path fill-rule="evenodd" d="M843.3,656.5h1.5V611.3h-1.5v45.2Z" class="g0_37"/>
<path fill-rule="evenodd" d="M85.9,658h1.5v-1.5H85.9V658Z" class="g0_37"/>
<path fill-rule="evenodd" d="M87.4,658H340.5v-1.5H87.4V658Z" class="g0_37"/>
<path fill-rule="evenodd" d="M340.5,658H342v-1.5h-1.5V658Z" class="g0_37"/>
<path fill-rule="evenodd" d="M342,658H843.3v-1.5H342V658Z" class="g0_37"/>
<path fill-rule="evenodd" d="M843.3,658h1.5v-1.5h-1.5V658Z" class="g0_37"/>
<path fill-rule="evenodd" d="M85.9,703.2h1.5V658H85.9v45.2Z" class="g0_37"/>
<path fill-rule="evenodd" d="M340.5,703.2H342V658h-1.5v45.2Z" class="g0_37"/>
<path fill-rule="evenodd" d="M843.3,703.2h1.5V658h-1.5v45.2Z" class="g0_37"/>
<path fill-rule="evenodd" d="M87.7,730.4H843.6V704.8H87.7v25.6Z" class="g1_37"/>
<path fill-rule="evenodd" d="M95.4,730.4H836V704.8H95.4v25.6Z" class="g1_37"/>
<path fill-rule="evenodd" d="M85.9,704.8h1.5v-1.6H85.9v1.6Z" class="g0_37"/>
<path fill-rule="evenodd" d="M87.4,704.8H340.5v-1.6H87.4v1.6Z" class="g0_37"/>
<path fill-rule="evenodd" d="M340.5,704.8H342v-1.6h-1.5v1.6Z" class="g0_37"/>
<path fill-rule="evenodd" d="M342,704.8H843.3v-1.6H342v1.6Z" class="g0_37"/>
<path fill-rule="evenodd" d="M843.3,704.8h1.5v-1.6h-1.5v1.6Z" class="g0_37"/>
<path fill-rule="evenodd" d="M85.9,730.4h1.5V704.8H85.9v25.6Z" class="g0_37"/>
<path fill-rule="evenodd" d="M843.3,730.4h1.5V704.8h-1.5v25.6Z" class="g0_37"/>
<path fill-rule="evenodd" d="M85.9,732h1.5v-1.6H85.9V732Z" class="g0_37"/>
<path fill-rule="evenodd" d="M87.4,732H340.5v-1.6H87.4V732Z" class="g0_37"/>
<path fill-rule="evenodd" d="M340.5,732H342v-1.6h-1.5V732Z" class="g0_37"/>
<path fill-rule="evenodd" d="M342,732H843.3v-1.6H342V732Z" class="g0_37"/>
<path fill-rule="evenodd" d="M843.3,732h1.5v-1.6h-1.5V732Z" class="g0_37"/>
<path fill-rule="evenodd" d="M85.9,757.6h1.5V732H85.9v25.6Z" class="g0_37"/>
<path fill-rule="evenodd" d="M340.5,757.6H342V732h-1.5v25.6Z" class="g0_37"/>
<path fill-rule="evenodd" d="M843.3,757.6h1.5V732h-1.5v25.6Z" class="g0_37"/>
<path fill-rule="evenodd" d="M85.9,759.2h1.5v-1.6H85.9v1.6Z" class="g0_37"/>
<path fill-rule="evenodd" d="M87.4,759.2H340.5v-1.6H87.4v1.6Z" class="g0_37"/>
<path fill-rule="evenodd" d="M340.5,759.2H342v-1.6h-1.5v1.6Z" class="g0_37"/>
<path fill-rule="evenodd" d="M342,759.2H843.3v-1.6H342v1.6Z" class="g0_37"/>
<path fill-rule="evenodd" d="M843.3,759.2h1.5v-1.6h-1.5v1.6Z" class="g0_37"/>
<path fill-rule="evenodd" d="M85.9,804.1h1.5V759.2H85.9v44.9Z" class="g0_37"/>
<path fill-rule="evenodd" d="M340.5,804.1H342V759.2h-1.5v44.9Z" class="g0_37"/>
<path fill-rule="evenodd" d="M843.3,804.1h1.5V759.2h-1.5v44.9Z" class="g0_37"/>
<path fill-rule="evenodd" d="M85.9,805.6h1.5v-1.5H85.9v1.5Z" class="g0_37"/>
<path fill-rule="evenodd" d="M87.4,805.6H340.5v-1.5H87.4v1.5Z" class="g0_37"/>
<path fill-rule="evenodd" d="M340.5,805.6H342v-1.5h-1.5v1.5Z" class="g0_37"/>
<path fill-rule="evenodd" d="M342,805.6H843.3v-1.5H342v1.5Z" class="g0_37"/>
<path fill-rule="evenodd" d="M843.3,805.6h1.5v-1.5h-1.5v1.5Z" class="g0_37"/>
<path fill-rule="evenodd" d="M85.9,831.3h1.5V805.6H85.9v25.7Z" class="g0_37"/>
<path fill-rule="evenodd" d="M340.5,831.3H342V805.6h-1.5v25.7Z" class="g0_37"/>
<path fill-rule="evenodd" d="M843.3,831.3h1.5V805.6h-1.5v25.7Z" class="g0_37"/>
<path fill-rule="evenodd" d="M85.9,832.8h1.5v-1.5H85.9v1.5Z" class="g0_37"/>
<path fill-rule="evenodd" d="M87.4,832.8H340.5v-1.5H87.4v1.5Z" class="g0_37"/>
<path fill-rule="evenodd" d="M340.5,832.8H342v-1.5h-1.5v1.5Z" class="g0_37"/>
<path fill-rule="evenodd" d="M342,832.8H843.3v-1.5H342v1.5Z" class="g0_37"/>
<path fill-rule="evenodd" d="M843.3,832.8h1.5v-1.5h-1.5v1.5Z" class="g0_37"/>
<path fill-rule="evenodd" d="M85.9,858.5h1.5V832.8H85.9v25.7Z" class="g0_37"/>
<path fill-rule="evenodd" d="M340.5,858.5H342V832.8h-1.5v25.7Z" class="g0_37"/>
<path fill-rule="evenodd" d="M843.3,858.5h1.5V832.8h-1.5v25.7Z" class="g0_37"/>
<path fill-rule="evenodd" d="M85.9,860h1.5v-1.5H85.9V860Z" class="g0_37"/>
<path fill-rule="evenodd" d="M87.4,860H340.5v-1.5H87.4V860Z" class="g0_37"/>
<path fill-rule="evenodd" d="M340.5,860H342v-1.5h-1.5V860Z" class="g0_37"/>
<path fill-rule="evenodd" d="M342,860H843.3v-1.5H342V860Z" class="g0_37"/>
<path fill-rule="evenodd" d="M843.3,860h1.5v-1.5h-1.5V860Z" class="g0_37"/>
<path fill-rule="evenodd" d="M85.9,885.7h1.5V860H85.9v25.7Z" class="g0_37"/>
<path fill-rule="evenodd" d="M340.5,885.7H342V860h-1.5v25.7Z" class="g0_37"/>
<path fill-rule="evenodd" d="M843.3,885.7h1.5V860h-1.5v25.7Z" class="g0_37"/>
<path fill-rule="evenodd" d="M85.9,887.2h1.5v-1.5H85.9v1.5Z" class="g0_37"/>
<path fill-rule="evenodd" d="M87.4,887.2H340.5v-1.5H87.4v1.5Z" class="g0_37"/>
<path fill-rule="evenodd" d="M340.5,887.2H342v-1.5h-1.5v1.5Z" class="g0_37"/>
<path fill-rule="evenodd" d="M342,887.2H843.3v-1.5H342v1.5Z" class="g0_37"/>
<path fill-rule="evenodd" d="M843.3,887.2h1.5v-1.5h-1.5v1.5Z" class="g0_37"/>
<path fill-rule="evenodd" d="M85.9,912.9h1.5V887.2H85.9v25.7Z" class="g0_37"/>
<path fill-rule="evenodd" d="M340.5,912.9H342V887.2h-1.5v25.7Z" class="g0_37"/>
<path fill-rule="evenodd" d="M843.3,912.9h1.5V887.2h-1.5v25.7Z" class="g0_37"/>
<path fill-rule="evenodd" d="M85.9,914.4h1.5v-1.5H85.9v1.5Z" class="g0_37"/>
<path fill-rule="evenodd" d="M87.4,914.4H340.5v-1.5H87.4v1.5Z" class="g0_37"/>
<path fill-rule="evenodd" d="M340.5,914.4H342v-1.5h-1.5v1.5Z" class="g0_37"/>
<path fill-rule="evenodd" d="M342,914.4H843.3v-1.5H342v1.5Z" class="g0_37"/>
<path fill-rule="evenodd" d="M843.3,914.4h1.5v-1.5h-1.5v1.5Z" class="g0_37"/>
<path fill-rule="evenodd" d="M85.9,959.7h1.5V914.4H85.9v45.3Z" class="g0_37"/>
<path fill-rule="evenodd" d="M85.9,961.2h1.5v-1.5H85.9v1.5Z" class="g0_37"/>
<path fill-rule="evenodd" d="M85.9,961.2h1.5v-1.5H85.9v1.5Z" class="g0_37"/>
<path fill-rule="evenodd" d="M87.4,961.2H340.5v-1.5H87.4v1.5Z" class="g0_37"/>
<path fill-rule="evenodd" d="M340.5,959.7H342V914.4h-1.5v45.3Z" class="g0_37"/>
<path fill-rule="evenodd" d="M340.5,961.2H342v-1.5h-1.5v1.5Z" class="g0_37"/>
<path fill-rule="evenodd" d="M342,961.2H843.3v-1.5H342v1.5Z" class="g0_37"/>
<path fill-rule="evenodd" d="M843.3,959.7h1.5V914.4h-1.5v45.3Z" class="g0_37"/>
<path fill-rule="evenodd" d="M843.3,961.2h1.5v-1.5h-1.5v1.5Z" class="g0_37"/>
<path fill-rule="evenodd" d="M843.3,961.2h1.5v-1.5h-1.5v1.5Z" class="g0_37"/>
<path fill-rule="evenodd" d="M86.5,1044.9h74.9v-1.2H86.5v1.2Z" class="g0_37"/>
</svg>