<?xml version="1.0" encoding="UTF-8" standalone="no"?>
<!DOCTYPE svg PUBLIC "-//W3C//DTD SVG 1.1//EN"
"http://www.w3.org/Graphics/SVG/1.1/DTD/svg11.dtd">
<svg viewBox="0 0 909 1286" version="1.1" xmlns="http://www.w3.org/2000/svg" xmlns:xlink="http://www.w3.org/1999/xlink">
<defs>
<style type="text/css"><![CDATA[
.g0_17{
}
.g1_17{
fill: #F1F1F1;
}
]]></style>
</defs>
<path fill-rule="evenodd" d="M86.5,66H844.8V64.5H86.5V66Z" class="g0_17"/>
<path fill-rule="evenodd" d="M91.1,88h1.5V86.5H91.1V88Z" class="g0_17"/>
<path fill-rule="evenodd" d="M91.1,88h1.5V86.5H91.1V88Z" class="g0_17"/>
<path fill-rule="evenodd" d="M92.6,88H318.2V86.5H92.6V88Z" class="g0_17"/>
<path fill-rule="evenodd" d="M318.2,88h1.5V86.5h-1.5V88Z" class="g0_17"/>
<path fill-rule="evenodd" d="M319.7,88H838.1V86.5H319.7V88Z" class="g0_17"/>
<path fill-rule="evenodd" d="M838.1,88h1.5V86.5h-1.5V88Z" class="g0_17"/>
<path fill-rule="evenodd" d="M838.1,88h1.5V86.5h-1.5V88Z" class="g0_17"/>
<path fill-rule="evenodd" d="M91.1,152.8h1.5V88H91.1v64.8Z" class="g0_17"/>
<path fill-rule="evenodd" d="M318.2,152.8h1.5V88h-1.5v64.8Z" class="g0_17"/>
<path fill-rule="evenodd" d="M838.1,152.8h1.5V88h-1.5v64.8Z" class="g0_17"/>
<path fill-rule="evenodd" d="M91.1,154.4h1.5v-1.6H91.1v1.6Z" class="g0_17"/>
<path fill-rule="evenodd" d="M92.6,154.4H318.2v-1.6H92.6v1.6Z" class="g0_17"/>
<path fill-rule="evenodd" d="M318.2,154.4h1.5v-1.6h-1.5v1.6Z" class="g0_17"/>
<path fill-rule="evenodd" d="M319.7,154.4H838.1v-1.6H319.7v1.6Z" class="g0_17"/>
<path fill-rule="evenodd" d="M838.1,154.4h1.5v-1.6h-1.5v1.6Z" class="g0_17"/>
<path fill-rule="evenodd" d="M91.1,199.6h1.5V154.4H91.1v45.2Z" class="g0_17"/>
<path fill-rule="evenodd" d="M318.2,199.6h1.5V154.4h-1.5v45.2Z" class="g0_17"/>
<path fill-rule="evenodd" d="M838.1,199.6h1.5V154.4h-1.5v45.2Z" class="g0_17"/>
<path fill-rule="evenodd" d="M92.9,226.8H838.4V201.1H92.9v25.7Z" class="g1_17"/>
<path fill-rule="evenodd" d="M96.6,226.8H834.7V201.1H96.6v25.7Z" class="g1_17"/>
<path fill-rule="evenodd" d="M91.1,201.1h1.5v-1.5H91.1v1.5Z" class="g0_17"/>
<path fill-rule="evenodd" d="M92.6,201.1H318.2v-1.5H92.6v1.5Z" class="g0_17"/>
<path fill-rule="evenodd" d="M318.2,201.1h1.5v-1.5h-1.5v1.5Z" class="g0_17"/>
<path fill-rule="evenodd" d="M319.7,201.1H838.1v-1.5H319.7v1.5Z" class="g0_17"/>
<path fill-rule="evenodd" d="M838.1,201.1h1.5v-1.5h-1.5v1.5Z" class="g0_17"/>
<path fill-rule="evenodd" d="M91.1,226.8h1.5V201.1H91.1v25.7Z" class="g0_17"/>
<path fill-rule="evenodd" d="M838.1,226.8h1.5V201.1h-1.5v25.7Z" class="g0_17"/>
<path fill-rule="evenodd" d="M91.1,228.3h1.5v-1.5H91.1v1.5Z" class="g0_17"/>
<path fill-rule="evenodd" d="M92.6,228.3H318.2v-1.5H92.6v1.5Z" class="g0_17"/>
<path fill-rule="evenodd" d="M318.2,228.3h1.5v-1.5h-1.5v1.5Z" class="g0_17"/>
<path fill-rule="evenodd" d="M319.7,228.3H838.1v-1.5H319.7v1.5Z" class="g0_17"/>
<path fill-rule="evenodd" d="M838.1,228.3h1.5v-1.5h-1.5v1.5Z" class="g0_17"/>
<path fill-rule="evenodd" d="M91.1,253.9h1.5V228.3H91.1v25.6Z" class="g0_17"/>
<path fill-rule="evenodd" d="M318.2,253.9h1.5V228.3h-1.5v25.6Z" class="g0_17"/>
<path fill-rule="evenodd" d="M838.1,253.9h1.5V228.3h-1.5v25.6Z" class="g0_17"/>
<path fill-rule="evenodd" d="M91.1,255.5h1.5V254H91.1v1.5Z" class="g0_17"/>
<path fill-rule="evenodd" d="M92.6,255.5H318.2V254H92.6v1.5Z" class="g0_17"/>
<path fill-rule="evenodd" d="M318.2,255.5h1.5V254h-1.5v1.5Z" class="g0_17"/>
<path fill-rule="evenodd" d="M319.7,255.5H838.1V254H319.7v1.5Z" class="g0_17"/>
<path fill-rule="evenodd" d="M838.1,255.5h1.5V254h-1.5v1.5Z" class="g0_17"/>
<path fill-rule="evenodd" d="M91.1,320h1.5V255.5H91.1V320Z" class="g0_17"/>
<path fill-rule="evenodd" d="M318.2,320h1.5V255.5h-1.5V320Z" class="g0_17"/>
<path fill-rule="evenodd" d="M838.1,320h1.5V255.5h-1.5V320Z" class="g0_17"/>
<path fill-rule="evenodd" d="M91.1,321.5h1.5V320H91.1v1.5Z" class="g0_17"/>
<path fill-rule="evenodd" d="M92.6,321.5H318.2V320H92.6v1.5Z" class="g0_17"/>
<path fill-rule="evenodd" d="M318.2,321.5h1.5V320h-1.5v1.5Z" class="g0_17"/>
<path fill-rule="evenodd" d="M319.7,321.5H838.1V320H319.7v1.5Z" class="g0_17"/>
<path fill-rule="evenodd" d="M838.1,321.5h1.5V320h-1.5v1.5Z" class="g0_17"/>
<path fill-rule="evenodd" d="M91.1,366.7h1.5V321.5H91.1v45.2Z" class="g0_17"/>
<path fill-rule="evenodd" d="M318.2,366.7h1.5V321.5h-1.5v45.2Z" class="g0_17"/>
<path fill-rule="evenodd" d="M838.1,366.7h1.5V321.5h-1.5v45.2Z" class="g0_17"/>
<path fill-rule="evenodd" d="M91.1,368.3h1.5v-1.6H91.1v1.6Z" class="g0_17"/>
<path fill-rule="evenodd" d="M92.6,368.3H318.2v-1.6H92.6v1.6Z" class="g0_17"/>
<path fill-rule="evenodd" d="M318.2,368.3h1.5v-1.6h-1.5v1.6Z" class="g0_17"/>
<path fill-rule="evenodd" d="M319.7,368.3H838.1v-1.6H319.7v1.6Z" class="g0_17"/>
<path fill-rule="evenodd" d="M838.1,368.3h1.5v-1.6h-1.5v1.6Z" class="g0_17"/>
<path fill-rule="evenodd" d="M91.1,413.5h1.5V368.3H91.1v45.2Z" class="g0_17"/>
<path fill-rule="evenodd" d="M318.2,413.5h1.5V368.3h-1.5v45.2Z" class="g0_17"/>
<path fill-rule="evenodd" d="M838.1,413.5h1.5V368.3h-1.5v45.2Z" class="g0_17"/>
<path fill-rule="evenodd" d="M91.1,415h1.5v-1.5H91.1V415Z" class="g0_17"/>
<path fill-rule="evenodd" d="M92.6,415H318.2v-1.5H92.6V415Z" class="g0_17"/>
<path fill-rule="evenodd" d="M318.2,415h1.5v-1.5h-1.5V415Z" class="g0_17"/>
<path fill-rule="evenodd" d="M319.7,415H838.1v-1.5H319.7V415Z" class="g0_17"/>
<path fill-rule="evenodd" d="M838.1,415h1.5v-1.5h-1.5V415Z" class="g0_17"/>
<path fill-rule="evenodd" d="M91.1,460h1.5V415H91.1v45Z" class="g0_17"/>
<path fill-rule="evenodd" d="M318.2,460h1.5V415h-1.5v45Z" class="g0_17"/>
<path fill-rule="evenodd" d="M838.1,460h1.5V415h-1.5v45Z" class="g0_17"/>
<path fill-rule="evenodd" d="M91.1,461.5h1.5V460H91.1v1.5Z" class="g0_17"/>
<path fill-rule="evenodd" d="M92.6,461.5H318.2V460H92.6v1.5Z" class="g0_17"/>
<path fill-rule="evenodd" d="M318.2,461.5h1.5V460h-1.5v1.5Z" class="g0_17"/>
<path fill-rule="evenodd" d="M319.7,461.5H838.1V460H319.7v1.5Z" class="g0_17"/>
<path fill-rule="evenodd" d="M838.1,461.5h1.5V460h-1.5v1.5Z" class="g0_17"/>
<path fill-rule="evenodd" d="M91.1,506.7h1.5V461.5H91.1v45.2Z" class="g0_17"/>
<path fill-rule="evenodd" d="M318.2,506.7h1.5V461.5h-1.5v45.2Z" class="g0_17"/>
<path fill-rule="evenodd" d="M838.1,506.7h1.5V461.5h-1.5v45.2Z" class="g0_17"/>
<path fill-rule="evenodd" d="M91.1,508.3h1.5v-1.6H91.1v1.6Z" class="g0_17"/>
<path fill-rule="evenodd" d="M92.6,508.3H318.2v-1.6H92.6v1.6Z" class="g0_17"/>
<path fill-rule="evenodd" d="M318.2,508.3h1.5v-1.6h-1.5v1.6Z" class="g0_17"/>
<path fill-rule="evenodd" d="M319.7,508.3H838.1v-1.6H319.7v1.6Z" class="g0_17"/>
<path fill-rule="evenodd" d="M838.1,508.3h1.5v-1.6h-1.5v1.6Z" class="g0_17"/>
<path fill-rule="evenodd" d="M91.1,553.5h1.5V508.3H91.1v45.2Z" class="g0_17"/>
<path fill-rule="evenodd" d="M318.2,553.5h1.5V508.3h-1.5v45.2Z" class="g0_17"/>
<path fill-rule="evenodd" d="M838.1,553.5h1.5V508.3h-1.5v45.2Z" class="g0_17"/>
<path fill-rule="evenodd" d="M91.1,555h1.5v-1.5H91.1V555Z" class="g0_17"/>
<path fill-rule="evenodd" d="M92.6,555H318.2v-1.5H92.6V555Z" class="g0_17"/>
<path fill-rule="evenodd" d="M318.2,555h1.5v-1.5h-1.5V555Z" class="g0_17"/>
<path fill-rule="evenodd" d="M319.7,555H838.1v-1.5H319.7V555Z" class="g0_17"/>
<path fill-rule="evenodd" d="M838.1,555h1.5v-1.5h-1.5V555Z" class="g0_17"/>
<path fill-rule="evenodd" d="M91.1,599.9h1.5V555H91.1v44.9Z" class="g0_17"/>
<path fill-rule="evenodd" d="M318.2,599.9h1.5V555h-1.5v44.9Z" class="g0_17"/>
<path fill-rule="evenodd" d="M838.1,599.9h1.5V555h-1.5v44.9Z" class="g0_17"/>
<path fill-rule="evenodd" d="M91.1,601.5h1.5v-1.6H91.1v1.6Z" class="g0_17"/>
<path fill-rule="evenodd" d="M92.6,601.5H318.2v-1.6H92.6v1.6Z" class="g0_17"/>
<path fill-rule="evenodd" d="M318.2,601.5h1.5v-1.6h-1.5v1.6Z" class="g0_17"/>
<path fill-rule="evenodd" d="M319.7,601.5H838.1v-1.6H319.7v1.6Z" class="g0_17"/>
<path fill-rule="evenodd" d="M838.1,601.5h1.5v-1.6h-1.5v1.6Z" class="g0_17"/>
<path fill-rule="evenodd" d="M91.1,646.7h1.5V601.4H91.1v45.3Z" class="g0_17"/>
<path fill-rule="evenodd" d="M318.2,646.7h1.5V601.4h-1.5v45.3Z" class="g0_17"/>
<path fill-rule="evenodd" d="M838.1,646.7h1.5V601.4h-1.5v45.3Z" class="g0_17"/>
<path fill-rule="evenodd" d="M91.1,648.2h1.5v-1.5H91.1v1.5Z" class="g0_17"/>
<path fill-rule="evenodd" d="M92.6,648.2H318.2v-1.5H92.6v1.5Z" class="g0_17"/>
<path fill-rule="evenodd" d="M318.2,648.2h1.5v-1.5h-1.5v1.5Z" class="g0_17"/>
<path fill-rule="evenodd" d="M319.7,648.2H838.1v-1.5H319.7v1.5Z" class="g0_17"/>
<path fill-rule="evenodd" d="M838.1,648.2h1.5v-1.5h-1.5v1.5Z" class="g0_17"/>
<path fill-rule="evenodd" d="M91.1,673.9h1.5V648.2H91.1v25.7Z" class="g0_17"/>
<path fill-rule="evenodd" d="M318.2,673.9h1.5V648.2h-1.5v25.7Z" class="g0_17"/>
<path fill-rule="evenodd" d="M838.1,673.9h1.5V648.2h-1.5v25.7Z" class="g0_17"/>
<path fill-rule="evenodd" d="M91.1,675.4h1.5v-1.5H91.1v1.5Z" class="g0_17"/>
<path fill-rule="evenodd" d="M92.6,675.4H318.2v-1.5H92.6v1.5Z" class="g0_17"/>
<path fill-rule="evenodd" d="M318.2,675.4h1.5v-1.5h-1.5v1.5Z" class="g0_17"/>
<path fill-rule="evenodd" d="M319.7,675.4H838.1v-1.5H319.7v1.5Z" class="g0_17"/>
<path fill-rule="evenodd" d="M838.1,675.4h1.5v-1.5h-1.5v1.5Z" class="g0_17"/>
<path fill-rule="evenodd" d="M91.1,701.1h1.5V675.4H91.1v25.7Z" class="g0_17"/>
<path fill-rule="evenodd" d="M318.2,701.1h1.5V675.4h-1.5v25.7Z" class="g0_17"/>
<path fill-rule="evenodd" d="M838.1,701.1h1.5V675.4h-1.5v25.7Z" class="g0_17"/>
<path fill-rule="evenodd" d="M92.9,728.3H838.4V702.6H92.9v25.7Z" class="g1_17"/>
<path fill-rule="evenodd" d="M96.6,728.3H834.7V702.6H96.6v25.7Z" class="g1_17"/>
<path fill-rule="evenodd" d="M91.1,702.6h1.5v-1.5H91.1v1.5Z" class="g0_17"/>
<path fill-rule="evenodd" d="M92.6,702.6H318.2v-1.5H92.6v1.5Z" class="g0_17"/>
<path fill-rule="evenodd" d="M318.2,702.6h1.5v-1.5h-1.5v1.5Z" class="g0_17"/>
<path fill-rule="evenodd" d="M319.7,702.6H838.1v-1.5H319.7v1.5Z" class="g0_17"/>
<path fill-rule="evenodd" d="M838.1,702.6h1.5v-1.5h-1.5v1.5Z" class="g0_17"/>
<path fill-rule="evenodd" d="M91.1,728.3h1.5V702.6H91.1v25.7Z" class="g0_17"/>
<path fill-rule="evenodd" d="M838.1,728.3h1.5V702.6h-1.5v25.7Z" class="g0_17"/>
<path fill-rule="evenodd" d="M91.1,729.8h1.5v-1.5H91.1v1.5Z" class="g0_17"/>
<path fill-rule="evenodd" d="M92.6,729.8H318.2v-1.5H92.6v1.5Z" class="g0_17"/>
<path fill-rule="evenodd" d="M318.2,729.8h1.5v-1.5h-1.5v1.5Z" class="g0_17"/>
<path fill-rule="evenodd" d="M319.7,729.8H838.1v-1.5H319.7v1.5Z" class="g0_17"/>
<path fill-rule="evenodd" d="M838.1,729.8h1.5v-1.5h-1.5v1.5Z" class="g0_17"/>
<path fill-rule="evenodd" d="M91.1,755.5h1.5V729.8H91.1v25.7Z" class="g0_17"/>
<path fill-rule="evenodd" d="M318.2,755.5h1.5V729.8h-1.5v25.7Z" class="g0_17"/>
<path fill-rule="evenodd" d="M838.1,755.5h1.5V729.8h-1.5v25.7Z" class="g0_17"/>
<path fill-rule="evenodd" d="M92.9,782.7H838.4V757H92.9v25.7Z" class="g1_17"/>
<path fill-rule="evenodd" d="M96.6,782.7H834.7V757H96.6v25.7Z" class="g1_17"/>
<path fill-rule="evenodd" d="M91.1,757h1.5v-1.5H91.1V757Z" class="g0_17"/>
<path fill-rule="evenodd" d="M92.6,757H318.2v-1.5H92.6V757Z" class="g0_17"/>
<path fill-rule="evenodd" d="M318.2,757h1.5v-1.5h-1.5V757Z" class="g0_17"/>
<path fill-rule="evenodd" d="M319.7,757H838.1v-1.5H319.7V757Z" class="g0_17"/>
<path fill-rule="evenodd" d="M838.1,757h1.5v-1.5h-1.5V757Z" class="g0_17"/>
<path fill-rule="evenodd" d="M91.1,782.7h1.5V757H91.1v25.7Z" class="g0_17"/>
<path fill-rule="evenodd" d="M838.1,782.7h1.5V757h-1.5v25.7Z" class="g0_17"/>
<path fill-rule="evenodd" d="M91.1,784.3h1.5v-1.6H91.1v1.6Z" class="g0_17"/>
<path fill-rule="evenodd" d="M92.6,784.3H318.2v-1.6H92.6v1.6Z" class="g0_17"/>
<path fill-rule="evenodd" d="M318.2,784.3h1.5v-1.6h-1.5v1.6Z" class="g0_17"/>
<path fill-rule="evenodd" d="M319.7,784.3H838.1v-1.6H319.7v1.6Z" class="g0_17"/>
<path fill-rule="evenodd" d="M838.1,784.3h1.5v-1.6h-1.5v1.6Z" class="g0_17"/>
<path fill-rule="evenodd" d="M91.1,809.6h1.5V784.2H91.1v25.4Z" class="g0_17"/>
<path fill-rule="evenodd" d="M318.2,809.6h1.5V784.2h-1.5v25.4Z" class="g0_17"/>
<path fill-rule="evenodd" d="M838.1,809.6h1.5V784.2h-1.5v25.4Z" class="g0_17"/>
<path fill-rule="evenodd" d="M91.1,811.1h1.5v-1.5H91.1v1.5Z" class="g0_17"/>
<path fill-rule="evenodd" d="M92.6,811.1H318.2v-1.5H92.6v1.5Z" class="g0_17"/>
<path fill-rule="evenodd" d="M318.2,811.1h1.5v-1.5h-1.5v1.5Z" class="g0_17"/>
<path fill-rule="evenodd" d="M319.7,811.1H838.1v-1.5H319.7v1.5Z" class="g0_17"/>
<path fill-rule="evenodd" d="M838.1,811.1h1.5v-1.5h-1.5v1.5Z" class="g0_17"/>
<path fill-rule="evenodd" d="M91.1,856.4h1.5V811.1H91.1v45.3Z" class="g0_17"/>
<path fill-rule="evenodd" d="M318.2,856.4h1.5V811.1h-1.5v45.3Z" class="g0_17"/>
<path fill-rule="evenodd" d="M838.1,856.4h1.5V811.1h-1.5v45.3Z" class="g0_17"/>
<path fill-rule="evenodd" d="M91.1,857.9h1.5v-1.5H91.1v1.5Z" class="g0_17"/>
<path fill-rule="evenodd" d="M92.6,857.9H318.2v-1.5H92.6v1.5Z" class="g0_17"/>
<path fill-rule="evenodd" d="M318.2,857.9h1.5v-1.5h-1.5v1.5Z" class="g0_17"/>
<path fill-rule="evenodd" d="M319.7,857.9H838.1v-1.5H319.7v1.5Z" class="g0_17"/>
<path fill-rule="evenodd" d="M838.1,857.9h1.5v-1.5h-1.5v1.5Z" class="g0_17"/>
<path fill-rule="evenodd" d="M91.1,903.1h1.5V857.9H91.1v45.2Z" class="g0_17"/>
<path fill-rule="evenodd" d="M318.2,903.1h1.5V857.9h-1.5v45.2Z" class="g0_17"/>
<path fill-rule="evenodd" d="M838.1,903.1h1.5V857.9h-1.5v45.2Z" class="g0_17"/>
<path fill-rule="evenodd" d="M91.1,904.6h1.5v-1.5H91.1v1.5Z" class="g0_17"/>
<path fill-rule="evenodd" d="M92.6,904.6H318.2v-1.5H92.6v1.5Z" class="g0_17"/>
<path fill-rule="evenodd" d="M318.2,904.6h1.5v-1.5h-1.5v1.5Z" class="g0_17"/>
<path fill-rule="evenodd" d="M319.7,904.6H838.1v-1.5H319.7v1.5Z" class="g0_17"/>
<path fill-rule="evenodd" d="M838.1,904.6h1.5v-1.5h-1.5v1.5Z" class="g0_17"/>
<path fill-rule="evenodd" d="M91.1,949.9h1.5V904.6H91.1v45.3Z" class="g0_17"/>
<path fill-rule="evenodd" d="M91.1,951.4h1.5v-1.5H91.1v1.5Z" class="g0_17"/>
<path fill-rule="evenodd" d="M91.1,951.4h1.5v-1.5H91.1v1.5Z" class="g0_17"/>
<path fill-rule="evenodd" d="M92.6,951.4H318.2v-1.5H92.6v1.5Z" class="g0_17"/>
<path fill-rule="evenodd" d="M318.2,949.9h1.5V904.6h-1.5v45.3Z" class="g0_17"/>
<path fill-rule="evenodd" d="M318.2,951.4h1.5v-1.5h-1.5v1.5Z" class="g0_17"/>
<path fill-rule="evenodd" d="M319.7,951.4H838.1v-1.5H319.7v1.5Z" class="g0_17"/>
<path fill-rule="evenodd" d="M838.1,949.9h1.5V904.6h-1.5v45.3Z" class="g0_17"/>
<path fill-rule="evenodd" d="M838.1,951.4h1.5v-1.5h-1.5v1.5Z" class="g0_17"/>
<path fill-rule="evenodd" d="M838.1,951.4h1.5v-1.5h-1.5v1.5Z" class="g0_17"/>
</svg>