<?xml version="1.0" encoding="UTF-8" standalone="no"?>
<!DOCTYPE svg PUBLIC "-//W3C//DTD SVG 1.1//EN"
"http://www.w3.org/Graphics/SVG/1.1/DTD/svg11.dtd">
<svg viewBox="0 0 909 1286" version="1.1" xmlns="http://www.w3.org/2000/svg" xmlns:xlink="http://www.w3.org/1999/xlink">
<defs>
<clipPath id="c0_45"><path d="M86.6,445.9V86.6H844.5V445.9Z"/></clipPath>
<style type="text/css"><![CDATA[
.g0_45{
}
.g1_45{
fill: #F1F1F1;
}
]]></style>
</defs>
<path fill-rule="evenodd" d="M86.5,66H844.8V64.5H86.5V66Z" class="g0_45"/>
<path fill-rule="evenodd" d="M86.5,542.2h74.9V541H86.5v1.2Z" class="g0_45"/>
<path fill-rule="evenodd" d="M87.7,648.8H843.6V623.2H87.7v25.6Z" class="g1_45"/>
<path fill-rule="evenodd" d="M95.4,648.8H836V623.2H95.4v25.6Z" class="g1_45"/>
<path fill-rule="evenodd" d="M85.9,623.2h1.5v-1.5H85.9v1.5Z" class="g0_45"/>
<path fill-rule="evenodd" d="M85.9,623.2h1.5v-1.5H85.9v1.5Z" class="g0_45"/>
<path fill-rule="evenodd" d="M87.4,623.2H843.3v-1.5H87.4v1.5Z" class="g0_45"/>
<path fill-rule="evenodd" d="M843.3,623.2h1.5v-1.5h-1.5v1.5Z" class="g0_45"/>
<path fill-rule="evenodd" d="M843.3,623.2h1.5v-1.5h-1.5v1.5Z" class="g0_45"/>
<path fill-rule="evenodd" d="M85.9,648.8h1.5V623.2H85.9v25.6Z" class="g0_45"/>
<path fill-rule="evenodd" d="M843.3,648.8h1.5V623.2h-1.5v25.6Z" class="g0_45"/>
<path fill-rule="evenodd" d="M85.9,650.4h1.5v-1.6H85.9v1.6Z" class="g0_45"/>
<path fill-rule="evenodd" d="M87.4,650.4H313v-1.6H87.4v1.6Z" class="g0_45"/>
<path fill-rule="evenodd" d="M313,650.4h1.5v-1.6H313v1.6Z" class="g0_45"/>
<path fill-rule="evenodd" d="M314.5,650.4H843.3v-1.6H314.5v1.6Z" class="g0_45"/>
<path fill-rule="evenodd" d="M843.3,650.4h1.5v-1.6h-1.5v1.6Z" class="g0_45"/>
<path fill-rule="evenodd" d="M85.9,675.7h1.5V650.4H85.9v25.3Z" class="g0_45"/>
<path fill-rule="evenodd" d="M313,675.7h1.5V650.4H313v25.3Z" class="g0_45"/>
<path fill-rule="evenodd" d="M843.3,675.7h1.5V650.4h-1.5v25.3Z" class="g0_45"/>
<path fill-rule="evenodd" d="M85.9,677.3h1.5v-1.6H85.9v1.6Z" class="g0_45"/>
<path fill-rule="evenodd" d="M87.4,677.3H313v-1.6H87.4v1.6Z" class="g0_45"/>
<path fill-rule="evenodd" d="M313,677.3h1.5v-1.6H313v1.6Z" class="g0_45"/>
<path fill-rule="evenodd" d="M314.5,677.3H843.3v-1.6H314.5v1.6Z" class="g0_45"/>
<path fill-rule="evenodd" d="M843.3,677.3h1.5v-1.6h-1.5v1.6Z" class="g0_45"/>
<path fill-rule="evenodd" d="M85.9,722.5h1.5V677.3H85.9v45.2Z" class="g0_45"/>
<path fill-rule="evenodd" d="M313,722.5h1.5V677.3H313v45.2Z" class="g0_45"/>
<path fill-rule="evenodd" d="M843.3,722.5h1.5V677.3h-1.5v45.2Z" class="g0_45"/>
<path fill-rule="evenodd" d="M85.9,724h1.5v-1.5H85.9V724Z" class="g0_45"/>
<path fill-rule="evenodd" d="M87.4,724H313v-1.5H87.4V724Z" class="g0_45"/>
<path fill-rule="evenodd" d="M313,724h1.5v-1.5H313V724Z" class="g0_45"/>
<path fill-rule="evenodd" d="M314.5,724H843.3v-1.5H314.5V724Z" class="g0_45"/>
<path fill-rule="evenodd" d="M843.3,724h1.5v-1.5h-1.5V724Z" class="g0_45"/>
<path fill-rule="evenodd" d="M85.9,749.7h1.5V724H85.9v25.7Z" class="g0_45"/>
<path fill-rule="evenodd" d="M313,749.7h1.5V724H313v25.7Z" class="g0_45"/>
<path fill-rule="evenodd" d="M843.3,749.7h1.5V724h-1.5v25.7Z" class="g0_45"/>
<path fill-rule="evenodd" d="M87.7,776.9H843.6V751.2H87.7v25.7Z" class="g1_45"/>
<path fill-rule="evenodd" d="M95.4,776.9H836V751.2H95.4v25.7Z" class="g1_45"/>
<path fill-rule="evenodd" d="M85.9,751.2h1.5v-1.5H85.9v1.5Z" class="g0_45"/>
<path fill-rule="evenodd" d="M87.4,751.2H313v-1.5H87.4v1.5Z" class="g0_45"/>
<path fill-rule="evenodd" d="M313,751.2h1.5v-1.5H313v1.5Z" class="g0_45"/>
<path fill-rule="evenodd" d="M314.5,751.2H843.3v-1.5H314.5v1.5Z" class="g0_45"/>
<path fill-rule="evenodd" d="M843.3,751.2h1.5v-1.5h-1.5v1.5Z" class="g0_45"/>
<path fill-rule="evenodd" d="M85.9,776.9h1.5V751.2H85.9v25.7Z" class="g0_45"/>
<path fill-rule="evenodd" d="M843.3,776.9h1.5V751.2h-1.5v25.7Z" class="g0_45"/>
<path fill-rule="evenodd" d="M85.9,778.4h1.5v-1.5H85.9v1.5Z" class="g0_45"/>
<path fill-rule="evenodd" d="M87.4,778.4H313v-1.5H87.4v1.5Z" class="g0_45"/>
<path fill-rule="evenodd" d="M313,778.4h1.5v-1.5H313v1.5Z" class="g0_45"/>
<path fill-rule="evenodd" d="M314.5,778.4H843.3v-1.5H314.5v1.5Z" class="g0_45"/>
<path fill-rule="evenodd" d="M843.3,778.4h1.5v-1.5h-1.5v1.5Z" class="g0_45"/>
<path fill-rule="evenodd" d="M85.9,804.1h1.5V778.4H85.9v25.7Z" class="g0_45"/>
<path fill-rule="evenodd" d="M313,804.1h1.5V778.4H313v25.7Z" class="g0_45"/>
<path fill-rule="evenodd" d="M843.3,804.1h1.5V778.4h-1.5v25.7Z" class="g0_45"/>
<path fill-rule="evenodd" d="M87.7,831.3H843.6V805.6H87.7v25.7Z" class="g1_45"/>
<path fill-rule="evenodd" d="M95.4,831.3H836V805.6H95.4v25.7Z" class="g1_45"/>
<path fill-rule="evenodd" d="M85.9,805.6h1.5v-1.5H85.9v1.5Z" class="g0_45"/>
<path fill-rule="evenodd" d="M87.4,805.6H313v-1.5H87.4v1.5Z" class="g0_45"/>
<path fill-rule="evenodd" d="M313,805.6h1.5v-1.5H313v1.5Z" class="g0_45"/>
<path fill-rule="evenodd" d="M314.5,805.6H843.3v-1.5H314.5v1.5Z" class="g0_45"/>
<path fill-rule="evenodd" d="M843.3,805.6h1.5v-1.5h-1.5v1.5Z" class="g0_45"/>
<path fill-rule="evenodd" d="M85.9,831.3h1.5V805.6H85.9v25.7Z" class="g0_45"/>
<path fill-rule="evenodd" d="M843.3,831.3h1.5V805.6h-1.5v25.7Z" class="g0_45"/>
<path fill-rule="evenodd" d="M85.9,832.8h1.5v-1.5H85.9v1.5Z" class="g0_45"/>
<path fill-rule="evenodd" d="M87.4,832.8H313v-1.5H87.4v1.5Z" class="g0_45"/>
<path fill-rule="evenodd" d="M313,832.8h1.5v-1.5H313v1.5Z" class="g0_45"/>
<path fill-rule="evenodd" d="M314.5,832.8H843.3v-1.5H314.5v1.5Z" class="g0_45"/>
<path fill-rule="evenodd" d="M843.3,832.8h1.5v-1.5h-1.5v1.5Z" class="g0_45"/>
<path fill-rule="evenodd" d="M85.9,858.2h1.5V832.8H85.9v25.4Z" class="g0_45"/>
<path fill-rule="evenodd" d="M313,858.2h1.5V832.8H313v25.4Z" class="g0_45"/>
<path fill-rule="evenodd" d="M843.3,858.2h1.5V832.8h-1.5v25.4Z" class="g0_45"/>
<path fill-rule="evenodd" d="M85.9,859.7h1.5v-1.5H85.9v1.5Z" class="g0_45"/>
<path fill-rule="evenodd" d="M87.4,859.7H313v-1.5H87.4v1.5Z" class="g0_45"/>
<path fill-rule="evenodd" d="M313,859.7h1.5v-1.5H313v1.5Z" class="g0_45"/>
<path fill-rule="evenodd" d="M314.5,859.7H843.3v-1.5H314.5v1.5Z" class="g0_45"/>
<path fill-rule="evenodd" d="M843.3,859.7h1.5v-1.5h-1.5v1.5Z" class="g0_45"/>
<path fill-rule="evenodd" d="M85.9,885.4h1.5V859.7H85.9v25.7Z" class="g0_45"/>
<path fill-rule="evenodd" d="M313,885.4h1.5V859.7H313v25.7Z" class="g0_45"/>
<path fill-rule="evenodd" d="M843.3,885.4h1.5V859.7h-1.5v25.7Z" class="g0_45"/>
<path fill-rule="evenodd" d="M85.9,886.9h1.5v-1.5H85.9v1.5Z" class="g0_45"/>
<path fill-rule="evenodd" d="M87.4,886.9H313v-1.5H87.4v1.5Z" class="g0_45"/>
<path fill-rule="evenodd" d="M313,886.9h1.5v-1.5H313v1.5Z" class="g0_45"/>
<path fill-rule="evenodd" d="M314.5,886.9H843.3v-1.5H314.5v1.5Z" class="g0_45"/>
<path fill-rule="evenodd" d="M843.3,886.9h1.5v-1.5h-1.5v1.5Z" class="g0_45"/>
<path fill-rule="evenodd" d="M85.9,912.6h1.5V886.9H85.9v25.7Z" class="g0_45"/>
<path fill-rule="evenodd" d="M313,912.6h1.5V886.9H313v25.7Z" class="g0_45"/>
<path fill-rule="evenodd" d="M843.3,912.6h1.5V886.9h-1.5v25.7Z" class="g0_45"/>
<path fill-rule="evenodd" d="M85.9,914.1h1.5v-1.5H85.9v1.5Z" class="g0_45"/>
<path fill-rule="evenodd" d="M87.4,914.1H313v-1.5H87.4v1.5Z" class="g0_45"/>
<path fill-rule="evenodd" d="M313,914.1h1.5v-1.5H313v1.5Z" class="g0_45"/>
<path fill-rule="evenodd" d="M314.5,914.1H843.3v-1.5H314.5v1.5Z" class="g0_45"/>
<path fill-rule="evenodd" d="M843.3,914.1h1.5v-1.5h-1.5v1.5Z" class="g0_45"/>
<path fill-rule="evenodd" d="M85.9,939.8h1.5V914.1H85.9v25.7Z" class="g0_45"/>
<path fill-rule="evenodd" d="M313,939.8h1.5V914.1H313v25.7Z" class="g0_45"/>
<path fill-rule="evenodd" d="M843.3,939.8h1.5V914.1h-1.5v25.7Z" class="g0_45"/>
<path fill-rule="evenodd" d="M85.9,941.3h1.5v-1.5H85.9v1.5Z" class="g0_45"/>
<path fill-rule="evenodd" d="M87.4,941.3H313v-1.5H87.4v1.5Z" class="g0_45"/>
<path fill-rule="evenodd" d="M313,941.3h1.5v-1.5H313v1.5Z" class="g0_45"/>
<path fill-rule="evenodd" d="M314.5,941.3H843.3v-1.5H314.5v1.5Z" class="g0_45"/>
<path fill-rule="evenodd" d="M843.3,941.3h1.5v-1.5h-1.5v1.5Z" class="g0_45"/>
<path fill-rule="evenodd" d="M85.9,967h1.5V941.3H85.9V967Z" class="g0_45"/>
<path fill-rule="evenodd" d="M85.9,968.5h1.5V967H85.9v1.5Z" class="g0_45"/>
<path fill-rule="evenodd" d="M85.9,968.5h1.5V967H85.9v1.5Z" class="g0_45"/>
<path fill-rule="evenodd" d="M87.4,968.5H313V967H87.4v1.5Z" class="g0_45"/>
<path fill-rule="evenodd" d="M313,967h1.5V941.3H313V967Z" class="g0_45"/>
<path fill-rule="evenodd" d="M313,968.5h1.5V967H313v1.5Z" class="g0_45"/>
<path fill-rule="evenodd" d="M314.5,968.5H843.3V967H314.5v1.5Z" class="g0_45"/>
<path fill-rule="evenodd" d="M843.3,967h1.5V941.3h-1.5V967Z" class="g0_45"/>
<path fill-rule="evenodd" d="M843.3,968.5h1.5V967h-1.5v1.5Z" class="g0_45"/>
<path fill-rule="evenodd" d="M843.3,968.5h1.5V967h-1.5v1.5Z" class="g0_45"/>
<image clip-path="url(#c0_45)" preserveAspectRatio="none" x="87" y="87" width="757" height="359" xlink:href="img/1.jpg"/>
</svg>