<?xml version="1.0" encoding="UTF-8" standalone="no"?>
<!DOCTYPE svg PUBLIC "-//W3C//DTD SVG 1.1//EN"
"http://www.w3.org/Graphics/SVG/1.1/DTD/svg11.dtd">
<svg viewBox="0 0 909 1286" version="1.1" xmlns="http://www.w3.org/2000/svg" xmlns:xlink="http://www.w3.org/1999/xlink">
<defs>
<style type="text/css"><![CDATA[
.g0_38{
}
.g1_38{
fill: #F1F1F1;
}
]]></style>
</defs>
<path fill-rule="evenodd" d="M65.1,66H823.4V64.5H65.1V66Z" class="g0_38"/>
<path fill-rule="evenodd" d="M65.1,105.4h70.3v-1.2H65.1v1.2Z" class="g0_38"/>
<path fill-rule="evenodd" d="M57.4,202.9H830.8V177.3H57.4v25.6Z" class="g1_38"/>
<path fill-rule="evenodd" d="M65.1,202.9h758V177.3H65.1v25.6Z" class="g1_38"/>
<path fill-rule="evenodd" d="M55.9,177.3h1.5v-1.6H55.9v1.6Z" class="g0_38"/>
<path fill-rule="evenodd" d="M55.9,177.3h1.5v-1.6H55.9v1.6Z" class="g0_38"/>
<path fill-rule="evenodd" d="M57.4,177.3H830.5v-1.6H57.4v1.6Z" class="g0_38"/>
<path fill-rule="evenodd" d="M830.5,177.3H832v-1.6h-1.5v1.6Z" class="g0_38"/>
<path fill-rule="evenodd" d="M830.5,177.3H832v-1.6h-1.5v1.6Z" class="g0_38"/>
<path fill-rule="evenodd" d="M55.9,202.9h1.5V177.3H55.9v25.6Z" class="g0_38"/>
<path fill-rule="evenodd" d="M830.5,202.9H832V177.3h-1.5v25.6Z" class="g0_38"/>
<path fill-rule="evenodd" d="M55.9,204.5h1.5v-1.6H55.9v1.6Z" class="g0_38"/>
<path fill-rule="evenodd" d="M57.4,204.5H316.7v-1.6H57.4v1.6Z" class="g0_38"/>
<path fill-rule="evenodd" d="M316.7,204.5h1.5v-1.6h-1.5v1.6Z" class="g0_38"/>
<path fill-rule="evenodd" d="M318.2,204.5H830.5v-1.6H318.2v1.6Z" class="g0_38"/>
<path fill-rule="evenodd" d="M830.5,204.5H832v-1.6h-1.5v1.6Z" class="g0_38"/>
<path fill-rule="evenodd" d="M55.9,230.1h1.5V204.5H55.9v25.6Z" class="g0_38"/>
<path fill-rule="evenodd" d="M316.7,230.1h1.5V204.5h-1.5v25.6Z" class="g0_38"/>
<path fill-rule="evenodd" d="M830.5,230.1H832V204.5h-1.5v25.6Z" class="g0_38"/>
<path fill-rule="evenodd" d="M55.9,231.7h1.5v-1.6H55.9v1.6Z" class="g0_38"/>
<path fill-rule="evenodd" d="M57.4,231.7H316.7v-1.6H57.4v1.6Z" class="g0_38"/>
<path fill-rule="evenodd" d="M316.7,231.7h1.5v-1.6h-1.5v1.6Z" class="g0_38"/>
<path fill-rule="evenodd" d="M318.2,231.7H830.5v-1.6H318.2v1.6Z" class="g0_38"/>
<path fill-rule="evenodd" d="M830.5,231.7H832v-1.6h-1.5v1.6Z" class="g0_38"/>
<path fill-rule="evenodd" d="M55.9,257.3h1.5V231.6H55.9v25.7Z" class="g0_38"/>
<path fill-rule="evenodd" d="M316.7,257.3h1.5V231.6h-1.5v25.7Z" class="g0_38"/>
<path fill-rule="evenodd" d="M830.5,257.3H832V231.6h-1.5v25.7Z" class="g0_38"/>
<path fill-rule="evenodd" d="M55.9,258.9h1.5v-1.6H55.9v1.6Z" class="g0_38"/>
<path fill-rule="evenodd" d="M57.4,258.9H316.7v-1.6H57.4v1.6Z" class="g0_38"/>
<path fill-rule="evenodd" d="M316.7,258.9h1.5v-1.6h-1.5v1.6Z" class="g0_38"/>
<path fill-rule="evenodd" d="M318.2,258.9H830.5v-1.6H318.2v1.6Z" class="g0_38"/>
<path fill-rule="evenodd" d="M830.5,258.9H832v-1.6h-1.5v1.6Z" class="g0_38"/>
<path fill-rule="evenodd" d="M55.9,284.2h1.5V258.9H55.9v25.3Z" class="g0_38"/>
<path fill-rule="evenodd" d="M316.7,284.2h1.5V258.9h-1.5v25.3Z" class="g0_38"/>
<path fill-rule="evenodd" d="M830.5,284.2H832V258.9h-1.5v25.3Z" class="g0_38"/>
<path fill-rule="evenodd" d="M55.9,285.8h1.5v-1.6H55.9v1.6Z" class="g0_38"/>
<path fill-rule="evenodd" d="M57.4,285.8H316.7v-1.6H57.4v1.6Z" class="g0_38"/>
<path fill-rule="evenodd" d="M316.7,285.8h1.5v-1.6h-1.5v1.6Z" class="g0_38"/>
<path fill-rule="evenodd" d="M318.2,285.8H830.5v-1.6H318.2v1.6Z" class="g0_38"/>
<path fill-rule="evenodd" d="M830.5,285.8H832v-1.6h-1.5v1.6Z" class="g0_38"/>
<path fill-rule="evenodd" d="M55.9,311.4h1.5V285.8H55.9v25.6Z" class="g0_38"/>
<path fill-rule="evenodd" d="M316.7,311.4h1.5V285.8h-1.5v25.6Z" class="g0_38"/>
<path fill-rule="evenodd" d="M830.5,311.4H832V285.8h-1.5v25.6Z" class="g0_38"/>
<path fill-rule="evenodd" d="M55.9,313h1.5v-1.6H55.9V313Z" class="g0_38"/>
<path fill-rule="evenodd" d="M57.4,313H316.7v-1.6H57.4V313Z" class="g0_38"/>
<path fill-rule="evenodd" d="M316.7,313h1.5v-1.6h-1.5V313Z" class="g0_38"/>
<path fill-rule="evenodd" d="M318.2,313H830.5v-1.6H318.2V313Z" class="g0_38"/>
<path fill-rule="evenodd" d="M830.5,313H832v-1.6h-1.5V313Z" class="g0_38"/>
<path fill-rule="evenodd" d="M55.9,358.2h1.5V313H55.9v45.2Z" class="g0_38"/>
<path fill-rule="evenodd" d="M316.7,358.2h1.5V313h-1.5v45.2Z" class="g0_38"/>
<path fill-rule="evenodd" d="M830.5,358.2H832V313h-1.5v45.2Z" class="g0_38"/>
<path fill-rule="evenodd" d="M57.4,385.4H830.8V359.7H57.4v25.7Z" class="g1_38"/>
<path fill-rule="evenodd" d="M65.1,385.4h758V359.7H65.1v25.7Z" class="g1_38"/>
<path fill-rule="evenodd" d="M55.9,359.7h1.5v-1.5H55.9v1.5Z" class="g0_38"/>
<path fill-rule="evenodd" d="M57.4,359.7H316.7v-1.5H57.4v1.5Z" class="g0_38"/>
<path fill-rule="evenodd" d="M316.7,359.7h1.5v-1.5h-1.5v1.5Z" class="g0_38"/>
<path fill-rule="evenodd" d="M318.2,359.7H830.5v-1.5H318.2v1.5Z" class="g0_38"/>
<path fill-rule="evenodd" d="M830.5,359.7H832v-1.5h-1.5v1.5Z" class="g0_38"/>
<path fill-rule="evenodd" d="M55.9,385.4h1.5V359.7H55.9v25.7Z" class="g0_38"/>
<path fill-rule="evenodd" d="M830.5,385.4H832V359.7h-1.5v25.7Z" class="g0_38"/>
<path fill-rule="evenodd" d="M55.9,386.9h1.5v-1.5H55.9v1.5Z" class="g0_38"/>
<path fill-rule="evenodd" d="M57.4,386.9H316.7v-1.5H57.4v1.5Z" class="g0_38"/>
<path fill-rule="evenodd" d="M316.7,386.9h1.5v-1.5h-1.5v1.5Z" class="g0_38"/>
<path fill-rule="evenodd" d="M318.2,386.9H830.5v-1.5H318.2v1.5Z" class="g0_38"/>
<path fill-rule="evenodd" d="M830.5,386.9H832v-1.5h-1.5v1.5Z" class="g0_38"/>
<path fill-rule="evenodd" d="M55.9,412.6h1.5V386.9H55.9v25.7Z" class="g0_38"/>
<path fill-rule="evenodd" d="M316.7,412.6h1.5V386.9h-1.5v25.7Z" class="g0_38"/>
<path fill-rule="evenodd" d="M830.5,412.6H832V386.9h-1.5v25.7Z" class="g0_38"/>
<path fill-rule="evenodd" d="M55.9,414.1h1.5v-1.5H55.9v1.5Z" class="g0_38"/>
<path fill-rule="evenodd" d="M57.4,414.1H316.7v-1.5H57.4v1.5Z" class="g0_38"/>
<path fill-rule="evenodd" d="M316.7,414.1h1.5v-1.5h-1.5v1.5Z" class="g0_38"/>
<path fill-rule="evenodd" d="M318.2,414.1H830.5v-1.5H318.2v1.5Z" class="g0_38"/>
<path fill-rule="evenodd" d="M830.5,414.1H832v-1.5h-1.5v1.5Z" class="g0_38"/>
<path fill-rule="evenodd" d="M55.9,439.8h1.5V414.1H55.9v25.7Z" class="g0_38"/>
<path fill-rule="evenodd" d="M55.9,441.3h1.5v-1.5H55.9v1.5Z" class="g0_38"/>
<path fill-rule="evenodd" d="M55.9,441.3h1.5v-1.5H55.9v1.5Z" class="g0_38"/>
<path fill-rule="evenodd" d="M57.4,441.3H316.7v-1.5H57.4v1.5Z" class="g0_38"/>
<path fill-rule="evenodd" d="M316.7,439.8h1.5V414.1h-1.5v25.7Z" class="g0_38"/>
<path fill-rule="evenodd" d="M316.7,441.3h1.5v-1.5h-1.5v1.5Z" class="g0_38"/>
<path fill-rule="evenodd" d="M318.2,441.3H830.5v-1.5H318.2v1.5Z" class="g0_38"/>
<path fill-rule="evenodd" d="M830.5,439.8H832V414.1h-1.5v25.7Z" class="g0_38"/>
<path fill-rule="evenodd" d="M830.5,441.3H832v-1.5h-1.5v1.5Z" class="g0_38"/>
<path fill-rule="evenodd" d="M830.5,441.3H832v-1.5h-1.5v1.5Z" class="g0_38"/>
<path fill-rule="evenodd" d="M65.1,525.1H140v-1.3H65.1v1.3Z" class="g0_38"/>
<path fill-rule="evenodd" d="M65.1,587.7h70v-1.2h-70v1.2Z" class="g0_38"/>
<path fill-rule="evenodd" d="M65.1,719.7h144v-1.2H65.1v1.2Z" class="g0_38"/>
<path fill-rule="evenodd" d="M66.3,790.4H821.9V764.7H66.3v25.7Z" class="g1_38"/>
<path fill-rule="evenodd" d="M73.7,790.4H814.6V764.7H73.7v25.7Z" class="g1_38"/>
<path fill-rule="evenodd" d="M64.5,764.7H66v-1.6H64.5v1.6Z" class="g0_38"/>
<path fill-rule="evenodd" d="M64.5,764.7H66v-1.6H64.5v1.6Z" class="g0_38"/>
<path fill-rule="evenodd" d="M66,764.7H821.9v-1.6H66v1.6Z" class="g0_38"/>
<path fill-rule="evenodd" d="M821.9,764.7h1.5v-1.6h-1.5v1.6Z" class="g0_38"/>
<path fill-rule="evenodd" d="M821.9,764.7h1.5v-1.6h-1.5v1.6Z" class="g0_38"/>
<path fill-rule="evenodd" d="M64.5,790.4H66V764.7H64.5v25.7Z" class="g0_38"/>
<path fill-rule="evenodd" d="M821.9,790.4h1.5V764.7h-1.5v25.7Z" class="g0_38"/>
<path fill-rule="evenodd" d="M64.5,791.9H66v-1.5H64.5v1.5Z" class="g0_38"/>
<path fill-rule="evenodd" d="M66,791.9H297.4v-1.5H66v1.5Z" class="g0_38"/>
<path fill-rule="evenodd" d="M297.4,791.9h1.5v-1.5h-1.5v1.5Z" class="g0_38"/>
<path fill-rule="evenodd" d="M298.9,791.9h523v-1.5h-523v1.5Z" class="g0_38"/>
<path fill-rule="evenodd" d="M821.9,791.9h1.5v-1.5h-1.5v1.5Z" class="g0_38"/>
<path fill-rule="evenodd" d="M64.5,817.6H66V791.9H64.5v25.7Z" class="g0_38"/>
<path fill-rule="evenodd" d="M297.4,817.6h1.5V791.9h-1.5v25.7Z" class="g0_38"/>
<path fill-rule="evenodd" d="M821.9,817.6h1.5V791.9h-1.5v25.7Z" class="g0_38"/>
<path fill-rule="evenodd" d="M64.5,819.1H66v-1.5H64.5v1.5Z" class="g0_38"/>
<path fill-rule="evenodd" d="M66,819.1H297.4v-1.5H66v1.5Z" class="g0_38"/>
<path fill-rule="evenodd" d="M297.4,819.1h1.5v-1.5h-1.5v1.5Z" class="g0_38"/>
<path fill-rule="evenodd" d="M298.9,819.1h523v-1.5h-523v1.5Z" class="g0_38"/>
<path fill-rule="evenodd" d="M821.9,819.1h1.5v-1.5h-1.5v1.5Z" class="g0_38"/>
<path fill-rule="evenodd" d="M64.5,844.7H66V819.1H64.5v25.6Z" class="g0_38"/>
<path fill-rule="evenodd" d="M297.4,844.7h1.5V819.1h-1.5v25.6Z" class="g0_38"/>
<path fill-rule="evenodd" d="M821.9,844.7h1.5V819.1h-1.5v25.6Z" class="g0_38"/>
<path fill-rule="evenodd" d="M64.5,846.3H66v-1.6H64.5v1.6Z" class="g0_38"/>
<path fill-rule="evenodd" d="M66,846.3H297.4v-1.6H66v1.6Z" class="g0_38"/>
<path fill-rule="evenodd" d="M297.4,846.3h1.5v-1.6h-1.5v1.6Z" class="g0_38"/>
<path fill-rule="evenodd" d="M298.9,846.3h523v-1.6h-523v1.6Z" class="g0_38"/>
<path fill-rule="evenodd" d="M821.9,846.3h1.5v-1.6h-1.5v1.6Z" class="g0_38"/>
<path fill-rule="evenodd" d="M64.5,871.9H66V846.3H64.5v25.6Z" class="g0_38"/>
<path fill-rule="evenodd" d="M297.4,871.9h1.5V846.3h-1.5v25.6Z" class="g0_38"/>
<path fill-rule="evenodd" d="M821.9,871.9h1.5V846.3h-1.5v25.6Z" class="g0_38"/>
<path fill-rule="evenodd" d="M64.5,873.5H66v-1.6H64.5v1.6Z" class="g0_38"/>
<path fill-rule="evenodd" d="M66,873.5H297.4v-1.6H66v1.6Z" class="g0_38"/>
<path fill-rule="evenodd" d="M297.4,873.5h1.5v-1.6h-1.5v1.6Z" class="g0_38"/>
<path fill-rule="evenodd" d="M298.9,873.5h523v-1.6h-523v1.6Z" class="g0_38"/>
<path fill-rule="evenodd" d="M821.9,873.5h1.5v-1.6h-1.5v1.6Z" class="g0_38"/>
<path fill-rule="evenodd" d="M64.5,899.1H66V873.5H64.5v25.6Z" class="g0_38"/>
<path fill-rule="evenodd" d="M297.4,899.1h1.5V873.5h-1.5v25.6Z" class="g0_38"/>
<path fill-rule="evenodd" d="M821.9,899.1h1.5V873.5h-1.5v25.6Z" class="g0_38"/>
<path fill-rule="evenodd" d="M66.3,926.3H821.9V900.7H66.3v25.6Z" class="g1_38"/>
<path fill-rule="evenodd" d="M73.7,926.3H814.6V900.7H73.7v25.6Z" class="g1_38"/>
<path fill-rule="evenodd" d="M64.5,900.7H66v-1.6H64.5v1.6Z" class="g0_38"/>
<path fill-rule="evenodd" d="M66,900.7H297.4v-1.6H66v1.6Z" class="g0_38"/>
<path fill-rule="evenodd" d="M297.4,900.7h1.5v-1.6h-1.5v1.6Z" class="g0_38"/>
<path fill-rule="evenodd" d="M298.9,900.7h523v-1.6h-523v1.6Z" class="g0_38"/>
<path fill-rule="evenodd" d="M821.9,900.7h1.5v-1.6h-1.5v1.6Z" class="g0_38"/>
<path fill-rule="evenodd" d="M64.5,926.3H66V900.7H64.5v25.6Z" class="g0_38"/>
<path fill-rule="evenodd" d="M821.9,926.3h1.5V900.7h-1.5v25.6Z" class="g0_38"/>
<path fill-rule="evenodd" d="M64.5,927.9H66v-1.6H64.5v1.6Z" class="g0_38"/>
<path fill-rule="evenodd" d="M66,927.9H297.4v-1.6H66v1.6Z" class="g0_38"/>
<path fill-rule="evenodd" d="M297.4,927.9h1.5v-1.6h-1.5v1.6Z" class="g0_38"/>
<path fill-rule="evenodd" d="M298.9,927.9h523v-1.6h-523v1.6Z" class="g0_38"/>
<path fill-rule="evenodd" d="M821.9,927.9h1.5v-1.6h-1.5v1.6Z" class="g0_38"/>
<path fill-rule="evenodd" d="M64.5,953.3H66V927.9H64.5v25.4Z" class="g0_38"/>
<path fill-rule="evenodd" d="M297.4,953.3h1.5V927.9h-1.5v25.4Z" class="g0_38"/>
<path fill-rule="evenodd" d="M821.9,953.3h1.5V927.9h-1.5v25.4Z" class="g0_38"/>
<path fill-rule="evenodd" d="M64.5,954.8H66v-1.5H64.5v1.5Z" class="g0_38"/>
<path fill-rule="evenodd" d="M66,954.8H297.4v-1.5H66v1.5Z" class="g0_38"/>
<path fill-rule="evenodd" d="M297.4,954.8h1.5v-1.5h-1.5v1.5Z" class="g0_38"/>
<path fill-rule="evenodd" d="M298.9,954.8h523v-1.5h-523v1.5Z" class="g0_38"/>
<path fill-rule="evenodd" d="M821.9,954.8h1.5v-1.5h-1.5v1.5Z" class="g0_38"/>
<path fill-rule="evenodd" d="M64.5,980.5H66V954.8H64.5v25.7Z" class="g0_38"/>
<path fill-rule="evenodd" d="M64.5,982H66v-1.5H64.5V982Z" class="g0_38"/>
<path fill-rule="evenodd" d="M64.5,982H66v-1.5H64.5V982Z" class="g0_38"/>
<path fill-rule="evenodd" d="M66,982H297.4v-1.5H66V982Z" class="g0_38"/>
<path fill-rule="evenodd" d="M297.4,980.5h1.5V954.8h-1.5v25.7Z" class="g0_38"/>
<path fill-rule="evenodd" d="M297.4,982h1.5v-1.5h-1.5V982Z" class="g0_38"/>
<path fill-rule="evenodd" d="M298.9,982h523v-1.5h-523V982Z" class="g0_38"/>
<path fill-rule="evenodd" d="M821.9,980.5h1.5V954.8h-1.5v25.7Z" class="g0_38"/>
<path fill-rule="evenodd" d="M821.9,982h1.5v-1.5h-1.5V982Z" class="g0_38"/>
<path fill-rule="evenodd" d="M821.9,982h1.5v-1.5h-1.5V982Z" class="g0_38"/>
<path fill-rule="evenodd" d="M65.1,1066H140v-1.2H65.1v1.2Z" class="g0_38"/>
</svg>