<?xml version="1.0" encoding="UTF-8" standalone="no"?>
<!DOCTYPE svg PUBLIC "-//W3C//DTD SVG 1.1//EN"
"http://www.w3.org/Graphics/SVG/1.1/DTD/svg11.dtd">
<svg viewBox="0 0 909 1286" version="1.1" xmlns="http://www.w3.org/2000/svg" xmlns:xlink="http://www.w3.org/1999/xlink">
<defs>
<clipPath id="c0_19"><path d="M86.6,1024.9V780.1H844.5v244.8Z"/></clipPath>
<style type="text/css"><![CDATA[
.g0_19{
}
.g1_19{
fill: #F1F1F1;
}
]]></style>
</defs>
<path fill-rule="evenodd" d="M86.5,66H844.8V64.5H86.5V66Z" class="g0_19"/>
<path fill-rule="evenodd" d="M86.5,105.4H165v-1.2H86.5v1.2Z" class="g0_19"/>
<path fill-rule="evenodd" d="M87.7,176.3H843.6V150.7H87.7v25.6Z" class="g1_19"/>
<path fill-rule="evenodd" d="M95.4,176.3H836V150.7H95.4v25.6Z" class="g1_19"/>
<path fill-rule="evenodd" d="M85.9,150.7h1.5v-1.5H85.9v1.5Z" class="g0_19"/>
<path fill-rule="evenodd" d="M85.9,150.7h1.5v-1.5H85.9v1.5Z" class="g0_19"/>
<path fill-rule="evenodd" d="M87.4,150.7H843.3v-1.5H87.4v1.5Z" class="g0_19"/>
<path fill-rule="evenodd" d="M843.3,150.7h1.5v-1.5h-1.5v1.5Z" class="g0_19"/>
<path fill-rule="evenodd" d="M843.3,150.7h1.5v-1.5h-1.5v1.5Z" class="g0_19"/>
<path fill-rule="evenodd" d="M85.9,176.3h1.5V150.7H85.9v25.6Z" class="g0_19"/>
<path fill-rule="evenodd" d="M843.3,176.3h1.5V150.7h-1.5v25.6Z" class="g0_19"/>
<path fill-rule="evenodd" d="M85.9,177.9h1.5v-1.6H85.9v1.6Z" class="g0_19"/>
<path fill-rule="evenodd" d="M87.4,177.9H293.7v-1.6H87.4v1.6Z" class="g0_19"/>
<path fill-rule="evenodd" d="M293.7,177.9h1.5v-1.6h-1.5v1.6Z" class="g0_19"/>
<path fill-rule="evenodd" d="M295.2,177.9H843.3v-1.6H295.2v1.6Z" class="g0_19"/>
<path fill-rule="evenodd" d="M843.3,177.9h1.5v-1.6h-1.5v1.6Z" class="g0_19"/>
<path fill-rule="evenodd" d="M85.9,203.5h1.5V177.9H85.9v25.6Z" class="g0_19"/>
<path fill-rule="evenodd" d="M293.7,203.5h1.5V177.9h-1.5v25.6Z" class="g0_19"/>
<path fill-rule="evenodd" d="M843.3,203.5h1.5V177.9h-1.5v25.6Z" class="g0_19"/>
<path fill-rule="evenodd" d="M85.9,205.1h1.5v-1.6H85.9v1.6Z" class="g0_19"/>
<path fill-rule="evenodd" d="M87.4,205.1H293.7v-1.6H87.4v1.6Z" class="g0_19"/>
<path fill-rule="evenodd" d="M293.7,205.1h1.5v-1.6h-1.5v1.6Z" class="g0_19"/>
<path fill-rule="evenodd" d="M295.2,205.1H843.3v-1.6H295.2v1.6Z" class="g0_19"/>
<path fill-rule="evenodd" d="M843.3,205.1h1.5v-1.6h-1.5v1.6Z" class="g0_19"/>
<path fill-rule="evenodd" d="M85.9,250.3h1.5V205.1H85.9v45.2Z" class="g0_19"/>
<path fill-rule="evenodd" d="M293.7,250.3h1.5V205.1h-1.5v45.2Z" class="g0_19"/>
<path fill-rule="evenodd" d="M843.3,250.3h1.5V205.1h-1.5v45.2Z" class="g0_19"/>
<path fill-rule="evenodd" d="M87.7,277.5H843.6V251.8H87.7v25.7Z" class="g1_19"/>
<path fill-rule="evenodd" d="M95.4,277.5H836V251.8H95.4v25.7Z" class="g1_19"/>
<path fill-rule="evenodd" d="M85.9,251.8h1.5v-1.5H85.9v1.5Z" class="g0_19"/>
<path fill-rule="evenodd" d="M87.4,251.8H293.7v-1.5H87.4v1.5Z" class="g0_19"/>
<path fill-rule="evenodd" d="M293.7,251.8h1.5v-1.5h-1.5v1.5Z" class="g0_19"/>
<path fill-rule="evenodd" d="M295.2,251.8H843.3v-1.5H295.2v1.5Z" class="g0_19"/>
<path fill-rule="evenodd" d="M843.3,251.8h1.5v-1.5h-1.5v1.5Z" class="g0_19"/>
<path fill-rule="evenodd" d="M85.9,277.5h1.5V251.8H85.9v25.7Z" class="g0_19"/>
<path fill-rule="evenodd" d="M843.3,277.5h1.5V251.8h-1.5v25.7Z" class="g0_19"/>
<path fill-rule="evenodd" d="M85.9,279h1.5v-1.5H85.9V279Z" class="g0_19"/>
<path fill-rule="evenodd" d="M87.4,279H291.6v-1.5H87.4V279Z" class="g0_19"/>
<path fill-rule="evenodd" d="M291.6,279h1.5v-1.5h-1.5V279Z" class="g0_19"/>
<path fill-rule="evenodd" d="M293.1,279H843.3v-1.5H293.1V279Z" class="g0_19"/>
<path fill-rule="evenodd" d="M843.3,279h1.5v-1.5h-1.5V279Z" class="g0_19"/>
<path fill-rule="evenodd" d="M85.9,304.4h1.5V279H85.9v25.4Z" class="g0_19"/>
<path fill-rule="evenodd" d="M291.6,304.4h1.5V279h-1.5v25.4Z" class="g0_19"/>
<path fill-rule="evenodd" d="M843.3,304.4h1.5V279h-1.5v25.4Z" class="g0_19"/>
<path fill-rule="evenodd" d="M85.9,305.9h1.5v-1.5H85.9v1.5Z" class="g0_19"/>
<path fill-rule="evenodd" d="M87.4,305.9H291.6v-1.5H87.4v1.5Z" class="g0_19"/>
<path fill-rule="evenodd" d="M291.6,305.9h1.5v-1.5h-1.5v1.5Z" class="g0_19"/>
<path fill-rule="evenodd" d="M293.1,305.9H843.3v-1.5H293.1v1.5Z" class="g0_19"/>
<path fill-rule="evenodd" d="M843.3,305.9h1.5v-1.5h-1.5v1.5Z" class="g0_19"/>
<path fill-rule="evenodd" d="M85.9,331.6h1.5V305.9H85.9v25.7Z" class="g0_19"/>
<path fill-rule="evenodd" d="M291.6,331.6h1.5V305.9h-1.5v25.7Z" class="g0_19"/>
<path fill-rule="evenodd" d="M843.3,331.6h1.5V305.9h-1.5v25.7Z" class="g0_19"/>
<path fill-rule="evenodd" d="M85.9,333.1h1.5v-1.5H85.9v1.5Z" class="g0_19"/>
<path fill-rule="evenodd" d="M87.4,333.1H291.6v-1.5H87.4v1.5Z" class="g0_19"/>
<path fill-rule="evenodd" d="M291.6,333.1h1.5v-1.5h-1.5v1.5Z" class="g0_19"/>
<path fill-rule="evenodd" d="M293.1,333.1H843.3v-1.5H293.1v1.5Z" class="g0_19"/>
<path fill-rule="evenodd" d="M843.3,333.1h1.5v-1.5h-1.5v1.5Z" class="g0_19"/>
<path fill-rule="evenodd" d="M85.9,358.8h1.5V333.1H85.9v25.7Z" class="g0_19"/>
<path fill-rule="evenodd" d="M291.6,358.8h1.5V333.1h-1.5v25.7Z" class="g0_19"/>
<path fill-rule="evenodd" d="M843.3,358.8h1.5V333.1h-1.5v25.7Z" class="g0_19"/>
<path fill-rule="evenodd" d="M85.9,360.3h1.5v-1.5H85.9v1.5Z" class="g0_19"/>
<path fill-rule="evenodd" d="M87.4,360.3H291.6v-1.5H87.4v1.5Z" class="g0_19"/>
<path fill-rule="evenodd" d="M291.6,360.3h1.5v-1.5h-1.5v1.5Z" class="g0_19"/>
<path fill-rule="evenodd" d="M293.1,360.3H843.3v-1.5H293.1v1.5Z" class="g0_19"/>
<path fill-rule="evenodd" d="M843.3,360.3h1.5v-1.5h-1.5v1.5Z" class="g0_19"/>
<path fill-rule="evenodd" d="M85.9,386h1.5V360.3H85.9V386Z" class="g0_19"/>
<path fill-rule="evenodd" d="M291.6,386h1.5V360.3h-1.5V386Z" class="g0_19"/>
<path fill-rule="evenodd" d="M843.3,386h1.5V360.3h-1.5V386Z" class="g0_19"/>
<path fill-rule="evenodd" d="M85.9,387.5h1.5V386H85.9v1.5Z" class="g0_19"/>
<path fill-rule="evenodd" d="M87.4,387.5H291.6V386H87.4v1.5Z" class="g0_19"/>
<path fill-rule="evenodd" d="M291.6,387.5h1.5V386h-1.5v1.5Z" class="g0_19"/>
<path fill-rule="evenodd" d="M293.1,387.5H843.3V386H293.1v1.5Z" class="g0_19"/>
<path fill-rule="evenodd" d="M843.3,387.5h1.5V386h-1.5v1.5Z" class="g0_19"/>
<path fill-rule="evenodd" d="M85.9,413.2h1.5V387.5H85.9v25.7Z" class="g0_19"/>
<path fill-rule="evenodd" d="M291.6,413.2h1.5V387.5h-1.5v25.7Z" class="g0_19"/>
<path fill-rule="evenodd" d="M843.3,413.2h1.5V387.5h-1.5v25.7Z" class="g0_19"/>
<path fill-rule="evenodd" d="M85.9,414.7h1.5v-1.5H85.9v1.5Z" class="g0_19"/>
<path fill-rule="evenodd" d="M87.4,414.7H291.6v-1.5H87.4v1.5Z" class="g0_19"/>
<path fill-rule="evenodd" d="M291.6,414.7h1.5v-1.5h-1.5v1.5Z" class="g0_19"/>
<path fill-rule="evenodd" d="M293.1,414.7H843.3v-1.5H293.1v1.5Z" class="g0_19"/>
<path fill-rule="evenodd" d="M843.3,414.7h1.5v-1.5h-1.5v1.5Z" class="g0_19"/>
<path fill-rule="evenodd" d="M85.9,440.4h1.5V414.7H85.9v25.7Z" class="g0_19"/>
<path fill-rule="evenodd" d="M291.6,440.4h1.5V414.7h-1.5v25.7Z" class="g0_19"/>
<path fill-rule="evenodd" d="M843.3,440.4h1.5V414.7h-1.5v25.7Z" class="g0_19"/>
<path fill-rule="evenodd" d="M85.9,441.9h1.5v-1.5H85.9v1.5Z" class="g0_19"/>
<path fill-rule="evenodd" d="M87.4,441.9H291.6v-1.5H87.4v1.5Z" class="g0_19"/>
<path fill-rule="evenodd" d="M291.6,441.9h1.5v-1.5h-1.5v1.5Z" class="g0_19"/>
<path fill-rule="evenodd" d="M293.1,441.9H843.3v-1.5H293.1v1.5Z" class="g0_19"/>
<path fill-rule="evenodd" d="M843.3,441.9h1.5v-1.5h-1.5v1.5Z" class="g0_19"/>
<path fill-rule="evenodd" d="M85.9,467.6h1.5V442H85.9v25.6Z" class="g0_19"/>
<path fill-rule="evenodd" d="M291.6,467.6h1.5V442h-1.5v25.6Z" class="g0_19"/>
<path fill-rule="evenodd" d="M843.3,467.6h1.5V442h-1.5v25.6Z" class="g0_19"/>
<path fill-rule="evenodd" d="M85.9,469.2h1.5v-1.6H85.9v1.6Z" class="g0_19"/>
<path fill-rule="evenodd" d="M87.4,469.2H291.6v-1.6H87.4v1.6Z" class="g0_19"/>
<path fill-rule="evenodd" d="M291.6,469.2h1.5v-1.6h-1.5v1.6Z" class="g0_19"/>
<path fill-rule="evenodd" d="M293.1,469.2H843.3v-1.6H293.1v1.6Z" class="g0_19"/>
<path fill-rule="evenodd" d="M843.3,469.2h1.5v-1.6h-1.5v1.6Z" class="g0_19"/>
<path fill-rule="evenodd" d="M85.9,514.1h1.5v-45H85.9v45Z" class="g0_19"/>
<path fill-rule="evenodd" d="M85.9,515.6h1.5v-1.5H85.9v1.5Z" class="g0_19"/>
<path fill-rule="evenodd" d="M85.9,515.6h1.5v-1.5H85.9v1.5Z" class="g0_19"/>
<path fill-rule="evenodd" d="M87.4,515.6H291.6v-1.5H87.4v1.5Z" class="g0_19"/>
<path fill-rule="evenodd" d="M291.6,514.1h1.5v-45h-1.5v45Z" class="g0_19"/>
<path fill-rule="evenodd" d="M291.6,515.6h1.5v-1.5h-1.5v1.5Z" class="g0_19"/>
<path fill-rule="evenodd" d="M293.1,515.6H843.3v-1.5H293.1v1.5Z" class="g0_19"/>
<path fill-rule="evenodd" d="M843.3,514.1h1.5v-45h-1.5v45Z" class="g0_19"/>
<path fill-rule="evenodd" d="M843.3,515.6h1.5v-1.5h-1.5v1.5Z" class="g0_19"/>
<path fill-rule="evenodd" d="M843.3,515.6h1.5v-1.5h-1.5v1.5Z" class="g0_19"/>
<path fill-rule="evenodd" d="M307.8,762.5h55v-.9h-55v.9Z" class="g0_19"/>
<path fill-rule="evenodd" d="M86.5,1121.4h74.9v-1.3H86.5v1.3Z" class="g0_19"/>
<image clip-path="url(#c0_19)" preserveAspectRatio="none" x="87" y="780" width="757" height="245" xlink:href="img/1.jpg"/>
</svg>