<?xml version="1.0" encoding="UTF-8" standalone="no"?>
<!DOCTYPE svg PUBLIC "-//W3C//DTD SVG 1.1//EN"
"http://www.w3.org/Graphics/SVG/1.1/DTD/svg11.dtd">
<svg viewBox="0 0 909 1286" version="1.1" xmlns="http://www.w3.org/2000/svg" xmlns:xlink="http://www.w3.org/1999/xlink">
<defs>
<style type="text/css"><![CDATA[
.g0_7{
}
]]></style>
</defs>
<path fill-rule="evenodd" d="M86.5,66H844.8V64.5H86.5V66Z" class="g0_7"/>
<path fill-rule="evenodd" d="M91.1,248.8H92v-1.3h-.9v1.3Z" class="g0_7"/>
<path fill-rule="evenodd" d="M91.1,248.5H92v-1h-.9v1Z" class="g0_7"/>
<path fill-rule="evenodd" d="M92,248.5H248.2v-1H92v1Z" class="g0_7"/>
<path fill-rule="evenodd" d="M248.2,248.8h.9v-.3h-.9v.3Z" class="g0_7"/>
<path fill-rule="evenodd" d="M248.2,248.5h.9v-1h-.9v1Z" class="g0_7"/>
<path fill-rule="evenodd" d="M249.1,248.5H443.2v-1H249.1v1Z" class="g0_7"/>
<path fill-rule="evenodd" d="M443.2,248.8h.9v-.3h-.9v.3Z" class="g0_7"/>
<path fill-rule="evenodd" d="M443.2,248.5h.9v-1h-.9v1Z" class="g0_7"/>
<path fill-rule="evenodd" d="M444.1,248.5H638.2v-1H444.1v1Z" class="g0_7"/>
<path fill-rule="evenodd" d="M638.2,248.8h.9v-.3h-.9v.3Z" class="g0_7"/>
<path fill-rule="evenodd" d="M638.2,248.5h.9v-1h-.9v1Z" class="g0_7"/>
<path fill-rule="evenodd" d="M639.1,248.5H838.7v-1H639.1v1Z" class="g0_7"/>
<path fill-rule="evenodd" d="M838.7,248.8h.9v-1.3h-.9v1.3Z" class="g0_7"/>
<path fill-rule="evenodd" d="M838.7,248.5h.9v-1h-.9v1Z" class="g0_7"/>
<path fill-rule="evenodd" d="M91.1,274.5H92V248.8h-.9v25.7Z" class="g0_7"/>
<path fill-rule="evenodd" d="M248.2,274.5h.9V248.8h-.9v25.7Z" class="g0_7"/>
<path fill-rule="evenodd" d="M443.2,274.5h.9V248.8h-.9v25.7Z" class="g0_7"/>
<path fill-rule="evenodd" d="M638.2,274.5h.9V248.8h-.9v25.7Z" class="g0_7"/>
<path fill-rule="evenodd" d="M838.7,274.5h.9V248.8h-.9v25.7Z" class="g0_7"/>
<path fill-rule="evenodd" d="M91.1,275.7H92v-1.2h-.9v1.2Z" class="g0_7"/>
<path fill-rule="evenodd" d="M92,275.4H248.2v-.9H92v.9Z" class="g0_7"/>
<path fill-rule="evenodd" d="M248.2,275.7h.9v-1.2h-.9v1.2Z" class="g0_7"/>
<path fill-rule="evenodd" d="M249.1,275.4H443.2v-.9H249.1v.9Z" class="g0_7"/>
<path fill-rule="evenodd" d="M443.2,275.7h.9v-1.2h-.9v1.2Z" class="g0_7"/>
<path fill-rule="evenodd" d="M444.1,275.4H638.2v-.9H444.1v.9Z" class="g0_7"/>
<path fill-rule="evenodd" d="M638.2,275.7h.9v-1.2h-.9v1.2Z" class="g0_7"/>
<path fill-rule="evenodd" d="M639.1,275.4H838.7v-.9H639.1v.9Z" class="g0_7"/>
<path fill-rule="evenodd" d="M838.7,275.7h.9v-1.2h-.9v1.2Z" class="g0_7"/>
<path fill-rule="evenodd" d="M91.1,301H92V275.7h-.9V301Z" class="g0_7"/>
<path fill-rule="evenodd" d="M91.1,302H92v-1h-.9v1Z" class="g0_7"/>
<path fill-rule="evenodd" d="M91.1,302H92v-1h-.9v1Z" class="g0_7"/>
<path fill-rule="evenodd" d="M92,302H248.2v-1H92v1Z" class="g0_7"/>
<path fill-rule="evenodd" d="M248.2,301h.9V275.7h-.9V301Z" class="g0_7"/>
<path fill-rule="evenodd" d="M248.2,302h.9v-1h-.9v1Z" class="g0_7"/>
<path fill-rule="evenodd" d="M249.1,302H443.2v-1H249.1v1Z" class="g0_7"/>
<path fill-rule="evenodd" d="M443.2,301h.9V275.7h-.9V301Z" class="g0_7"/>
<path fill-rule="evenodd" d="M443.2,302h.9v-1h-.9v1Z" class="g0_7"/>
<path fill-rule="evenodd" d="M444.1,302H638.2v-1H444.1v1Z" class="g0_7"/>
<path fill-rule="evenodd" d="M638.2,301h.9V275.7h-.9V301Z" class="g0_7"/>
<path fill-rule="evenodd" d="M638.2,302h.9v-1h-.9v1Z" class="g0_7"/>
<path fill-rule="evenodd" d="M639.1,302H838.7v-1H639.1v1Z" class="g0_7"/>
<path fill-rule="evenodd" d="M838.7,301h.9V275.7h-.9V301Z" class="g0_7"/>
<path fill-rule="evenodd" d="M838.7,302h.9v-1h-.9v1Z" class="g0_7"/>
<path fill-rule="evenodd" d="M838.7,302h.9v-1h-.9v1Z" class="g0_7"/>
</svg>