<?xml version="1.0" encoding="UTF-8" standalone="no"?>
<!DOCTYPE svg PUBLIC "-//W3C//DTD SVG 1.1//EN"
"http://www.w3.org/Graphics/SVG/1.1/DTD/svg11.dtd">
<svg viewBox="0 0 909 1286" version="1.1" xmlns="http://www.w3.org/2000/svg" xmlns:xlink="http://www.w3.org/1999/xlink">
<defs>
<style type="text/css"><![CDATA[
.g0_27{
}
.g1_27{
fill: #F1F1F1;
}
]]></style>
</defs>
<path fill-rule="evenodd" d="M86.5,66H844.8V64.5H86.5V66Z" class="g0_27"/>
<path fill-rule="evenodd" d="M86.5,136h74.9v-1.2H86.5V136Z" class="g0_27"/>
<path fill-rule="evenodd" d="M88.6,206.9H842.7V181.2H88.6v25.7Z" class="g1_27"/>
<path fill-rule="evenodd" d="M96.3,206.9H835.4V181.2H96.3v25.7Z" class="g1_27"/>
<path fill-rule="evenodd" d="M86.8,181.2h1.5v-1.5H86.8v1.5Z" class="g0_27"/>
<path fill-rule="evenodd" d="M86.8,181.2h1.5v-1.5H86.8v1.5Z" class="g0_27"/>
<path fill-rule="evenodd" d="M88.3,181.2H842.4v-1.5H88.3v1.5Z" class="g0_27"/>
<path fill-rule="evenodd" d="M842.4,181.2h1.5v-1.5h-1.5v1.5Z" class="g0_27"/>
<path fill-rule="evenodd" d="M842.4,181.2h1.5v-1.5h-1.5v1.5Z" class="g0_27"/>
<path fill-rule="evenodd" d="M86.8,206.9h1.5V181.2H86.8v25.7Z" class="g0_27"/>
<path fill-rule="evenodd" d="M842.4,206.9h1.5V181.2h-1.5v25.7Z" class="g0_27"/>
<path fill-rule="evenodd" d="M86.8,208.4h1.5v-1.5H86.8v1.5Z" class="g0_27"/>
<path fill-rule="evenodd" d="M88.3,208.4H260.1v-1.5H88.3v1.5Z" class="g0_27"/>
<path fill-rule="evenodd" d="M260.1,208.4h1.5v-1.5h-1.5v1.5Z" class="g0_27"/>
<path fill-rule="evenodd" d="M261.6,208.4H842.4v-1.5H261.6v1.5Z" class="g0_27"/>
<path fill-rule="evenodd" d="M842.4,208.4h1.5v-1.5h-1.5v1.5Z" class="g0_27"/>
<path fill-rule="evenodd" d="M86.8,253.4h1.5v-45H86.8v45Z" class="g0_27"/>
<path fill-rule="evenodd" d="M260.1,253.4h1.5v-45h-1.5v45Z" class="g0_27"/>
<path fill-rule="evenodd" d="M842.4,253.4h1.5v-45h-1.5v45Z" class="g0_27"/>
<path fill-rule="evenodd" d="M88.6,280.6H842.7V254.9H88.6v25.7Z" class="g1_27"/>
<path fill-rule="evenodd" d="M96.3,280.6H835.4V254.9H96.3v25.7Z" class="g1_27"/>
<path fill-rule="evenodd" d="M86.8,254.9h1.5v-1.5H86.8v1.5Z" class="g0_27"/>
<path fill-rule="evenodd" d="M88.3,254.9H260.1v-1.5H88.3v1.5Z" class="g0_27"/>
<path fill-rule="evenodd" d="M260.1,254.9h1.5v-1.5h-1.5v1.5Z" class="g0_27"/>
<path fill-rule="evenodd" d="M261.6,254.9H842.4v-1.5H261.6v1.5Z" class="g0_27"/>
<path fill-rule="evenodd" d="M842.4,254.9h1.5v-1.5h-1.5v1.5Z" class="g0_27"/>
<path fill-rule="evenodd" d="M86.8,280.6h1.5V254.9H86.8v25.7Z" class="g0_27"/>
<path fill-rule="evenodd" d="M842.4,280.6h1.5V254.9h-1.5v25.7Z" class="g0_27"/>
<path fill-rule="evenodd" d="M86.8,282.1h1.5v-1.5H86.8v1.5Z" class="g0_27"/>
<path fill-rule="evenodd" d="M88.3,282.1H260.1v-1.5H88.3v1.5Z" class="g0_27"/>
<path fill-rule="evenodd" d="M260.1,282.1h1.5v-1.5h-1.5v1.5Z" class="g0_27"/>
<path fill-rule="evenodd" d="M261.6,282.1H842.4v-1.5H261.6v1.5Z" class="g0_27"/>
<path fill-rule="evenodd" d="M842.4,282.1h1.5v-1.5h-1.5v1.5Z" class="g0_27"/>
<path fill-rule="evenodd" d="M86.8,327.3h1.5V282.1H86.8v45.2Z" class="g0_27"/>
<path fill-rule="evenodd" d="M86.8,328.9h1.5v-1.6H86.8v1.6Z" class="g0_27"/>
<path fill-rule="evenodd" d="M86.8,328.9h1.5v-1.6H86.8v1.6Z" class="g0_27"/>
<path fill-rule="evenodd" d="M88.3,328.9H260.1v-1.6H88.3v1.6Z" class="g0_27"/>
<path fill-rule="evenodd" d="M260.1,327.3h1.5V282.1h-1.5v45.2Z" class="g0_27"/>
<path fill-rule="evenodd" d="M260.1,328.9h1.5v-1.6h-1.5v1.6Z" class="g0_27"/>
<path fill-rule="evenodd" d="M261.6,328.9H842.4v-1.6H261.6v1.6Z" class="g0_27"/>
<path fill-rule="evenodd" d="M842.4,327.3h1.5V282.1h-1.5v45.2Z" class="g0_27"/>
<path fill-rule="evenodd" d="M842.4,328.9h1.5v-1.6h-1.5v1.6Z" class="g0_27"/>
<path fill-rule="evenodd" d="M842.4,328.9h1.5v-1.6h-1.5v1.6Z" class="g0_27"/>
<path fill-rule="evenodd" d="M86.5,412.6h74.9v-1.2H86.5v1.2Z" class="g0_27"/>
<path fill-rule="evenodd" d="M86.5,539.7H165v-1.2H86.5v1.2Z" class="g0_27"/>
<path fill-rule="evenodd" d="M88.6,632H842.7V606.4H88.6V632Z" class="g1_27"/>
<path fill-rule="evenodd" d="M96.3,632H835.4V606.4H96.3V632Z" class="g1_27"/>
<path fill-rule="evenodd" d="M86.8,606.4h1.5v-1.6H86.8v1.6Z" class="g0_27"/>
<path fill-rule="evenodd" d="M86.8,606.4h1.5v-1.6H86.8v1.6Z" class="g0_27"/>
<path fill-rule="evenodd" d="M88.3,606.4H842.4v-1.6H88.3v1.6Z" class="g0_27"/>
<path fill-rule="evenodd" d="M842.4,606.4h1.5v-1.6h-1.5v1.6Z" class="g0_27"/>
<path fill-rule="evenodd" d="M842.4,606.4h1.5v-1.6h-1.5v1.6Z" class="g0_27"/>
<path fill-rule="evenodd" d="M86.8,632h1.5V606.4H86.8V632Z" class="g0_27"/>
<path fill-rule="evenodd" d="M842.4,632h1.5V606.4h-1.5V632Z" class="g0_27"/>
<path fill-rule="evenodd" d="M86.8,633.6h1.5V632H86.8v1.6Z" class="g0_27"/>
<path fill-rule="evenodd" d="M88.3,633.6H260.1V632H88.3v1.6Z" class="g0_27"/>
<path fill-rule="evenodd" d="M260.1,633.6h1.5V632h-1.5v1.6Z" class="g0_27"/>
<path fill-rule="evenodd" d="M261.6,633.6H842.4V632H261.6v1.6Z" class="g0_27"/>
<path fill-rule="evenodd" d="M842.4,633.6h1.5V632h-1.5v1.6Z" class="g0_27"/>
<path fill-rule="evenodd" d="M86.8,659.2h1.5V633.6H86.8v25.6Z" class="g0_27"/>
<path fill-rule="evenodd" d="M260.1,659.2h1.5V633.6h-1.5v25.6Z" class="g0_27"/>
<path fill-rule="evenodd" d="M842.4,659.2h1.5V633.6h-1.5v25.6Z" class="g0_27"/>
<path fill-rule="evenodd" d="M86.8,660.8h1.5v-1.6H86.8v1.6Z" class="g0_27"/>
<path fill-rule="evenodd" d="M88.3,660.8H260.1v-1.6H88.3v1.6Z" class="g0_27"/>
<path fill-rule="evenodd" d="M260.1,660.8h1.5v-1.6h-1.5v1.6Z" class="g0_27"/>
<path fill-rule="evenodd" d="M261.6,660.8H842.4v-1.6H261.6v1.6Z" class="g0_27"/>
<path fill-rule="evenodd" d="M842.4,660.8h1.5v-1.6h-1.5v1.6Z" class="g0_27"/>
<path fill-rule="evenodd" d="M86.8,705.7h1.5V660.8H86.8v44.9Z" class="g0_27"/>
<path fill-rule="evenodd" d="M260.1,705.7h1.5V660.8h-1.5v44.9Z" class="g0_27"/>
<path fill-rule="evenodd" d="M842.4,705.7h1.5V660.8h-1.5v44.9Z" class="g0_27"/>
<path fill-rule="evenodd" d="M88.6,732.9H842.7V707.2H88.6v25.7Z" class="g1_27"/>
<path fill-rule="evenodd" d="M96.3,732.9H835.4V707.2H96.3v25.7Z" class="g1_27"/>
<path fill-rule="evenodd" d="M86.8,707.2h1.5v-1.5H86.8v1.5Z" class="g0_27"/>
<path fill-rule="evenodd" d="M88.3,707.2H260.1v-1.5H88.3v1.5Z" class="g0_27"/>
<path fill-rule="evenodd" d="M260.1,707.2h1.5v-1.5h-1.5v1.5Z" class="g0_27"/>
<path fill-rule="evenodd" d="M261.6,707.2H842.4v-1.5H261.6v1.5Z" class="g0_27"/>
<path fill-rule="evenodd" d="M842.4,707.2h1.5v-1.5h-1.5v1.5Z" class="g0_27"/>
<path fill-rule="evenodd" d="M86.8,732.9h1.5V707.2H86.8v25.7Z" class="g0_27"/>
<path fill-rule="evenodd" d="M842.4,732.9h1.5V707.2h-1.5v25.7Z" class="g0_27"/>
<path fill-rule="evenodd" d="M86.8,734.4h1.5v-1.5H86.8v1.5Z" class="g0_27"/>
<path fill-rule="evenodd" d="M88.3,734.4H260.1v-1.5H88.3v1.5Z" class="g0_27"/>
<path fill-rule="evenodd" d="M260.1,734.4h1.5v-1.5h-1.5v1.5Z" class="g0_27"/>
<path fill-rule="evenodd" d="M261.6,734.4H842.4v-1.5H261.6v1.5Z" class="g0_27"/>
<path fill-rule="evenodd" d="M842.4,734.4h1.5v-1.5h-1.5v1.5Z" class="g0_27"/>
<path fill-rule="evenodd" d="M86.8,760.1h1.5V734.4H86.8v25.7Z" class="g0_27"/>
<path fill-rule="evenodd" d="M260.1,760.1h1.5V734.4h-1.5v25.7Z" class="g0_27"/>
<path fill-rule="evenodd" d="M842.4,760.1h1.5V734.4h-1.5v25.7Z" class="g0_27"/>
<path fill-rule="evenodd" d="M86.8,761.6h1.5v-1.5H86.8v1.5Z" class="g0_27"/>
<path fill-rule="evenodd" d="M88.3,761.6H260.1v-1.5H88.3v1.5Z" class="g0_27"/>
<path fill-rule="evenodd" d="M260.1,761.6h1.5v-1.5h-1.5v1.5Z" class="g0_27"/>
<path fill-rule="evenodd" d="M261.6,761.6H842.4v-1.5H261.6v1.5Z" class="g0_27"/>
<path fill-rule="evenodd" d="M842.4,761.6h1.5v-1.5h-1.5v1.5Z" class="g0_27"/>
<path fill-rule="evenodd" d="M86.8,806.9h1.5V761.6H86.8v45.3Z" class="g0_27"/>
<path fill-rule="evenodd" d="M86.8,808.4h1.5v-1.5H86.8v1.5Z" class="g0_27"/>
<path fill-rule="evenodd" d="M86.8,808.4h1.5v-1.5H86.8v1.5Z" class="g0_27"/>
<path fill-rule="evenodd" d="M88.3,808.4H260.1v-1.5H88.3v1.5Z" class="g0_27"/>
<path fill-rule="evenodd" d="M260.1,806.9h1.5V761.6h-1.5v45.3Z" class="g0_27"/>
<path fill-rule="evenodd" d="M260.1,808.4h1.5v-1.5h-1.5v1.5Z" class="g0_27"/>
<path fill-rule="evenodd" d="M261.6,808.4H842.4v-1.5H261.6v1.5Z" class="g0_27"/>
<path fill-rule="evenodd" d="M842.4,806.9h1.5V761.6h-1.5v45.3Z" class="g0_27"/>
<path fill-rule="evenodd" d="M842.4,808.4h1.5v-1.5h-1.5v1.5Z" class="g0_27"/>
<path fill-rule="evenodd" d="M842.4,808.4h1.5v-1.5h-1.5v1.5Z" class="g0_27"/>
<path fill-rule="evenodd" d="M86.5,892.1h74.9v-1.2H86.5v1.2Z" class="g0_27"/>
<path fill-rule="evenodd" d="M86.5,922.7H536.1v-1.3H86.5v1.3Z" class="g0_27"/>
<path fill-rule="evenodd" d="M86.5,953H165v-1.3H86.5V953Z" class="g0_27"/>
</svg>