<?xml version="1.0" encoding="UTF-8" standalone="no"?>
<!DOCTYPE svg PUBLIC "-//W3C//DTD SVG 1.1//EN"
"http://www.w3.org/Graphics/SVG/1.1/DTD/svg11.dtd">
<svg viewBox="0 0 909 1286" version="1.1" xmlns="http://www.w3.org/2000/svg" xmlns:xlink="http://www.w3.org/1999/xlink">
<defs>
<style type="text/css"><![CDATA[
.g0_11{
}
.g1_11{
fill: #F1F1F1;
}
]]></style>
</defs>
<path fill-rule="evenodd" d="M86.5,66H844.8V64.5H86.5V66Z" class="g0_11"/>
<path fill-rule="evenodd" d="M86.2,88h1.5V86.5H86.2V88Z" class="g0_11"/>
<path fill-rule="evenodd" d="M86.2,88h1.5V86.5H86.2V88Z" class="g0_11"/>
<path fill-rule="evenodd" d="M87.7,88H343.6V86.5H87.7V88Z" class="g0_11"/>
<path fill-rule="evenodd" d="M343.6,88h1.5V86.5h-1.5V88Z" class="g0_11"/>
<path fill-rule="evenodd" d="M345.1,88H843V86.5H345.1V88Z" class="g0_11"/>
<path fill-rule="evenodd" d="M843,88h1.5V86.5H843V88Z" class="g0_11"/>
<path fill-rule="evenodd" d="M843,88h1.5V86.5H843V88Z" class="g0_11"/>
<path fill-rule="evenodd" d="M86.2,113.7h1.5V88H86.2v25.7Z" class="g0_11"/>
<path fill-rule="evenodd" d="M343.6,113.7h1.5V88h-1.5v25.7Z" class="g0_11"/>
<path fill-rule="evenodd" d="M843,113.7h1.5V88H843v25.7Z" class="g0_11"/>
<path fill-rule="evenodd" d="M86.2,115.2h1.5v-1.5H86.2v1.5Z" class="g0_11"/>
<path fill-rule="evenodd" d="M87.7,115.2H343.6v-1.5H87.7v1.5Z" class="g0_11"/>
<path fill-rule="evenodd" d="M343.6,115.2h1.5v-1.5h-1.5v1.5Z" class="g0_11"/>
<path fill-rule="evenodd" d="M345.1,115.2H843v-1.5H345.1v1.5Z" class="g0_11"/>
<path fill-rule="evenodd" d="M843,115.2h1.5v-1.5H843v1.5Z" class="g0_11"/>
<path fill-rule="evenodd" d="M86.2,140.9h1.5V115.2H86.2v25.7Z" class="g0_11"/>
<path fill-rule="evenodd" d="M343.6,140.9h1.5V115.2h-1.5v25.7Z" class="g0_11"/>
<path fill-rule="evenodd" d="M843,140.9h1.5V115.2H843v25.7Z" class="g0_11"/>
<path fill-rule="evenodd" d="M86.2,142.4h1.5v-1.5H86.2v1.5Z" class="g0_11"/>
<path fill-rule="evenodd" d="M87.7,142.4H343.6v-1.5H87.7v1.5Z" class="g0_11"/>
<path fill-rule="evenodd" d="M343.6,142.4h1.5v-1.5h-1.5v1.5Z" class="g0_11"/>
<path fill-rule="evenodd" d="M345.1,142.4H843v-1.5H345.1v1.5Z" class="g0_11"/>
<path fill-rule="evenodd" d="M843,142.4h1.5v-1.5H843v1.5Z" class="g0_11"/>
<path fill-rule="evenodd" d="M86.2,187.7h1.5V142.4H86.2v45.3Z" class="g0_11"/>
<path fill-rule="evenodd" d="M343.6,187.7h1.5V142.4h-1.5v45.3Z" class="g0_11"/>
<path fill-rule="evenodd" d="M843,187.7h1.5V142.4H843v45.3Z" class="g0_11"/>
<path fill-rule="evenodd" d="M86.2,189.2h1.5v-1.5H86.2v1.5Z" class="g0_11"/>
<path fill-rule="evenodd" d="M87.7,189.2H343.6v-1.5H87.7v1.5Z" class="g0_11"/>
<path fill-rule="evenodd" d="M343.6,189.2h1.5v-1.5h-1.5v1.5Z" class="g0_11"/>
<path fill-rule="evenodd" d="M345.1,189.2H843v-1.5H345.1v1.5Z" class="g0_11"/>
<path fill-rule="evenodd" d="M843,189.2h1.5v-1.5H843v1.5Z" class="g0_11"/>
<path fill-rule="evenodd" d="M86.2,234.4h1.5V189.2H86.2v45.2Z" class="g0_11"/>
<path fill-rule="evenodd" d="M343.6,234.4h1.5V189.2h-1.5v45.2Z" class="g0_11"/>
<path fill-rule="evenodd" d="M843,234.4h1.5V189.2H843v45.2Z" class="g0_11"/>
<path fill-rule="evenodd" d="M86.2,235.9h1.5v-1.5H86.2v1.5Z" class="g0_11"/>
<path fill-rule="evenodd" d="M87.7,235.9H343.6v-1.5H87.7v1.5Z" class="g0_11"/>
<path fill-rule="evenodd" d="M343.6,235.9h1.5v-1.5h-1.5v1.5Z" class="g0_11"/>
<path fill-rule="evenodd" d="M345.1,235.9H843v-1.5H345.1v1.5Z" class="g0_11"/>
<path fill-rule="evenodd" d="M843,235.9h1.5v-1.5H843v1.5Z" class="g0_11"/>
<path fill-rule="evenodd" d="M86.2,280.9h1.5v-45H86.2v45Z" class="g0_11"/>
<path fill-rule="evenodd" d="M343.6,280.9h1.5v-45h-1.5v45Z" class="g0_11"/>
<path fill-rule="evenodd" d="M843,280.9h1.5v-45H843v45Z" class="g0_11"/>
<path fill-rule="evenodd" d="M86.2,282.4h1.5v-1.5H86.2v1.5Z" class="g0_11"/>
<path fill-rule="evenodd" d="M87.7,282.4H343.6v-1.5H87.7v1.5Z" class="g0_11"/>
<path fill-rule="evenodd" d="M343.6,282.4h1.5v-1.5h-1.5v1.5Z" class="g0_11"/>
<path fill-rule="evenodd" d="M345.1,282.4H843v-1.5H345.1v1.5Z" class="g0_11"/>
<path fill-rule="evenodd" d="M843,282.4h1.5v-1.5H843v1.5Z" class="g0_11"/>
<path fill-rule="evenodd" d="M86.2,327.6h1.5V282.4H86.2v45.2Z" class="g0_11"/>
<path fill-rule="evenodd" d="M343.6,327.6h1.5V282.4h-1.5v45.2Z" class="g0_11"/>
<path fill-rule="evenodd" d="M843,327.6h1.5V282.4H843v45.2Z" class="g0_11"/>
<path fill-rule="evenodd" d="M86.2,329.2h1.5v-1.6H86.2v1.6Z" class="g0_11"/>
<path fill-rule="evenodd" d="M87.7,329.2H343.6v-1.6H87.7v1.6Z" class="g0_11"/>
<path fill-rule="evenodd" d="M343.6,329.2h1.5v-1.6h-1.5v1.6Z" class="g0_11"/>
<path fill-rule="evenodd" d="M345.1,329.2H843v-1.6H345.1v1.6Z" class="g0_11"/>
<path fill-rule="evenodd" d="M843,329.2h1.5v-1.6H843v1.6Z" class="g0_11"/>
<path fill-rule="evenodd" d="M86.2,374.4h1.5V329.2H86.2v45.2Z" class="g0_11"/>
<path fill-rule="evenodd" d="M343.6,374.4h1.5V329.2h-1.5v45.2Z" class="g0_11"/>
<path fill-rule="evenodd" d="M843,374.4h1.5V329.2H843v45.2Z" class="g0_11"/>
<path fill-rule="evenodd" d="M86.2,375.9h1.5v-1.5H86.2v1.5Z" class="g0_11"/>
<path fill-rule="evenodd" d="M87.7,375.9H343.6v-1.5H87.7v1.5Z" class="g0_11"/>
<path fill-rule="evenodd" d="M343.6,375.9h1.5v-1.5h-1.5v1.5Z" class="g0_11"/>
<path fill-rule="evenodd" d="M345.1,375.9H843v-1.5H345.1v1.5Z" class="g0_11"/>
<path fill-rule="evenodd" d="M843,375.9h1.5v-1.5H843v1.5Z" class="g0_11"/>
<path fill-rule="evenodd" d="M86.2,440.4h1.5V375.9H86.2v64.5Z" class="g0_11"/>
<path fill-rule="evenodd" d="M343.6,440.4h1.5V375.9h-1.5v64.5Z" class="g0_11"/>
<path fill-rule="evenodd" d="M843,440.4h1.5V375.9H843v64.5Z" class="g0_11"/>
<path fill-rule="evenodd" d="M86.2,441.9h1.5v-1.5H86.2v1.5Z" class="g0_11"/>
<path fill-rule="evenodd" d="M87.7,441.9H343.6v-1.5H87.7v1.5Z" class="g0_11"/>
<path fill-rule="evenodd" d="M343.6,441.9h1.5v-1.5h-1.5v1.5Z" class="g0_11"/>
<path fill-rule="evenodd" d="M345.1,441.9H843v-1.5H345.1v1.5Z" class="g0_11"/>
<path fill-rule="evenodd" d="M843,441.9h1.5v-1.5H843v1.5Z" class="g0_11"/>
<path fill-rule="evenodd" d="M86.2,487.2h1.5V441.9H86.2v45.3Z" class="g0_11"/>
<path fill-rule="evenodd" d="M343.6,487.2h1.5V441.9h-1.5v45.3Z" class="g0_11"/>
<path fill-rule="evenodd" d="M843,487.2h1.5V441.9H843v45.3Z" class="g0_11"/>
<path fill-rule="evenodd" d="M86.2,488.7h1.5v-1.5H86.2v1.5Z" class="g0_11"/>
<path fill-rule="evenodd" d="M87.7,488.7H343.6v-1.5H87.7v1.5Z" class="g0_11"/>
<path fill-rule="evenodd" d="M343.6,488.7h1.5v-1.5h-1.5v1.5Z" class="g0_11"/>
<path fill-rule="evenodd" d="M345.1,488.7H843v-1.5H345.1v1.5Z" class="g0_11"/>
<path fill-rule="evenodd" d="M843,488.7h1.5v-1.5H843v1.5Z" class="g0_11"/>
<path fill-rule="evenodd" d="M86.2,514.4h1.5V488.7H86.2v25.7Z" class="g0_11"/>
<path fill-rule="evenodd" d="M343.6,514.4h1.5V488.7h-1.5v25.7Z" class="g0_11"/>
<path fill-rule="evenodd" d="M843,514.4h1.5V488.7H843v25.7Z" class="g0_11"/>
<path fill-rule="evenodd" d="M86.2,515.9h1.5v-1.5H86.2v1.5Z" class="g0_11"/>
<path fill-rule="evenodd" d="M87.7,515.9H343.6v-1.5H87.7v1.5Z" class="g0_11"/>
<path fill-rule="evenodd" d="M343.6,515.9h1.5v-1.5h-1.5v1.5Z" class="g0_11"/>
<path fill-rule="evenodd" d="M345.1,515.9H843v-1.5H345.1v1.5Z" class="g0_11"/>
<path fill-rule="evenodd" d="M843,515.9h1.5v-1.5H843v1.5Z" class="g0_11"/>
<path fill-rule="evenodd" d="M86.2,541.6h1.5V515.9H86.2v25.7Z" class="g0_11"/>
<path fill-rule="evenodd" d="M343.6,541.6h1.5V515.9h-1.5v25.7Z" class="g0_11"/>
<path fill-rule="evenodd" d="M843,541.6h1.5V515.9H843v25.7Z" class="g0_11"/>
<path fill-rule="evenodd" d="M86.2,543.1h1.5v-1.5H86.2v1.5Z" class="g0_11"/>
<path fill-rule="evenodd" d="M87.7,543.1H343.6v-1.5H87.7v1.5Z" class="g0_11"/>
<path fill-rule="evenodd" d="M343.6,543.1h1.5v-1.5h-1.5v1.5Z" class="g0_11"/>
<path fill-rule="evenodd" d="M345.1,543.1H843v-1.5H345.1v1.5Z" class="g0_11"/>
<path fill-rule="evenodd" d="M843,543.1h1.5v-1.5H843v1.5Z" class="g0_11"/>
<path fill-rule="evenodd" d="M86.2,568.8h1.5V543.1H86.2v25.7Z" class="g0_11"/>
<path fill-rule="evenodd" d="M343.6,568.8h1.5V543.1h-1.5v25.7Z" class="g0_11"/>
<path fill-rule="evenodd" d="M843,568.8h1.5V543.1H843v25.7Z" class="g0_11"/>
<path fill-rule="evenodd" d="M86.2,570.3h1.5v-1.5H86.2v1.5Z" class="g0_11"/>
<path fill-rule="evenodd" d="M87.7,570.3H343.6v-1.5H87.7v1.5Z" class="g0_11"/>
<path fill-rule="evenodd" d="M343.6,570.3h1.5v-1.5h-1.5v1.5Z" class="g0_11"/>
<path fill-rule="evenodd" d="M345.1,570.3H843v-1.5H345.1v1.5Z" class="g0_11"/>
<path fill-rule="evenodd" d="M843,570.3h1.5v-1.5H843v1.5Z" class="g0_11"/>
<path fill-rule="evenodd" d="M86.2,596h1.5V570.3H86.2V596Z" class="g0_11"/>
<path fill-rule="evenodd" d="M343.6,596h1.5V570.3h-1.5V596Z" class="g0_11"/>
<path fill-rule="evenodd" d="M843,596h1.5V570.3H843V596Z" class="g0_11"/>
<path fill-rule="evenodd" d="M86.2,597.5h1.5V596H86.2v1.5Z" class="g0_11"/>
<path fill-rule="evenodd" d="M87.7,597.5H343.6V596H87.7v1.5Z" class="g0_11"/>
<path fill-rule="evenodd" d="M343.6,597.5h1.5V596h-1.5v1.5Z" class="g0_11"/>
<path fill-rule="evenodd" d="M345.1,597.5H843V596H345.1v1.5Z" class="g0_11"/>
<path fill-rule="evenodd" d="M843,597.5h1.5V596H843v1.5Z" class="g0_11"/>
<path fill-rule="evenodd" d="M86.2,642.4h1.5V597.5H86.2v44.9Z" class="g0_11"/>
<path fill-rule="evenodd" d="M343.6,642.4h1.5V597.5h-1.5v44.9Z" class="g0_11"/>
<path fill-rule="evenodd" d="M843,642.4h1.5V597.5H843v44.9Z" class="g0_11"/>
<path fill-rule="evenodd" d="M88,669.6H843.3V644H88v25.6Z" class="g1_11"/>
<path fill-rule="evenodd" d="M91.7,669.6H839.9V644H91.7v25.6Z" class="g1_11"/>
<path fill-rule="evenodd" d="M86.2,644h1.5v-1.6H86.2V644Z" class="g0_11"/>
<path fill-rule="evenodd" d="M87.7,644H343.6v-1.6H87.7V644Z" class="g0_11"/>
<path fill-rule="evenodd" d="M343.6,644h1.5v-1.6h-1.5V644Z" class="g0_11"/>
<path fill-rule="evenodd" d="M345.1,644H843v-1.6H345.1V644Z" class="g0_11"/>
<path fill-rule="evenodd" d="M843,644h1.5v-1.6H843V644Z" class="g0_11"/>
<path fill-rule="evenodd" d="M86.2,669.6h1.5V644H86.2v25.6Z" class="g0_11"/>
<path fill-rule="evenodd" d="M843,669.6h1.5V644H843v25.6Z" class="g0_11"/>
<path fill-rule="evenodd" d="M86.2,671.2h1.5v-1.6H86.2v1.6Z" class="g0_11"/>
<path fill-rule="evenodd" d="M87.7,671.2H343.6v-1.6H87.7v1.6Z" class="g0_11"/>
<path fill-rule="evenodd" d="M343.6,671.2h1.5v-1.6h-1.5v1.6Z" class="g0_11"/>
<path fill-rule="evenodd" d="M345.1,671.2H843v-1.6H345.1v1.6Z" class="g0_11"/>
<path fill-rule="evenodd" d="M843,671.2h1.5v-1.6H843v1.6Z" class="g0_11"/>
<path fill-rule="evenodd" d="M86.2,696.8h1.5V671.2H86.2v25.6Z" class="g0_11"/>
<path fill-rule="evenodd" d="M343.6,696.8h1.5V671.2h-1.5v25.6Z" class="g0_11"/>
<path fill-rule="evenodd" d="M843,696.8h1.5V671.2H843v25.6Z" class="g0_11"/>
<path fill-rule="evenodd" d="M86.2,698.3h1.5v-1.5H86.2v1.5Z" class="g0_11"/>
<path fill-rule="evenodd" d="M87.7,698.3H343.6v-1.5H87.7v1.5Z" class="g0_11"/>
<path fill-rule="evenodd" d="M343.6,698.3h1.5v-1.5h-1.5v1.5Z" class="g0_11"/>
<path fill-rule="evenodd" d="M345.1,698.3H843v-1.5H345.1v1.5Z" class="g0_11"/>
<path fill-rule="evenodd" d="M843,698.3h1.5v-1.5H843v1.5Z" class="g0_11"/>
<path fill-rule="evenodd" d="M86.2,743.6h1.5V698.3H86.2v45.3Z" class="g0_11"/>
<path fill-rule="evenodd" d="M343.6,743.6h1.5V698.3h-1.5v45.3Z" class="g0_11"/>
<path fill-rule="evenodd" d="M843,743.6h1.5V698.3H843v45.3Z" class="g0_11"/>
<path fill-rule="evenodd" d="M86.2,745.1h1.5v-1.5H86.2v1.5Z" class="g0_11"/>
<path fill-rule="evenodd" d="M87.7,745.1H343.6v-1.5H87.7v1.5Z" class="g0_11"/>
<path fill-rule="evenodd" d="M343.6,745.1h1.5v-1.5h-1.5v1.5Z" class="g0_11"/>
<path fill-rule="evenodd" d="M345.1,745.1H843v-1.5H345.1v1.5Z" class="g0_11"/>
<path fill-rule="evenodd" d="M843,745.1h1.5v-1.5H843v1.5Z" class="g0_11"/>
<path fill-rule="evenodd" d="M86.2,770.8h1.5V745.1H86.2v25.7Z" class="g0_11"/>
<path fill-rule="evenodd" d="M343.6,770.8h1.5V745.1h-1.5v25.7Z" class="g0_11"/>
<path fill-rule="evenodd" d="M843,770.8h1.5V745.1H843v25.7Z" class="g0_11"/>
<path fill-rule="evenodd" d="M86.2,772.3h1.5v-1.5H86.2v1.5Z" class="g0_11"/>
<path fill-rule="evenodd" d="M87.7,772.3H343.6v-1.5H87.7v1.5Z" class="g0_11"/>
<path fill-rule="evenodd" d="M343.6,772.3h1.5v-1.5h-1.5v1.5Z" class="g0_11"/>
<path fill-rule="evenodd" d="M345.1,772.3H843v-1.5H345.1v1.5Z" class="g0_11"/>
<path fill-rule="evenodd" d="M843,772.3h1.5v-1.5H843v1.5Z" class="g0_11"/>
<path fill-rule="evenodd" d="M86.2,798h1.5V772.3H86.2V798Z" class="g0_11"/>
<path fill-rule="evenodd" d="M343.6,798h1.5V772.3h-1.5V798Z" class="g0_11"/>
<path fill-rule="evenodd" d="M843,798h1.5V772.3H843V798Z" class="g0_11"/>
<path fill-rule="evenodd" d="M86.2,799.5h1.5V798H86.2v1.5Z" class="g0_11"/>
<path fill-rule="evenodd" d="M87.7,799.5H343.6V798H87.7v1.5Z" class="g0_11"/>
<path fill-rule="evenodd" d="M343.6,799.5h1.5V798h-1.5v1.5Z" class="g0_11"/>
<path fill-rule="evenodd" d="M345.1,799.5H843V798H345.1v1.5Z" class="g0_11"/>
<path fill-rule="evenodd" d="M843,799.5h1.5V798H843v1.5Z" class="g0_11"/>
<path fill-rule="evenodd" d="M86.2,824.9h1.5V799.5H86.2v25.4Z" class="g0_11"/>
<path fill-rule="evenodd" d="M343.6,824.9h1.5V799.5h-1.5v25.4Z" class="g0_11"/>
<path fill-rule="evenodd" d="M843,824.9h1.5V799.5H843v25.4Z" class="g0_11"/>
<path fill-rule="evenodd" d="M86.2,826.4h1.5v-1.5H86.2v1.5Z" class="g0_11"/>
<path fill-rule="evenodd" d="M87.7,826.4H343.6v-1.5H87.7v1.5Z" class="g0_11"/>
<path fill-rule="evenodd" d="M343.6,826.4h1.5v-1.5h-1.5v1.5Z" class="g0_11"/>
<path fill-rule="evenodd" d="M345.1,826.4H843v-1.5H345.1v1.5Z" class="g0_11"/>
<path fill-rule="evenodd" d="M843,826.4h1.5v-1.5H843v1.5Z" class="g0_11"/>
<path fill-rule="evenodd" d="M86.2,891.2h1.5V826.4H86.2v64.8Z" class="g0_11"/>
<path fill-rule="evenodd" d="M343.6,891.2h1.5V826.4h-1.5v64.8Z" class="g0_11"/>
<path fill-rule="evenodd" d="M843,891.2h1.5V826.4H843v64.8Z" class="g0_11"/>
<path fill-rule="evenodd" d="M86.2,892.7h1.5v-1.5H86.2v1.5Z" class="g0_11"/>
<path fill-rule="evenodd" d="M87.7,892.7H343.6v-1.5H87.7v1.5Z" class="g0_11"/>
<path fill-rule="evenodd" d="M343.6,892.7h1.5v-1.5h-1.5v1.5Z" class="g0_11"/>
<path fill-rule="evenodd" d="M345.1,892.7H843v-1.5H345.1v1.5Z" class="g0_11"/>
<path fill-rule="evenodd" d="M843,892.7h1.5v-1.5H843v1.5Z" class="g0_11"/>
<path fill-rule="evenodd" d="M86.2,937.9h1.5V892.7H86.2v45.2Z" class="g0_11"/>
<path fill-rule="evenodd" d="M343.6,937.9h1.5V892.7h-1.5v45.2Z" class="g0_11"/>
<path fill-rule="evenodd" d="M843,937.9h1.5V892.7H843v45.2Z" class="g0_11"/>
<path fill-rule="evenodd" d="M86.2,939.5h1.5v-1.6H86.2v1.6Z" class="g0_11"/>
<path fill-rule="evenodd" d="M87.7,939.5H343.6v-1.6H87.7v1.6Z" class="g0_11"/>
<path fill-rule="evenodd" d="M343.6,939.5h1.5v-1.6h-1.5v1.6Z" class="g0_11"/>
<path fill-rule="evenodd" d="M345.1,939.5H843v-1.6H345.1v1.6Z" class="g0_11"/>
<path fill-rule="evenodd" d="M843,939.5h1.5v-1.6H843v1.6Z" class="g0_11"/>
<path fill-rule="evenodd" d="M86.2,984.4h1.5V939.5H86.2v44.9Z" class="g0_11"/>
<path fill-rule="evenodd" d="M343.6,984.4h1.5V939.5h-1.5v44.9Z" class="g0_11"/>
<path fill-rule="evenodd" d="M843,984.4h1.5V939.5H843v44.9Z" class="g0_11"/>
<path fill-rule="evenodd" d="M86.2,986h1.5v-1.6H86.2V986Z" class="g0_11"/>
<path fill-rule="evenodd" d="M87.7,986H343.6v-1.6H87.7V986Z" class="g0_11"/>
<path fill-rule="evenodd" d="M343.6,986h1.5v-1.6h-1.5V986Z" class="g0_11"/>
<path fill-rule="evenodd" d="M345.1,986H843v-1.6H345.1V986Z" class="g0_11"/>
<path fill-rule="evenodd" d="M843,986h1.5v-1.6H843V986Z" class="g0_11"/>
<path fill-rule="evenodd" d="M86.2,1031.2h1.5V986H86.2v45.2Z" class="g0_11"/>
<path fill-rule="evenodd" d="M343.6,1031.2h1.5V986h-1.5v45.2Z" class="g0_11"/>
<path fill-rule="evenodd" d="M843,1031.2h1.5V986H843v45.2Z" class="g0_11"/>
<path fill-rule="evenodd" d="M86.2,1032.7h1.5v-1.5H86.2v1.5Z" class="g0_11"/>
<path fill-rule="evenodd" d="M87.7,1032.7H343.6v-1.5H87.7v1.5Z" class="g0_11"/>
<path fill-rule="evenodd" d="M343.6,1032.7h1.5v-1.5h-1.5v1.5Z" class="g0_11"/>
<path fill-rule="evenodd" d="M345.1,1032.7H843v-1.5H345.1v1.5Z" class="g0_11"/>
<path fill-rule="evenodd" d="M843,1032.7h1.5v-1.5H843v1.5Z" class="g0_11"/>
<path fill-rule="evenodd" d="M86.2,1077.9h1.5v-45.2H86.2v45.2Z" class="g0_11"/>
<path fill-rule="evenodd" d="M343.6,1077.9h1.5v-45.2h-1.5v45.2Z" class="g0_11"/>
<path fill-rule="evenodd" d="M843,1077.9h1.5v-45.2H843v45.2Z" class="g0_11"/>
<path fill-rule="evenodd" d="M86.2,1079.5h1.5v-1.6H86.2v1.6Z" class="g0_11"/>
<path fill-rule="evenodd" d="M87.7,1079.5H343.6v-1.6H87.7v1.6Z" class="g0_11"/>
<path fill-rule="evenodd" d="M343.6,1079.5h1.5v-1.6h-1.5v1.6Z" class="g0_11"/>
<path fill-rule="evenodd" d="M345.1,1079.5H843v-1.6H345.1v1.6Z" class="g0_11"/>
<path fill-rule="evenodd" d="M843,1079.5h1.5v-1.6H843v1.6Z" class="g0_11"/>
<path fill-rule="evenodd" d="M86.2,1124.7h1.5v-45.2H86.2v45.2Z" class="g0_11"/>
<path fill-rule="evenodd" d="M343.6,1124.7h1.5v-45.2h-1.5v45.2Z" class="g0_11"/>
<path fill-rule="evenodd" d="M843,1124.7h1.5v-45.2H843v45.2Z" class="g0_11"/>
<path fill-rule="evenodd" d="M86.2,1126.2h1.5v-1.5H86.2v1.5Z" class="g0_11"/>
<path fill-rule="evenodd" d="M87.7,1126.2H343.6v-1.5H87.7v1.5Z" class="g0_11"/>
<path fill-rule="evenodd" d="M343.6,1126.2h1.5v-1.5h-1.5v1.5Z" class="g0_11"/>
<path fill-rule="evenodd" d="M345.1,1126.2H843v-1.5H345.1v1.5Z" class="g0_11"/>
<path fill-rule="evenodd" d="M843,1126.2h1.5v-1.5H843v1.5Z" class="g0_11"/>
<path fill-rule="evenodd" d="M86.2,1171.2h1.5v-45H86.2v45Z" class="g0_11"/>
<path fill-rule="evenodd" d="M86.2,1172.7h1.5v-1.5H86.2v1.5Z" class="g0_11"/>
<path fill-rule="evenodd" d="M86.2,1172.7h1.5v-1.5H86.2v1.5Z" class="g0_11"/>
<path fill-rule="evenodd" d="M87.7,1172.7H343.6v-1.5H87.7v1.5Z" class="g0_11"/>
<path fill-rule="evenodd" d="M343.6,1171.2h1.5v-45h-1.5v45Z" class="g0_11"/>
<path fill-rule="evenodd" d="M343.6,1172.7h1.5v-1.5h-1.5v1.5Z" class="g0_11"/>
<path fill-rule="evenodd" d="M345.1,1172.7H843v-1.5H345.1v1.5Z" class="g0_11"/>
<path fill-rule="evenodd" d="M843,1171.2h1.5v-45H843v45Z" class="g0_11"/>
<path fill-rule="evenodd" d="M843,1172.7h1.5v-1.5H843v1.5Z" class="g0_11"/>
<path fill-rule="evenodd" d="M843,1172.7h1.5v-1.5H843v1.5Z" class="g0_11"/>
</svg>