<?xml version="1.0" encoding="UTF-8" standalone="no"?>
<!DOCTYPE svg PUBLIC "-//W3C//DTD SVG 1.1//EN"
"http://www.w3.org/Graphics/SVG/1.1/DTD/svg11.dtd">
<svg viewBox="0 0 909 1286" version="1.1" xmlns="http://www.w3.org/2000/svg" xmlns:xlink="http://www.w3.org/1999/xlink">
<defs>
<clipPath id="c0_39"><path d="M100.4,1159V740.8H830.7V1159Z"/></clipPath>
<style type="text/css"><![CDATA[
.g0_39{
}
.g1_39{
fill: #F1F1F1;
}
]]></style>
</defs>
<path fill-rule="evenodd" d="M86.5,66H844.8V64.5H86.5V66Z" class="g0_39"/>
<path fill-rule="evenodd" d="M86.5,221.9h70v-1.3h-70v1.3Z" class="g0_39"/>
<path fill-rule="evenodd" d="M87.7,298H843.6V272.3H87.7V298Z" class="g1_39"/>
<path fill-rule="evenodd" d="M95.4,298H836V272.3H95.4V298Z" class="g1_39"/>
<path fill-rule="evenodd" d="M85.9,272.3h1.5v-1.5H85.9v1.5Z" class="g0_39"/>
<path fill-rule="evenodd" d="M85.9,272.3h1.5v-1.5H85.9v1.5Z" class="g0_39"/>
<path fill-rule="evenodd" d="M87.4,272.3H843.3v-1.5H87.4v1.5Z" class="g0_39"/>
<path fill-rule="evenodd" d="M843.3,272.3h1.5v-1.5h-1.5v1.5Z" class="g0_39"/>
<path fill-rule="evenodd" d="M843.3,272.3h1.5v-1.5h-1.5v1.5Z" class="g0_39"/>
<path fill-rule="evenodd" d="M85.9,298h1.5V272.3H85.9V298Z" class="g0_39"/>
<path fill-rule="evenodd" d="M843.3,298h1.5V272.3h-1.5V298Z" class="g0_39"/>
<path fill-rule="evenodd" d="M85.9,299.5h1.5V298H85.9v1.5Z" class="g0_39"/>
<path fill-rule="evenodd" d="M87.4,299.5H318.8V298H87.4v1.5Z" class="g0_39"/>
<path fill-rule="evenodd" d="M318.8,299.5h1.5V298h-1.5v1.5Z" class="g0_39"/>
<path fill-rule="evenodd" d="M320.3,299.5h523V298h-523v1.5Z" class="g0_39"/>
<path fill-rule="evenodd" d="M843.3,299.5h1.5V298h-1.5v1.5Z" class="g0_39"/>
<path fill-rule="evenodd" d="M85.9,324.9h1.5V299.5H85.9v25.4Z" class="g0_39"/>
<path fill-rule="evenodd" d="M318.8,324.9h1.5V299.5h-1.5v25.4Z" class="g0_39"/>
<path fill-rule="evenodd" d="M843.3,324.9h1.5V299.5h-1.5v25.4Z" class="g0_39"/>
<path fill-rule="evenodd" d="M85.9,326.4h1.5v-1.5H85.9v1.5Z" class="g0_39"/>
<path fill-rule="evenodd" d="M87.4,326.4H318.8v-1.5H87.4v1.5Z" class="g0_39"/>
<path fill-rule="evenodd" d="M318.8,326.4h1.5v-1.5h-1.5v1.5Z" class="g0_39"/>
<path fill-rule="evenodd" d="M320.3,326.4h523v-1.5h-523v1.5Z" class="g0_39"/>
<path fill-rule="evenodd" d="M843.3,326.4h1.5v-1.5h-1.5v1.5Z" class="g0_39"/>
<path fill-rule="evenodd" d="M85.9,352.1h1.5V326.4H85.9v25.7Z" class="g0_39"/>
<path fill-rule="evenodd" d="M318.8,352.1h1.5V326.4h-1.5v25.7Z" class="g0_39"/>
<path fill-rule="evenodd" d="M843.3,352.1h1.5V326.4h-1.5v25.7Z" class="g0_39"/>
<path fill-rule="evenodd" d="M87.7,379.3H843.6V353.6H87.7v25.7Z" class="g1_39"/>
<path fill-rule="evenodd" d="M95.4,379.3H836V353.6H95.4v25.7Z" class="g1_39"/>
<path fill-rule="evenodd" d="M85.9,353.6h1.5v-1.5H85.9v1.5Z" class="g0_39"/>
<path fill-rule="evenodd" d="M87.4,353.6H318.8v-1.5H87.4v1.5Z" class="g0_39"/>
<path fill-rule="evenodd" d="M318.8,353.6h1.5v-1.5h-1.5v1.5Z" class="g0_39"/>
<path fill-rule="evenodd" d="M320.3,353.6h523v-1.5h-523v1.5Z" class="g0_39"/>
<path fill-rule="evenodd" d="M843.3,353.6h1.5v-1.5h-1.5v1.5Z" class="g0_39"/>
<path fill-rule="evenodd" d="M85.9,379.3h1.5V353.6H85.9v25.7Z" class="g0_39"/>
<path fill-rule="evenodd" d="M843.3,379.3h1.5V353.6h-1.5v25.7Z" class="g0_39"/>
<path fill-rule="evenodd" d="M85.9,380.8h1.5v-1.5H85.9v1.5Z" class="g0_39"/>
<path fill-rule="evenodd" d="M87.4,380.8H318.8v-1.5H87.4v1.5Z" class="g0_39"/>
<path fill-rule="evenodd" d="M318.8,380.8h1.5v-1.5h-1.5v1.5Z" class="g0_39"/>
<path fill-rule="evenodd" d="M320.3,380.8h523v-1.5h-523v1.5Z" class="g0_39"/>
<path fill-rule="evenodd" d="M843.3,380.8h1.5v-1.5h-1.5v1.5Z" class="g0_39"/>
<path fill-rule="evenodd" d="M85.9,406.5h1.5V380.8H85.9v25.7Z" class="g0_39"/>
<path fill-rule="evenodd" d="M318.8,406.5h1.5V380.8h-1.5v25.7Z" class="g0_39"/>
<path fill-rule="evenodd" d="M843.3,406.5h1.5V380.8h-1.5v25.7Z" class="g0_39"/>
<path fill-rule="evenodd" d="M85.9,408h1.5v-1.5H85.9V408Z" class="g0_39"/>
<path fill-rule="evenodd" d="M87.4,408H318.8v-1.5H87.4V408Z" class="g0_39"/>
<path fill-rule="evenodd" d="M318.8,408h1.5v-1.5h-1.5V408Z" class="g0_39"/>
<path fill-rule="evenodd" d="M320.3,408h523v-1.5h-523V408Z" class="g0_39"/>
<path fill-rule="evenodd" d="M843.3,408h1.5v-1.5h-1.5V408Z" class="g0_39"/>
<path fill-rule="evenodd" d="M85.9,433.7h1.5V408H85.9v25.7Z" class="g0_39"/>
<path fill-rule="evenodd" d="M318.8,433.7h1.5V408h-1.5v25.7Z" class="g0_39"/>
<path fill-rule="evenodd" d="M843.3,433.7h1.5V408h-1.5v25.7Z" class="g0_39"/>
<path fill-rule="evenodd" d="M85.9,435.2h1.5v-1.5H85.9v1.5Z" class="g0_39"/>
<path fill-rule="evenodd" d="M87.4,435.2H318.8v-1.5H87.4v1.5Z" class="g0_39"/>
<path fill-rule="evenodd" d="M318.8,435.2h1.5v-1.5h-1.5v1.5Z" class="g0_39"/>
<path fill-rule="evenodd" d="M320.3,435.2h523v-1.5h-523v1.5Z" class="g0_39"/>
<path fill-rule="evenodd" d="M843.3,435.2h1.5v-1.5h-1.5v1.5Z" class="g0_39"/>
<path fill-rule="evenodd" d="M85.9,460.9h1.5V435.2H85.9v25.7Z" class="g0_39"/>
<path fill-rule="evenodd" d="M318.8,460.9h1.5V435.2h-1.5v25.7Z" class="g0_39"/>
<path fill-rule="evenodd" d="M843.3,460.9h1.5V435.2h-1.5v25.7Z" class="g0_39"/>
<path fill-rule="evenodd" d="M85.9,462.4h1.5v-1.5H85.9v1.5Z" class="g0_39"/>
<path fill-rule="evenodd" d="M87.4,462.4H318.8v-1.5H87.4v1.5Z" class="g0_39"/>
<path fill-rule="evenodd" d="M318.8,462.4h1.5v-1.5h-1.5v1.5Z" class="g0_39"/>
<path fill-rule="evenodd" d="M320.3,462.4h523v-1.5h-523v1.5Z" class="g0_39"/>
<path fill-rule="evenodd" d="M843.3,462.4h1.5v-1.5h-1.5v1.5Z" class="g0_39"/>
<path fill-rule="evenodd" d="M85.9,488.1h1.5V462.4H85.9v25.7Z" class="g0_39"/>
<path fill-rule="evenodd" d="M318.8,488.1h1.5V462.4h-1.5v25.7Z" class="g0_39"/>
<path fill-rule="evenodd" d="M843.3,488.1h1.5V462.4h-1.5v25.7Z" class="g0_39"/>
<path fill-rule="evenodd" d="M85.9,489.6h1.5v-1.5H85.9v1.5Z" class="g0_39"/>
<path fill-rule="evenodd" d="M87.4,489.6H318.8v-1.5H87.4v1.5Z" class="g0_39"/>
<path fill-rule="evenodd" d="M318.8,489.6h1.5v-1.5h-1.5v1.5Z" class="g0_39"/>
<path fill-rule="evenodd" d="M320.3,489.6h523v-1.5h-523v1.5Z" class="g0_39"/>
<path fill-rule="evenodd" d="M843.3,489.6h1.5v-1.5h-1.5v1.5Z" class="g0_39"/>
<path fill-rule="evenodd" d="M85.9,534.5h1.5V489.6H85.9v44.9Z" class="g0_39"/>
<path fill-rule="evenodd" d="M318.8,534.5h1.5V489.6h-1.5v44.9Z" class="g0_39"/>
<path fill-rule="evenodd" d="M843.3,534.5h1.5V489.6h-1.5v44.9Z" class="g0_39"/>
<path fill-rule="evenodd" d="M85.9,536.1h1.5v-1.6H85.9v1.6Z" class="g0_39"/>
<path fill-rule="evenodd" d="M87.4,536.1H318.8v-1.6H87.4v1.6Z" class="g0_39"/>
<path fill-rule="evenodd" d="M318.8,536.1h1.5v-1.6h-1.5v1.6Z" class="g0_39"/>
<path fill-rule="evenodd" d="M320.3,536.1h523v-1.6h-523v1.6Z" class="g0_39"/>
<path fill-rule="evenodd" d="M843.3,536.1h1.5v-1.6h-1.5v1.6Z" class="g0_39"/>
<path fill-rule="evenodd" d="M85.9,561.7h1.5V536.1H85.9v25.6Z" class="g0_39"/>
<path fill-rule="evenodd" d="M85.9,563.3h1.5v-1.6H85.9v1.6Z" class="g0_39"/>
<path fill-rule="evenodd" d="M85.9,563.3h1.5v-1.6H85.9v1.6Z" class="g0_39"/>
<path fill-rule="evenodd" d="M87.4,563.3H318.8v-1.6H87.4v1.6Z" class="g0_39"/>
<path fill-rule="evenodd" d="M318.8,561.7h1.5V536.1h-1.5v25.6Z" class="g0_39"/>
<path fill-rule="evenodd" d="M318.8,563.3h1.5v-1.6h-1.5v1.6Z" class="g0_39"/>
<path fill-rule="evenodd" d="M320.3,563.3h523v-1.6h-523v1.6Z" class="g0_39"/>
<path fill-rule="evenodd" d="M843.3,561.7h1.5V536.1h-1.5v25.6Z" class="g0_39"/>
<path fill-rule="evenodd" d="M843.3,563.3h1.5v-1.6h-1.5v1.6Z" class="g0_39"/>
<path fill-rule="evenodd" d="M843.3,563.3h1.5v-1.6h-1.5v1.6Z" class="g0_39"/>
<image clip-path="url(#c0_39)" preserveAspectRatio="none" x="100" y="741" width="731" height="418" xlink:href="img/1.jpg"/>
</svg>