<?xml version="1.0" encoding="UTF-8" standalone="no"?>
<!DOCTYPE svg PUBLIC "-//W3C//DTD SVG 1.1//EN"
"http://www.w3.org/Graphics/SVG/1.1/DTD/svg11.dtd">
<svg viewBox="0 0 909 1286" version="1.1" xmlns="http://www.w3.org/2000/svg" xmlns:xlink="http://www.w3.org/1999/xlink">
<defs>
<style type="text/css"><![CDATA[
.g0_20{
}
.g1_20{
fill: #F1F1F1;
}
]]></style>
</defs>
<path fill-rule="evenodd" d="M65.1,66H823.4V64.5H65.1V66Z" class="g0_20"/>
<path fill-rule="evenodd" d="M65.1,105.4h78.5v-1.2H65.1v1.2Z" class="g0_20"/>
<path fill-rule="evenodd" d="M67.9,176.3H820.4V150.7H67.9v25.6Z" class="g1_20"/>
<path fill-rule="evenodd" d="M75.5,176.3H812.7V150.7H75.5v25.6Z" class="g1_20"/>
<path fill-rule="evenodd" d="M66.3,150.7h1.6v-1.5H66.3v1.5Z" class="g0_20"/>
<path fill-rule="evenodd" d="M66.3,150.7h1.6v-1.5H66.3v1.5Z" class="g0_20"/>
<path fill-rule="evenodd" d="M67.9,150.7H820.4v-1.5H67.9v1.5Z" class="g0_20"/>
<path fill-rule="evenodd" d="M820.4,150.7h1.5v-1.5h-1.5v1.5Z" class="g0_20"/>
<path fill-rule="evenodd" d="M820.4,150.7h1.5v-1.5h-1.5v1.5Z" class="g0_20"/>
<path fill-rule="evenodd" d="M66.3,176.3h1.6V150.7H66.3v25.6Z" class="g0_20"/>
<path fill-rule="evenodd" d="M820.4,176.3h1.5V150.7h-1.5v25.6Z" class="g0_20"/>
<path fill-rule="evenodd" d="M66.3,177.9h1.6v-1.6H66.3v1.6Z" class="g0_20"/>
<path fill-rule="evenodd" d="M67.9,177.9H272.3v-1.6H67.9v1.6Z" class="g0_20"/>
<path fill-rule="evenodd" d="M272.3,177.9h1.6v-1.6h-1.6v1.6Z" class="g0_20"/>
<path fill-rule="evenodd" d="M273.9,177.9H820.4v-1.6H273.9v1.6Z" class="g0_20"/>
<path fill-rule="evenodd" d="M820.4,177.9h1.5v-1.6h-1.5v1.6Z" class="g0_20"/>
<path fill-rule="evenodd" d="M66.3,281.5h1.6V177.9H66.3V281.5Z" class="g0_20"/>
<path fill-rule="evenodd" d="M272.3,281.5h1.6V177.9h-1.6V281.5Z" class="g0_20"/>
<path fill-rule="evenodd" d="M820.4,281.5h1.5V177.9h-1.5V281.5Z" class="g0_20"/>
<path fill-rule="evenodd" d="M66.3,283h1.6v-1.5H66.3V283Z" class="g0_20"/>
<path fill-rule="evenodd" d="M67.9,283H272.3v-1.5H67.9V283Z" class="g0_20"/>
<path fill-rule="evenodd" d="M272.3,283h1.6v-1.5h-1.6V283Z" class="g0_20"/>
<path fill-rule="evenodd" d="M273.9,283H820.4v-1.5H273.9V283Z" class="g0_20"/>
<path fill-rule="evenodd" d="M820.4,283h1.5v-1.5h-1.5V283Z" class="g0_20"/>
<path fill-rule="evenodd" d="M66.3,328.2h1.6V283H66.3v45.2Z" class="g0_20"/>
<path fill-rule="evenodd" d="M272.3,328.2h1.6V283h-1.6v45.2Z" class="g0_20"/>
<path fill-rule="evenodd" d="M820.4,328.2h1.5V283h-1.5v45.2Z" class="g0_20"/>
<path fill-rule="evenodd" d="M66.3,329.8h1.6v-1.6H66.3v1.6Z" class="g0_20"/>
<path fill-rule="evenodd" d="M67.9,329.8H272.3v-1.6H67.9v1.6Z" class="g0_20"/>
<path fill-rule="evenodd" d="M272.3,329.8h1.6v-1.6h-1.6v1.6Z" class="g0_20"/>
<path fill-rule="evenodd" d="M273.9,329.8H820.4v-1.6H273.9v1.6Z" class="g0_20"/>
<path fill-rule="evenodd" d="M820.4,329.8h1.5v-1.6h-1.5v1.6Z" class="g0_20"/>
<path fill-rule="evenodd" d="M66.3,355.4h1.6V329.8H66.3v25.6Z" class="g0_20"/>
<path fill-rule="evenodd" d="M272.3,355.4h1.6V329.8h-1.6v25.6Z" class="g0_20"/>
<path fill-rule="evenodd" d="M820.4,355.4h1.5V329.8h-1.5v25.6Z" class="g0_20"/>
<path fill-rule="evenodd" d="M66.3,357h1.6v-1.6H66.3V357Z" class="g0_20"/>
<path fill-rule="evenodd" d="M67.9,357H272.3v-1.6H67.9V357Z" class="g0_20"/>
<path fill-rule="evenodd" d="M272.3,357h1.6v-1.6h-1.6V357Z" class="g0_20"/>
<path fill-rule="evenodd" d="M273.9,357H820.4v-1.6H273.9V357Z" class="g0_20"/>
<path fill-rule="evenodd" d="M820.4,357h1.5v-1.6h-1.5V357Z" class="g0_20"/>
<path fill-rule="evenodd" d="M66.3,382.6h1.6V357H66.3v25.6Z" class="g0_20"/>
<path fill-rule="evenodd" d="M272.3,382.6h1.6V357h-1.6v25.6Z" class="g0_20"/>
<path fill-rule="evenodd" d="M820.4,382.6h1.5V357h-1.5v25.6Z" class="g0_20"/>
<path fill-rule="evenodd" d="M66.3,384.2h1.6v-1.6H66.3v1.6Z" class="g0_20"/>
<path fill-rule="evenodd" d="M67.9,384.2H272.3v-1.6H67.9v1.6Z" class="g0_20"/>
<path fill-rule="evenodd" d="M272.3,384.2h1.6v-1.6h-1.6v1.6Z" class="g0_20"/>
<path fill-rule="evenodd" d="M273.9,384.2H820.4v-1.6H273.9v1.6Z" class="g0_20"/>
<path fill-rule="evenodd" d="M820.4,384.2h1.5v-1.6h-1.5v1.6Z" class="g0_20"/>
<path fill-rule="evenodd" d="M66.3,409.8h1.6V384.2H66.3v25.6Z" class="g0_20"/>
<path fill-rule="evenodd" d="M272.3,409.8h1.6V384.2h-1.6v25.6Z" class="g0_20"/>
<path fill-rule="evenodd" d="M820.4,409.8h1.5V384.2h-1.5v25.6Z" class="g0_20"/>
<path fill-rule="evenodd" d="M66.3,411.4h1.6v-1.6H66.3v1.6Z" class="g0_20"/>
<path fill-rule="evenodd" d="M67.9,411.4H272.3v-1.6H67.9v1.6Z" class="g0_20"/>
<path fill-rule="evenodd" d="M272.3,411.4h1.6v-1.6h-1.6v1.6Z" class="g0_20"/>
<path fill-rule="evenodd" d="M273.9,411.4H820.4v-1.6H273.9v1.6Z" class="g0_20"/>
<path fill-rule="evenodd" d="M820.4,411.4h1.5v-1.6h-1.5v1.6Z" class="g0_20"/>
<path fill-rule="evenodd" d="M66.3,437.1h1.6V411.4H66.3v25.7Z" class="g0_20"/>
<path fill-rule="evenodd" d="M272.3,437.1h1.6V411.4h-1.6v25.7Z" class="g0_20"/>
<path fill-rule="evenodd" d="M820.4,437.1h1.5V411.4h-1.5v25.7Z" class="g0_20"/>
<path fill-rule="evenodd" d="M66.3,438.6h1.6v-1.5H66.3v1.5Z" class="g0_20"/>
<path fill-rule="evenodd" d="M67.9,438.6H272.3v-1.5H67.9v1.5Z" class="g0_20"/>
<path fill-rule="evenodd" d="M272.3,438.6h1.6v-1.5h-1.6v1.5Z" class="g0_20"/>
<path fill-rule="evenodd" d="M273.9,438.6H820.4v-1.5H273.9v1.5Z" class="g0_20"/>
<path fill-rule="evenodd" d="M820.4,438.6h1.5v-1.5h-1.5v1.5Z" class="g0_20"/>
<path fill-rule="evenodd" d="M66.3,483.5h1.6V438.6H66.3v44.9Z" class="g0_20"/>
<path fill-rule="evenodd" d="M272.3,483.5h1.6V438.6h-1.6v44.9Z" class="g0_20"/>
<path fill-rule="evenodd" d="M820.4,483.5h1.5V438.6h-1.5v44.9Z" class="g0_20"/>
<path fill-rule="evenodd" d="M67.9,510.7H820.4V485H67.9v25.7Z" class="g1_20"/>
<path fill-rule="evenodd" d="M75.5,510.7H812.7V485H75.5v25.7Z" class="g1_20"/>
<path fill-rule="evenodd" d="M66.3,485h1.6v-1.5H66.3V485Z" class="g0_20"/>
<path fill-rule="evenodd" d="M67.9,485H272.3v-1.5H67.9V485Z" class="g0_20"/>
<path fill-rule="evenodd" d="M272.3,485h1.6v-1.5h-1.6V485Z" class="g0_20"/>
<path fill-rule="evenodd" d="M273.9,485H820.4v-1.5H273.9V485Z" class="g0_20"/>
<path fill-rule="evenodd" d="M820.4,485h1.5v-1.5h-1.5V485Z" class="g0_20"/>
<path fill-rule="evenodd" d="M66.3,510.7h1.6V485H66.3v25.7Z" class="g0_20"/>
<path fill-rule="evenodd" d="M820.4,510.7h1.5V485h-1.5v25.7Z" class="g0_20"/>
<path fill-rule="evenodd" d="M66.3,512.2h1.6v-1.5H66.3v1.5Z" class="g0_20"/>
<path fill-rule="evenodd" d="M67.9,512.2H272.3v-1.5H67.9v1.5Z" class="g0_20"/>
<path fill-rule="evenodd" d="M272.3,512.2h1.6v-1.5h-1.6v1.5Z" class="g0_20"/>
<path fill-rule="evenodd" d="M273.9,512.2H820.4v-1.5H273.9v1.5Z" class="g0_20"/>
<path fill-rule="evenodd" d="M820.4,512.2h1.5v-1.5h-1.5v1.5Z" class="g0_20"/>
<path fill-rule="evenodd" d="M66.3,537.9h1.6V512.2H66.3v25.7Z" class="g0_20"/>
<path fill-rule="evenodd" d="M272.3,537.9h1.6V512.2h-1.6v25.7Z" class="g0_20"/>
<path fill-rule="evenodd" d="M820.4,537.9h1.5V512.2h-1.5v25.7Z" class="g0_20"/>
<path fill-rule="evenodd" d="M66.3,539.4h1.6v-1.5H66.3v1.5Z" class="g0_20"/>
<path fill-rule="evenodd" d="M67.9,539.4H272.3v-1.5H67.9v1.5Z" class="g0_20"/>
<path fill-rule="evenodd" d="M272.3,539.4h1.6v-1.5h-1.6v1.5Z" class="g0_20"/>
<path fill-rule="evenodd" d="M273.9,539.4H820.4v-1.5H273.9v1.5Z" class="g0_20"/>
<path fill-rule="evenodd" d="M820.4,539.4h1.5v-1.5h-1.5v1.5Z" class="g0_20"/>
<path fill-rule="evenodd" d="M66.3,565.1h1.6V539.4H66.3v25.7Z" class="g0_20"/>
<path fill-rule="evenodd" d="M272.3,565.1h1.6V539.4h-1.6v25.7Z" class="g0_20"/>
<path fill-rule="evenodd" d="M820.4,565.1h1.5V539.4h-1.5v25.7Z" class="g0_20"/>
<path fill-rule="evenodd" d="M66.3,566.6h1.6v-1.5H66.3v1.5Z" class="g0_20"/>
<path fill-rule="evenodd" d="M67.9,566.6H272.3v-1.5H67.9v1.5Z" class="g0_20"/>
<path fill-rule="evenodd" d="M272.3,566.6h1.6v-1.5h-1.6v1.5Z" class="g0_20"/>
<path fill-rule="evenodd" d="M273.9,566.6H820.4v-1.5H273.9v1.5Z" class="g0_20"/>
<path fill-rule="evenodd" d="M820.4,566.6h1.5v-1.5h-1.5v1.5Z" class="g0_20"/>
<path fill-rule="evenodd" d="M66.3,592.3h1.6V566.6H66.3v25.7Z" class="g0_20"/>
<path fill-rule="evenodd" d="M272.3,592.3h1.6V566.6h-1.6v25.7Z" class="g0_20"/>
<path fill-rule="evenodd" d="M820.4,592.3h1.5V566.6h-1.5v25.7Z" class="g0_20"/>
<path fill-rule="evenodd" d="M66.3,593.8h1.6v-1.5H66.3v1.5Z" class="g0_20"/>
<path fill-rule="evenodd" d="M67.9,593.8H272.3v-1.5H67.9v1.5Z" class="g0_20"/>
<path fill-rule="evenodd" d="M272.3,593.8h1.6v-1.5h-1.6v1.5Z" class="g0_20"/>
<path fill-rule="evenodd" d="M273.9,593.8H820.4v-1.5H273.9v1.5Z" class="g0_20"/>
<path fill-rule="evenodd" d="M820.4,593.8h1.5v-1.5h-1.5v1.5Z" class="g0_20"/>
<path fill-rule="evenodd" d="M66.3,619.5h1.6V593.8H66.3v25.7Z" class="g0_20"/>
<path fill-rule="evenodd" d="M272.3,619.5h1.6V593.8h-1.6v25.7Z" class="g0_20"/>
<path fill-rule="evenodd" d="M820.4,619.5h1.5V593.8h-1.5v25.7Z" class="g0_20"/>
<path fill-rule="evenodd" d="M66.3,621h1.6v-1.5H66.3V621Z" class="g0_20"/>
<path fill-rule="evenodd" d="M67.9,621H272.3v-1.5H67.9V621Z" class="g0_20"/>
<path fill-rule="evenodd" d="M272.3,621h1.6v-1.5h-1.6V621Z" class="g0_20"/>
<path fill-rule="evenodd" d="M273.9,621H820.4v-1.5H273.9V621Z" class="g0_20"/>
<path fill-rule="evenodd" d="M820.4,621h1.5v-1.5h-1.5V621Z" class="g0_20"/>
<path fill-rule="evenodd" d="M66.3,666h1.6V621H66.3v45Z" class="g0_20"/>
<path fill-rule="evenodd" d="M66.3,667.5h1.6V666H66.3v1.5Z" class="g0_20"/>
<path fill-rule="evenodd" d="M66.3,667.5h1.6V666H66.3v1.5Z" class="g0_20"/>
<path fill-rule="evenodd" d="M67.9,667.5H272.3V666H67.9v1.5Z" class="g0_20"/>
<path fill-rule="evenodd" d="M272.3,666h1.6V621h-1.6v45Z" class="g0_20"/>
<path fill-rule="evenodd" d="M272.3,667.5h1.6V666h-1.6v1.5Z" class="g0_20"/>
<path fill-rule="evenodd" d="M273.9,667.5H820.4V666H273.9v1.5Z" class="g0_20"/>
<path fill-rule="evenodd" d="M820.4,666h1.5V621h-1.5v45Z" class="g0_20"/>
<path fill-rule="evenodd" d="M820.4,667.5h1.5V666h-1.5v1.5Z" class="g0_20"/>
<path fill-rule="evenodd" d="M820.4,667.5h1.5V666h-1.5v1.5Z" class="g0_20"/>
<path fill-rule="evenodd" d="M65.1,751.5H140v-1.2H65.1v1.2Z" class="g0_20"/>
<path fill-rule="evenodd" d="M66.3,843.8H821.9V818.2H66.3v25.6Z" class="g1_20"/>
<path fill-rule="evenodd" d="M73.7,843.8H814.6V818.2H73.7v25.6Z" class="g1_20"/>
<path fill-rule="evenodd" d="M64.5,818.2H66v-1.6H64.5v1.6Z" class="g0_20"/>
<path fill-rule="evenodd" d="M64.5,818.2H66v-1.6H64.5v1.6Z" class="g0_20"/>
<path fill-rule="evenodd" d="M66,818.2H821.9v-1.6H66v1.6Z" class="g0_20"/>
<path fill-rule="evenodd" d="M821.9,818.2h1.5v-1.6h-1.5v1.6Z" class="g0_20"/>
<path fill-rule="evenodd" d="M821.9,818.2h1.5v-1.6h-1.5v1.6Z" class="g0_20"/>
<path fill-rule="evenodd" d="M64.5,843.8H66V818.2H64.5v25.6Z" class="g0_20"/>
<path fill-rule="evenodd" d="M821.9,843.8h1.5V818.2h-1.5v25.6Z" class="g0_20"/>
<path fill-rule="evenodd" d="M64.5,845.4H66v-1.6H64.5v1.6Z" class="g0_20"/>
<path fill-rule="evenodd" d="M66,845.4H265.6v-1.6H66v1.6Z" class="g0_20"/>
<path fill-rule="evenodd" d="M265.6,845.4h1.5v-1.6h-1.5v1.6Z" class="g0_20"/>
<path fill-rule="evenodd" d="M267.1,845.4H821.9v-1.6H267.1v1.6Z" class="g0_20"/>
<path fill-rule="evenodd" d="M821.9,845.4h1.5v-1.6h-1.5v1.6Z" class="g0_20"/>
<path fill-rule="evenodd" d="M64.5,871H66V845.4H64.5V871Z" class="g0_20"/>
<path fill-rule="evenodd" d="M265.6,871h1.5V845.4h-1.5V871Z" class="g0_20"/>
<path fill-rule="evenodd" d="M821.9,871h1.5V845.4h-1.5V871Z" class="g0_20"/>
<path fill-rule="evenodd" d="M66.3,897.9H821.9V872.6H66.3v25.3Z" class="g1_20"/>
<path fill-rule="evenodd" d="M73.7,897.9H814.6V872.6H73.7v25.3Z" class="g1_20"/>
<path fill-rule="evenodd" d="M64.5,872.6H66V871H64.5v1.6Z" class="g0_20"/>
<path fill-rule="evenodd" d="M66,872.6H265.6V871H66v1.6Z" class="g0_20"/>
<path fill-rule="evenodd" d="M265.6,872.6h1.5V871h-1.5v1.6Z" class="g0_20"/>
<path fill-rule="evenodd" d="M267.1,872.6H821.9V871H267.1v1.6Z" class="g0_20"/>
<path fill-rule="evenodd" d="M821.9,872.6h1.5V871h-1.5v1.6Z" class="g0_20"/>
<path fill-rule="evenodd" d="M64.5,897.9H66V872.6H64.5v25.3Z" class="g0_20"/>
<path fill-rule="evenodd" d="M821.9,897.9h1.5V872.6h-1.5v25.3Z" class="g0_20"/>
<path fill-rule="evenodd" d="M64.5,899.4H66v-1.5H64.5v1.5Z" class="g0_20"/>
<path fill-rule="evenodd" d="M66,899.4H265.6v-1.5H66v1.5Z" class="g0_20"/>
<path fill-rule="evenodd" d="M265.6,899.4h1.5v-1.5h-1.5v1.5Z" class="g0_20"/>
<path fill-rule="evenodd" d="M267.1,899.4H821.9v-1.5H267.1v1.5Z" class="g0_20"/>
<path fill-rule="evenodd" d="M821.9,899.4h1.5v-1.5h-1.5v1.5Z" class="g0_20"/>
<path fill-rule="evenodd" d="M64.5,944.7H66V899.4H64.5v45.3Z" class="g0_20"/>
<path fill-rule="evenodd" d="M265.6,944.7h1.5V899.4h-1.5v45.3Z" class="g0_20"/>
<path fill-rule="evenodd" d="M821.9,944.7h1.5V899.4h-1.5v45.3Z" class="g0_20"/>
<path fill-rule="evenodd" d="M64.5,946.2H66v-1.5H64.5v1.5Z" class="g0_20"/>
<path fill-rule="evenodd" d="M66,946.2H265.6v-1.5H66v1.5Z" class="g0_20"/>
<path fill-rule="evenodd" d="M265.6,946.2h1.5v-1.5h-1.5v1.5Z" class="g0_20"/>
<path fill-rule="evenodd" d="M267.1,946.2H821.9v-1.5H267.1v1.5Z" class="g0_20"/>
<path fill-rule="evenodd" d="M821.9,946.2h1.5v-1.5h-1.5v1.5Z" class="g0_20"/>
<path fill-rule="evenodd" d="M64.5,971.9H66V946.2H64.5v25.7Z" class="g0_20"/>
<path fill-rule="evenodd" d="M265.6,971.9h1.5V946.2h-1.5v25.7Z" class="g0_20"/>
<path fill-rule="evenodd" d="M821.9,971.9h1.5V946.2h-1.5v25.7Z" class="g0_20"/>
<path fill-rule="evenodd" d="M64.5,973.4H66v-1.5H64.5v1.5Z" class="g0_20"/>
<path fill-rule="evenodd" d="M66,973.4H265.6v-1.5H66v1.5Z" class="g0_20"/>
<path fill-rule="evenodd" d="M265.6,973.4h1.5v-1.5h-1.5v1.5Z" class="g0_20"/>
<path fill-rule="evenodd" d="M267.1,973.4H821.9v-1.5H267.1v1.5Z" class="g0_20"/>
<path fill-rule="evenodd" d="M821.9,973.4h1.5v-1.5h-1.5v1.5Z" class="g0_20"/>
<path fill-rule="evenodd" d="M64.5,1018.6H66V973.4H64.5v45.2Z" class="g0_20"/>
<path fill-rule="evenodd" d="M64.5,1020.2H66v-1.6H64.5v1.6Z" class="g0_20"/>
<path fill-rule="evenodd" d="M64.5,1020.2H66v-1.6H64.5v1.6Z" class="g0_20"/>
<path fill-rule="evenodd" d="M66,1020.2H265.6v-1.6H66v1.6Z" class="g0_20"/>
<path fill-rule="evenodd" d="M265.6,1018.6h1.5V973.4h-1.5v45.2Z" class="g0_20"/>
<path fill-rule="evenodd" d="M265.6,1020.2h1.5v-1.6h-1.5v1.6Z" class="g0_20"/>
<path fill-rule="evenodd" d="M267.1,1020.2H821.9v-1.6H267.1v1.6Z" class="g0_20"/>
<path fill-rule="evenodd" d="M821.9,1018.6h1.5V973.4h-1.5v45.2Z" class="g0_20"/>
<path fill-rule="evenodd" d="M821.9,1020.2h1.5v-1.6h-1.5v1.6Z" class="g0_20"/>
<path fill-rule="evenodd" d="M821.9,1020.2h1.5v-1.6h-1.5v1.6Z" class="g0_20"/>
<path fill-rule="evenodd" d="M65.1,1103.9H140v-1.2H65.1v1.2Z" class="g0_20"/>
</svg>