<?xml version="1.0" encoding="UTF-8" standalone="no"?>
<!DOCTYPE svg PUBLIC "-//W3C//DTD SVG 1.1//EN"
"http://www.w3.org/Graphics/SVG/1.1/DTD/svg11.dtd">
<svg viewBox="0 0 909 1286" version="1.1" xmlns="http://www.w3.org/2000/svg" xmlns:xlink="http://www.w3.org/1999/xlink">
<defs>
<style type="text/css"><![CDATA[
.g0_46{
}
.g1_46{
fill: #F1F1F1;
}
.g2_46{
fill: #EEECE1;
}
]]></style>
</defs>
<path fill-rule="evenodd" d="M65.1,66H823.4V64.5H65.1V66Z" class="g0_46"/>
<path fill-rule="evenodd" d="M65.1,137.8H140v-1.2H65.1v1.2Z" class="g0_46"/>
<path fill-rule="evenodd" d="M66.3,208.7H821.9V183.1H66.3v25.6Z" class="g1_46"/>
<path fill-rule="evenodd" d="M73.7,208.7H814.6V183.1H73.7v25.6Z" class="g1_46"/>
<path fill-rule="evenodd" d="M64.5,183.1H66v-1.6H64.5v1.6Z" class="g0_46"/>
<path fill-rule="evenodd" d="M64.5,183.1H66v-1.6H64.5v1.6Z" class="g0_46"/>
<path fill-rule="evenodd" d="M66,183.1H821.9v-1.6H66v1.6Z" class="g0_46"/>
<path fill-rule="evenodd" d="M821.9,183.1h1.5v-1.6h-1.5v1.6Z" class="g0_46"/>
<path fill-rule="evenodd" d="M821.9,183.1h1.5v-1.6h-1.5v1.6Z" class="g0_46"/>
<path fill-rule="evenodd" d="M64.5,208.7H66V183.1H64.5v25.6Z" class="g0_46"/>
<path fill-rule="evenodd" d="M821.9,208.7h1.5V183.1h-1.5v25.6Z" class="g0_46"/>
<path fill-rule="evenodd" d="M64.5,210.3H66v-1.6H64.5v1.6Z" class="g0_46"/>
<path fill-rule="evenodd" d="M66,210.3H297.4v-1.6H66v1.6Z" class="g0_46"/>
<path fill-rule="evenodd" d="M297.4,210.3h1.5v-1.6h-1.5v1.6Z" class="g0_46"/>
<path fill-rule="evenodd" d="M298.9,210.3h523v-1.6h-523v1.6Z" class="g0_46"/>
<path fill-rule="evenodd" d="M821.9,210.3h1.5v-1.6h-1.5v1.6Z" class="g0_46"/>
<path fill-rule="evenodd" d="M64.5,235.9H66V210.3H64.5v25.6Z" class="g0_46"/>
<path fill-rule="evenodd" d="M297.4,235.9h1.5V210.3h-1.5v25.6Z" class="g0_46"/>
<path fill-rule="evenodd" d="M821.9,235.9h1.5V210.3h-1.5v25.6Z" class="g0_46"/>
<path fill-rule="evenodd" d="M64.5,237.4H66v-1.5H64.5v1.5Z" class="g0_46"/>
<path fill-rule="evenodd" d="M66,237.4H297.4v-1.5H66v1.5Z" class="g0_46"/>
<path fill-rule="evenodd" d="M297.4,237.4h1.5v-1.5h-1.5v1.5Z" class="g0_46"/>
<path fill-rule="evenodd" d="M298.9,237.4h523v-1.5h-523v1.5Z" class="g0_46"/>
<path fill-rule="evenodd" d="M821.9,237.4h1.5v-1.5h-1.5v1.5Z" class="g0_46"/>
<path fill-rule="evenodd" d="M64.5,263.2H66V237.5H64.5v25.7Z" class="g0_46"/>
<path fill-rule="evenodd" d="M297.4,263.2h1.5V237.5h-1.5v25.7Z" class="g0_46"/>
<path fill-rule="evenodd" d="M821.9,263.2h1.5V237.5h-1.5v25.7Z" class="g0_46"/>
<path fill-rule="evenodd" d="M66.3,290.4H821.9V264.7H66.3v25.7Z" class="g1_46"/>
<path fill-rule="evenodd" d="M73.7,290.4H814.6V264.7H73.7v25.7Z" class="g1_46"/>
<path fill-rule="evenodd" d="M64.5,264.7H66v-1.5H64.5v1.5Z" class="g0_46"/>
<path fill-rule="evenodd" d="M66,264.7H297.4v-1.5H66v1.5Z" class="g0_46"/>
<path fill-rule="evenodd" d="M297.4,264.7h1.5v-1.5h-1.5v1.5Z" class="g0_46"/>
<path fill-rule="evenodd" d="M298.9,264.7h523v-1.5h-523v1.5Z" class="g0_46"/>
<path fill-rule="evenodd" d="M821.9,264.7h1.5v-1.5h-1.5v1.5Z" class="g0_46"/>
<path fill-rule="evenodd" d="M64.5,290.4H66V264.7H64.5v25.7Z" class="g0_46"/>
<path fill-rule="evenodd" d="M821.9,290.4h1.5V264.7h-1.5v25.7Z" class="g0_46"/>
<path fill-rule="evenodd" d="M64.5,291.9H66v-1.5H64.5v1.5Z" class="g0_46"/>
<path fill-rule="evenodd" d="M66,291.9H297.4v-1.5H66v1.5Z" class="g0_46"/>
<path fill-rule="evenodd" d="M297.4,291.9h1.5v-1.5h-1.5v1.5Z" class="g0_46"/>
<path fill-rule="evenodd" d="M298.9,291.9h523v-1.5h-523v1.5Z" class="g0_46"/>
<path fill-rule="evenodd" d="M821.9,291.9h1.5v-1.5h-1.5v1.5Z" class="g0_46"/>
<path fill-rule="evenodd" d="M64.5,317.5H66V291.9H64.5v25.6Z" class="g0_46"/>
<path fill-rule="evenodd" d="M297.4,317.5h1.5V291.9h-1.5v25.6Z" class="g0_46"/>
<path fill-rule="evenodd" d="M821.9,317.5h1.5V291.9h-1.5v25.6Z" class="g0_46"/>
<path fill-rule="evenodd" d="M64.5,319.1H66v-1.6H64.5v1.6Z" class="g0_46"/>
<path fill-rule="evenodd" d="M66,319.1H297.4v-1.6H66v1.6Z" class="g0_46"/>
<path fill-rule="evenodd" d="M297.4,319.1h1.5v-1.6h-1.5v1.6Z" class="g0_46"/>
<path fill-rule="evenodd" d="M298.9,319.1h523v-1.6h-523v1.6Z" class="g0_46"/>
<path fill-rule="evenodd" d="M821.9,319.1h1.5v-1.6h-1.5v1.6Z" class="g0_46"/>
<path fill-rule="evenodd" d="M64.5,344.4H66V319.1H64.5v25.3Z" class="g0_46"/>
<path fill-rule="evenodd" d="M297.4,344.4h1.5V319.1h-1.5v25.3Z" class="g0_46"/>
<path fill-rule="evenodd" d="M821.9,344.4h1.5V319.1h-1.5v25.3Z" class="g0_46"/>
<path fill-rule="evenodd" d="M64.5,346H66v-1.6H64.5V346Z" class="g0_46"/>
<path fill-rule="evenodd" d="M66,346H297.4v-1.6H66V346Z" class="g0_46"/>
<path fill-rule="evenodd" d="M297.4,346h1.5v-1.6h-1.5V346Z" class="g0_46"/>
<path fill-rule="evenodd" d="M298.9,346h523v-1.6h-523V346Z" class="g0_46"/>
<path fill-rule="evenodd" d="M821.9,346h1.5v-1.6h-1.5V346Z" class="g0_46"/>
<path fill-rule="evenodd" d="M64.5,371.6H66V346H64.5v25.6Z" class="g0_46"/>
<path fill-rule="evenodd" d="M297.4,371.6h1.5V346h-1.5v25.6Z" class="g0_46"/>
<path fill-rule="evenodd" d="M821.9,371.6h1.5V346h-1.5v25.6Z" class="g0_46"/>
<path fill-rule="evenodd" d="M64.5,373.2H66v-1.6H64.5v1.6Z" class="g0_46"/>
<path fill-rule="evenodd" d="M66,373.2H297.4v-1.6H66v1.6Z" class="g0_46"/>
<path fill-rule="evenodd" d="M297.4,373.2h1.5v-1.6h-1.5v1.6Z" class="g0_46"/>
<path fill-rule="evenodd" d="M298.9,373.2h523v-1.6h-523v1.6Z" class="g0_46"/>
<path fill-rule="evenodd" d="M821.9,373.2h1.5v-1.6h-1.5v1.6Z" class="g0_46"/>
<path fill-rule="evenodd" d="M64.5,398.8H66V373.2H64.5v25.6Z" class="g0_46"/>
<path fill-rule="evenodd" d="M297.4,398.8h1.5V373.2h-1.5v25.6Z" class="g0_46"/>
<path fill-rule="evenodd" d="M821.9,398.8h1.5V373.2h-1.5v25.6Z" class="g0_46"/>
<path fill-rule="evenodd" d="M64.5,400.4H66v-1.6H64.5v1.6Z" class="g0_46"/>
<path fill-rule="evenodd" d="M66,400.4H297.4v-1.6H66v1.6Z" class="g0_46"/>
<path fill-rule="evenodd" d="M297.4,400.4h1.5v-1.6h-1.5v1.6Z" class="g0_46"/>
<path fill-rule="evenodd" d="M298.9,400.4h523v-1.6h-523v1.6Z" class="g0_46"/>
<path fill-rule="evenodd" d="M821.9,400.4h1.5v-1.6h-1.5v1.6Z" class="g0_46"/>
<path fill-rule="evenodd" d="M64.5,426H66V400.4H64.5V426Z" class="g0_46"/>
<path fill-rule="evenodd" d="M297.4,426h1.5V400.4h-1.5V426Z" class="g0_46"/>
<path fill-rule="evenodd" d="M821.9,426h1.5V400.4h-1.5V426Z" class="g0_46"/>
<path fill-rule="evenodd" d="M64.5,427.5H66V426H64.5v1.5Z" class="g0_46"/>
<path fill-rule="evenodd" d="M66,427.5H297.4V426H66v1.5Z" class="g0_46"/>
<path fill-rule="evenodd" d="M297.4,427.5h1.5V426h-1.5v1.5Z" class="g0_46"/>
<path fill-rule="evenodd" d="M298.9,427.5h523V426h-523v1.5Z" class="g0_46"/>
<path fill-rule="evenodd" d="M821.9,427.5h1.5V426h-1.5v1.5Z" class="g0_46"/>
<path fill-rule="evenodd" d="M64.5,453.3H66V427.6H64.5v25.7Z" class="g0_46"/>
<path fill-rule="evenodd" d="M297.4,453.3h1.5V427.6h-1.5v25.7Z" class="g0_46"/>
<path fill-rule="evenodd" d="M821.9,453.3h1.5V427.6h-1.5v25.7Z" class="g0_46"/>
<path fill-rule="evenodd" d="M64.5,454.8H66v-1.6H64.5v1.6Z" class="g0_46"/>
<path fill-rule="evenodd" d="M66,454.8H297.4v-1.6H66v1.6Z" class="g0_46"/>
<path fill-rule="evenodd" d="M297.4,454.8h1.5v-1.6h-1.5v1.6Z" class="g0_46"/>
<path fill-rule="evenodd" d="M298.9,454.8h523v-1.6h-523v1.6Z" class="g0_46"/>
<path fill-rule="evenodd" d="M821.9,454.8h1.5v-1.6h-1.5v1.6Z" class="g0_46"/>
<path fill-rule="evenodd" d="M64.5,480.4H66V454.8H64.5v25.6Z" class="g0_46"/>
<path fill-rule="evenodd" d="M297.4,480.4h1.5V454.8h-1.5v25.6Z" class="g0_46"/>
<path fill-rule="evenodd" d="M821.9,480.4h1.5V454.8h-1.5v25.6Z" class="g0_46"/>
<path fill-rule="evenodd" d="M64.5,482H66v-1.5H64.5V482Z" class="g0_46"/>
<path fill-rule="evenodd" d="M66,482H297.4v-1.5H66V482Z" class="g0_46"/>
<path fill-rule="evenodd" d="M297.4,482h1.5v-1.5h-1.5V482Z" class="g0_46"/>
<path fill-rule="evenodd" d="M298.9,482h523v-1.5h-523V482Z" class="g0_46"/>
<path fill-rule="evenodd" d="M821.9,482h1.5v-1.5h-1.5V482Z" class="g0_46"/>
<path fill-rule="evenodd" d="M64.5,507.7H66V482H64.5v25.7Z" class="g0_46"/>
<path fill-rule="evenodd" d="M297.4,507.7h1.5V482h-1.5v25.7Z" class="g0_46"/>
<path fill-rule="evenodd" d="M821.9,507.7h1.5V482h-1.5v25.7Z" class="g0_46"/>
<path fill-rule="evenodd" d="M64.5,509.2H66v-1.5H64.5v1.5Z" class="g0_46"/>
<path fill-rule="evenodd" d="M66,509.2H297.4v-1.5H66v1.5Z" class="g0_46"/>
<path fill-rule="evenodd" d="M297.4,509.2h1.5v-1.5h-1.5v1.5Z" class="g0_46"/>
<path fill-rule="evenodd" d="M298.9,509.2h523v-1.5h-523v1.5Z" class="g0_46"/>
<path fill-rule="evenodd" d="M821.9,509.2h1.5v-1.5h-1.5v1.5Z" class="g0_46"/>
<path fill-rule="evenodd" d="M64.5,534.5H66V509.2H64.5v25.3Z" class="g0_46"/>
<path fill-rule="evenodd" d="M64.5,536.1H66v-1.6H64.5v1.6Z" class="g0_46"/>
<path fill-rule="evenodd" d="M64.5,536.1H66v-1.6H64.5v1.6Z" class="g0_46"/>
<path fill-rule="evenodd" d="M66,536.1H297.4v-1.6H66v1.6Z" class="g0_46"/>
<path fill-rule="evenodd" d="M297.4,534.5h1.5V509.2h-1.5v25.3Z" class="g0_46"/>
<path fill-rule="evenodd" d="M297.4,536.1h1.5v-1.6h-1.5v1.6Z" class="g0_46"/>
<path fill-rule="evenodd" d="M298.9,536.1h523v-1.6h-523v1.6Z" class="g0_46"/>
<path fill-rule="evenodd" d="M821.9,534.5h1.5V509.2h-1.5v25.3Z" class="g0_46"/>
<path fill-rule="evenodd" d="M821.9,536.1h1.5v-1.6h-1.5v1.6Z" class="g0_46"/>
<path fill-rule="evenodd" d="M821.9,536.1h1.5v-1.6h-1.5v1.6Z" class="g0_46"/>
<path fill-rule="evenodd" d="M65.1,620.1H140v-1.2H65.1v1.2Z" class="g0_46"/>
<path fill-rule="evenodd" d="M66.3,690.7H821.9V665.3H66.3v25.4Z" class="g1_46"/>
<path fill-rule="evenodd" d="M73.7,690.7H814.6V665.3H73.7v25.4Z" class="g1_46"/>
<path fill-rule="evenodd" d="M64.5,665.3H66v-1.5H64.5v1.5Z" class="g0_46"/>
<path fill-rule="evenodd" d="M64.5,665.3H66v-1.5H64.5v1.5Z" class="g0_46"/>
<path fill-rule="evenodd" d="M66,665.3H821.9v-1.5H66v1.5Z" class="g0_46"/>
<path fill-rule="evenodd" d="M821.9,665.3h1.5v-1.5h-1.5v1.5Z" class="g0_46"/>
<path fill-rule="evenodd" d="M821.9,665.3h1.5v-1.5h-1.5v1.5Z" class="g0_46"/>
<path fill-rule="evenodd" d="M64.5,690.7H66V665.3H64.5v25.4Z" class="g0_46"/>
<path fill-rule="evenodd" d="M821.9,690.7h1.5V665.3h-1.5v25.4Z" class="g0_46"/>
<path fill-rule="evenodd" d="M64.5,692.2H66v-1.5H64.5v1.5Z" class="g0_46"/>
<path fill-rule="evenodd" d="M66,692.2H291.6v-1.5H66v1.5Z" class="g0_46"/>
<path fill-rule="evenodd" d="M291.6,692.2h1.5v-1.5h-1.5v1.5Z" class="g0_46"/>
<path fill-rule="evenodd" d="M293.1,692.2H821.9v-1.5H293.1v1.5Z" class="g0_46"/>
<path fill-rule="evenodd" d="M821.9,692.2h1.5v-1.5h-1.5v1.5Z" class="g0_46"/>
<path fill-rule="evenodd" d="M64.5,717.9H66V692.2H64.5v25.7Z" class="g0_46"/>
<path fill-rule="evenodd" d="M291.6,717.9h1.5V692.2h-1.5v25.7Z" class="g0_46"/>
<path fill-rule="evenodd" d="M821.9,717.9h1.5V692.2h-1.5v25.7Z" class="g0_46"/>
<path fill-rule="evenodd" d="M64.5,719.4H66v-1.5H64.5v1.5Z" class="g0_46"/>
<path fill-rule="evenodd" d="M66,719.4H291.6v-1.5H66v1.5Z" class="g0_46"/>
<path fill-rule="evenodd" d="M291.6,719.4h1.5v-1.5h-1.5v1.5Z" class="g0_46"/>
<path fill-rule="evenodd" d="M293.1,719.4H821.9v-1.5H293.1v1.5Z" class="g0_46"/>
<path fill-rule="evenodd" d="M821.9,719.4h1.5v-1.5h-1.5v1.5Z" class="g0_46"/>
<path fill-rule="evenodd" d="M64.5,745.1H66V719.4H64.5v25.7Z" class="g0_46"/>
<path fill-rule="evenodd" d="M291.6,745.1h1.5V719.4h-1.5v25.7Z" class="g0_46"/>
<path fill-rule="evenodd" d="M821.9,745.1h1.5V719.4h-1.5v25.7Z" class="g0_46"/>
<path fill-rule="evenodd" d="M64.5,746.6H66v-1.5H64.5v1.5Z" class="g0_46"/>
<path fill-rule="evenodd" d="M66,746.6H291.6v-1.5H66v1.5Z" class="g0_46"/>
<path fill-rule="evenodd" d="M291.6,746.6h1.5v-1.5h-1.5v1.5Z" class="g0_46"/>
<path fill-rule="evenodd" d="M293.1,746.6H821.9v-1.5H293.1v1.5Z" class="g0_46"/>
<path fill-rule="evenodd" d="M821.9,746.6h1.5v-1.5h-1.5v1.5Z" class="g0_46"/>
<path fill-rule="evenodd" d="M64.5,791.9H66V746.6H64.5v45.3Z" class="g0_46"/>
<path fill-rule="evenodd" d="M291.6,791.9h1.5V746.6h-1.5v45.3Z" class="g0_46"/>
<path fill-rule="evenodd" d="M821.9,791.9h1.5V746.6h-1.5v45.3Z" class="g0_46"/>
<path fill-rule="evenodd" d="M64.5,793.4H66v-1.5H64.5v1.5Z" class="g0_46"/>
<path fill-rule="evenodd" d="M66,793.4H291.6v-1.5H66v1.5Z" class="g0_46"/>
<path fill-rule="evenodd" d="M291.6,793.4h1.5v-1.5h-1.5v1.5Z" class="g0_46"/>
<path fill-rule="evenodd" d="M293.1,793.4H821.9v-1.5H293.1v1.5Z" class="g0_46"/>
<path fill-rule="evenodd" d="M821.9,793.4h1.5v-1.5h-1.5v1.5Z" class="g0_46"/>
<path fill-rule="evenodd" d="M64.5,819.1H66V793.4H64.5v25.7Z" class="g0_46"/>
<path fill-rule="evenodd" d="M291.6,819.1h1.5V793.4h-1.5v25.7Z" class="g0_46"/>
<path fill-rule="evenodd" d="M821.9,819.1h1.5V793.4h-1.5v25.7Z" class="g0_46"/>
<path fill-rule="evenodd" d="M66.3,846.3H821.9V820.6H66.3v25.7Z" class="g2_46"/>
<path fill-rule="evenodd" d="M69.7,846.3H818.5V820.6H69.7v25.7Z" class="g2_46"/>
<path fill-rule="evenodd" d="M64.5,820.6H66v-1.5H64.5v1.5Z" class="g0_46"/>
<path fill-rule="evenodd" d="M66,820.6H291.6v-1.5H66v1.5Z" class="g0_46"/>
<path fill-rule="evenodd" d="M291.6,820.6h1.5v-1.5h-1.5v1.5Z" class="g0_46"/>
<path fill-rule="evenodd" d="M293.1,820.6H821.9v-1.5H293.1v1.5Z" class="g0_46"/>
<path fill-rule="evenodd" d="M821.9,820.6h1.5v-1.5h-1.5v1.5Z" class="g0_46"/>
<path fill-rule="evenodd" d="M64.5,846.3H66V820.6H64.5v25.7Z" class="g0_46"/>
<path fill-rule="evenodd" d="M821.9,846.3h1.5V820.6h-1.5v25.7Z" class="g0_46"/>
<path fill-rule="evenodd" d="M64.5,847.8H66v-1.5H64.5v1.5Z" class="g0_46"/>
<path fill-rule="evenodd" d="M66,847.8H291.6v-1.5H66v1.5Z" class="g0_46"/>
<path fill-rule="evenodd" d="M291.6,847.8h1.5v-1.5h-1.5v1.5Z" class="g0_46"/>
<path fill-rule="evenodd" d="M293.1,847.8H821.9v-1.5H293.1v1.5Z" class="g0_46"/>
<path fill-rule="evenodd" d="M821.9,847.8h1.5v-1.5h-1.5v1.5Z" class="g0_46"/>
<path fill-rule="evenodd" d="M64.5,873.2H66V847.8H64.5v25.4Z" class="g0_46"/>
<path fill-rule="evenodd" d="M291.6,873.2h1.5V847.8h-1.5v25.4Z" class="g0_46"/>
<path fill-rule="evenodd" d="M821.9,873.2h1.5V847.8h-1.5v25.4Z" class="g0_46"/>
<path fill-rule="evenodd" d="M66.3,900.4H821.9V874.7H66.3v25.7Z" class="g1_46"/>
<path fill-rule="evenodd" d="M73.7,900.4H814.6V874.7H73.7v25.7Z" class="g1_46"/>
<path fill-rule="evenodd" d="M64.5,874.7H66v-1.5H64.5v1.5Z" class="g0_46"/>
<path fill-rule="evenodd" d="M66,874.7H291.6v-1.5H66v1.5Z" class="g0_46"/>
<path fill-rule="evenodd" d="M291.6,874.7h1.5v-1.5h-1.5v1.5Z" class="g0_46"/>
<path fill-rule="evenodd" d="M293.1,874.7H821.9v-1.5H293.1v1.5Z" class="g0_46"/>
<path fill-rule="evenodd" d="M821.9,874.7h1.5v-1.5h-1.5v1.5Z" class="g0_46"/>
<path fill-rule="evenodd" d="M64.5,900.4H66V874.7H64.5v25.7Z" class="g0_46"/>
<path fill-rule="evenodd" d="M821.9,900.4h1.5V874.7h-1.5v25.7Z" class="g0_46"/>
<path fill-rule="evenodd" d="M64.5,901.9H66v-1.5H64.5v1.5Z" class="g0_46"/>
<path fill-rule="evenodd" d="M66,901.9H291.6v-1.5H66v1.5Z" class="g0_46"/>
<path fill-rule="evenodd" d="M291.6,901.9h1.5v-1.5h-1.5v1.5Z" class="g0_46"/>
<path fill-rule="evenodd" d="M293.1,901.9H821.9v-1.5H293.1v1.5Z" class="g0_46"/>
<path fill-rule="evenodd" d="M821.9,901.9h1.5v-1.5h-1.5v1.5Z" class="g0_46"/>
<path fill-rule="evenodd" d="M64.5,927.6H66V901.9H64.5v25.7Z" class="g0_46"/>
<path fill-rule="evenodd" d="M291.6,927.6h1.5V901.9h-1.5v25.7Z" class="g0_46"/>
<path fill-rule="evenodd" d="M821.9,927.6h1.5V901.9h-1.5v25.7Z" class="g0_46"/>
<path fill-rule="evenodd" d="M64.5,929.1H66v-1.5H64.5v1.5Z" class="g0_46"/>
<path fill-rule="evenodd" d="M66,929.1H291.6v-1.5H66v1.5Z" class="g0_46"/>
<path fill-rule="evenodd" d="M291.6,929.1h1.5v-1.5h-1.5v1.5Z" class="g0_46"/>
<path fill-rule="evenodd" d="M293.1,929.1H821.9v-1.5H293.1v1.5Z" class="g0_46"/>
<path fill-rule="evenodd" d="M821.9,929.1h1.5v-1.5h-1.5v1.5Z" class="g0_46"/>
<path fill-rule="evenodd" d="M64.5,954.8H66V929.1H64.5v25.7Z" class="g0_46"/>
<path fill-rule="evenodd" d="M291.6,954.8h1.5V929.1h-1.5v25.7Z" class="g0_46"/>
<path fill-rule="evenodd" d="M821.9,954.8h1.5V929.1h-1.5v25.7Z" class="g0_46"/>
<path fill-rule="evenodd" d="M64.5,956.3H66v-1.5H64.5v1.5Z" class="g0_46"/>
<path fill-rule="evenodd" d="M66,956.3H291.6v-1.5H66v1.5Z" class="g0_46"/>
<path fill-rule="evenodd" d="M291.6,956.3h1.5v-1.5h-1.5v1.5Z" class="g0_46"/>
<path fill-rule="evenodd" d="M293.1,956.3H821.9v-1.5H293.1v1.5Z" class="g0_46"/>
<path fill-rule="evenodd" d="M821.9,956.3h1.5v-1.5h-1.5v1.5Z" class="g0_46"/>
<path fill-rule="evenodd" d="M64.5,982H66V956.3H64.5V982Z" class="g0_46"/>
<path fill-rule="evenodd" d="M291.6,982h1.5V956.3h-1.5V982Z" class="g0_46"/>
<path fill-rule="evenodd" d="M821.9,982h1.5V956.3h-1.5V982Z" class="g0_46"/>
<path fill-rule="evenodd" d="M64.5,983.5H66V982H64.5v1.5Z" class="g0_46"/>
<path fill-rule="evenodd" d="M66,983.5H291.6V982H66v1.5Z" class="g0_46"/>
<path fill-rule="evenodd" d="M291.6,983.5h1.5V982h-1.5v1.5Z" class="g0_46"/>
<path fill-rule="evenodd" d="M293.1,983.5H821.9V982H293.1v1.5Z" class="g0_46"/>
<path fill-rule="evenodd" d="M821.9,983.5h1.5V982h-1.5v1.5Z" class="g0_46"/>
<path fill-rule="evenodd" d="M64.5,1009.2H66V983.5H64.5v25.7Z" class="g0_46"/>
<path fill-rule="evenodd" d="M291.6,1009.2h1.5V983.5h-1.5v25.7Z" class="g0_46"/>
<path fill-rule="evenodd" d="M821.9,1009.2h1.5V983.5h-1.5v25.7Z" class="g0_46"/>
<path fill-rule="evenodd" d="M64.5,1010.7H66v-1.5H64.5v1.5Z" class="g0_46"/>
<path fill-rule="evenodd" d="M66,1010.7H291.6v-1.5H66v1.5Z" class="g0_46"/>
<path fill-rule="evenodd" d="M291.6,1010.7h1.5v-1.5h-1.5v1.5Z" class="g0_46"/>
<path fill-rule="evenodd" d="M293.1,1010.7H821.9v-1.5H293.1v1.5Z" class="g0_46"/>
<path fill-rule="evenodd" d="M821.9,1010.7h1.5v-1.5h-1.5v1.5Z" class="g0_46"/>
<path fill-rule="evenodd" d="M64.5,1036.4H66v-25.7H64.5v25.7Z" class="g0_46"/>
<path fill-rule="evenodd" d="M291.6,1036.4h1.5v-25.7h-1.5v25.7Z" class="g0_46"/>
<path fill-rule="evenodd" d="M821.9,1036.4h1.5v-25.7h-1.5v25.7Z" class="g0_46"/>
<path fill-rule="evenodd" d="M64.5,1037.9H66v-1.5H64.5v1.5Z" class="g0_46"/>
<path fill-rule="evenodd" d="M66,1037.9H291.6v-1.5H66v1.5Z" class="g0_46"/>
<path fill-rule="evenodd" d="M291.6,1037.9h1.5v-1.5h-1.5v1.5Z" class="g0_46"/>
<path fill-rule="evenodd" d="M293.1,1037.9H821.9v-1.5H293.1v1.5Z" class="g0_46"/>
<path fill-rule="evenodd" d="M821.9,1037.9h1.5v-1.5h-1.5v1.5Z" class="g0_46"/>
<path fill-rule="evenodd" d="M64.5,1063.6H66v-25.7H64.5v25.7Z" class="g0_46"/>
<path fill-rule="evenodd" d="M291.6,1063.6h1.5v-25.7h-1.5v25.7Z" class="g0_46"/>
<path fill-rule="evenodd" d="M821.9,1063.6h1.5v-25.7h-1.5v25.7Z" class="g0_46"/>
<path fill-rule="evenodd" d="M64.5,1065.1H66v-1.5H64.5v1.5Z" class="g0_46"/>
<path fill-rule="evenodd" d="M66,1065.1H291.6v-1.5H66v1.5Z" class="g0_46"/>
<path fill-rule="evenodd" d="M291.6,1065.1h1.5v-1.5h-1.5v1.5Z" class="g0_46"/>
<path fill-rule="evenodd" d="M293.1,1065.1H821.9v-1.5H293.1v1.5Z" class="g0_46"/>
<path fill-rule="evenodd" d="M821.9,1065.1h1.5v-1.5h-1.5v1.5Z" class="g0_46"/>
<path fill-rule="evenodd" d="M64.5,1090.5H66v-25.4H64.5v25.4Z" class="g0_46"/>
<path fill-rule="evenodd" d="M64.5,1092H66v-1.5H64.5v1.5Z" class="g0_46"/>
<path fill-rule="evenodd" d="M64.5,1092H66v-1.5H64.5v1.5Z" class="g0_46"/>
<path fill-rule="evenodd" d="M66,1092H291.6v-1.5H66v1.5Z" class="g0_46"/>
<path fill-rule="evenodd" d="M291.6,1090.5h1.5v-25.4h-1.5v25.4Z" class="g0_46"/>
<path fill-rule="evenodd" d="M291.6,1092h1.5v-1.5h-1.5v1.5Z" class="g0_46"/>
<path fill-rule="evenodd" d="M293.1,1092H821.9v-1.5H293.1v1.5Z" class="g0_46"/>
<path fill-rule="evenodd" d="M821.9,1090.5h1.5v-25.4h-1.5v25.4Z" class="g0_46"/>
<path fill-rule="evenodd" d="M821.9,1092h1.5v-1.5h-1.5v1.5Z" class="g0_46"/>
<path fill-rule="evenodd" d="M821.9,1092h1.5v-1.5h-1.5v1.5Z" class="g0_46"/>
</svg>