<?xml version="1.0" encoding="UTF-8" standalone="no"?>
<!DOCTYPE svg PUBLIC "-//W3C//DTD SVG 1.1//EN"
"http://www.w3.org/Graphics/SVG/1.1/DTD/svg11.dtd">
<svg viewBox="0 0 909 1286" version="1.1" xmlns="http://www.w3.org/2000/svg" xmlns:xlink="http://www.w3.org/1999/xlink">
<defs>
<style type="text/css"><![CDATA[
.g0_33{
}
.g1_33{
fill: #F1F1F1;
}
]]></style>
</defs>
<path fill-rule="evenodd" d="M86.5,66H844.8V64.5H86.5V66Z" class="g0_33"/>
<path fill-rule="evenodd" d="M81.3,88h1.5V86.5H81.3V88Z" class="g0_33"/>
<path fill-rule="evenodd" d="M81.3,88h1.5V86.5H81.3V88Z" class="g0_33"/>
<path fill-rule="evenodd" d="M82.8,88H368V86.5H82.8V88Z" class="g0_33"/>
<path fill-rule="evenodd" d="M368,88h1.5V86.5H368V88Z" class="g0_33"/>
<path fill-rule="evenodd" d="M369.5,88H847.9V86.5H369.5V88Z" class="g0_33"/>
<path fill-rule="evenodd" d="M847.9,88h1.5V86.5h-1.5V88Z" class="g0_33"/>
<path fill-rule="evenodd" d="M847.9,88h1.5V86.5h-1.5V88Z" class="g0_33"/>
<path fill-rule="evenodd" d="M81.3,133.3h1.5V88H81.3v45.3Z" class="g0_33"/>
<path fill-rule="evenodd" d="M368,133.3h1.5V88H368v45.3Z" class="g0_33"/>
<path fill-rule="evenodd" d="M847.9,133.3h1.5V88h-1.5v45.3Z" class="g0_33"/>
<path fill-rule="evenodd" d="M81.3,134.8h1.5v-1.5H81.3v1.5Z" class="g0_33"/>
<path fill-rule="evenodd" d="M82.8,134.8H368v-1.5H82.8v1.5Z" class="g0_33"/>
<path fill-rule="evenodd" d="M368,134.8h1.5v-1.5H368v1.5Z" class="g0_33"/>
<path fill-rule="evenodd" d="M369.5,134.8H847.9v-1.5H369.5v1.5Z" class="g0_33"/>
<path fill-rule="evenodd" d="M847.9,134.8h1.5v-1.5h-1.5v1.5Z" class="g0_33"/>
<path fill-rule="evenodd" d="M81.3,219.1h1.5V134.8H81.3v84.3Z" class="g0_33"/>
<path fill-rule="evenodd" d="M368,219.1h1.5V134.8H368v84.3Z" class="g0_33"/>
<path fill-rule="evenodd" d="M847.9,219.1h1.5V134.8h-1.5v84.3Z" class="g0_33"/>
<path fill-rule="evenodd" d="M81.3,220.6h1.5v-1.5H81.3v1.5Z" class="g0_33"/>
<path fill-rule="evenodd" d="M82.8,220.6H368v-1.5H82.8v1.5Z" class="g0_33"/>
<path fill-rule="evenodd" d="M368,220.6h1.5v-1.5H368v1.5Z" class="g0_33"/>
<path fill-rule="evenodd" d="M369.5,220.6H847.9v-1.5H369.5v1.5Z" class="g0_33"/>
<path fill-rule="evenodd" d="M847.9,220.6h1.5v-1.5h-1.5v1.5Z" class="g0_33"/>
<path fill-rule="evenodd" d="M81.3,285.2h1.5V220.6H81.3v64.6Z" class="g0_33"/>
<path fill-rule="evenodd" d="M81.3,286.7h1.5v-1.5H81.3v1.5Z" class="g0_33"/>
<path fill-rule="evenodd" d="M81.3,286.7h1.5v-1.5H81.3v1.5Z" class="g0_33"/>
<path fill-rule="evenodd" d="M82.8,286.7H368v-1.5H82.8v1.5Z" class="g0_33"/>
<path fill-rule="evenodd" d="M368,285.2h1.5V220.6H368v64.6Z" class="g0_33"/>
<path fill-rule="evenodd" d="M368,286.7h1.5v-1.5H368v1.5Z" class="g0_33"/>
<path fill-rule="evenodd" d="M369.5,286.7H847.9v-1.5H369.5v1.5Z" class="g0_33"/>
<path fill-rule="evenodd" d="M847.9,285.2h1.5V220.6h-1.5v64.6Z" class="g0_33"/>
<path fill-rule="evenodd" d="M847.9,286.7h1.5v-1.5h-1.5v1.5Z" class="g0_33"/>
<path fill-rule="evenodd" d="M847.9,286.7h1.5v-1.5h-1.5v1.5Z" class="g0_33"/>
<path fill-rule="evenodd" d="M86.5,370.7h74.9v-1.2H86.5v1.2Z" class="g0_33"/>
<path fill-rule="evenodd" d="M87.7,463H843.6V437.4H87.7V463Z" class="g1_33"/>
<path fill-rule="evenodd" d="M95.4,463H836V437.4H95.4V463Z" class="g1_33"/>
<path fill-rule="evenodd" d="M85.9,437.4h1.5v-1.6H85.9v1.6Z" class="g0_33"/>
<path fill-rule="evenodd" d="M85.9,437.4h1.5v-1.6H85.9v1.6Z" class="g0_33"/>
<path fill-rule="evenodd" d="M87.4,437.4H843.3v-1.6H87.4v1.6Z" class="g0_33"/>
<path fill-rule="evenodd" d="M843.3,437.4h1.5v-1.6h-1.5v1.6Z" class="g0_33"/>
<path fill-rule="evenodd" d="M843.3,437.4h1.5v-1.6h-1.5v1.6Z" class="g0_33"/>
<path fill-rule="evenodd" d="M85.9,463h1.5V437.4H85.9V463Z" class="g0_33"/>
<path fill-rule="evenodd" d="M843.3,463h1.5V437.4h-1.5V463Z" class="g0_33"/>
<path fill-rule="evenodd" d="M85.9,464.6h1.5V463H85.9v1.6Z" class="g0_33"/>
<path fill-rule="evenodd" d="M87.4,464.6H366.5V463H87.4v1.6Z" class="g0_33"/>
<path fill-rule="evenodd" d="M366.5,464.6H368V463h-1.5v1.6Z" class="g0_33"/>
<path fill-rule="evenodd" d="M368,464.6H843.3V463H368v1.6Z" class="g0_33"/>
<path fill-rule="evenodd" d="M843.3,464.6h1.5V463h-1.5v1.6Z" class="g0_33"/>
<path fill-rule="evenodd" d="M85.9,489.9h1.5V464.6H85.9v25.3Z" class="g0_33"/>
<path fill-rule="evenodd" d="M366.5,489.9H368V464.6h-1.5v25.3Z" class="g0_33"/>
<path fill-rule="evenodd" d="M843.3,489.9h1.5V464.6h-1.5v25.3Z" class="g0_33"/>
<path fill-rule="evenodd" d="M85.9,491.4h1.5v-1.5H85.9v1.5Z" class="g0_33"/>
<path fill-rule="evenodd" d="M87.4,491.4H366.5v-1.5H87.4v1.5Z" class="g0_33"/>
<path fill-rule="evenodd" d="M366.5,491.4H368v-1.5h-1.5v1.5Z" class="g0_33"/>
<path fill-rule="evenodd" d="M368,491.4H843.3v-1.5H368v1.5Z" class="g0_33"/>
<path fill-rule="evenodd" d="M843.3,491.4h1.5v-1.5h-1.5v1.5Z" class="g0_33"/>
<path fill-rule="evenodd" d="M85.9,536.7h1.5V491.4H85.9v45.3Z" class="g0_33"/>
<path fill-rule="evenodd" d="M366.5,536.7H368V491.4h-1.5v45.3Z" class="g0_33"/>
<path fill-rule="evenodd" d="M843.3,536.7h1.5V491.4h-1.5v45.3Z" class="g0_33"/>
<path fill-rule="evenodd" d="M85.9,538.2h1.5v-1.5H85.9v1.5Z" class="g0_33"/>
<path fill-rule="evenodd" d="M87.4,538.2H366.5v-1.5H87.4v1.5Z" class="g0_33"/>
<path fill-rule="evenodd" d="M366.5,538.2H368v-1.5h-1.5v1.5Z" class="g0_33"/>
<path fill-rule="evenodd" d="M368,538.2H843.3v-1.5H368v1.5Z" class="g0_33"/>
<path fill-rule="evenodd" d="M843.3,538.2h1.5v-1.5h-1.5v1.5Z" class="g0_33"/>
<path fill-rule="evenodd" d="M85.9,563.9h1.5V538.2H85.9v25.7Z" class="g0_33"/>
<path fill-rule="evenodd" d="M366.5,563.9H368V538.2h-1.5v25.7Z" class="g0_33"/>
<path fill-rule="evenodd" d="M843.3,563.9h1.5V538.2h-1.5v25.7Z" class="g0_33"/>
<path fill-rule="evenodd" d="M85.9,565.4h1.5v-1.5H85.9v1.5Z" class="g0_33"/>
<path fill-rule="evenodd" d="M87.4,565.4H366.5v-1.5H87.4v1.5Z" class="g0_33"/>
<path fill-rule="evenodd" d="M366.5,565.4H368v-1.5h-1.5v1.5Z" class="g0_33"/>
<path fill-rule="evenodd" d="M368,565.4H843.3v-1.5H368v1.5Z" class="g0_33"/>
<path fill-rule="evenodd" d="M843.3,565.4h1.5v-1.5h-1.5v1.5Z" class="g0_33"/>
<path fill-rule="evenodd" d="M85.9,610.7h1.5V565.4H85.9v45.3Z" class="g0_33"/>
<path fill-rule="evenodd" d="M366.5,610.7H368V565.4h-1.5v45.3Z" class="g0_33"/>
<path fill-rule="evenodd" d="M843.3,610.7h1.5V565.4h-1.5v45.3Z" class="g0_33"/>
<path fill-rule="evenodd" d="M85.9,612.2h1.5v-1.5H85.9v1.5Z" class="g0_33"/>
<path fill-rule="evenodd" d="M87.4,612.2H366.5v-1.5H87.4v1.5Z" class="g0_33"/>
<path fill-rule="evenodd" d="M366.5,612.2H368v-1.5h-1.5v1.5Z" class="g0_33"/>
<path fill-rule="evenodd" d="M368,612.2H843.3v-1.5H368v1.5Z" class="g0_33"/>
<path fill-rule="evenodd" d="M843.3,612.2h1.5v-1.5h-1.5v1.5Z" class="g0_33"/>
<path fill-rule="evenodd" d="M85.9,657.1h1.5V612.2H85.9v44.9Z" class="g0_33"/>
<path fill-rule="evenodd" d="M366.5,657.1H368V612.2h-1.5v44.9Z" class="g0_33"/>
<path fill-rule="evenodd" d="M843.3,657.1h1.5V612.2h-1.5v44.9Z" class="g0_33"/>
<path fill-rule="evenodd" d="M87.7,684.3H843.6V658.6H87.7v25.7Z" class="g1_33"/>
<path fill-rule="evenodd" d="M95.4,684.3H836V658.6H95.4v25.7Z" class="g1_33"/>
<path fill-rule="evenodd" d="M85.9,658.6h1.5v-1.5H85.9v1.5Z" class="g0_33"/>
<path fill-rule="evenodd" d="M87.4,658.6H366.5v-1.5H87.4v1.5Z" class="g0_33"/>
<path fill-rule="evenodd" d="M366.5,658.6H368v-1.5h-1.5v1.5Z" class="g0_33"/>
<path fill-rule="evenodd" d="M368,658.6H843.3v-1.5H368v1.5Z" class="g0_33"/>
<path fill-rule="evenodd" d="M843.3,658.6h1.5v-1.5h-1.5v1.5Z" class="g0_33"/>
<path fill-rule="evenodd" d="M85.9,684.3h1.5V658.6H85.9v25.7Z" class="g0_33"/>
<path fill-rule="evenodd" d="M843.3,684.3h1.5V658.6h-1.5v25.7Z" class="g0_33"/>
<path fill-rule="evenodd" d="M85.9,685.8h1.5v-1.5H85.9v1.5Z" class="g0_33"/>
<path fill-rule="evenodd" d="M87.4,685.8H366.5v-1.5H87.4v1.5Z" class="g0_33"/>
<path fill-rule="evenodd" d="M366.5,685.8H368v-1.5h-1.5v1.5Z" class="g0_33"/>
<path fill-rule="evenodd" d="M368,685.8H843.3v-1.5H368v1.5Z" class="g0_33"/>
<path fill-rule="evenodd" d="M843.3,685.8h1.5v-1.5h-1.5v1.5Z" class="g0_33"/>
<path fill-rule="evenodd" d="M85.9,711.5h1.5V685.8H85.9v25.7Z" class="g0_33"/>
<path fill-rule="evenodd" d="M366.5,711.5H368V685.8h-1.5v25.7Z" class="g0_33"/>
<path fill-rule="evenodd" d="M843.3,711.5h1.5V685.8h-1.5v25.7Z" class="g0_33"/>
<path fill-rule="evenodd" d="M87.7,738.7H843.6V713H87.7v25.7Z" class="g1_33"/>
<path fill-rule="evenodd" d="M95.4,738.7H836V713H95.4v25.7Z" class="g1_33"/>
<path fill-rule="evenodd" d="M85.9,713h1.5v-1.5H85.9V713Z" class="g0_33"/>
<path fill-rule="evenodd" d="M87.4,713H366.5v-1.5H87.4V713Z" class="g0_33"/>
<path fill-rule="evenodd" d="M366.5,713H368v-1.5h-1.5V713Z" class="g0_33"/>
<path fill-rule="evenodd" d="M368,713H843.3v-1.5H368V713Z" class="g0_33"/>
<path fill-rule="evenodd" d="M843.3,713h1.5v-1.5h-1.5V713Z" class="g0_33"/>
<path fill-rule="evenodd" d="M85.9,738.7h1.5V713H85.9v25.7Z" class="g0_33"/>
<path fill-rule="evenodd" d="M843.3,738.7h1.5V713h-1.5v25.7Z" class="g0_33"/>
<path fill-rule="evenodd" d="M85.9,740.2h1.5v-1.5H85.9v1.5Z" class="g0_33"/>
<path fill-rule="evenodd" d="M87.4,740.2H366.5v-1.5H87.4v1.5Z" class="g0_33"/>
<path fill-rule="evenodd" d="M366.5,740.2H368v-1.5h-1.5v1.5Z" class="g0_33"/>
<path fill-rule="evenodd" d="M368,740.2H843.3v-1.5H368v1.5Z" class="g0_33"/>
<path fill-rule="evenodd" d="M843.3,740.2h1.5v-1.5h-1.5v1.5Z" class="g0_33"/>
<path fill-rule="evenodd" d="M85.9,765.9h1.5V740.2H85.9v25.7Z" class="g0_33"/>
<path fill-rule="evenodd" d="M366.5,765.9H368V740.2h-1.5v25.7Z" class="g0_33"/>
<path fill-rule="evenodd" d="M843.3,765.9h1.5V740.2h-1.5v25.7Z" class="g0_33"/>
<path fill-rule="evenodd" d="M85.9,767.4h1.5v-1.5H85.9v1.5Z" class="g0_33"/>
<path fill-rule="evenodd" d="M87.4,767.4H366.5v-1.5H87.4v1.5Z" class="g0_33"/>
<path fill-rule="evenodd" d="M366.5,767.4H368v-1.5h-1.5v1.5Z" class="g0_33"/>
<path fill-rule="evenodd" d="M368,767.4H843.3v-1.5H368v1.5Z" class="g0_33"/>
<path fill-rule="evenodd" d="M843.3,767.4h1.5v-1.5h-1.5v1.5Z" class="g0_33"/>
<path fill-rule="evenodd" d="M85.9,793.1h1.5V767.4H85.9v25.7Z" class="g0_33"/>
<path fill-rule="evenodd" d="M366.5,793.1H368V767.4h-1.5v25.7Z" class="g0_33"/>
<path fill-rule="evenodd" d="M843.3,793.1h1.5V767.4h-1.5v25.7Z" class="g0_33"/>
<path fill-rule="evenodd" d="M85.9,794.6h1.5v-1.5H85.9v1.5Z" class="g0_33"/>
<path fill-rule="evenodd" d="M87.4,794.6H366.5v-1.5H87.4v1.5Z" class="g0_33"/>
<path fill-rule="evenodd" d="M366.5,794.6H368v-1.5h-1.5v1.5Z" class="g0_33"/>
<path fill-rule="evenodd" d="M368,794.6H843.3v-1.5H368v1.5Z" class="g0_33"/>
<path fill-rule="evenodd" d="M843.3,794.6h1.5v-1.5h-1.5v1.5Z" class="g0_33"/>
<path fill-rule="evenodd" d="M85.9,820.3h1.5V794.6H85.9v25.7Z" class="g0_33"/>
<path fill-rule="evenodd" d="M366.5,820.3H368V794.6h-1.5v25.7Z" class="g0_33"/>
<path fill-rule="evenodd" d="M843.3,820.3h1.5V794.6h-1.5v25.7Z" class="g0_33"/>
<path fill-rule="evenodd" d="M85.9,821.8h1.5v-1.5H85.9v1.5Z" class="g0_33"/>
<path fill-rule="evenodd" d="M87.4,821.8H366.5v-1.5H87.4v1.5Z" class="g0_33"/>
<path fill-rule="evenodd" d="M366.5,821.8H368v-1.5h-1.5v1.5Z" class="g0_33"/>
<path fill-rule="evenodd" d="M368,821.8H843.3v-1.5H368v1.5Z" class="g0_33"/>
<path fill-rule="evenodd" d="M843.3,821.8h1.5v-1.5h-1.5v1.5Z" class="g0_33"/>
<path fill-rule="evenodd" d="M85.9,847.2h1.5V821.8H85.9v25.4Z" class="g0_33"/>
<path fill-rule="evenodd" d="M366.5,847.2H368V821.8h-1.5v25.4Z" class="g0_33"/>
<path fill-rule="evenodd" d="M843.3,847.2h1.5V821.8h-1.5v25.4Z" class="g0_33"/>
<path fill-rule="evenodd" d="M85.9,848.7h1.5v-1.5H85.9v1.5Z" class="g0_33"/>
<path fill-rule="evenodd" d="M87.4,848.7H366.5v-1.5H87.4v1.5Z" class="g0_33"/>
<path fill-rule="evenodd" d="M366.5,848.7H368v-1.5h-1.5v1.5Z" class="g0_33"/>
<path fill-rule="evenodd" d="M368,848.7H843.3v-1.5H368v1.5Z" class="g0_33"/>
<path fill-rule="evenodd" d="M843.3,848.7h1.5v-1.5h-1.5v1.5Z" class="g0_33"/>
<path fill-rule="evenodd" d="M85.9,874.4h1.5V848.7H85.9v25.7Z" class="g0_33"/>
<path fill-rule="evenodd" d="M366.5,874.4H368V848.7h-1.5v25.7Z" class="g0_33"/>
<path fill-rule="evenodd" d="M843.3,874.4h1.5V848.7h-1.5v25.7Z" class="g0_33"/>
<path fill-rule="evenodd" d="M85.9,875.9h1.5v-1.5H85.9v1.5Z" class="g0_33"/>
<path fill-rule="evenodd" d="M87.4,875.9H366.5v-1.5H87.4v1.5Z" class="g0_33"/>
<path fill-rule="evenodd" d="M366.5,875.9H368v-1.5h-1.5v1.5Z" class="g0_33"/>
<path fill-rule="evenodd" d="M368,875.9H843.3v-1.5H368v1.5Z" class="g0_33"/>
<path fill-rule="evenodd" d="M843.3,875.9h1.5v-1.5h-1.5v1.5Z" class="g0_33"/>
<path fill-rule="evenodd" d="M85.9,901.6h1.5V875.9H85.9v25.7Z" class="g0_33"/>
<path fill-rule="evenodd" d="M85.9,903.1h1.5v-1.5H85.9v1.5Z" class="g0_33"/>
<path fill-rule="evenodd" d="M85.9,903.1h1.5v-1.5H85.9v1.5Z" class="g0_33"/>
<path fill-rule="evenodd" d="M87.4,903.1H366.5v-1.5H87.4v1.5Z" class="g0_33"/>
<path fill-rule="evenodd" d="M366.5,901.6H368V875.9h-1.5v25.7Z" class="g0_33"/>
<path fill-rule="evenodd" d="M366.5,903.1H368v-1.5h-1.5v1.5Z" class="g0_33"/>
<path fill-rule="evenodd" d="M368,903.1H843.3v-1.5H368v1.5Z" class="g0_33"/>
<path fill-rule="evenodd" d="M843.3,901.6h1.5V875.9h-1.5v25.7Z" class="g0_33"/>
<path fill-rule="evenodd" d="M843.3,903.1h1.5v-1.5h-1.5v1.5Z" class="g0_33"/>
<path fill-rule="evenodd" d="M843.3,903.1h1.5v-1.5h-1.5v1.5Z" class="g0_33"/>
<path fill-rule="evenodd" d="M88.3,1048.9H843v-25.7H88.3v25.7Z" class="g1_33"/>
<path fill-rule="evenodd" d="M95.7,1048.9H835.4v-25.7H95.7v25.7Z" class="g1_33"/>
<path fill-rule="evenodd" d="M86.5,1023.2H88v-1.5H86.5v1.5Z" class="g0_33"/>
<path fill-rule="evenodd" d="M86.5,1023.2H88v-1.5H86.5v1.5Z" class="g0_33"/>
<path fill-rule="evenodd" d="M88,1023.2H842.7v-1.5H88v1.5Z" class="g0_33"/>
<path fill-rule="evenodd" d="M842.7,1023.2h1.5v-1.5h-1.5v1.5Z" class="g0_33"/>
<path fill-rule="evenodd" d="M842.7,1023.2h1.5v-1.5h-1.5v1.5Z" class="g0_33"/>
<path fill-rule="evenodd" d="M86.5,1048.9H88v-25.7H86.5v25.7Z" class="g0_33"/>
<path fill-rule="evenodd" d="M842.7,1048.9h1.5v-25.7h-1.5v25.7Z" class="g0_33"/>
<path fill-rule="evenodd" d="M86.5,1050.4H88v-1.5H86.5v1.5Z" class="g0_33"/>
<path fill-rule="evenodd" d="M88,1050.4H341.4v-1.5H88v1.5Z" class="g0_33"/>
<path fill-rule="evenodd" d="M341.4,1050.4H343v-1.5h-1.6v1.5Z" class="g0_33"/>
<path fill-rule="evenodd" d="M343,1050.4H842.7v-1.5H343v1.5Z" class="g0_33"/>
<path fill-rule="evenodd" d="M842.7,1050.4h1.5v-1.5h-1.5v1.5Z" class="g0_33"/>
<path fill-rule="evenodd" d="M86.5,1134.5H88v-84.1H86.5v84.1Z" class="g0_33"/>
<path fill-rule="evenodd" d="M341.4,1134.5H343v-84.1h-1.6v84.1Z" class="g0_33"/>
<path fill-rule="evenodd" d="M842.7,1134.5h1.5v-84.1h-1.5v84.1Z" class="g0_33"/>
<path fill-rule="evenodd" d="M86.5,1136H88v-1.5H86.5v1.5Z" class="g0_33"/>
<path fill-rule="evenodd" d="M88,1136H341.4v-1.5H88v1.5Z" class="g0_33"/>
<path fill-rule="evenodd" d="M341.4,1136H343v-1.5h-1.6v1.5Z" class="g0_33"/>
<path fill-rule="evenodd" d="M343,1136H842.7v-1.5H343v1.5Z" class="g0_33"/>
<path fill-rule="evenodd" d="M842.7,1136h1.5v-1.5h-1.5v1.5Z" class="g0_33"/>
<path fill-rule="evenodd" d="M86.5,1181.2H88V1136H86.5v45.2Z" class="g0_33"/>
<path fill-rule="evenodd" d="M86.5,1182.8H88v-1.6H86.5v1.6Z" class="g0_33"/>
<path fill-rule="evenodd" d="M86.5,1182.8H88v-1.6H86.5v1.6Z" class="g0_33"/>
<path fill-rule="evenodd" d="M88,1182.8H341.4v-1.6H88v1.6Z" class="g0_33"/>
<path fill-rule="evenodd" d="M341.4,1181.2H343V1136h-1.6v45.2Z" class="g0_33"/>
<path fill-rule="evenodd" d="M341.4,1182.8H343v-1.6h-1.6v1.6Z" class="g0_33"/>
<path fill-rule="evenodd" d="M343,1182.8H842.7v-1.6H343v1.6Z" class="g0_33"/>
<path fill-rule="evenodd" d="M842.7,1181.2h1.5V1136h-1.5v45.2Z" class="g0_33"/>
<path fill-rule="evenodd" d="M842.7,1182.8h1.5v-1.6h-1.5v1.6Z" class="g0_33"/>
<path fill-rule="evenodd" d="M842.7,1182.8h1.5v-1.6h-1.5v1.6Z" class="g0_33"/>
</svg>