<?xml version="1.0" encoding="UTF-8" standalone="no"?>
<!DOCTYPE svg PUBLIC "-//W3C//DTD SVG 1.1//EN"
"http://www.w3.org/Graphics/SVG/1.1/DTD/svg11.dtd">
<svg viewBox="0 0 909 1286" version="1.1" xmlns="http://www.w3.org/2000/svg" xmlns:xlink="http://www.w3.org/1999/xlink">
<defs>
<style type="text/css"><![CDATA[
.g0_32{
}
.g1_32{
fill: #F1F1F1;
}
]]></style>
</defs>
<path fill-rule="evenodd" d="M65.1,66H823.4V64.5H65.1V66Z" class="g0_32"/>
<path fill-rule="evenodd" d="M65.1,137.8H140v-1.2H65.1v1.2Z" class="g0_32"/>
<path fill-rule="evenodd" d="M65.1,200.5h70v-1.2h-70v1.2Z" class="g0_32"/>
<path fill-rule="evenodd" d="M61.8,335.9H826.5V310.2H61.8v25.7Z" class="g1_32"/>
<path fill-rule="evenodd" d="M69.1,335.9H818.9V310.2H69.1v25.7Z" class="g1_32"/>
<path fill-rule="evenodd" d="M59.9,310.2h1.6v-1.5H59.9v1.5Z" class="g0_32"/>
<path fill-rule="evenodd" d="M59.9,310.2h1.6v-1.5H59.9v1.5Z" class="g0_32"/>
<path fill-rule="evenodd" d="M61.5,310.2h765v-1.5H61.5v1.5Z" class="g0_32"/>
<path fill-rule="evenodd" d="M826.5,310.2H828v-1.5h-1.5v1.5Z" class="g0_32"/>
<path fill-rule="evenodd" d="M826.5,310.2H828v-1.5h-1.5v1.5Z" class="g0_32"/>
<path fill-rule="evenodd" d="M59.9,335.9h1.6V310.2H59.9v25.7Z" class="g0_32"/>
<path fill-rule="evenodd" d="M826.5,335.9H828V310.2h-1.5v25.7Z" class="g0_32"/>
<path fill-rule="evenodd" d="M59.9,337.4h1.6v-1.5H59.9v1.5Z" class="g0_32"/>
<path fill-rule="evenodd" d="M61.5,337.4H346.6v-1.5H61.5v1.5Z" class="g0_32"/>
<path fill-rule="evenodd" d="M346.6,337.4h1.6v-1.5h-1.6v1.5Z" class="g0_32"/>
<path fill-rule="evenodd" d="M348.2,337.4H826.5v-1.5H348.2v1.5Z" class="g0_32"/>
<path fill-rule="evenodd" d="M826.5,337.4H828v-1.5h-1.5v1.5Z" class="g0_32"/>
<path fill-rule="evenodd" d="M59.9,382.3h1.6V337.4H59.9v44.9Z" class="g0_32"/>
<path fill-rule="evenodd" d="M346.6,382.3h1.6V337.4h-1.6v44.9Z" class="g0_32"/>
<path fill-rule="evenodd" d="M826.5,382.3H828V337.4h-1.5v44.9Z" class="g0_32"/>
<path fill-rule="evenodd" d="M59.9,383.9h1.6v-1.6H59.9v1.6Z" class="g0_32"/>
<path fill-rule="evenodd" d="M61.5,383.9H346.6v-1.6H61.5v1.6Z" class="g0_32"/>
<path fill-rule="evenodd" d="M346.6,383.9h1.6v-1.6h-1.6v1.6Z" class="g0_32"/>
<path fill-rule="evenodd" d="M348.2,383.9H826.5v-1.6H348.2v1.6Z" class="g0_32"/>
<path fill-rule="evenodd" d="M826.5,383.9H828v-1.6h-1.5v1.6Z" class="g0_32"/>
<path fill-rule="evenodd" d="M59.9,448.7h1.6V383.8H59.9v64.9Z" class="g0_32"/>
<path fill-rule="evenodd" d="M346.6,448.7h1.6V383.8h-1.6v64.9Z" class="g0_32"/>
<path fill-rule="evenodd" d="M826.5,448.7H828V383.8h-1.5v64.9Z" class="g0_32"/>
<path fill-rule="evenodd" d="M59.9,450.2h1.6v-1.5H59.9v1.5Z" class="g0_32"/>
<path fill-rule="evenodd" d="M61.5,450.2H346.6v-1.5H61.5v1.5Z" class="g0_32"/>
<path fill-rule="evenodd" d="M346.6,450.2h1.6v-1.5h-1.6v1.5Z" class="g0_32"/>
<path fill-rule="evenodd" d="M348.2,450.2H826.5v-1.5H348.2v1.5Z" class="g0_32"/>
<path fill-rule="evenodd" d="M826.5,450.2H828v-1.5h-1.5v1.5Z" class="g0_32"/>
<path fill-rule="evenodd" d="M59.9,534.2h1.6v-84H59.9v84Z" class="g0_32"/>
<path fill-rule="evenodd" d="M346.6,534.2h1.6v-84h-1.6v84Z" class="g0_32"/>
<path fill-rule="evenodd" d="M826.5,534.2H828v-84h-1.5v84Z" class="g0_32"/>
<path fill-rule="evenodd" d="M59.9,535.8h1.6v-1.6H59.9v1.6Z" class="g0_32"/>
<path fill-rule="evenodd" d="M61.5,535.8H346.6v-1.6H61.5v1.6Z" class="g0_32"/>
<path fill-rule="evenodd" d="M346.6,535.8h1.6v-1.6h-1.6v1.6Z" class="g0_32"/>
<path fill-rule="evenodd" d="M348.2,535.8H826.5v-1.6H348.2v1.6Z" class="g0_32"/>
<path fill-rule="evenodd" d="M826.5,535.8H828v-1.6h-1.5v1.6Z" class="g0_32"/>
<path fill-rule="evenodd" d="M59.9,600.5h1.6V535.8H59.9v64.7Z" class="g0_32"/>
<path fill-rule="evenodd" d="M346.6,600.5h1.6V535.8h-1.6v64.7Z" class="g0_32"/>
<path fill-rule="evenodd" d="M826.5,600.5H828V535.8h-1.5v64.7Z" class="g0_32"/>
<path fill-rule="evenodd" d="M59.9,602.1h1.6v-1.6H59.9v1.6Z" class="g0_32"/>
<path fill-rule="evenodd" d="M61.5,602.1H346.6v-1.6H61.5v1.6Z" class="g0_32"/>
<path fill-rule="evenodd" d="M346.6,602.1h1.6v-1.6h-1.6v1.6Z" class="g0_32"/>
<path fill-rule="evenodd" d="M348.2,602.1H826.5v-1.6H348.2v1.6Z" class="g0_32"/>
<path fill-rule="evenodd" d="M826.5,602.1H828v-1.6h-1.5v1.6Z" class="g0_32"/>
<path fill-rule="evenodd" d="M59.9,647.3h1.6V602.1H59.9v45.2Z" class="g0_32"/>
<path fill-rule="evenodd" d="M346.6,647.3h1.6V602.1h-1.6v45.2Z" class="g0_32"/>
<path fill-rule="evenodd" d="M826.5,647.3H828V602.1h-1.5v45.2Z" class="g0_32"/>
<path fill-rule="evenodd" d="M59.9,648.8h1.6v-1.5H59.9v1.5Z" class="g0_32"/>
<path fill-rule="evenodd" d="M61.5,648.8H346.6v-1.5H61.5v1.5Z" class="g0_32"/>
<path fill-rule="evenodd" d="M346.6,648.8h1.6v-1.5h-1.6v1.5Z" class="g0_32"/>
<path fill-rule="evenodd" d="M348.2,648.8H826.5v-1.5H348.2v1.5Z" class="g0_32"/>
<path fill-rule="evenodd" d="M826.5,648.8H828v-1.5h-1.5v1.5Z" class="g0_32"/>
<path fill-rule="evenodd" d="M59.9,674.5h1.6V648.8H59.9v25.7Z" class="g0_32"/>
<path fill-rule="evenodd" d="M346.6,674.5h1.6V648.8h-1.6v25.7Z" class="g0_32"/>
<path fill-rule="evenodd" d="M826.5,674.5H828V648.8h-1.5v25.7Z" class="g0_32"/>
<path fill-rule="evenodd" d="M59.9,676h1.6v-1.5H59.9V676Z" class="g0_32"/>
<path fill-rule="evenodd" d="M61.5,676H346.6v-1.5H61.5V676Z" class="g0_32"/>
<path fill-rule="evenodd" d="M346.6,676h1.6v-1.5h-1.6V676Z" class="g0_32"/>
<path fill-rule="evenodd" d="M348.2,676H826.5v-1.5H348.2V676Z" class="g0_32"/>
<path fill-rule="evenodd" d="M826.5,676H828v-1.5h-1.5V676Z" class="g0_32"/>
<path fill-rule="evenodd" d="M59.9,701.4h1.6V676H59.9v25.4Z" class="g0_32"/>
<path fill-rule="evenodd" d="M346.6,701.4h1.6V676h-1.6v25.4Z" class="g0_32"/>
<path fill-rule="evenodd" d="M826.5,701.4H828V676h-1.5v25.4Z" class="g0_32"/>
<path fill-rule="evenodd" d="M59.9,702.9h1.6v-1.5H59.9v1.5Z" class="g0_32"/>
<path fill-rule="evenodd" d="M61.5,702.9H346.6v-1.5H61.5v1.5Z" class="g0_32"/>
<path fill-rule="evenodd" d="M346.6,702.9h1.6v-1.5h-1.6v1.5Z" class="g0_32"/>
<path fill-rule="evenodd" d="M348.2,702.9H826.5v-1.5H348.2v1.5Z" class="g0_32"/>
<path fill-rule="evenodd" d="M826.5,702.9H828v-1.5h-1.5v1.5Z" class="g0_32"/>
<path fill-rule="evenodd" d="M59.9,748.2h1.6V702.9H59.9v45.3Z" class="g0_32"/>
<path fill-rule="evenodd" d="M346.6,748.2h1.6V702.9h-1.6v45.3Z" class="g0_32"/>
<path fill-rule="evenodd" d="M826.5,748.2H828V702.9h-1.5v45.3Z" class="g0_32"/>
<path fill-rule="evenodd" d="M59.9,749.7h1.6v-1.5H59.9v1.5Z" class="g0_32"/>
<path fill-rule="evenodd" d="M61.5,749.7H346.6v-1.5H61.5v1.5Z" class="g0_32"/>
<path fill-rule="evenodd" d="M346.6,749.7h1.6v-1.5h-1.6v1.5Z" class="g0_32"/>
<path fill-rule="evenodd" d="M348.2,749.7H826.5v-1.5H348.2v1.5Z" class="g0_32"/>
<path fill-rule="evenodd" d="M826.5,749.7H828v-1.5h-1.5v1.5Z" class="g0_32"/>
<path fill-rule="evenodd" d="M59.9,814.5h1.6V749.7H59.9v64.8Z" class="g0_32"/>
<path fill-rule="evenodd" d="M346.6,814.5h1.6V749.7h-1.6v64.8Z" class="g0_32"/>
<path fill-rule="evenodd" d="M826.5,814.5H828V749.7h-1.5v64.8Z" class="g0_32"/>
<path fill-rule="evenodd" d="M61.8,841.7H826.5V816H61.8v25.7Z" class="g1_32"/>
<path fill-rule="evenodd" d="M69.1,841.7H818.9V816H69.1v25.7Z" class="g1_32"/>
<path fill-rule="evenodd" d="M59.9,816h1.6v-1.5H59.9V816Z" class="g0_32"/>
<path fill-rule="evenodd" d="M61.5,816H346.6v-1.5H61.5V816Z" class="g0_32"/>
<path fill-rule="evenodd" d="M346.6,816h1.6v-1.5h-1.6V816Z" class="g0_32"/>
<path fill-rule="evenodd" d="M348.2,816H826.5v-1.5H348.2V816Z" class="g0_32"/>
<path fill-rule="evenodd" d="M826.5,816H828v-1.5h-1.5V816Z" class="g0_32"/>
<path fill-rule="evenodd" d="M59.9,841.7h1.6V816H59.9v25.7Z" class="g0_32"/>
<path fill-rule="evenodd" d="M826.5,841.7H828V816h-1.5v25.7Z" class="g0_32"/>
<path fill-rule="evenodd" d="M59.9,843.2h1.6v-1.5H59.9v1.5Z" class="g0_32"/>
<path fill-rule="evenodd" d="M61.5,843.2H346.6v-1.5H61.5v1.5Z" class="g0_32"/>
<path fill-rule="evenodd" d="M346.6,843.2h1.6v-1.5h-1.6v1.5Z" class="g0_32"/>
<path fill-rule="evenodd" d="M348.2,843.2H826.5v-1.5H348.2v1.5Z" class="g0_32"/>
<path fill-rule="evenodd" d="M826.5,843.2H828v-1.5h-1.5v1.5Z" class="g0_32"/>
<path fill-rule="evenodd" d="M59.9,868.6h1.6V843.2H59.9v25.4Z" class="g0_32"/>
<path fill-rule="evenodd" d="M346.6,868.6h1.6V843.2h-1.6v25.4Z" class="g0_32"/>
<path fill-rule="evenodd" d="M826.5,868.6H828V843.2h-1.5v25.4Z" class="g0_32"/>
<path fill-rule="evenodd" d="M59.9,870.1h1.6v-1.5H59.9v1.5Z" class="g0_32"/>
<path fill-rule="evenodd" d="M61.5,870.1H346.6v-1.5H61.5v1.5Z" class="g0_32"/>
<path fill-rule="evenodd" d="M346.6,870.1h1.6v-1.5h-1.6v1.5Z" class="g0_32"/>
<path fill-rule="evenodd" d="M348.2,870.1H826.5v-1.5H348.2v1.5Z" class="g0_32"/>
<path fill-rule="evenodd" d="M826.5,870.1H828v-1.5h-1.5v1.5Z" class="g0_32"/>
<path fill-rule="evenodd" d="M59.9,895.8h1.6V870.1H59.9v25.7Z" class="g0_32"/>
<path fill-rule="evenodd" d="M346.6,895.8h1.6V870.1h-1.6v25.7Z" class="g0_32"/>
<path fill-rule="evenodd" d="M826.5,895.8H828V870.1h-1.5v25.7Z" class="g0_32"/>
<path fill-rule="evenodd" d="M59.9,897.3h1.6v-1.5H59.9v1.5Z" class="g0_32"/>
<path fill-rule="evenodd" d="M61.5,897.3H346.6v-1.5H61.5v1.5Z" class="g0_32"/>
<path fill-rule="evenodd" d="M346.6,897.3h1.6v-1.5h-1.6v1.5Z" class="g0_32"/>
<path fill-rule="evenodd" d="M348.2,897.3H826.5v-1.5H348.2v1.5Z" class="g0_32"/>
<path fill-rule="evenodd" d="M826.5,897.3H828v-1.5h-1.5v1.5Z" class="g0_32"/>
<path fill-rule="evenodd" d="M59.9,923h1.6V897.3H59.9V923Z" class="g0_32"/>
<path fill-rule="evenodd" d="M346.6,923h1.6V897.3h-1.6V923Z" class="g0_32"/>
<path fill-rule="evenodd" d="M826.5,923H828V897.3h-1.5V923Z" class="g0_32"/>
<path fill-rule="evenodd" d="M59.9,924.5h1.6V923H59.9v1.5Z" class="g0_32"/>
<path fill-rule="evenodd" d="M61.5,924.5H346.6V923H61.5v1.5Z" class="g0_32"/>
<path fill-rule="evenodd" d="M346.6,924.5h1.6V923h-1.6v1.5Z" class="g0_32"/>
<path fill-rule="evenodd" d="M348.2,924.5H826.5V923H348.2v1.5Z" class="g0_32"/>
<path fill-rule="evenodd" d="M826.5,924.5H828V923h-1.5v1.5Z" class="g0_32"/>
<path fill-rule="evenodd" d="M59.9,989.3h1.6V924.5H59.9v64.8Z" class="g0_32"/>
<path fill-rule="evenodd" d="M346.6,989.3h1.6V924.5h-1.6v64.8Z" class="g0_32"/>
<path fill-rule="evenodd" d="M826.5,989.3H828V924.5h-1.5v64.8Z" class="g0_32"/>
<path fill-rule="evenodd" d="M59.9,990.8h1.6v-1.5H59.9v1.5Z" class="g0_32"/>
<path fill-rule="evenodd" d="M61.5,990.8H346.6v-1.5H61.5v1.5Z" class="g0_32"/>
<path fill-rule="evenodd" d="M346.6,990.8h1.6v-1.5h-1.6v1.5Z" class="g0_32"/>
<path fill-rule="evenodd" d="M348.2,990.8H826.5v-1.5H348.2v1.5Z" class="g0_32"/>
<path fill-rule="evenodd" d="M826.5,990.8H828v-1.5h-1.5v1.5Z" class="g0_32"/>
<path fill-rule="evenodd" d="M59.9,1016.5h1.6V990.8H59.9v25.7Z" class="g0_32"/>
<path fill-rule="evenodd" d="M346.6,1016.5h1.6V990.8h-1.6v25.7Z" class="g0_32"/>
<path fill-rule="evenodd" d="M826.5,1016.5H828V990.8h-1.5v25.7Z" class="g0_32"/>
<path fill-rule="evenodd" d="M59.9,1018h1.6v-1.5H59.9v1.5Z" class="g0_32"/>
<path fill-rule="evenodd" d="M61.5,1018H346.6v-1.5H61.5v1.5Z" class="g0_32"/>
<path fill-rule="evenodd" d="M346.6,1018h1.6v-1.5h-1.6v1.5Z" class="g0_32"/>
<path fill-rule="evenodd" d="M348.2,1018H826.5v-1.5H348.2v1.5Z" class="g0_32"/>
<path fill-rule="evenodd" d="M826.5,1018H828v-1.5h-1.5v1.5Z" class="g0_32"/>
<path fill-rule="evenodd" d="M59.9,1082.5h1.6V1018H59.9v64.5Z" class="g0_32"/>
<path fill-rule="evenodd" d="M346.6,1082.5h1.6V1018h-1.6v64.5Z" class="g0_32"/>
<path fill-rule="evenodd" d="M826.5,1082.5H828V1018h-1.5v64.5Z" class="g0_32"/>
<path fill-rule="evenodd" d="M59.9,1084h1.6v-1.5H59.9v1.5Z" class="g0_32"/>
<path fill-rule="evenodd" d="M61.5,1084H346.6v-1.5H61.5v1.5Z" class="g0_32"/>
<path fill-rule="evenodd" d="M346.6,1084h1.6v-1.5h-1.6v1.5Z" class="g0_32"/>
<path fill-rule="evenodd" d="M348.2,1084H826.5v-1.5H348.2v1.5Z" class="g0_32"/>
<path fill-rule="evenodd" d="M826.5,1084H828v-1.5h-1.5v1.5Z" class="g0_32"/>
<path fill-rule="evenodd" d="M59.9,1109.7h1.6V1084H59.9v25.7Z" class="g0_32"/>
<path fill-rule="evenodd" d="M346.6,1109.7h1.6V1084h-1.6v25.7Z" class="g0_32"/>
<path fill-rule="evenodd" d="M826.5,1109.7H828V1084h-1.5v25.7Z" class="g0_32"/>
<path fill-rule="evenodd" d="M59.9,1111.2h1.6v-1.5H59.9v1.5Z" class="g0_32"/>
<path fill-rule="evenodd" d="M61.5,1111.2H346.6v-1.5H61.5v1.5Z" class="g0_32"/>
<path fill-rule="evenodd" d="M346.6,1111.2h1.6v-1.5h-1.6v1.5Z" class="g0_32"/>
<path fill-rule="evenodd" d="M348.2,1111.2H826.5v-1.5H348.2v1.5Z" class="g0_32"/>
<path fill-rule="evenodd" d="M826.5,1111.2H828v-1.5h-1.5v1.5Z" class="g0_32"/>
<path fill-rule="evenodd" d="M59.9,1156.5h1.6v-45.3H59.9v45.3Z" class="g0_32"/>
<path fill-rule="evenodd" d="M346.6,1156.5h1.6v-45.3h-1.6v45.3Z" class="g0_32"/>
<path fill-rule="evenodd" d="M826.5,1156.5H828v-45.3h-1.5v45.3Z" class="g0_32"/>
<path fill-rule="evenodd" d="M59.9,1158h1.6v-1.5H59.9v1.5Z" class="g0_32"/>
<path fill-rule="evenodd" d="M61.5,1158H346.6v-1.5H61.5v1.5Z" class="g0_32"/>
<path fill-rule="evenodd" d="M346.6,1158h1.6v-1.5h-1.6v1.5Z" class="g0_32"/>
<path fill-rule="evenodd" d="M348.2,1158H826.5v-1.5H348.2v1.5Z" class="g0_32"/>
<path fill-rule="evenodd" d="M826.5,1158H828v-1.5h-1.5v1.5Z" class="g0_32"/>
<path fill-rule="evenodd" d="M59.9,1183.7h1.6V1158H59.9v25.7Z" class="g0_32"/>
<path fill-rule="evenodd" d="M59.9,1185.2h1.6v-1.5H59.9v1.5Z" class="g0_32"/>
<path fill-rule="evenodd" d="M59.9,1185.2h1.6v-1.5H59.9v1.5Z" class="g0_32"/>
<path fill-rule="evenodd" d="M61.5,1185.2H346.6v-1.5H61.5v1.5Z" class="g0_32"/>
<path fill-rule="evenodd" d="M346.6,1183.7h1.6V1158h-1.6v25.7Z" class="g0_32"/>
<path fill-rule="evenodd" d="M346.6,1185.2h1.6v-1.5h-1.6v1.5Z" class="g0_32"/>
<path fill-rule="evenodd" d="M348.2,1185.2H826.5v-1.5H348.2v1.5Z" class="g0_32"/>
<path fill-rule="evenodd" d="M826.5,1183.7H828V1158h-1.5v25.7Z" class="g0_32"/>
<path fill-rule="evenodd" d="M826.5,1185.2H828v-1.5h-1.5v1.5Z" class="g0_32"/>
<path fill-rule="evenodd" d="M826.5,1185.2H828v-1.5h-1.5v1.5Z" class="g0_32"/>
</svg>