<?xml version="1.0" encoding="UTF-8" standalone="no"?>
<!DOCTYPE svg PUBLIC "-//W3C//DTD SVG 1.1//EN"
"http://www.w3.org/Graphics/SVG/1.1/DTD/svg11.dtd">
<svg viewBox="0 0 909 1286" version="1.1" xmlns="http://www.w3.org/2000/svg" xmlns:xlink="http://www.w3.org/1999/xlink">
<defs>
<style type="text/css"><![CDATA[
.g0_24{
}
.g1_24{
fill: #F1F1F1;
}
]]></style>
</defs>
<path fill-rule="evenodd" d="M65.1,66H823.4V64.5H65.1V66Z" class="g0_24"/>
<path fill-rule="evenodd" d="M66.3,113.7H821.9V88H66.3v25.7Z" class="g1_24"/>
<path fill-rule="evenodd" d="M73.7,113.7H814.6V88H73.7v25.7Z" class="g1_24"/>
<path fill-rule="evenodd" d="M64.5,88H66V86.5H64.5V88Z" class="g0_24"/>
<path fill-rule="evenodd" d="M64.5,88H66V86.5H64.5V88Z" class="g0_24"/>
<path fill-rule="evenodd" d="M66,88H821.9V86.5H66V88Z" class="g0_24"/>
<path fill-rule="evenodd" d="M821.9,88h1.5V86.5h-1.5V88Z" class="g0_24"/>
<path fill-rule="evenodd" d="M821.9,88h1.5V86.5h-1.5V88Z" class="g0_24"/>
<path fill-rule="evenodd" d="M64.5,113.7H66V88H64.5v25.7Z" class="g0_24"/>
<path fill-rule="evenodd" d="M821.9,113.7h1.5V88h-1.5v25.7Z" class="g0_24"/>
<path fill-rule="evenodd" d="M64.5,115.2H66v-1.5H64.5v1.5Z" class="g0_24"/>
<path fill-rule="evenodd" d="M66,115.2H281.2v-1.5H66v1.5Z" class="g0_24"/>
<path fill-rule="evenodd" d="M281.2,115.2h1.5v-1.5h-1.5v1.5Z" class="g0_24"/>
<path fill-rule="evenodd" d="M282.7,115.2H821.9v-1.5H282.7v1.5Z" class="g0_24"/>
<path fill-rule="evenodd" d="M821.9,115.2h1.5v-1.5h-1.5v1.5Z" class="g0_24"/>
<path fill-rule="evenodd" d="M64.5,160.4H66V115.2H64.5v45.2Z" class="g0_24"/>
<path fill-rule="evenodd" d="M281.2,160.4h1.5V115.2h-1.5v45.2Z" class="g0_24"/>
<path fill-rule="evenodd" d="M821.9,160.4h1.5V115.2h-1.5v45.2Z" class="g0_24"/>
<path fill-rule="evenodd" d="M64.5,162H66v-1.5H64.5V162Z" class="g0_24"/>
<path fill-rule="evenodd" d="M66,162H281.2v-1.5H66V162Z" class="g0_24"/>
<path fill-rule="evenodd" d="M281.2,162h1.5v-1.5h-1.5V162Z" class="g0_24"/>
<path fill-rule="evenodd" d="M282.7,162H821.9v-1.5H282.7V162Z" class="g0_24"/>
<path fill-rule="evenodd" d="M821.9,162h1.5v-1.5h-1.5V162Z" class="g0_24"/>
<path fill-rule="evenodd" d="M64.5,187.7H66V162H64.5v25.7Z" class="g0_24"/>
<path fill-rule="evenodd" d="M281.2,187.7h1.5V162h-1.5v25.7Z" class="g0_24"/>
<path fill-rule="evenodd" d="M821.9,187.7h1.5V162h-1.5v25.7Z" class="g0_24"/>
<path fill-rule="evenodd" d="M64.5,189.2H66v-1.5H64.5v1.5Z" class="g0_24"/>
<path fill-rule="evenodd" d="M66,189.2H281.2v-1.5H66v1.5Z" class="g0_24"/>
<path fill-rule="evenodd" d="M281.2,189.2h1.5v-1.5h-1.5v1.5Z" class="g0_24"/>
<path fill-rule="evenodd" d="M282.7,189.2H821.9v-1.5H282.7v1.5Z" class="g0_24"/>
<path fill-rule="evenodd" d="M821.9,189.2h1.5v-1.5h-1.5v1.5Z" class="g0_24"/>
<path fill-rule="evenodd" d="M64.5,214.9H66V189.2H64.5v25.7Z" class="g0_24"/>
<path fill-rule="evenodd" d="M281.2,214.9h1.5V189.2h-1.5v25.7Z" class="g0_24"/>
<path fill-rule="evenodd" d="M821.9,214.9h1.5V189.2h-1.5v25.7Z" class="g0_24"/>
<path fill-rule="evenodd" d="M64.5,216.4H66v-1.5H64.5v1.5Z" class="g0_24"/>
<path fill-rule="evenodd" d="M66,216.4H281.2v-1.5H66v1.5Z" class="g0_24"/>
<path fill-rule="evenodd" d="M281.2,216.4h1.5v-1.5h-1.5v1.5Z" class="g0_24"/>
<path fill-rule="evenodd" d="M282.7,216.4H821.9v-1.5H282.7v1.5Z" class="g0_24"/>
<path fill-rule="evenodd" d="M821.9,216.4h1.5v-1.5h-1.5v1.5Z" class="g0_24"/>
<path fill-rule="evenodd" d="M64.5,261.6H66V216.4H64.5v45.2Z" class="g0_24"/>
<path fill-rule="evenodd" d="M281.2,261.6h1.5V216.4h-1.5v45.2Z" class="g0_24"/>
<path fill-rule="evenodd" d="M821.9,261.6h1.5V216.4h-1.5v45.2Z" class="g0_24"/>
<path fill-rule="evenodd" d="M66.3,288.5H821.9V263.2H66.3v25.3Z" class="g1_24"/>
<path fill-rule="evenodd" d="M73.7,288.5H814.6V263.2H73.7v25.3Z" class="g1_24"/>
<path fill-rule="evenodd" d="M64.5,263.2H66v-1.6H64.5v1.6Z" class="g0_24"/>
<path fill-rule="evenodd" d="M66,263.2H281.2v-1.6H66v1.6Z" class="g0_24"/>
<path fill-rule="evenodd" d="M281.2,263.2h1.5v-1.6h-1.5v1.6Z" class="g0_24"/>
<path fill-rule="evenodd" d="M282.7,263.2H821.9v-1.6H282.7v1.6Z" class="g0_24"/>
<path fill-rule="evenodd" d="M821.9,263.2h1.5v-1.6h-1.5v1.6Z" class="g0_24"/>
<path fill-rule="evenodd" d="M64.5,288.5H66V263.2H64.5v25.3Z" class="g0_24"/>
<path fill-rule="evenodd" d="M821.9,288.5h1.5V263.2h-1.5v25.3Z" class="g0_24"/>
<path fill-rule="evenodd" d="M64.5,290H66v-1.5H64.5V290Z" class="g0_24"/>
<path fill-rule="evenodd" d="M66,290H281.2v-1.5H66V290Z" class="g0_24"/>
<path fill-rule="evenodd" d="M281.2,290h1.5v-1.5h-1.5V290Z" class="g0_24"/>
<path fill-rule="evenodd" d="M282.7,290H821.9v-1.5H282.7V290Z" class="g0_24"/>
<path fill-rule="evenodd" d="M821.9,290h1.5v-1.5h-1.5V290Z" class="g0_24"/>
<path fill-rule="evenodd" d="M64.5,335.3H66V290H64.5v45.3Z" class="g0_24"/>
<path fill-rule="evenodd" d="M281.2,335.3h1.5V290h-1.5v45.3Z" class="g0_24"/>
<path fill-rule="evenodd" d="M821.9,335.3h1.5V290h-1.5v45.3Z" class="g0_24"/>
<path fill-rule="evenodd" d="M64.5,336.8H66v-1.5H64.5v1.5Z" class="g0_24"/>
<path fill-rule="evenodd" d="M66,336.8H281.2v-1.5H66v1.5Z" class="g0_24"/>
<path fill-rule="evenodd" d="M281.2,336.8h1.5v-1.5h-1.5v1.5Z" class="g0_24"/>
<path fill-rule="evenodd" d="M282.7,336.8H821.9v-1.5H282.7v1.5Z" class="g0_24"/>
<path fill-rule="evenodd" d="M821.9,336.8h1.5v-1.5h-1.5v1.5Z" class="g0_24"/>
<path fill-rule="evenodd" d="M64.5,382H66V336.8H64.5V382Z" class="g0_24"/>
<path fill-rule="evenodd" d="M281.2,382h1.5V336.8h-1.5V382Z" class="g0_24"/>
<path fill-rule="evenodd" d="M821.9,382h1.5V336.8h-1.5V382Z" class="g0_24"/>
<path fill-rule="evenodd" d="M66.3,409.2H821.9V383.5H66.3v25.7Z" class="g1_24"/>
<path fill-rule="evenodd" d="M73.7,409.2H814.6V383.5H73.7v25.7Z" class="g1_24"/>
<path fill-rule="evenodd" d="M64.5,383.5H66V382H64.5v1.5Z" class="g0_24"/>
<path fill-rule="evenodd" d="M66,383.5H281.2V382H66v1.5Z" class="g0_24"/>
<path fill-rule="evenodd" d="M281.2,383.5h1.5V382h-1.5v1.5Z" class="g0_24"/>
<path fill-rule="evenodd" d="M282.7,383.5H821.9V382H282.7v1.5Z" class="g0_24"/>
<path fill-rule="evenodd" d="M821.9,383.5h1.5V382h-1.5v1.5Z" class="g0_24"/>
<path fill-rule="evenodd" d="M64.5,409.2H66V383.5H64.5v25.7Z" class="g0_24"/>
<path fill-rule="evenodd" d="M821.9,409.2h1.5V383.5h-1.5v25.7Z" class="g0_24"/>
<path fill-rule="evenodd" d="M64.5,410.7H66v-1.5H64.5v1.5Z" class="g0_24"/>
<path fill-rule="evenodd" d="M66,410.7H281.2v-1.5H66v1.5Z" class="g0_24"/>
<path fill-rule="evenodd" d="M281.2,410.7h1.5v-1.5h-1.5v1.5Z" class="g0_24"/>
<path fill-rule="evenodd" d="M282.7,410.7H821.9v-1.5H282.7v1.5Z" class="g0_24"/>
<path fill-rule="evenodd" d="M821.9,410.7h1.5v-1.5h-1.5v1.5Z" class="g0_24"/>
<path fill-rule="evenodd" d="M64.5,436.5H66V410.8H64.5v25.7Z" class="g0_24"/>
<path fill-rule="evenodd" d="M281.2,436.5h1.5V410.8h-1.5v25.7Z" class="g0_24"/>
<path fill-rule="evenodd" d="M821.9,436.5h1.5V410.8h-1.5v25.7Z" class="g0_24"/>
<path fill-rule="evenodd" d="M66.3,463.3H821.9V438H66.3v25.3Z" class="g1_24"/>
<path fill-rule="evenodd" d="M73.7,463.3H814.6V438H73.7v25.3Z" class="g1_24"/>
<path fill-rule="evenodd" d="M64.5,438H66v-1.6H64.5V438Z" class="g0_24"/>
<path fill-rule="evenodd" d="M66,438H281.2v-1.6H66V438Z" class="g0_24"/>
<path fill-rule="evenodd" d="M281.2,438h1.5v-1.6h-1.5V438Z" class="g0_24"/>
<path fill-rule="evenodd" d="M282.7,438H821.9v-1.6H282.7V438Z" class="g0_24"/>
<path fill-rule="evenodd" d="M821.9,438h1.5v-1.6h-1.5V438Z" class="g0_24"/>
<path fill-rule="evenodd" d="M64.5,463.3H66V438H64.5v25.3Z" class="g0_24"/>
<path fill-rule="evenodd" d="M821.9,463.3h1.5V438h-1.5v25.3Z" class="g0_24"/>
<path fill-rule="evenodd" d="M64.5,464.9H66v-1.6H64.5v1.6Z" class="g0_24"/>
<path fill-rule="evenodd" d="M66,464.9H281.2v-1.6H66v1.6Z" class="g0_24"/>
<path fill-rule="evenodd" d="M281.2,464.9h1.5v-1.6h-1.5v1.6Z" class="g0_24"/>
<path fill-rule="evenodd" d="M282.7,464.9H821.9v-1.6H282.7v1.6Z" class="g0_24"/>
<path fill-rule="evenodd" d="M821.9,464.9h1.5v-1.6h-1.5v1.6Z" class="g0_24"/>
<path fill-rule="evenodd" d="M64.5,529.6H66V464.9H64.5v64.7Z" class="g0_24"/>
<path fill-rule="evenodd" d="M281.2,529.6h1.5V464.9h-1.5v64.7Z" class="g0_24"/>
<path fill-rule="evenodd" d="M821.9,529.6h1.5V464.9h-1.5v64.7Z" class="g0_24"/>
<path fill-rule="evenodd" d="M64.5,531.2H66v-1.6H64.5v1.6Z" class="g0_24"/>
<path fill-rule="evenodd" d="M66,531.2H281.2v-1.6H66v1.6Z" class="g0_24"/>
<path fill-rule="evenodd" d="M281.2,531.2h1.5v-1.6h-1.5v1.6Z" class="g0_24"/>
<path fill-rule="evenodd" d="M282.7,531.2H821.9v-1.6H282.7v1.6Z" class="g0_24"/>
<path fill-rule="evenodd" d="M821.9,531.2h1.5v-1.6h-1.5v1.6Z" class="g0_24"/>
<path fill-rule="evenodd" d="M64.5,556.8H66V531.2H64.5v25.6Z" class="g0_24"/>
<path fill-rule="evenodd" d="M281.2,556.8h1.5V531.2h-1.5v25.6Z" class="g0_24"/>
<path fill-rule="evenodd" d="M821.9,556.8h1.5V531.2h-1.5v25.6Z" class="g0_24"/>
<path fill-rule="evenodd" d="M64.5,558.4H66v-1.6H64.5v1.6Z" class="g0_24"/>
<path fill-rule="evenodd" d="M66,558.4H281.2v-1.6H66v1.6Z" class="g0_24"/>
<path fill-rule="evenodd" d="M281.2,558.4h1.5v-1.6h-1.5v1.6Z" class="g0_24"/>
<path fill-rule="evenodd" d="M282.7,558.4H821.9v-1.6H282.7v1.6Z" class="g0_24"/>
<path fill-rule="evenodd" d="M821.9,558.4h1.5v-1.6h-1.5v1.6Z" class="g0_24"/>
<path fill-rule="evenodd" d="M64.5,584H66V558.4H64.5V584Z" class="g0_24"/>
<path fill-rule="evenodd" d="M281.2,584h1.5V558.4h-1.5V584Z" class="g0_24"/>
<path fill-rule="evenodd" d="M821.9,584h1.5V558.4h-1.5V584Z" class="g0_24"/>
<path fill-rule="evenodd" d="M64.5,585.6H66V584H64.5v1.6Z" class="g0_24"/>
<path fill-rule="evenodd" d="M66,585.6H281.2V584H66v1.6Z" class="g0_24"/>
<path fill-rule="evenodd" d="M281.2,585.6h1.5V584h-1.5v1.6Z" class="g0_24"/>
<path fill-rule="evenodd" d="M282.7,585.6H821.9V584H282.7v1.6Z" class="g0_24"/>
<path fill-rule="evenodd" d="M821.9,585.6h1.5V584h-1.5v1.6Z" class="g0_24"/>
<path fill-rule="evenodd" d="M64.5,611.3H66V585.6H64.5v25.7Z" class="g0_24"/>
<path fill-rule="evenodd" d="M281.2,611.3h1.5V585.6h-1.5v25.7Z" class="g0_24"/>
<path fill-rule="evenodd" d="M821.9,611.3h1.5V585.6h-1.5v25.7Z" class="g0_24"/>
<path fill-rule="evenodd" d="M64.5,612.8H66v-1.5H64.5v1.5Z" class="g0_24"/>
<path fill-rule="evenodd" d="M66,612.8H281.2v-1.5H66v1.5Z" class="g0_24"/>
<path fill-rule="evenodd" d="M281.2,612.8h1.5v-1.5h-1.5v1.5Z" class="g0_24"/>
<path fill-rule="evenodd" d="M282.7,612.8H821.9v-1.5H282.7v1.5Z" class="g0_24"/>
<path fill-rule="evenodd" d="M821.9,612.8h1.5v-1.5h-1.5v1.5Z" class="g0_24"/>
<path fill-rule="evenodd" d="M64.5,657.7H66V612.8H64.5v44.9Z" class="g0_24"/>
<path fill-rule="evenodd" d="M64.5,659.2H66v-1.5H64.5v1.5Z" class="g0_24"/>
<path fill-rule="evenodd" d="M64.5,659.2H66v-1.5H64.5v1.5Z" class="g0_24"/>
<path fill-rule="evenodd" d="M66,659.2H281.2v-1.5H66v1.5Z" class="g0_24"/>
<path fill-rule="evenodd" d="M281.2,657.7h1.5V612.8h-1.5v44.9Z" class="g0_24"/>
<path fill-rule="evenodd" d="M281.2,659.2h1.5v-1.5h-1.5v1.5Z" class="g0_24"/>
<path fill-rule="evenodd" d="M282.7,659.2H821.9v-1.5H282.7v1.5Z" class="g0_24"/>
<path fill-rule="evenodd" d="M821.9,657.7h1.5V612.8h-1.5v44.9Z" class="g0_24"/>
<path fill-rule="evenodd" d="M821.9,659.2h1.5v-1.5h-1.5v1.5Z" class="g0_24"/>
<path fill-rule="evenodd" d="M821.9,659.2h1.5v-1.5h-1.5v1.5Z" class="g0_24"/>
<path fill-rule="evenodd" d="M65.1,743.3H140V742H65.1v1.3Z" class="g0_24"/>
<path fill-rule="evenodd" d="M65.1,827.3h78.5v-1.2H65.1v1.2Z" class="g0_24"/>
</svg>