<?xml version="1.0" encoding="UTF-8" standalone="no"?>
<!DOCTYPE svg PUBLIC "-//W3C//DTD SVG 1.1//EN"
"http://www.w3.org/Graphics/SVG/1.1/DTD/svg11.dtd">
<svg viewBox="0 0 909 1286" version="1.1" xmlns="http://www.w3.org/2000/svg" xmlns:xlink="http://www.w3.org/1999/xlink">
<defs>
<style type="text/css"><![CDATA[
.g0_36{
}
.g1_36{
fill: #F1F1F1;
}
]]></style>
</defs>
<path fill-rule="evenodd" d="M65.1,66H823.4V64.5H65.1V66Z" class="g0_36"/>
<path fill-rule="evenodd" d="M57.4,177H830.8V151.3H57.4V177Z" class="g1_36"/>
<path fill-rule="evenodd" d="M65.1,177h758V151.3H65.1V177Z" class="g1_36"/>
<path fill-rule="evenodd" d="M55.9,151.3h1.5v-1.5H55.9v1.5Z" class="g0_36"/>
<path fill-rule="evenodd" d="M55.9,151.3h1.5v-1.5H55.9v1.5Z" class="g0_36"/>
<path fill-rule="evenodd" d="M57.4,151.3H830.5v-1.5H57.4v1.5Z" class="g0_36"/>
<path fill-rule="evenodd" d="M830.5,151.3H832v-1.5h-1.5v1.5Z" class="g0_36"/>
<path fill-rule="evenodd" d="M830.5,151.3H832v-1.5h-1.5v1.5Z" class="g0_36"/>
<path fill-rule="evenodd" d="M55.9,177h1.5V151.3H55.9V177Z" class="g0_36"/>
<path fill-rule="evenodd" d="M830.5,177H832V151.3h-1.5V177Z" class="g0_36"/>
<path fill-rule="evenodd" d="M55.9,178.5h1.5V177H55.9v1.5Z" class="g0_36"/>
<path fill-rule="evenodd" d="M57.4,178.5H320.9V177H57.4v1.5Z" class="g0_36"/>
<path fill-rule="evenodd" d="M321,178.5h1.5V177H321v1.5Z" class="g0_36"/>
<path fill-rule="evenodd" d="M322.5,178.5h508V177h-508v1.5Z" class="g0_36"/>
<path fill-rule="evenodd" d="M830.5,178.5H832V177h-1.5v1.5Z" class="g0_36"/>
<path fill-rule="evenodd" d="M55.9,223.7h1.5V178.5H55.9v45.2Z" class="g0_36"/>
<path fill-rule="evenodd" d="M321,223.7h1.5V178.5H321v45.2Z" class="g0_36"/>
<path fill-rule="evenodd" d="M830.5,223.7H832V178.5h-1.5v45.2Z" class="g0_36"/>
<path fill-rule="evenodd" d="M55.9,225.2h1.5v-1.5H55.9v1.5Z" class="g0_36"/>
<path fill-rule="evenodd" d="M57.4,225.2H320.9v-1.5H57.4v1.5Z" class="g0_36"/>
<path fill-rule="evenodd" d="M321,225.2h1.5v-1.5H321v1.5Z" class="g0_36"/>
<path fill-rule="evenodd" d="M322.5,225.2h508v-1.5h-508v1.5Z" class="g0_36"/>
<path fill-rule="evenodd" d="M830.5,225.2H832v-1.5h-1.5v1.5Z" class="g0_36"/>
<path fill-rule="evenodd" d="M55.9,270.5h1.5V225.2H55.9v45.3Z" class="g0_36"/>
<path fill-rule="evenodd" d="M321,270.5h1.5V225.2H321v45.3Z" class="g0_36"/>
<path fill-rule="evenodd" d="M830.5,270.5H832V225.2h-1.5v45.3Z" class="g0_36"/>
<path fill-rule="evenodd" d="M55.9,272h1.5v-1.5H55.9V272Z" class="g0_36"/>
<path fill-rule="evenodd" d="M57.4,272H320.9v-1.5H57.4V272Z" class="g0_36"/>
<path fill-rule="evenodd" d="M321,272h1.5v-1.5H321V272Z" class="g0_36"/>
<path fill-rule="evenodd" d="M322.5,272h508v-1.5h-508V272Z" class="g0_36"/>
<path fill-rule="evenodd" d="M830.5,272H832v-1.5h-1.5V272Z" class="g0_36"/>
<path fill-rule="evenodd" d="M55.9,316.9h1.5V272H55.9v44.9Z" class="g0_36"/>
<path fill-rule="evenodd" d="M321,316.9h1.5V272H321v44.9Z" class="g0_36"/>
<path fill-rule="evenodd" d="M830.5,316.9H832V272h-1.5v44.9Z" class="g0_36"/>
<path fill-rule="evenodd" d="M55.9,318.5h1.5v-1.6H55.9v1.6Z" class="g0_36"/>
<path fill-rule="evenodd" d="M57.4,318.5H320.9v-1.6H57.4v1.6Z" class="g0_36"/>
<path fill-rule="evenodd" d="M321,318.5h1.5v-1.6H321v1.6Z" class="g0_36"/>
<path fill-rule="evenodd" d="M322.5,318.5h508v-1.6h-508v1.6Z" class="g0_36"/>
<path fill-rule="evenodd" d="M830.5,318.5H832v-1.6h-1.5v1.6Z" class="g0_36"/>
<path fill-rule="evenodd" d="M55.9,344.1h1.5V318.5H55.9v25.6Z" class="g0_36"/>
<path fill-rule="evenodd" d="M321,344.1h1.5V318.5H321v25.6Z" class="g0_36"/>
<path fill-rule="evenodd" d="M830.5,344.1H832V318.5h-1.5v25.6Z" class="g0_36"/>
<path fill-rule="evenodd" d="M55.9,345.7h1.5v-1.6H55.9v1.6Z" class="g0_36"/>
<path fill-rule="evenodd" d="M57.4,345.7H320.9v-1.6H57.4v1.6Z" class="g0_36"/>
<path fill-rule="evenodd" d="M321,345.7h1.5v-1.6H321v1.6Z" class="g0_36"/>
<path fill-rule="evenodd" d="M322.5,345.7h508v-1.6h-508v1.6Z" class="g0_36"/>
<path fill-rule="evenodd" d="M830.5,345.7H832v-1.6h-1.5v1.6Z" class="g0_36"/>
<path fill-rule="evenodd" d="M55.9,390.9h1.5V345.7H55.9v45.2Z" class="g0_36"/>
<path fill-rule="evenodd" d="M321,390.9h1.5V345.7H321v45.2Z" class="g0_36"/>
<path fill-rule="evenodd" d="M830.5,390.9H832V345.7h-1.5v45.2Z" class="g0_36"/>
<path fill-rule="evenodd" d="M55.9,392.4h1.5v-1.5H55.9v1.5Z" class="g0_36"/>
<path fill-rule="evenodd" d="M57.4,392.4H320.9v-1.5H57.4v1.5Z" class="g0_36"/>
<path fill-rule="evenodd" d="M321,392.4h1.5v-1.5H321v1.5Z" class="g0_36"/>
<path fill-rule="evenodd" d="M322.5,392.4h508v-1.5h-508v1.5Z" class="g0_36"/>
<path fill-rule="evenodd" d="M830.5,392.4H832v-1.5h-1.5v1.5Z" class="g0_36"/>
<path fill-rule="evenodd" d="M55.9,437.7h1.5V392.4H55.9v45.3Z" class="g0_36"/>
<path fill-rule="evenodd" d="M321,437.7h1.5V392.4H321v45.3Z" class="g0_36"/>
<path fill-rule="evenodd" d="M830.5,437.7H832V392.4h-1.5v45.3Z" class="g0_36"/>
<path fill-rule="evenodd" d="M57.4,464.9H830.8V439.2H57.4v25.7Z" class="g1_36"/>
<path fill-rule="evenodd" d="M65.1,464.9h758V439.2H65.1v25.7Z" class="g1_36"/>
<path fill-rule="evenodd" d="M55.9,439.2h1.5v-1.5H55.9v1.5Z" class="g0_36"/>
<path fill-rule="evenodd" d="M57.4,439.2H320.9v-1.5H57.4v1.5Z" class="g0_36"/>
<path fill-rule="evenodd" d="M321,439.2h1.5v-1.5H321v1.5Z" class="g0_36"/>
<path fill-rule="evenodd" d="M322.5,439.2h508v-1.5h-508v1.5Z" class="g0_36"/>
<path fill-rule="evenodd" d="M830.5,439.2H832v-1.5h-1.5v1.5Z" class="g0_36"/>
<path fill-rule="evenodd" d="M55.9,464.9h1.5V439.2H55.9v25.7Z" class="g0_36"/>
<path fill-rule="evenodd" d="M830.5,464.9H832V439.2h-1.5v25.7Z" class="g0_36"/>
<path fill-rule="evenodd" d="M55.9,466.4h1.5v-1.5H55.9v1.5Z" class="g0_36"/>
<path fill-rule="evenodd" d="M57.4,466.4H320.9v-1.5H57.4v1.5Z" class="g0_36"/>
<path fill-rule="evenodd" d="M321,466.4h1.5v-1.5H321v1.5Z" class="g0_36"/>
<path fill-rule="evenodd" d="M322.5,466.4h508v-1.5h-508v1.5Z" class="g0_36"/>
<path fill-rule="evenodd" d="M830.5,466.4H832v-1.5h-1.5v1.5Z" class="g0_36"/>
<path fill-rule="evenodd" d="M55.9,492.1h1.5V466.4H55.9v25.7Z" class="g0_36"/>
<path fill-rule="evenodd" d="M321,492.1h1.5V466.4H321v25.7Z" class="g0_36"/>
<path fill-rule="evenodd" d="M830.5,492.1H832V466.4h-1.5v25.7Z" class="g0_36"/>
<path fill-rule="evenodd" d="M55.9,493.6h1.5v-1.5H55.9v1.5Z" class="g0_36"/>
<path fill-rule="evenodd" d="M57.4,493.6H320.9v-1.5H57.4v1.5Z" class="g0_36"/>
<path fill-rule="evenodd" d="M321,493.6h1.5v-1.5H321v1.5Z" class="g0_36"/>
<path fill-rule="evenodd" d="M322.5,493.6h508v-1.5h-508v1.5Z" class="g0_36"/>
<path fill-rule="evenodd" d="M830.5,493.6H832v-1.5h-1.5v1.5Z" class="g0_36"/>
<path fill-rule="evenodd" d="M55.9,519h1.5V493.6H55.9V519Z" class="g0_36"/>
<path fill-rule="evenodd" d="M321,519h1.5V493.6H321V519Z" class="g0_36"/>
<path fill-rule="evenodd" d="M830.5,519H832V493.6h-1.5V519Z" class="g0_36"/>
<path fill-rule="evenodd" d="M55.9,520.5h1.5V519H55.9v1.5Z" class="g0_36"/>
<path fill-rule="evenodd" d="M57.4,520.5H320.9V519H57.4v1.5Z" class="g0_36"/>
<path fill-rule="evenodd" d="M321,520.5h1.5V519H321v1.5Z" class="g0_36"/>
<path fill-rule="evenodd" d="M322.5,520.5h508V519h-508v1.5Z" class="g0_36"/>
<path fill-rule="evenodd" d="M830.5,520.5H832V519h-1.5v1.5Z" class="g0_36"/>
<path fill-rule="evenodd" d="M55.9,546.1h1.5V520.5H55.9v25.6Z" class="g0_36"/>
<path fill-rule="evenodd" d="M321,546.1h1.5V520.5H321v25.6Z" class="g0_36"/>
<path fill-rule="evenodd" d="M830.5,546.1H832V520.5h-1.5v25.6Z" class="g0_36"/>
<path fill-rule="evenodd" d="M55.9,547.7h1.5v-1.6H55.9v1.6Z" class="g0_36"/>
<path fill-rule="evenodd" d="M57.4,547.7H320.9v-1.6H57.4v1.6Z" class="g0_36"/>
<path fill-rule="evenodd" d="M321,547.7h1.5v-1.6H321v1.6Z" class="g0_36"/>
<path fill-rule="evenodd" d="M322.5,547.7h508v-1.6h-508v1.6Z" class="g0_36"/>
<path fill-rule="evenodd" d="M830.5,547.7H832v-1.6h-1.5v1.6Z" class="g0_36"/>
<path fill-rule="evenodd" d="M55.9,573.3h1.5V547.7H55.9v25.6Z" class="g0_36"/>
<path fill-rule="evenodd" d="M321,573.3h1.5V547.7H321v25.6Z" class="g0_36"/>
<path fill-rule="evenodd" d="M830.5,573.3H832V547.7h-1.5v25.6Z" class="g0_36"/>
<path fill-rule="evenodd" d="M55.9,574.9h1.5v-1.6H55.9v1.6Z" class="g0_36"/>
<path fill-rule="evenodd" d="M57.4,574.9H320.9v-1.6H57.4v1.6Z" class="g0_36"/>
<path fill-rule="evenodd" d="M321,574.9h1.5v-1.6H321v1.6Z" class="g0_36"/>
<path fill-rule="evenodd" d="M322.5,574.9h508v-1.6h-508v1.6Z" class="g0_36"/>
<path fill-rule="evenodd" d="M830.5,574.9H832v-1.6h-1.5v1.6Z" class="g0_36"/>
<path fill-rule="evenodd" d="M55.9,620.1h1.5V574.9H55.9v45.2Z" class="g0_36"/>
<path fill-rule="evenodd" d="M321,620.1h1.5V574.9H321v45.2Z" class="g0_36"/>
<path fill-rule="evenodd" d="M830.5,620.1H832V574.9h-1.5v45.2Z" class="g0_36"/>
<path fill-rule="evenodd" d="M55.9,621.7h1.5v-1.6H55.9v1.6Z" class="g0_36"/>
<path fill-rule="evenodd" d="M57.4,621.7H320.9v-1.6H57.4v1.6Z" class="g0_36"/>
<path fill-rule="evenodd" d="M321,621.7h1.5v-1.6H321v1.6Z" class="g0_36"/>
<path fill-rule="evenodd" d="M322.5,621.7h508v-1.6h-508v1.6Z" class="g0_36"/>
<path fill-rule="evenodd" d="M830.5,621.7H832v-1.6h-1.5v1.6Z" class="g0_36"/>
<path fill-rule="evenodd" d="M55.9,666.9h1.5V621.7H55.9v45.2Z" class="g0_36"/>
<path fill-rule="evenodd" d="M55.9,668.4h1.5v-1.5H55.9v1.5Z" class="g0_36"/>
<path fill-rule="evenodd" d="M55.9,668.4h1.5v-1.5H55.9v1.5Z" class="g0_36"/>
<path fill-rule="evenodd" d="M57.4,668.4H320.9v-1.5H57.4v1.5Z" class="g0_36"/>
<path fill-rule="evenodd" d="M321,666.9h1.5V621.7H321v45.2Z" class="g0_36"/>
<path fill-rule="evenodd" d="M321,668.4h1.5v-1.5H321v1.5Z" class="g0_36"/>
<path fill-rule="evenodd" d="M322.5,668.4h508v-1.5h-508v1.5Z" class="g0_36"/>
<path fill-rule="evenodd" d="M830.5,666.9H832V621.7h-1.5v45.2Z" class="g0_36"/>
<path fill-rule="evenodd" d="M830.5,668.4H832v-1.5h-1.5v1.5Z" class="g0_36"/>
<path fill-rule="evenodd" d="M830.5,668.4H832v-1.5h-1.5v1.5Z" class="g0_36"/>
<path fill-rule="evenodd" d="M65.1,752.1H140v-1.2H65.1v1.2Z" class="g0_36"/>
<path fill-rule="evenodd" d="M65.1,836.2h70.3V835H65.1v1.2Z" class="g0_36"/>
<path fill-rule="evenodd" d="M57.4,949.9H830.8V924.2H57.4v25.7Z" class="g1_36"/>
<path fill-rule="evenodd" d="M65.1,949.9h758V924.2H65.1v25.7Z" class="g1_36"/>
<path fill-rule="evenodd" d="M55.9,924.2h1.5v-1.5H55.9v1.5Z" class="g0_36"/>
<path fill-rule="evenodd" d="M55.9,924.2h1.5v-1.5H55.9v1.5Z" class="g0_36"/>
<path fill-rule="evenodd" d="M57.4,924.2H830.5v-1.5H57.4v1.5Z" class="g0_36"/>
<path fill-rule="evenodd" d="M830.5,924.2H832v-1.5h-1.5v1.5Z" class="g0_36"/>
<path fill-rule="evenodd" d="M830.5,924.2H832v-1.5h-1.5v1.5Z" class="g0_36"/>
<path fill-rule="evenodd" d="M55.9,949.9h1.5V924.2H55.9v25.7Z" class="g0_36"/>
<path fill-rule="evenodd" d="M830.5,949.9H832V924.2h-1.5v25.7Z" class="g0_36"/>
<path fill-rule="evenodd" d="M55.9,951.4h1.5v-1.5H55.9v1.5Z" class="g0_36"/>
<path fill-rule="evenodd" d="M57.4,951.4H318.5v-1.5H57.4v1.5Z" class="g0_36"/>
<path fill-rule="evenodd" d="M318.5,951.4H320v-1.5h-1.5v1.5Z" class="g0_36"/>
<path fill-rule="evenodd" d="M320,951.4H830.5v-1.5H320v1.5Z" class="g0_36"/>
<path fill-rule="evenodd" d="M830.5,951.4H832v-1.5h-1.5v1.5Z" class="g0_36"/>
<path fill-rule="evenodd" d="M55.9,996.6h1.5V951.4H55.9v45.2Z" class="g0_36"/>
<path fill-rule="evenodd" d="M318.5,996.6H320V951.4h-1.5v45.2Z" class="g0_36"/>
<path fill-rule="evenodd" d="M830.5,996.6H832V951.4h-1.5v45.2Z" class="g0_36"/>
<path fill-rule="evenodd" d="M55.9,998.2h1.5v-1.6H55.9v1.6Z" class="g0_36"/>
<path fill-rule="evenodd" d="M57.4,998.2H318.5v-1.6H57.4v1.6Z" class="g0_36"/>
<path fill-rule="evenodd" d="M318.5,998.2H320v-1.6h-1.5v1.6Z" class="g0_36"/>
<path fill-rule="evenodd" d="M320,998.2H830.5v-1.6H320v1.6Z" class="g0_36"/>
<path fill-rule="evenodd" d="M830.5,998.2H832v-1.6h-1.5v1.6Z" class="g0_36"/>
<path fill-rule="evenodd" d="M55.9,1043.4h1.5V998.2H55.9v45.2Z" class="g0_36"/>
<path fill-rule="evenodd" d="M318.5,1043.4H320V998.2h-1.5v45.2Z" class="g0_36"/>
<path fill-rule="evenodd" d="M830.5,1043.4H832V998.2h-1.5v45.2Z" class="g0_36"/>
<path fill-rule="evenodd" d="M57.4,1070.3H830.8v-25.4H57.4v25.4Z" class="g1_36"/>
<path fill-rule="evenodd" d="M65.1,1070.3h758v-25.4H65.1v25.4Z" class="g1_36"/>
<path fill-rule="evenodd" d="M55.9,1044.9h1.5v-1.5H55.9v1.5Z" class="g0_36"/>
<path fill-rule="evenodd" d="M57.4,1044.9H318.5v-1.5H57.4v1.5Z" class="g0_36"/>
<path fill-rule="evenodd" d="M318.5,1044.9H320v-1.5h-1.5v1.5Z" class="g0_36"/>
<path fill-rule="evenodd" d="M320,1044.9H830.5v-1.5H320v1.5Z" class="g0_36"/>
<path fill-rule="evenodd" d="M830.5,1044.9H832v-1.5h-1.5v1.5Z" class="g0_36"/>
<path fill-rule="evenodd" d="M55.9,1070.3h1.5v-25.4H55.9v25.4Z" class="g0_36"/>
<path fill-rule="evenodd" d="M830.5,1070.3H832v-25.4h-1.5v25.4Z" class="g0_36"/>
<path fill-rule="evenodd" d="M55.9,1071.8h1.5v-1.5H55.9v1.5Z" class="g0_36"/>
<path fill-rule="evenodd" d="M57.4,1071.8H318.5v-1.5H57.4v1.5Z" class="g0_36"/>
<path fill-rule="evenodd" d="M318.5,1071.8H320v-1.5h-1.5v1.5Z" class="g0_36"/>
<path fill-rule="evenodd" d="M320,1071.8H830.5v-1.5H320v1.5Z" class="g0_36"/>
<path fill-rule="evenodd" d="M830.5,1071.8H832v-1.5h-1.5v1.5Z" class="g0_36"/>
<path fill-rule="evenodd" d="M55.9,1097.5h1.5v-25.7H55.9v25.7Z" class="g0_36"/>
<path fill-rule="evenodd" d="M318.5,1097.5H320v-25.7h-1.5v25.7Z" class="g0_36"/>
<path fill-rule="evenodd" d="M830.5,1097.5H832v-25.7h-1.5v25.7Z" class="g0_36"/>
<path fill-rule="evenodd" d="M55.9,1099h1.5v-1.5H55.9v1.5Z" class="g0_36"/>
<path fill-rule="evenodd" d="M57.4,1099H318.5v-1.5H57.4v1.5Z" class="g0_36"/>
<path fill-rule="evenodd" d="M318.5,1099H320v-1.5h-1.5v1.5Z" class="g0_36"/>
<path fill-rule="evenodd" d="M320,1099H830.5v-1.5H320v1.5Z" class="g0_36"/>
<path fill-rule="evenodd" d="M830.5,1099H832v-1.5h-1.5v1.5Z" class="g0_36"/>
<path fill-rule="evenodd" d="M55.9,1124.7h1.5V1099H55.9v25.7Z" class="g0_36"/>
<path fill-rule="evenodd" d="M318.5,1124.7H320V1099h-1.5v25.7Z" class="g0_36"/>
<path fill-rule="evenodd" d="M830.5,1124.7H832V1099h-1.5v25.7Z" class="g0_36"/>
<path fill-rule="evenodd" d="M55.9,1126.2h1.5v-1.5H55.9v1.5Z" class="g0_36"/>
<path fill-rule="evenodd" d="M57.4,1126.2H318.5v-1.5H57.4v1.5Z" class="g0_36"/>
<path fill-rule="evenodd" d="M318.5,1126.2H320v-1.5h-1.5v1.5Z" class="g0_36"/>
<path fill-rule="evenodd" d="M320,1126.2H830.5v-1.5H320v1.5Z" class="g0_36"/>
<path fill-rule="evenodd" d="M830.5,1126.2H832v-1.5h-1.5v1.5Z" class="g0_36"/>
<path fill-rule="evenodd" d="M55.9,1151.9h1.5v-25.7H55.9v25.7Z" class="g0_36"/>
<path fill-rule="evenodd" d="M318.5,1151.9H320v-25.7h-1.5v25.7Z" class="g0_36"/>
<path fill-rule="evenodd" d="M830.5,1151.9H832v-25.7h-1.5v25.7Z" class="g0_36"/>
<path fill-rule="evenodd" d="M55.9,1153.4h1.5v-1.5H55.9v1.5Z" class="g0_36"/>
<path fill-rule="evenodd" d="M57.4,1153.4H318.5v-1.5H57.4v1.5Z" class="g0_36"/>
<path fill-rule="evenodd" d="M318.5,1153.4H320v-1.5h-1.5v1.5Z" class="g0_36"/>
<path fill-rule="evenodd" d="M320,1153.4H830.5v-1.5H320v1.5Z" class="g0_36"/>
<path fill-rule="evenodd" d="M830.5,1153.4H832v-1.5h-1.5v1.5Z" class="g0_36"/>
<path fill-rule="evenodd" d="M55.9,1179.1h1.5v-25.7H55.9v25.7Z" class="g0_36"/>
<path fill-rule="evenodd" d="M55.9,1180.6h1.5v-1.5H55.9v1.5Z" class="g0_36"/>
<path fill-rule="evenodd" d="M55.9,1180.6h1.5v-1.5H55.9v1.5Z" class="g0_36"/>
<path fill-rule="evenodd" d="M57.4,1180.6H318.5v-1.5H57.4v1.5Z" class="g0_36"/>
<path fill-rule="evenodd" d="M318.5,1179.1H320v-25.7h-1.5v25.7Z" class="g0_36"/>
<path fill-rule="evenodd" d="M318.5,1180.6H320v-1.5h-1.5v1.5Z" class="g0_36"/>
<path fill-rule="evenodd" d="M320,1180.6H830.5v-1.5H320v1.5Z" class="g0_36"/>
<path fill-rule="evenodd" d="M830.5,1179.1H832v-25.7h-1.5v25.7Z" class="g0_36"/>
<path fill-rule="evenodd" d="M830.5,1180.6H832v-1.5h-1.5v1.5Z" class="g0_36"/>
<path fill-rule="evenodd" d="M830.5,1180.6H832v-1.5h-1.5v1.5Z" class="g0_36"/>
</svg>