<?xml version="1.0" encoding="UTF-8" standalone="no"?>
<!DOCTYPE svg PUBLIC "-//W3C//DTD SVG 1.1//EN"
"http://www.w3.org/Graphics/SVG/1.1/DTD/svg11.dtd">
<svg viewBox="0 0 909 1286" version="1.1" xmlns="http://www.w3.org/2000/svg" xmlns:xlink="http://www.w3.org/1999/xlink">
<defs>
<style type="text/css"><![CDATA[
.g0_12{
}
.g1_12{
fill: #F1F1F1;
}
]]></style>
</defs>
<path fill-rule="evenodd" d="M65.1,66H823.4V64.5H65.1V66Z" class="g0_12"/>
<path fill-rule="evenodd" d="M65.1,137.8H140v-1.2H65.1v1.2Z" class="g0_12"/>
<path fill-rule="evenodd" d="M67.6,208.7H820.7V183.1H67.6v25.6Z" class="g1_12"/>
<path fill-rule="evenodd" d="M70.9,208.7H817V183.1H70.9v25.6Z" class="g1_12"/>
<path fill-rule="evenodd" d="M65.7,183.1h1.6v-1.6H65.7v1.6Z" class="g0_12"/>
<path fill-rule="evenodd" d="M65.7,183.1h1.6v-1.6H65.7v1.6Z" class="g0_12"/>
<path fill-rule="evenodd" d="M67.3,183.1H820.7v-1.6H67.3v1.6Z" class="g0_12"/>
<path fill-rule="evenodd" d="M820.7,183.1h1.5v-1.6h-1.5v1.6Z" class="g0_12"/>
<path fill-rule="evenodd" d="M820.7,183.1h1.5v-1.6h-1.5v1.6Z" class="g0_12"/>
<path fill-rule="evenodd" d="M65.7,208.7h1.6V183.1H65.7v25.6Z" class="g0_12"/>
<path fill-rule="evenodd" d="M820.7,208.7h1.5V183.1h-1.5v25.6Z" class="g0_12"/>
<path fill-rule="evenodd" d="M65.7,210.3h1.6v-1.6H65.7v1.6Z" class="g0_12"/>
<path fill-rule="evenodd" d="M67.3,210.3H286.1v-1.6H67.3v1.6Z" class="g0_12"/>
<path fill-rule="evenodd" d="M286.1,210.3h1.5v-1.6h-1.5v1.6Z" class="g0_12"/>
<path fill-rule="evenodd" d="M287.6,210.3H820.7v-1.6H287.6v1.6Z" class="g0_12"/>
<path fill-rule="evenodd" d="M820.7,210.3h1.5v-1.6h-1.5v1.6Z" class="g0_12"/>
<path fill-rule="evenodd" d="M65.7,235.9h1.6V210.3H65.7v25.6Z" class="g0_12"/>
<path fill-rule="evenodd" d="M286.1,235.9h1.5V210.3h-1.5v25.6Z" class="g0_12"/>
<path fill-rule="evenodd" d="M820.7,235.9h1.5V210.3h-1.5v25.6Z" class="g0_12"/>
<path fill-rule="evenodd" d="M65.7,237.4h1.6v-1.5H65.7v1.5Z" class="g0_12"/>
<path fill-rule="evenodd" d="M67.3,237.4H286.1v-1.5H67.3v1.5Z" class="g0_12"/>
<path fill-rule="evenodd" d="M286.1,237.4h1.5v-1.5h-1.5v1.5Z" class="g0_12"/>
<path fill-rule="evenodd" d="M287.6,237.4H820.7v-1.5H287.6v1.5Z" class="g0_12"/>
<path fill-rule="evenodd" d="M820.7,237.4h1.5v-1.5h-1.5v1.5Z" class="g0_12"/>
<path fill-rule="evenodd" d="M65.7,263.2h1.6V237.5H65.7v25.7Z" class="g0_12"/>
<path fill-rule="evenodd" d="M286.1,263.2h1.5V237.5h-1.5v25.7Z" class="g0_12"/>
<path fill-rule="evenodd" d="M820.7,263.2h1.5V237.5h-1.5v25.7Z" class="g0_12"/>
<path fill-rule="evenodd" d="M65.7,264.7h1.6v-1.5H65.7v1.5Z" class="g0_12"/>
<path fill-rule="evenodd" d="M67.3,264.7H286.1v-1.5H67.3v1.5Z" class="g0_12"/>
<path fill-rule="evenodd" d="M286.1,264.7h1.5v-1.5h-1.5v1.5Z" class="g0_12"/>
<path fill-rule="evenodd" d="M287.6,264.7H820.7v-1.5H287.6v1.5Z" class="g0_12"/>
<path fill-rule="evenodd" d="M820.7,264.7h1.5v-1.5h-1.5v1.5Z" class="g0_12"/>
<path fill-rule="evenodd" d="M65.7,290.4h1.6V264.7H65.7v25.7Z" class="g0_12"/>
<path fill-rule="evenodd" d="M286.1,290.4h1.5V264.7h-1.5v25.7Z" class="g0_12"/>
<path fill-rule="evenodd" d="M820.7,290.4h1.5V264.7h-1.5v25.7Z" class="g0_12"/>
<path fill-rule="evenodd" d="M65.7,291.9h1.6v-1.5H65.7v1.5Z" class="g0_12"/>
<path fill-rule="evenodd" d="M67.3,291.9H286.1v-1.5H67.3v1.5Z" class="g0_12"/>
<path fill-rule="evenodd" d="M286.1,291.9h1.5v-1.5h-1.5v1.5Z" class="g0_12"/>
<path fill-rule="evenodd" d="M287.6,291.9H820.7v-1.5H287.6v1.5Z" class="g0_12"/>
<path fill-rule="evenodd" d="M820.7,291.9h1.5v-1.5h-1.5v1.5Z" class="g0_12"/>
<path fill-rule="evenodd" d="M65.7,317.5h1.6V291.9H65.7v25.6Z" class="g0_12"/>
<path fill-rule="evenodd" d="M286.1,317.5h1.5V291.9h-1.5v25.6Z" class="g0_12"/>
<path fill-rule="evenodd" d="M820.7,317.5h1.5V291.9h-1.5v25.6Z" class="g0_12"/>
<path fill-rule="evenodd" d="M65.7,319.1h1.6v-1.6H65.7v1.6Z" class="g0_12"/>
<path fill-rule="evenodd" d="M67.3,319.1H286.1v-1.6H67.3v1.6Z" class="g0_12"/>
<path fill-rule="evenodd" d="M286.1,319.1h1.5v-1.6h-1.5v1.6Z" class="g0_12"/>
<path fill-rule="evenodd" d="M287.6,319.1H820.7v-1.6H287.6v1.6Z" class="g0_12"/>
<path fill-rule="evenodd" d="M820.7,319.1h1.5v-1.6h-1.5v1.6Z" class="g0_12"/>
<path fill-rule="evenodd" d="M65.7,344.4h1.6V319.1H65.7v25.3Z" class="g0_12"/>
<path fill-rule="evenodd" d="M286.1,344.4h1.5V319.1h-1.5v25.3Z" class="g0_12"/>
<path fill-rule="evenodd" d="M820.7,344.4h1.5V319.1h-1.5v25.3Z" class="g0_12"/>
<path fill-rule="evenodd" d="M65.7,346h1.6v-1.6H65.7V346Z" class="g0_12"/>
<path fill-rule="evenodd" d="M67.3,346H286.1v-1.6H67.3V346Z" class="g0_12"/>
<path fill-rule="evenodd" d="M286.1,346h1.5v-1.6h-1.5V346Z" class="g0_12"/>
<path fill-rule="evenodd" d="M287.6,346H820.7v-1.6H287.6V346Z" class="g0_12"/>
<path fill-rule="evenodd" d="M820.7,346h1.5v-1.6h-1.5V346Z" class="g0_12"/>
<path fill-rule="evenodd" d="M65.7,371.6h1.6V346H65.7v25.6Z" class="g0_12"/>
<path fill-rule="evenodd" d="M286.1,371.6h1.5V346h-1.5v25.6Z" class="g0_12"/>
<path fill-rule="evenodd" d="M820.7,371.6h1.5V346h-1.5v25.6Z" class="g0_12"/>
<path fill-rule="evenodd" d="M65.7,373.2h1.6v-1.6H65.7v1.6Z" class="g0_12"/>
<path fill-rule="evenodd" d="M67.3,373.2H286.1v-1.6H67.3v1.6Z" class="g0_12"/>
<path fill-rule="evenodd" d="M286.1,373.2h1.5v-1.6h-1.5v1.6Z" class="g0_12"/>
<path fill-rule="evenodd" d="M287.6,373.2H820.7v-1.6H287.6v1.6Z" class="g0_12"/>
<path fill-rule="evenodd" d="M820.7,373.2h1.5v-1.6h-1.5v1.6Z" class="g0_12"/>
<path fill-rule="evenodd" d="M65.7,398.8h1.6V373.2H65.7v25.6Z" class="g0_12"/>
<path fill-rule="evenodd" d="M65.7,400.4h1.6v-1.6H65.7v1.6Z" class="g0_12"/>
<path fill-rule="evenodd" d="M65.7,400.4h1.6v-1.6H65.7v1.6Z" class="g0_12"/>
<path fill-rule="evenodd" d="M67.3,400.4H286.1v-1.6H67.3v1.6Z" class="g0_12"/>
<path fill-rule="evenodd" d="M286.1,398.8h1.5V373.2h-1.5v25.6Z" class="g0_12"/>
<path fill-rule="evenodd" d="M286.1,400.4h1.5v-1.6h-1.5v1.6Z" class="g0_12"/>
<path fill-rule="evenodd" d="M287.6,400.4H820.7v-1.6H287.6v1.6Z" class="g0_12"/>
<path fill-rule="evenodd" d="M820.7,398.8h1.5V373.2h-1.5v25.6Z" class="g0_12"/>
<path fill-rule="evenodd" d="M820.7,400.4h1.5v-1.6h-1.5v1.6Z" class="g0_12"/>
<path fill-rule="evenodd" d="M820.7,400.4h1.5v-1.6h-1.5v1.6Z" class="g0_12"/>
<path fill-rule="evenodd" d="M65.1,470.1H140v-1.3H65.1v1.3Z" class="g0_12"/>
<path fill-rule="evenodd" d="M66.3,562.3H821.9V536.7H66.3v25.6Z" class="g1_12"/>
<path fill-rule="evenodd" d="M69.7,562.3H818.5V536.7H69.7v25.6Z" class="g1_12"/>
<path fill-rule="evenodd" d="M64.5,536.7H66v-1.5H64.5v1.5Z" class="g0_12"/>
<path fill-rule="evenodd" d="M64.5,536.7H66v-1.5H64.5v1.5Z" class="g0_12"/>
<path fill-rule="evenodd" d="M66,536.7H821.9v-1.5H66v1.5Z" class="g0_12"/>
<path fill-rule="evenodd" d="M821.9,536.7h1.5v-1.5h-1.5v1.5Z" class="g0_12"/>
<path fill-rule="evenodd" d="M821.9,536.7h1.5v-1.5h-1.5v1.5Z" class="g0_12"/>
<path fill-rule="evenodd" d="M64.5,562.3H66V536.7H64.5v25.6Z" class="g0_12"/>
<path fill-rule="evenodd" d="M821.9,562.3h1.5V536.7h-1.5v25.6Z" class="g0_12"/>
<path fill-rule="evenodd" d="M64.5,563.9H66v-1.6H64.5v1.6Z" class="g0_12"/>
<path fill-rule="evenodd" d="M66,563.9H276.9v-1.6H66v1.6Z" class="g0_12"/>
<path fill-rule="evenodd" d="M276.9,563.9h1.5v-1.6h-1.5v1.6Z" class="g0_12"/>
<path fill-rule="evenodd" d="M278.4,563.9H821.9v-1.6H278.4v1.6Z" class="g0_12"/>
<path fill-rule="evenodd" d="M821.9,563.9h1.5v-1.6h-1.5v1.6Z" class="g0_12"/>
<path fill-rule="evenodd" d="M64.5,609.1H66V563.9H64.5v45.2Z" class="g0_12"/>
<path fill-rule="evenodd" d="M276.9,609.1h1.5V563.9h-1.5v45.2Z" class="g0_12"/>
<path fill-rule="evenodd" d="M821.9,609.1h1.5V563.9h-1.5v45.2Z" class="g0_12"/>
<path fill-rule="evenodd" d="M64.5,610.7H66v-1.6H64.5v1.6Z" class="g0_12"/>
<path fill-rule="evenodd" d="M66,610.7H276.9v-1.6H66v1.6Z" class="g0_12"/>
<path fill-rule="evenodd" d="M276.9,610.7h1.5v-1.6h-1.5v1.6Z" class="g0_12"/>
<path fill-rule="evenodd" d="M278.4,610.7H821.9v-1.6H278.4v1.6Z" class="g0_12"/>
<path fill-rule="evenodd" d="M821.9,610.7h1.5v-1.6h-1.5v1.6Z" class="g0_12"/>
<path fill-rule="evenodd" d="M64.5,636.3H66V610.7H64.5v25.6Z" class="g0_12"/>
<path fill-rule="evenodd" d="M276.9,636.3h1.5V610.7h-1.5v25.6Z" class="g0_12"/>
<path fill-rule="evenodd" d="M821.9,636.3h1.5V610.7h-1.5v25.6Z" class="g0_12"/>
<path fill-rule="evenodd" d="M64.5,637.8H66v-1.5H64.5v1.5Z" class="g0_12"/>
<path fill-rule="evenodd" d="M66,637.8H276.9v-1.5H66v1.5Z" class="g0_12"/>
<path fill-rule="evenodd" d="M276.9,637.8h1.5v-1.5h-1.5v1.5Z" class="g0_12"/>
<path fill-rule="evenodd" d="M278.4,637.8H821.9v-1.5H278.4v1.5Z" class="g0_12"/>
<path fill-rule="evenodd" d="M821.9,637.8h1.5v-1.5h-1.5v1.5Z" class="g0_12"/>
<path fill-rule="evenodd" d="M64.5,682.8H66v-45H64.5v45Z" class="g0_12"/>
<path fill-rule="evenodd" d="M276.9,682.8h1.5v-45h-1.5v45Z" class="g0_12"/>
<path fill-rule="evenodd" d="M821.9,682.8h1.5v-45h-1.5v45Z" class="g0_12"/>
<path fill-rule="evenodd" d="M64.5,684.3H66v-1.5H64.5v1.5Z" class="g0_12"/>
<path fill-rule="evenodd" d="M66,684.3H276.9v-1.5H66v1.5Z" class="g0_12"/>
<path fill-rule="evenodd" d="M276.9,684.3h1.5v-1.5h-1.5v1.5Z" class="g0_12"/>
<path fill-rule="evenodd" d="M278.4,684.3H821.9v-1.5H278.4v1.5Z" class="g0_12"/>
<path fill-rule="evenodd" d="M821.9,684.3h1.5v-1.5h-1.5v1.5Z" class="g0_12"/>
<path fill-rule="evenodd" d="M64.5,729.5H66V684.3H64.5v45.2Z" class="g0_12"/>
<path fill-rule="evenodd" d="M276.9,729.5h1.5V684.3h-1.5v45.2Z" class="g0_12"/>
<path fill-rule="evenodd" d="M821.9,729.5h1.5V684.3h-1.5v45.2Z" class="g0_12"/>
<path fill-rule="evenodd" d="M66.3,756.7H821.9V731H66.3v25.7Z" class="g1_12"/>
<path fill-rule="evenodd" d="M69.7,756.7H818.5V731H69.7v25.7Z" class="g1_12"/>
<path fill-rule="evenodd" d="M64.5,731H66v-1.5H64.5V731Z" class="g0_12"/>
<path fill-rule="evenodd" d="M66,731H276.9v-1.5H66V731Z" class="g0_12"/>
<path fill-rule="evenodd" d="M276.9,731h1.5v-1.5h-1.5V731Z" class="g0_12"/>
<path fill-rule="evenodd" d="M278.4,731H821.9v-1.5H278.4V731Z" class="g0_12"/>
<path fill-rule="evenodd" d="M821.9,731h1.5v-1.5h-1.5V731Z" class="g0_12"/>
<path fill-rule="evenodd" d="M64.5,756.7H66V731H64.5v25.7Z" class="g0_12"/>
<path fill-rule="evenodd" d="M821.9,756.7h1.5V731h-1.5v25.7Z" class="g0_12"/>
<path fill-rule="evenodd" d="M64.5,758.2H66v-1.5H64.5v1.5Z" class="g0_12"/>
<path fill-rule="evenodd" d="M66,758.2H276.9v-1.5H66v1.5Z" class="g0_12"/>
<path fill-rule="evenodd" d="M276.9,758.2h1.5v-1.5h-1.5v1.5Z" class="g0_12"/>
<path fill-rule="evenodd" d="M278.4,758.2H821.9v-1.5H278.4v1.5Z" class="g0_12"/>
<path fill-rule="evenodd" d="M821.9,758.2h1.5v-1.5h-1.5v1.5Z" class="g0_12"/>
<path fill-rule="evenodd" d="M64.5,783.9H66V758.2H64.5v25.7Z" class="g0_12"/>
<path fill-rule="evenodd" d="M276.9,783.9h1.5V758.2h-1.5v25.7Z" class="g0_12"/>
<path fill-rule="evenodd" d="M821.9,783.9h1.5V758.2h-1.5v25.7Z" class="g0_12"/>
<path fill-rule="evenodd" d="M64.5,785.5H66v-1.6H64.5v1.6Z" class="g0_12"/>
<path fill-rule="evenodd" d="M66,785.5H276.9v-1.6H66v1.6Z" class="g0_12"/>
<path fill-rule="evenodd" d="M276.9,785.5h1.5v-1.6h-1.5v1.6Z" class="g0_12"/>
<path fill-rule="evenodd" d="M278.4,785.5H821.9v-1.6H278.4v1.6Z" class="g0_12"/>
<path fill-rule="evenodd" d="M821.9,785.5h1.5v-1.6h-1.5v1.6Z" class="g0_12"/>
<path fill-rule="evenodd" d="M64.5,811.1H66V785.5H64.5v25.6Z" class="g0_12"/>
<path fill-rule="evenodd" d="M276.9,811.1h1.5V785.5h-1.5v25.6Z" class="g0_12"/>
<path fill-rule="evenodd" d="M821.9,811.1h1.5V785.5h-1.5v25.6Z" class="g0_12"/>
<path fill-rule="evenodd" d="M64.5,812.7H66v-1.6H64.5v1.6Z" class="g0_12"/>
<path fill-rule="evenodd" d="M66,812.7H276.9v-1.6H66v1.6Z" class="g0_12"/>
<path fill-rule="evenodd" d="M276.9,812.7h1.5v-1.6h-1.5v1.6Z" class="g0_12"/>
<path fill-rule="evenodd" d="M278.4,812.7H821.9v-1.6H278.4v1.6Z" class="g0_12"/>
<path fill-rule="evenodd" d="M821.9,812.7h1.5v-1.6h-1.5v1.6Z" class="g0_12"/>
<path fill-rule="evenodd" d="M64.5,838H66V812.7H64.5V838Z" class="g0_12"/>
<path fill-rule="evenodd" d="M276.9,838h1.5V812.7h-1.5V838Z" class="g0_12"/>
<path fill-rule="evenodd" d="M821.9,838h1.5V812.7h-1.5V838Z" class="g0_12"/>
<path fill-rule="evenodd" d="M64.5,839.6H66V838H64.5v1.6Z" class="g0_12"/>
<path fill-rule="evenodd" d="M66,839.6H276.9V838H66v1.6Z" class="g0_12"/>
<path fill-rule="evenodd" d="M276.9,839.6h1.5V838h-1.5v1.6Z" class="g0_12"/>
<path fill-rule="evenodd" d="M278.4,839.6H821.9V838H278.4v1.6Z" class="g0_12"/>
<path fill-rule="evenodd" d="M821.9,839.6h1.5V838h-1.5v1.6Z" class="g0_12"/>
<path fill-rule="evenodd" d="M64.5,865.2H66V839.6H64.5v25.6Z" class="g0_12"/>
<path fill-rule="evenodd" d="M276.9,865.2h1.5V839.6h-1.5v25.6Z" class="g0_12"/>
<path fill-rule="evenodd" d="M821.9,865.2h1.5V839.6h-1.5v25.6Z" class="g0_12"/>
<path fill-rule="evenodd" d="M64.5,866.8H66v-1.6H64.5v1.6Z" class="g0_12"/>
<path fill-rule="evenodd" d="M66,866.8H276.9v-1.6H66v1.6Z" class="g0_12"/>
<path fill-rule="evenodd" d="M276.9,866.8h1.5v-1.6h-1.5v1.6Z" class="g0_12"/>
<path fill-rule="evenodd" d="M278.4,866.8H821.9v-1.6H278.4v1.6Z" class="g0_12"/>
<path fill-rule="evenodd" d="M821.9,866.8h1.5v-1.6h-1.5v1.6Z" class="g0_12"/>
<path fill-rule="evenodd" d="M64.5,892.4H66V866.8H64.5v25.6Z" class="g0_12"/>
<path fill-rule="evenodd" d="M276.9,892.4h1.5V866.8h-1.5v25.6Z" class="g0_12"/>
<path fill-rule="evenodd" d="M821.9,892.4h1.5V866.8h-1.5v25.6Z" class="g0_12"/>
<path fill-rule="evenodd" d="M64.5,893.9H66v-1.5H64.5v1.5Z" class="g0_12"/>
<path fill-rule="evenodd" d="M66,893.9H276.9v-1.5H66v1.5Z" class="g0_12"/>
<path fill-rule="evenodd" d="M276.9,893.9h1.5v-1.5h-1.5v1.5Z" class="g0_12"/>
<path fill-rule="evenodd" d="M278.4,893.9H821.9v-1.5H278.4v1.5Z" class="g0_12"/>
<path fill-rule="evenodd" d="M821.9,893.9h1.5v-1.5h-1.5v1.5Z" class="g0_12"/>
<path fill-rule="evenodd" d="M64.5,919.6H66V893.9H64.5v25.7Z" class="g0_12"/>
<path fill-rule="evenodd" d="M276.9,919.6h1.5V893.9h-1.5v25.7Z" class="g0_12"/>
<path fill-rule="evenodd" d="M821.9,919.6h1.5V893.9h-1.5v25.7Z" class="g0_12"/>
<path fill-rule="evenodd" d="M64.5,921.1H66v-1.5H64.5v1.5Z" class="g0_12"/>
<path fill-rule="evenodd" d="M66,921.1H276.9v-1.5H66v1.5Z" class="g0_12"/>
<path fill-rule="evenodd" d="M276.9,921.1h1.5v-1.5h-1.5v1.5Z" class="g0_12"/>
<path fill-rule="evenodd" d="M278.4,921.1H821.9v-1.5H278.4v1.5Z" class="g0_12"/>
<path fill-rule="evenodd" d="M821.9,921.1h1.5v-1.5h-1.5v1.5Z" class="g0_12"/>
<path fill-rule="evenodd" d="M64.5,966.4H66V921.1H64.5v45.3Z" class="g0_12"/>
<path fill-rule="evenodd" d="M276.9,966.4h1.5V921.1h-1.5v45.3Z" class="g0_12"/>
<path fill-rule="evenodd" d="M821.9,966.4h1.5V921.1h-1.5v45.3Z" class="g0_12"/>
<path fill-rule="evenodd" d="M64.5,967.9H66v-1.5H64.5v1.5Z" class="g0_12"/>
<path fill-rule="evenodd" d="M66,967.9H276.9v-1.5H66v1.5Z" class="g0_12"/>
<path fill-rule="evenodd" d="M276.9,967.9h1.5v-1.5h-1.5v1.5Z" class="g0_12"/>
<path fill-rule="evenodd" d="M278.4,967.9H821.9v-1.5H278.4v1.5Z" class="g0_12"/>
<path fill-rule="evenodd" d="M821.9,967.9h1.5v-1.5h-1.5v1.5Z" class="g0_12"/>
<path fill-rule="evenodd" d="M64.5,993.6H66V967.9H64.5v25.7Z" class="g0_12"/>
<path fill-rule="evenodd" d="M276.9,993.6h1.5V967.9h-1.5v25.7Z" class="g0_12"/>
<path fill-rule="evenodd" d="M821.9,993.6h1.5V967.9h-1.5v25.7Z" class="g0_12"/>
<path fill-rule="evenodd" d="M64.5,995.1H66v-1.5H64.5v1.5Z" class="g0_12"/>
<path fill-rule="evenodd" d="M66,995.1H276.9v-1.5H66v1.5Z" class="g0_12"/>
<path fill-rule="evenodd" d="M276.9,995.1h1.5v-1.5h-1.5v1.5Z" class="g0_12"/>
<path fill-rule="evenodd" d="M278.4,995.1H821.9v-1.5H278.4v1.5Z" class="g0_12"/>
<path fill-rule="evenodd" d="M821.9,995.1h1.5v-1.5h-1.5v1.5Z" class="g0_12"/>
<path fill-rule="evenodd" d="M64.5,1020.5H66V995.1H64.5v25.4Z" class="g0_12"/>
<path fill-rule="evenodd" d="M276.9,1020.5h1.5V995.1h-1.5v25.4Z" class="g0_12"/>
<path fill-rule="evenodd" d="M821.9,1020.5h1.5V995.1h-1.5v25.4Z" class="g0_12"/>
<path fill-rule="evenodd" d="M64.5,1022H66v-1.5H64.5v1.5Z" class="g0_12"/>
<path fill-rule="evenodd" d="M66,1022H276.9v-1.5H66v1.5Z" class="g0_12"/>
<path fill-rule="evenodd" d="M276.9,1022h1.5v-1.5h-1.5v1.5Z" class="g0_12"/>
<path fill-rule="evenodd" d="M278.4,1022H821.9v-1.5H278.4v1.5Z" class="g0_12"/>
<path fill-rule="evenodd" d="M821.9,1022h1.5v-1.5h-1.5v1.5Z" class="g0_12"/>
<path fill-rule="evenodd" d="M64.5,1047.7H66V1022H64.5v25.7Z" class="g0_12"/>
<path fill-rule="evenodd" d="M276.9,1047.7h1.5V1022h-1.5v25.7Z" class="g0_12"/>
<path fill-rule="evenodd" d="M821.9,1047.7h1.5V1022h-1.5v25.7Z" class="g0_12"/>
<path fill-rule="evenodd" d="M64.5,1049.2H66v-1.5H64.5v1.5Z" class="g0_12"/>
<path fill-rule="evenodd" d="M66,1049.2H276.9v-1.5H66v1.5Z" class="g0_12"/>
<path fill-rule="evenodd" d="M276.9,1049.2h1.5v-1.5h-1.5v1.5Z" class="g0_12"/>
<path fill-rule="evenodd" d="M278.4,1049.2H821.9v-1.5H278.4v1.5Z" class="g0_12"/>
<path fill-rule="evenodd" d="M821.9,1049.2h1.5v-1.5h-1.5v1.5Z" class="g0_12"/>
<path fill-rule="evenodd" d="M64.5,1074.9H66v-25.7H64.5v25.7Z" class="g0_12"/>
<path fill-rule="evenodd" d="M276.9,1074.9h1.5v-25.7h-1.5v25.7Z" class="g0_12"/>
<path fill-rule="evenodd" d="M821.9,1074.9h1.5v-25.7h-1.5v25.7Z" class="g0_12"/>
<path fill-rule="evenodd" d="M64.5,1076.4H66v-1.5H64.5v1.5Z" class="g0_12"/>
<path fill-rule="evenodd" d="M66,1076.4H276.9v-1.5H66v1.5Z" class="g0_12"/>
<path fill-rule="evenodd" d="M276.9,1076.4h1.5v-1.5h-1.5v1.5Z" class="g0_12"/>
<path fill-rule="evenodd" d="M278.4,1076.4H821.9v-1.5H278.4v1.5Z" class="g0_12"/>
<path fill-rule="evenodd" d="M821.9,1076.4h1.5v-1.5h-1.5v1.5Z" class="g0_12"/>
<path fill-rule="evenodd" d="M64.5,1121.7H66v-45.3H64.5v45.3Z" class="g0_12"/>
<path fill-rule="evenodd" d="M276.9,1121.7h1.5v-45.3h-1.5v45.3Z" class="g0_12"/>
<path fill-rule="evenodd" d="M821.9,1121.7h1.5v-45.3h-1.5v45.3Z" class="g0_12"/>
<path fill-rule="evenodd" d="M64.5,1123.2H66v-1.5H64.5v1.5Z" class="g0_12"/>
<path fill-rule="evenodd" d="M66,1123.2H276.9v-1.5H66v1.5Z" class="g0_12"/>
<path fill-rule="evenodd" d="M276.9,1123.2h1.5v-1.5h-1.5v1.5Z" class="g0_12"/>
<path fill-rule="evenodd" d="M278.4,1123.2H821.9v-1.5H278.4v1.5Z" class="g0_12"/>
<path fill-rule="evenodd" d="M821.9,1123.2h1.5v-1.5h-1.5v1.5Z" class="g0_12"/>
<path fill-rule="evenodd" d="M64.5,1168.4H66v-45.2H64.5v45.2Z" class="g0_12"/>
<path fill-rule="evenodd" d="M64.5,1169.9H66v-1.5H64.5v1.5Z" class="g0_12"/>
<path fill-rule="evenodd" d="M64.5,1169.9H66v-1.5H64.5v1.5Z" class="g0_12"/>
<path fill-rule="evenodd" d="M66,1169.9H276.9v-1.5H66v1.5Z" class="g0_12"/>
<path fill-rule="evenodd" d="M276.9,1168.4h1.5v-45.2h-1.5v45.2Z" class="g0_12"/>
<path fill-rule="evenodd" d="M276.9,1169.9h1.5v-1.5h-1.5v1.5Z" class="g0_12"/>
<path fill-rule="evenodd" d="M278.4,1169.9H821.9v-1.5H278.4v1.5Z" class="g0_12"/>
<path fill-rule="evenodd" d="M821.9,1168.4h1.5v-45.2h-1.5v45.2Z" class="g0_12"/>
<path fill-rule="evenodd" d="M821.9,1169.9h1.5v-1.5h-1.5v1.5Z" class="g0_12"/>
<path fill-rule="evenodd" d="M821.9,1169.9h1.5v-1.5h-1.5v1.5Z" class="g0_12"/>
</svg>