<?xml version="1.0" encoding="UTF-8" standalone="no"?>
<!DOCTYPE svg PUBLIC "-//W3C//DTD SVG 1.1//EN"
"http://www.w3.org/Graphics/SVG/1.1/DTD/svg11.dtd">
<svg viewBox="0 0 909 1286" version="1.1" xmlns="http://www.w3.org/2000/svg" xmlns:xlink="http://www.w3.org/1999/xlink">
<defs>
<style type="text/css"><![CDATA[
.g0_13{
}
.g1_13{
fill: #F1F1F1;
}
]]></style>
</defs>
<path fill-rule="evenodd" d="M86.5,66H844.8V64.5H86.5V66Z" class="g0_13"/>
<path fill-rule="evenodd" d="M86.5,137.8h74.9v-1.2H86.5v1.2Z" class="g0_13"/>
<path fill-rule="evenodd" d="M87.7,251.8H843.6V226.2H87.7v25.6Z" class="g1_13"/>
<path fill-rule="evenodd" d="M95.4,251.8H836V226.2H95.4v25.6Z" class="g1_13"/>
<path fill-rule="evenodd" d="M85.9,226.2h1.5v-1.6H85.9v1.6Z" class="g0_13"/>
<path fill-rule="evenodd" d="M85.9,226.2h1.5v-1.6H85.9v1.6Z" class="g0_13"/>
<path fill-rule="evenodd" d="M87.4,226.2H843.3v-1.6H87.4v1.6Z" class="g0_13"/>
<path fill-rule="evenodd" d="M843.3,226.2h1.5v-1.6h-1.5v1.6Z" class="g0_13"/>
<path fill-rule="evenodd" d="M843.3,226.2h1.5v-1.6h-1.5v1.6Z" class="g0_13"/>
<path fill-rule="evenodd" d="M85.9,251.8h1.5V226.2H85.9v25.6Z" class="g0_13"/>
<path fill-rule="evenodd" d="M843.3,251.8h1.5V226.2h-1.5v25.6Z" class="g0_13"/>
<path fill-rule="evenodd" d="M85.9,253.4h1.5v-1.6H85.9v1.6Z" class="g0_13"/>
<path fill-rule="evenodd" d="M87.4,253.4H340.8v-1.6H87.4v1.6Z" class="g0_13"/>
<path fill-rule="evenodd" d="M340.8,253.4h1.5v-1.6h-1.5v1.6Z" class="g0_13"/>
<path fill-rule="evenodd" d="M342.3,253.4h501v-1.6h-501v1.6Z" class="g0_13"/>
<path fill-rule="evenodd" d="M843.3,253.4h1.5v-1.6h-1.5v1.6Z" class="g0_13"/>
<path fill-rule="evenodd" d="M85.9,317.9h1.5V253.3H85.9v64.6Z" class="g0_13"/>
<path fill-rule="evenodd" d="M340.8,317.9h1.5V253.3h-1.5v64.6Z" class="g0_13"/>
<path fill-rule="evenodd" d="M843.3,317.9h1.5V253.3h-1.5v64.6Z" class="g0_13"/>
<path fill-rule="evenodd" d="M85.9,319.4h1.5v-1.5H85.9v1.5Z" class="g0_13"/>
<path fill-rule="evenodd" d="M87.4,319.4H340.8v-1.5H87.4v1.5Z" class="g0_13"/>
<path fill-rule="evenodd" d="M340.8,319.4h1.5v-1.5h-1.5v1.5Z" class="g0_13"/>
<path fill-rule="evenodd" d="M342.3,319.4h501v-1.5h-501v1.5Z" class="g0_13"/>
<path fill-rule="evenodd" d="M843.3,319.4h1.5v-1.5h-1.5v1.5Z" class="g0_13"/>
<path fill-rule="evenodd" d="M85.9,345h1.5V319.4H85.9V345Z" class="g0_13"/>
<path fill-rule="evenodd" d="M340.8,345h1.5V319.4h-1.5V345Z" class="g0_13"/>
<path fill-rule="evenodd" d="M843.3,345h1.5V319.4h-1.5V345Z" class="g0_13"/>
<path fill-rule="evenodd" d="M85.9,346.6h1.5V345H85.9v1.6Z" class="g0_13"/>
<path fill-rule="evenodd" d="M87.4,346.6H340.8V345H87.4v1.6Z" class="g0_13"/>
<path fill-rule="evenodd" d="M340.8,346.6h1.5V345h-1.5v1.6Z" class="g0_13"/>
<path fill-rule="evenodd" d="M342.3,346.6h501V345h-501v1.6Z" class="g0_13"/>
<path fill-rule="evenodd" d="M843.3,346.6h1.5V345h-1.5v1.6Z" class="g0_13"/>
<path fill-rule="evenodd" d="M85.9,372.2h1.5V346.6H85.9v25.6Z" class="g0_13"/>
<path fill-rule="evenodd" d="M340.8,372.2h1.5V346.6h-1.5v25.6Z" class="g0_13"/>
<path fill-rule="evenodd" d="M843.3,372.2h1.5V346.6h-1.5v25.6Z" class="g0_13"/>
<path fill-rule="evenodd" d="M85.9,373.8h1.5v-1.6H85.9v1.6Z" class="g0_13"/>
<path fill-rule="evenodd" d="M87.4,373.8H340.8v-1.6H87.4v1.6Z" class="g0_13"/>
<path fill-rule="evenodd" d="M340.8,373.8h1.5v-1.6h-1.5v1.6Z" class="g0_13"/>
<path fill-rule="evenodd" d="M342.3,373.8h501v-1.6h-501v1.6Z" class="g0_13"/>
<path fill-rule="evenodd" d="M843.3,373.8h1.5v-1.6h-1.5v1.6Z" class="g0_13"/>
<path fill-rule="evenodd" d="M85.9,422h1.5V373.8H85.9V422Z" class="g0_13"/>
<path fill-rule="evenodd" d="M340.8,422h1.5V373.8h-1.5V422Z" class="g0_13"/>
<path fill-rule="evenodd" d="M843.3,422h1.5V373.8h-1.5V422Z" class="g0_13"/>
<path fill-rule="evenodd" d="M87.7,449H843.6V423.6H87.7V449Z" class="g1_13"/>
<path fill-rule="evenodd" d="M95.4,449H836V423.6H95.4V449Z" class="g1_13"/>
<path fill-rule="evenodd" d="M85.9,423.6h1.5V422H85.9v1.6Z" class="g0_13"/>
<path fill-rule="evenodd" d="M87.4,423.6H340.8V422H87.4v1.6Z" class="g0_13"/>
<path fill-rule="evenodd" d="M340.8,423.6h1.5V422h-1.5v1.6Z" class="g0_13"/>
<path fill-rule="evenodd" d="M342.3,423.6h501V422h-501v1.6Z" class="g0_13"/>
<path fill-rule="evenodd" d="M843.3,423.6h1.5V422h-1.5v1.6Z" class="g0_13"/>
<path fill-rule="evenodd" d="M85.9,449h1.5V423.6H85.9V449Z" class="g0_13"/>
<path fill-rule="evenodd" d="M843.3,449h1.5V423.6h-1.5V449Z" class="g0_13"/>
<path fill-rule="evenodd" d="M85.9,450.5h1.5V449H85.9v1.5Z" class="g0_13"/>
<path fill-rule="evenodd" d="M87.4,450.5H340.8V449H87.4v1.5Z" class="g0_13"/>
<path fill-rule="evenodd" d="M340.8,450.5h1.5V449h-1.5v1.5Z" class="g0_13"/>
<path fill-rule="evenodd" d="M342.3,450.5h501V449h-501v1.5Z" class="g0_13"/>
<path fill-rule="evenodd" d="M843.3,450.5h1.5V449h-1.5v1.5Z" class="g0_13"/>
<path fill-rule="evenodd" d="M85.9,476.2h1.5V450.5H85.9v25.7Z" class="g0_13"/>
<path fill-rule="evenodd" d="M340.8,476.2h1.5V450.5h-1.5v25.7Z" class="g0_13"/>
<path fill-rule="evenodd" d="M843.3,476.2h1.5V450.5h-1.5v25.7Z" class="g0_13"/>
<path fill-rule="evenodd" d="M85.9,477.7h1.5v-1.5H85.9v1.5Z" class="g0_13"/>
<path fill-rule="evenodd" d="M87.4,477.7H340.8v-1.5H87.4v1.5Z" class="g0_13"/>
<path fill-rule="evenodd" d="M340.8,477.7h1.5v-1.5h-1.5v1.5Z" class="g0_13"/>
<path fill-rule="evenodd" d="M342.3,477.7h501v-1.5h-501v1.5Z" class="g0_13"/>
<path fill-rule="evenodd" d="M843.3,477.7h1.5v-1.5h-1.5v1.5Z" class="g0_13"/>
<path fill-rule="evenodd" d="M85.9,503.4h1.5V477.7H85.9v25.7Z" class="g0_13"/>
<path fill-rule="evenodd" d="M340.8,503.4h1.5V477.7h-1.5v25.7Z" class="g0_13"/>
<path fill-rule="evenodd" d="M843.3,503.4h1.5V477.7h-1.5v25.7Z" class="g0_13"/>
<path fill-rule="evenodd" d="M85.9,504.9h1.5v-1.5H85.9v1.5Z" class="g0_13"/>
<path fill-rule="evenodd" d="M87.4,504.9H340.8v-1.5H87.4v1.5Z" class="g0_13"/>
<path fill-rule="evenodd" d="M340.8,504.9h1.5v-1.5h-1.5v1.5Z" class="g0_13"/>
<path fill-rule="evenodd" d="M342.3,504.9h501v-1.5h-501v1.5Z" class="g0_13"/>
<path fill-rule="evenodd" d="M843.3,504.9h1.5v-1.5h-1.5v1.5Z" class="g0_13"/>
<path fill-rule="evenodd" d="M85.9,530.6h1.5V504.9H85.9v25.7Z" class="g0_13"/>
<path fill-rule="evenodd" d="M340.8,530.6h1.5V504.9h-1.5v25.7Z" class="g0_13"/>
<path fill-rule="evenodd" d="M843.3,530.6h1.5V504.9h-1.5v25.7Z" class="g0_13"/>
<path fill-rule="evenodd" d="M85.9,532.1h1.5v-1.5H85.9v1.5Z" class="g0_13"/>
<path fill-rule="evenodd" d="M87.4,532.1H340.8v-1.5H87.4v1.5Z" class="g0_13"/>
<path fill-rule="evenodd" d="M340.8,532.1h1.5v-1.5h-1.5v1.5Z" class="g0_13"/>
<path fill-rule="evenodd" d="M342.3,532.1h501v-1.5h-501v1.5Z" class="g0_13"/>
<path fill-rule="evenodd" d="M843.3,532.1h1.5v-1.5h-1.5v1.5Z" class="g0_13"/>
<path fill-rule="evenodd" d="M85.9,557.8h1.5V532.1H85.9v25.7Z" class="g0_13"/>
<path fill-rule="evenodd" d="M340.8,557.8h1.5V532.1h-1.5v25.7Z" class="g0_13"/>
<path fill-rule="evenodd" d="M843.3,557.8h1.5V532.1h-1.5v25.7Z" class="g0_13"/>
<path fill-rule="evenodd" d="M85.9,559.3h1.5v-1.5H85.9v1.5Z" class="g0_13"/>
<path fill-rule="evenodd" d="M87.4,559.3H340.8v-1.5H87.4v1.5Z" class="g0_13"/>
<path fill-rule="evenodd" d="M340.8,559.3h1.5v-1.5h-1.5v1.5Z" class="g0_13"/>
<path fill-rule="evenodd" d="M342.3,559.3h501v-1.5h-501v1.5Z" class="g0_13"/>
<path fill-rule="evenodd" d="M843.3,559.3h1.5v-1.5h-1.5v1.5Z" class="g0_13"/>
<path fill-rule="evenodd" d="M85.9,585h1.5V559.3H85.9V585Z" class="g0_13"/>
<path fill-rule="evenodd" d="M340.8,585h1.5V559.3h-1.5V585Z" class="g0_13"/>
<path fill-rule="evenodd" d="M843.3,585h1.5V559.3h-1.5V585Z" class="g0_13"/>
<path fill-rule="evenodd" d="M85.9,586.5h1.5V585H85.9v1.5Z" class="g0_13"/>
<path fill-rule="evenodd" d="M87.4,586.5H340.8V585H87.4v1.5Z" class="g0_13"/>
<path fill-rule="evenodd" d="M340.8,586.5h1.5V585h-1.5v1.5Z" class="g0_13"/>
<path fill-rule="evenodd" d="M342.3,586.5h501V585h-501v1.5Z" class="g0_13"/>
<path fill-rule="evenodd" d="M843.3,586.5h1.5V585h-1.5v1.5Z" class="g0_13"/>
<path fill-rule="evenodd" d="M85.9,631.7h1.5V586.5H85.9v45.2Z" class="g0_13"/>
<path fill-rule="evenodd" d="M85.9,633.3h1.5v-1.6H85.9v1.6Z" class="g0_13"/>
<path fill-rule="evenodd" d="M85.9,633.3h1.5v-1.6H85.9v1.6Z" class="g0_13"/>
<path fill-rule="evenodd" d="M87.4,633.3H340.8v-1.6H87.4v1.6Z" class="g0_13"/>
<path fill-rule="evenodd" d="M340.8,631.7h1.5V586.5h-1.5v45.2Z" class="g0_13"/>
<path fill-rule="evenodd" d="M340.8,633.3h1.5v-1.6h-1.5v1.6Z" class="g0_13"/>
<path fill-rule="evenodd" d="M342.3,633.3h501v-1.6h-501v1.6Z" class="g0_13"/>
<path fill-rule="evenodd" d="M843.3,631.7h1.5V586.5h-1.5v45.2Z" class="g0_13"/>
<path fill-rule="evenodd" d="M843.3,633.3h1.5v-1.6h-1.5v1.6Z" class="g0_13"/>
<path fill-rule="evenodd" d="M843.3,633.3h1.5v-1.6h-1.5v1.6Z" class="g0_13"/>
<path fill-rule="evenodd" d="M86.5,731H794.4v-1.2H86.5V731Z" class="g0_13"/>
<path fill-rule="evenodd" d="M86.5,752.4h68.1v-1.2H86.5v1.2Z" class="g0_13"/>
<path fill-rule="evenodd" d="M91.1,800.8H840.2V775H91.1v25.8Z" class="g1_13"/>
<path fill-rule="evenodd" d="M94.8,800.8H836.6V775H94.8v25.8Z" class="g1_13"/>
<path fill-rule="evenodd" d="M89.3,775h1.5v-1.5H89.3V775Z" class="g0_13"/>
<path fill-rule="evenodd" d="M89.3,775h1.5v-1.5H89.3V775Z" class="g0_13"/>
<path fill-rule="evenodd" d="M90.8,775H839.9v-1.5H90.8V775Z" class="g0_13"/>
<path fill-rule="evenodd" d="M839.9,775h1.6v-1.5h-1.6V775Z" class="g0_13"/>
<path fill-rule="evenodd" d="M839.9,775h1.6v-1.5h-1.6V775Z" class="g0_13"/>
<path fill-rule="evenodd" d="M89.3,800.8h1.5V775H89.3v25.8Z" class="g0_13"/>
<path fill-rule="evenodd" d="M839.9,800.8h1.6V775h-1.6v25.8Z" class="g0_13"/>
<path fill-rule="evenodd" d="M89.3,802.3h1.5v-1.5H89.3v1.5Z" class="g0_13"/>
<path fill-rule="evenodd" d="M90.8,802.3H319.4v-1.5H90.8v1.5Z" class="g0_13"/>
<path fill-rule="evenodd" d="M319.4,802.3H321v-1.5h-1.6v1.5Z" class="g0_13"/>
<path fill-rule="evenodd" d="M321,802.3H839.9v-1.5H321v1.5Z" class="g0_13"/>
<path fill-rule="evenodd" d="M839.9,802.3h1.6v-1.5h-1.6v1.5Z" class="g0_13"/>
<path fill-rule="evenodd" d="M89.3,827.9h1.5V802.3H89.3v25.6Z" class="g0_13"/>
<path fill-rule="evenodd" d="M319.4,827.9H321V802.3h-1.6v25.6Z" class="g0_13"/>
<path fill-rule="evenodd" d="M839.9,827.9h1.6V802.3h-1.6v25.6Z" class="g0_13"/>
<path fill-rule="evenodd" d="M89.3,829.5h1.5v-1.6H89.3v1.6Z" class="g0_13"/>
<path fill-rule="evenodd" d="M90.8,829.5H319.4v-1.6H90.8v1.6Z" class="g0_13"/>
<path fill-rule="evenodd" d="M319.4,829.5H321v-1.6h-1.6v1.6Z" class="g0_13"/>
<path fill-rule="evenodd" d="M321,829.5H839.9v-1.6H321v1.6Z" class="g0_13"/>
<path fill-rule="evenodd" d="M839.9,829.5h1.6v-1.6h-1.6v1.6Z" class="g0_13"/>
<path fill-rule="evenodd" d="M89.3,854.8h1.5V829.5H89.3v25.3Z" class="g0_13"/>
<path fill-rule="evenodd" d="M319.4,854.8H321V829.5h-1.6v25.3Z" class="g0_13"/>
<path fill-rule="evenodd" d="M839.9,854.8h1.6V829.5h-1.6v25.3Z" class="g0_13"/>
<path fill-rule="evenodd" d="M89.3,856.4h1.5v-1.6H89.3v1.6Z" class="g0_13"/>
<path fill-rule="evenodd" d="M90.8,856.4H319.4v-1.6H90.8v1.6Z" class="g0_13"/>
<path fill-rule="evenodd" d="M319.4,856.4H321v-1.6h-1.6v1.6Z" class="g0_13"/>
<path fill-rule="evenodd" d="M321,856.4H839.9v-1.6H321v1.6Z" class="g0_13"/>
<path fill-rule="evenodd" d="M839.9,856.4h1.6v-1.6h-1.6v1.6Z" class="g0_13"/>
<path fill-rule="evenodd" d="M89.3,882h1.5V856.4H89.3V882Z" class="g0_13"/>
<path fill-rule="evenodd" d="M319.4,882H321V856.4h-1.6V882Z" class="g0_13"/>
<path fill-rule="evenodd" d="M839.9,882h1.6V856.4h-1.6V882Z" class="g0_13"/>
<path fill-rule="evenodd" d="M89.3,883.6h1.5V882H89.3v1.6Z" class="g0_13"/>
<path fill-rule="evenodd" d="M90.8,883.6H319.4V882H90.8v1.6Z" class="g0_13"/>
<path fill-rule="evenodd" d="M319.4,883.6H321V882h-1.6v1.6Z" class="g0_13"/>
<path fill-rule="evenodd" d="M321,883.6H839.9V882H321v1.6Z" class="g0_13"/>
<path fill-rule="evenodd" d="M839.9,883.6h1.6V882h-1.6v1.6Z" class="g0_13"/>
<path fill-rule="evenodd" d="M89.3,909.2h1.5V883.6H89.3v25.6Z" class="g0_13"/>
<path fill-rule="evenodd" d="M319.4,909.2H321V883.6h-1.6v25.6Z" class="g0_13"/>
<path fill-rule="evenodd" d="M839.9,909.2h1.6V883.6h-1.6v25.6Z" class="g0_13"/>
<path fill-rule="evenodd" d="M89.3,910.8h1.5v-1.6H89.3v1.6Z" class="g0_13"/>
<path fill-rule="evenodd" d="M90.8,910.8H319.4v-1.6H90.8v1.6Z" class="g0_13"/>
<path fill-rule="evenodd" d="M319.4,910.8H321v-1.6h-1.6v1.6Z" class="g0_13"/>
<path fill-rule="evenodd" d="M321,910.8H839.9v-1.6H321v1.6Z" class="g0_13"/>
<path fill-rule="evenodd" d="M839.9,910.8h1.6v-1.6h-1.6v1.6Z" class="g0_13"/>
<path fill-rule="evenodd" d="M89.3,936.4h1.5V910.7H89.3v25.7Z" class="g0_13"/>
<path fill-rule="evenodd" d="M319.4,936.4H321V910.7h-1.6v25.7Z" class="g0_13"/>
<path fill-rule="evenodd" d="M839.9,936.4h1.6V910.7h-1.6v25.7Z" class="g0_13"/>
<path fill-rule="evenodd" d="M89.3,937.9h1.5v-1.5H89.3v1.5Z" class="g0_13"/>
<path fill-rule="evenodd" d="M90.8,937.9H319.4v-1.5H90.8v1.5Z" class="g0_13"/>
<path fill-rule="evenodd" d="M319.4,937.9H321v-1.5h-1.6v1.5Z" class="g0_13"/>
<path fill-rule="evenodd" d="M321,937.9H839.9v-1.5H321v1.5Z" class="g0_13"/>
<path fill-rule="evenodd" d="M839.9,937.9h1.6v-1.5h-1.6v1.5Z" class="g0_13"/>
<path fill-rule="evenodd" d="M89.3,963.6h1.5V937.9H89.3v25.7Z" class="g0_13"/>
<path fill-rule="evenodd" d="M319.4,963.6H321V937.9h-1.6v25.7Z" class="g0_13"/>
<path fill-rule="evenodd" d="M839.9,963.6h1.6V937.9h-1.6v25.7Z" class="g0_13"/>
<path fill-rule="evenodd" d="M89.3,965.2h1.5v-1.6H89.3v1.6Z" class="g0_13"/>
<path fill-rule="evenodd" d="M90.8,965.2H319.4v-1.6H90.8v1.6Z" class="g0_13"/>
<path fill-rule="evenodd" d="M319.4,965.2H321v-1.6h-1.6v1.6Z" class="g0_13"/>
<path fill-rule="evenodd" d="M321,965.2H839.9v-1.6H321v1.6Z" class="g0_13"/>
<path fill-rule="evenodd" d="M839.9,965.2h1.6v-1.6h-1.6v1.6Z" class="g0_13"/>
<path fill-rule="evenodd" d="M89.3,990.8h1.5V965.2H89.3v25.6Z" class="g0_13"/>
<path fill-rule="evenodd" d="M89.3,992.4h1.5v-1.6H89.3v1.6Z" class="g0_13"/>
<path fill-rule="evenodd" d="M89.3,992.4h1.5v-1.6H89.3v1.6Z" class="g0_13"/>
<path fill-rule="evenodd" d="M90.8,992.4H319.4v-1.6H90.8v1.6Z" class="g0_13"/>
<path fill-rule="evenodd" d="M319.4,990.8H321V965.2h-1.6v25.6Z" class="g0_13"/>
<path fill-rule="evenodd" d="M319.4,992.4H321v-1.6h-1.6v1.6Z" class="g0_13"/>
<path fill-rule="evenodd" d="M321,992.4H839.9v-1.6H321v1.6Z" class="g0_13"/>
<path fill-rule="evenodd" d="M839.9,990.8h1.6V965.2h-1.6v25.6Z" class="g0_13"/>
<path fill-rule="evenodd" d="M839.9,992.4h1.6v-1.6h-1.6v1.6Z" class="g0_13"/>
<path fill-rule="evenodd" d="M839.9,992.4h1.6v-1.6h-1.6v1.6Z" class="g0_13"/>
</svg>